<svg xmlns="http://www.w3.org/2000/svg" viewBox="0 0 500 500"><g id="freepik--Floor--inject-41"><ellipse id="freepik--floor--inject-41" cx="250" cy="352.3" rx="239.66" ry="138.37" style="fill:#f5f5f5"></ellipse></g><g id="freepik--Clouds--inject-41"><path id="freepik--Cloud--inject-41" d="M57.27,69.87c0-3.13-3.44-5.31-7.33-5.68-4.58-.43-7.83,1.61-7.94,5.22-3-1.23-6.16-.44-5.92,2.86-.78-.9-3.7-.88-4.75-.62a4.08,4.08,0,0,0-2.61,2.22,3,3,0,0,0-.27,1.69c-1.75-.58-5.72-.93-6.72.68C20,79.09,27,79.18,28.46,78.32c.3,2.22,7.9,2.58,9.73.53,1.44,1.45,3.5,1.77,5.73,1.9,3.76.23,6.07-1,9-2.54,3.18,2.7,8.7,2.75,11.57-.34.73.69,2.75.9,4.37.52,1.06-.26,1.31-.71,1.31-.71a9.31,9.31,0,0,0,2,.59c2.08.43,6,0,4.33-1.91A4.91,4.91,0,0,0,73,75.52c-.91-1.79-4.56-3.48-6.65-2-.08-2.17-2.06-3.86-4.85-4.29C60.58,69.11,58.33,69,57.27,69.87Z" style="fill:#f5f5f5"></path><path id="freepik--cloud--inject-41" d="M307.07,51.54c0-4.24-4.65-7.19-9.92-7.69-6.2-.58-10.6,2.18-10.74,7.07-4.06-1.67-8.33-.6-8,3.86-1.06-1.22-5-1.18-6.42-.85a5.54,5.54,0,0,0-3.53,3,4.07,4.07,0,0,0-.37,2.29c-2.37-.78-7.74-1.25-9.09.92-2.39,3.86,7.17,4,9.1,2.81.41,3,10.68,3.5,13.17.73,1.95,2,4.74,2.39,7.75,2.57,5.09.3,8.2-1.42,12.17-3.45,4.31,3.66,11.77,3.72,15.66-.46,1,.94,3.72,1.23,5.91.7,1.43-.34,1.77-.95,1.77-.95a12.88,12.88,0,0,0,2.63.79c2.82.59,8.07,0,5.87-2.57-.75-.86-3.5-1.41-4.66-1.15-1.23-2.41-6.16-4.71-9-2.66-.11-2.93-2.79-5.22-6.55-5.81C311.54,50.51,308.51,50.34,307.07,51.54Z" style="fill:#f5f5f5"></path><path id="freepik--cloud--inject-41" d="M159.89,43.7a8.9,8.9,0,0,0-2.87-.53c-.94-.07-1.23-.25-1.41-.46a6.86,6.86,0,0,0-8.24-2.43,5.28,5.28,0,0,0-6.22-3.52c.1-2.89-3.6-6-6.92-6.72s-6-.39-7.79,1.71c-2-3.81-9.58-4.88-13.71-2.87-2.38,1.16-4.39,2.35-5.38,4.53a9,9,0,0,0-.89,4.32c-1.61-1.42-4.84-1.8-7-1-2.31.9-2.49,2.65-2.6,4.42a8.1,8.1,0,0,0-4.23-.07c-1.46.43-2.3,1.58-2.1,2.5-1.15-.06-3.91.87-3.59,2.09s3.5,1.23,4.67,1.19a20.89,20.89,0,0,0,3.29-.51,5.37,5.37,0,0,0,1.71.32c2,0,2.85-.87,3.17-1.62,1,2.06,4.46,3.63,6.91,4.26,4.63,1.18,11.18.46,14-3A5.22,5.22,0,0,0,122.11,48a8,8,0,0,0,4.28,1.73c1.9.18,7,.43,8.44-2.6,1,2,5.56,2.93,9,2.44a14.15,14.15,0,0,0,3.87-1.17,22.46,22.46,0,0,0,2.22-1.33,1.84,1.84,0,0,1,1.9-.13,11.34,11.34,0,0,0,7.54,0C161.3,46.14,161.7,44.52,159.89,43.7Z" style="fill:#ebebeb"></path></g><g id="freepik--Shadows--inject-41"><ellipse id="freepik--Shadow--inject-41" cx="292.02" cy="245.62" rx="30.57" ry="17.65" style="fill:#e0e0e0"></ellipse><path id="freepik--shadow--inject-41" d="M62.8,339.71c23,11.85,30.44,36.74,60.33,37.81,10.39.91,25.78-4.27,18.5-15.56-14.48-16.84-38.85-17-56.11-30.81-6.27-4.7-12-11.95-18.68-16.09-7.19-4.08-15.32-7.15-23.68-5.22a6.77,6.77,0,0,0-6,6.37C36.26,326.85,54.73,334.93,62.8,339.71Z" style="fill:#e0e0e0"></path><polygon id="freepik--shadow--inject-41" points="79.39 468.13 379.98 294.58 331.24 266.44 30.65 439.99 79.39 468.13" style="fill:#e0e0e0"></polygon><path id="freepik--shadow--inject-41" d="M449.35,319.61c18.45,10.65,18.45,27.93,0,38.58s-48.38,10.66-66.83,0-18.46-27.93,0-38.58S430.89,309,449.35,319.61Z" style="fill:#e0e0e0"></path><path id="freepik--shadow--inject-41" d="M338.12,455.65a5.92,5.92,0,0,1-5.73-4.75l-1-5.11a65.17,65.17,0,0,1-6.51-1.62l-9.93,4.6a6.71,6.71,0,0,1-2.81.6,6.88,6.88,0,0,1-3.4-.88l-10.17-5.87a5,5,0,0,1-.43-8.59l5.33-3.84q-.37-.54-.72-1.11l-12.42-.78a5.67,5.67,0,0,1-5.3-5.65v-7.56a5.67,5.67,0,0,1,5.3-5.64l12.42-.78c.23-.38.47-.75.72-1.12l-5.33-3.83a5.05,5.05,0,0,1,.43-8.6l10.17-5.87a6.85,6.85,0,0,1,3.4-.87,6.71,6.71,0,0,1,2.81.6l9.93,4.6a65.17,65.17,0,0,1,6.51-1.62l1-5.11a5.92,5.92,0,0,1,5.73-4.75h15a5.91,5.91,0,0,1,5.73,4.75l1,5.11a65.17,65.17,0,0,1,6.51,1.62l9.93-4.6a6.71,6.71,0,0,1,2.81-.6,6.85,6.85,0,0,1,3.4.87l10.17,5.87a5.05,5.05,0,0,1,.43,8.6l-5.33,3.83c.25.37.49.74.72,1.12l12.42.78a5.66,5.66,0,0,1,5.3,5.64v7.56a5.66,5.66,0,0,1-5.29,5.65l-12.43.78q-.35.57-.72,1.11L393,434a5,5,0,0,1-.43,8.59l-10.17,5.87a6.88,6.88,0,0,1-3.4.88h0a6.63,6.63,0,0,1-2.8-.6l-9.94-4.6a64.5,64.5,0,0,1-6.51,1.62l-1,5.11a5.92,5.92,0,0,1-5.73,4.75Zm7.48-46.5c-5.66,0-11.14,1.28-15,3.53-3.16,1.82-5,4.08-5,6.19s1.81,4.38,5,6.2a33.76,33.76,0,0,0,30.06,0c3.16-1.82,5-4.08,5-6.2s-1.81-4.37-5-6.19C356.74,410.43,351.27,409.15,345.6,409.15Z" style="fill:#e0e0e0"></path><path id="freepik--shadow--inject-41" d="M237.15,467.07a4.58,4.58,0,0,1-.64,0l-9-.94a5.95,5.95,0,0,1-5.3-6.65l.16-1.39c-.76-.28-1.5-.57-2.22-.88,0,0,0,0,0,0H220l-6.84,2.14a6.76,6.76,0,0,1-2.08.31,7.58,7.58,0,0,1-4.8-1.67l-4.6-3.83a5.34,5.34,0,0,1,1-9l1.56-.78-4.22-.72a5.76,5.76,0,0,1-4.55-7.44l1.25-4a6.62,6.62,0,0,1,6.2-4.55l7.66.31-1-1.05a5.39,5.39,0,0,1,2-8.85l7.2-2.88a7.23,7.23,0,0,1,2.69-.5,7.7,7.7,0,0,1,4.19,1.2l4.67,3.1h0c1.35-.23,2.73-.41,4.1-.53l1.4-2.72a6.93,6.93,0,0,1,6-3.65l.66,0,9,.94a6,6,0,0,1,5.3,6.65l-.17,1.39c.77.28,1.51.58,2.24.89,0,0,0,0,0,0h.1l6.84-2.15a7,7,0,0,1,2.07-.3,7.58,7.58,0,0,1,4.81,1.66l4.6,3.83a5.35,5.35,0,0,1-1,9.05l-1.56.78,4.23.72a5.76,5.76,0,0,1,4.55,7.44l-1.25,4a6.64,6.64,0,0,1-6.2,4.54l-7.66-.3,1,1.05a5.39,5.39,0,0,1-2,8.84L260.28,464a7.14,7.14,0,0,1-2.68.5,7.65,7.65,0,0,1-4.19-1.2l-4.68-3.11h0c-1.33.23-2.71.41-4.1.54l-1.39,2.71A6.92,6.92,0,0,1,237.15,467.07ZM239.53,434a22.29,22.29,0,0,0-8.16,1.45c-3.16,1.27-4.47,2.88-4.63,3.88s.86,2,1.48,2.5c2.41,2,6.76,3.26,11.34,3.26a22.13,22.13,0,0,0,8.17-1.46c3.16-1.27,4.47-2.88,4.62-3.88s-.85-2-1.47-2.5C248.47,435.26,244.12,434,239.53,434Z" style="fill:#e0e0e0"></path></g><g id="freepik--Gears--inject-41"><g id="freepik--Gear--inject-41"><path d="M390.45,390l-10.17-5.87a2.72,2.72,0,0,0-2.25-.1l-10.31,4.77a3.78,3.78,0,0,1-2.35.15,60.75,60.75,0,0,0-8-1.91,1.94,1.94,0,0,1-1.49-1.44l-1.29-6.8a1.58,1.58,0,0,0-1.5-1.24h-15a1.58,1.58,0,0,0-1.5,1.24l-1.29,6.8a1.94,1.94,0,0,1-1.49,1.44,60.22,60.22,0,0,0-8,1.91,3.81,3.81,0,0,1-2.36-.15l-10.31-4.77a2.72,2.72,0,0,0-2.25.1L300.75,390a.83.83,0,0,0-.48.69h0l0,8.82h0a.86.86,0,0,0,.4.68l4.68,3.37a2.31,2.31,0,0,1-1.15.48l-13.55.86a1.36,1.36,0,0,0-1.27,1.35v5.77l0,10.6A1.36,1.36,0,0,0,290.6,424l13.56.86a2.19,2.19,0,0,1,1.17.5l-4.65,3.34a.86.86,0,0,0-.4.68h0l0,8.83h0a.85.85,0,0,0,.47.7l10.17,5.87a2.76,2.76,0,0,0,2.25.1l10.31-4.78a3.81,3.81,0,0,1,2.36-.14,60.58,60.58,0,0,0,8,1.9,2,2,0,0,1,1.49,1.45l1.29,6.79a1.6,1.6,0,0,0,1.51,1.25h14.95a1.6,1.6,0,0,0,1.51-1.25l1.29-6.79a2,2,0,0,1,1.49-1.45,60.58,60.58,0,0,0,8-1.9,3.81,3.81,0,0,1,2.36.14L378,444.87a2.76,2.76,0,0,0,2.25-.1l10.17-5.87a.84.84,0,0,0,.47-.68h0l0-8.84h0a.86.86,0,0,0-.4-.68l-4.68-3.36a2.21,2.21,0,0,1,1.16-.48l13.55-.86a1.37,1.37,0,0,0,1.27-1.35v-8.78s0,0,0,0v-7.57a1.36,1.36,0,0,0-1.27-1.34L387,404.07a2.36,2.36,0,0,1-1.18-.5l4.66-3.35a.83.83,0,0,0,.4-.67h0l0-8.83h0A.83.83,0,0,0,390.45,390ZM321.8,412.87c.73-2.43,2.9-4.82,6.62-7,9.49-5.48,24.87-5.48,34.36,0,3.48,2,5.75,4.22,6.77,6.48-.81,2.78-3.06,5.44-6.77,7.58-9.49,5.48-24.87,5.48-34.36,0C324.92,418,322.72,415.48,321.8,412.87Z" style="fill:#0FBCF9"></path><path d="M390.45,390l-10.17-5.87a2.72,2.72,0,0,0-2.25-.1l-10.31,4.77a3.78,3.78,0,0,1-2.35.15,60.75,60.75,0,0,0-8-1.91,1.94,1.94,0,0,1-1.49-1.44l-1.29-6.8a1.58,1.58,0,0,0-1.5-1.24h-15a1.58,1.58,0,0,0-1.5,1.24l-1.29,6.8a1.94,1.94,0,0,1-1.49,1.44,60.22,60.22,0,0,0-8,1.91,3.81,3.81,0,0,1-2.36-.15l-10.31-4.77a2.72,2.72,0,0,0-2.25.1L300.75,390a.83.83,0,0,0-.48.69h0l0,8.82h0a.86.86,0,0,0,.4.68l4.68,3.37a2.31,2.31,0,0,1-1.15.48l-13.55.86a1.36,1.36,0,0,0-1.27,1.35v5.77l0,10.6A1.36,1.36,0,0,0,290.6,424l13.56.86a2.19,2.19,0,0,1,1.17.5l-4.65,3.34a.86.86,0,0,0-.4.68h0l0,8.83h0a.85.85,0,0,0,.47.7l10.17,5.87a2.76,2.76,0,0,0,2.25.1l10.31-4.78a3.81,3.81,0,0,1,2.36-.14,60.58,60.58,0,0,0,8,1.9,2,2,0,0,1,1.49,1.45l1.29,6.79a1.6,1.6,0,0,0,1.51,1.25h14.95a1.6,1.6,0,0,0,1.51-1.25l1.29-6.79a2,2,0,0,1,1.49-1.45,60.58,60.58,0,0,0,8-1.9,3.81,3.81,0,0,1,2.36.14L378,444.87a2.76,2.76,0,0,0,2.25-.1l10.17-5.87a.84.84,0,0,0,.47-.68h0l0-8.84h0a.86.86,0,0,0-.4-.68l-4.68-3.36a2.21,2.21,0,0,1,1.16-.48l13.55-.86a1.37,1.37,0,0,0,1.27-1.35v-8.78s0,0,0,0v-7.57a1.36,1.36,0,0,0-1.27-1.34L387,404.07a2.36,2.36,0,0,1-1.18-.5l4.66-3.35a.83.83,0,0,0,.4-.67h0l0-8.83h0A.83.83,0,0,0,390.45,390ZM321.8,412.87c.73-2.43,2.9-4.82,6.62-7,9.49-5.48,24.87-5.48,34.36,0,3.48,2,5.75,4.22,6.77,6.48-.81,2.78-3.06,5.44-6.77,7.58-9.49,5.48-24.87,5.48-34.36,0C324.92,418,322.72,415.48,321.8,412.87Z" style="fill:#fff;opacity:0.2"></path><path d="M306,417.26a2.52,2.52,0,0,0-1.83-1.22l-13.56-.85a1.37,1.37,0,0,1-1.26-1.35v-1.79l0,10.6A1.39,1.39,0,0,0,290.6,424l13.56.86a2.2,2.2,0,0,1,1.19.49l3.39-2.45a1.07,1.07,0,0,0,.15-1.65A20.35,20.35,0,0,1,306,417.26Zm-5.77-17.72h0a.83.83,0,0,0,.4.68l4.68,3.38a2.26,2.26,0,0,0,.67-.75,20.53,20.53,0,0,1,2.89-4,1.08,1.08,0,0,0-.15-1.66l-8.07-5.79a1,1,0,0,1-.4-.59Z" style="opacity:0.1"></path><path d="M362.78,400.14c-9.49-5.48-24.87-5.49-34.36,0-6,3.47-8.21,8.29-6.62,12.75.71-2.43,2.9-4.82,6.62-7,9.49-5.48,24.87-5.48,34.36,0,3.47,2,5.75,4.21,6.78,6.48C370.82,408.07,368.55,403.47,362.78,400.14Z" style="opacity:0.1"></path><path d="M401.83,414a1.4,1.4,0,0,1-1.25,1.18L387,416a2,2,0,0,0-.69.18v8.83a1.89,1.89,0,0,1,.66-.19l13.56-.86a1.38,1.38,0,0,0,1.27-1.34Zm-10.9-23.29h0a.52.52,0,0,1-.05.27.54.54,0,0,1-.16.27,1,1,0,0,1-.19.16l-8.06,5.79a1.09,1.09,0,0,0-.19.18,1.05,1.05,0,0,0-.26.5,1.29,1.29,0,0,0,0,.34c0,.06,0,.12,0,.17a1.31,1.31,0,0,0,.27.47,1.19,1.19,0,0,1,.15.18,20.07,20.07,0,0,1,2.73,3.81,2.9,2.9,0,0,0,.64.73l4.67-3.35a.9.9,0,0,0,.4-.68h0Zm0,38.74a.88.88,0,0,1-.48.62L380.28,436a2.75,2.75,0,0,1-1.58.28V445a2.64,2.64,0,0,0,1.57-.26l10.17-5.88a.78.78,0,0,0,.47-.66ZM324.49,431a3.32,3.32,0,0,0-1,.24l-10.3,4.78a2.26,2.26,0,0,1-.92.2l0,8.8a2.69,2.69,0,0,0,.92-.18l10.3-4.78a3.47,3.47,0,0,1,1-.24Zm29.84,10.82a1.54,1.54,0,0,1-1.25.67h-15a1.58,1.58,0,0,1-.91-.33V451a1.48,1.48,0,0,0,.9.32h14.95a1.6,1.6,0,0,0,1.31-.75Z" style="fill:#0FBCF9"></path><path d="M401.83,414a1.4,1.4,0,0,1-1.25,1.18L387,416a2,2,0,0,0-.69.18v8.83a1.89,1.89,0,0,1,.66-.19l13.56-.86a1.38,1.38,0,0,0,1.27-1.34Zm-10.9-23.29h0a.52.52,0,0,1-.05.27.54.54,0,0,1-.16.27,1,1,0,0,1-.19.16l-8.06,5.79a1.09,1.09,0,0,0-.19.18,1.05,1.05,0,0,0-.26.5,1.29,1.29,0,0,0,0,.34c0,.06,0,.12,0,.17a1.31,1.31,0,0,0,.27.47,1.19,1.19,0,0,1,.15.18,20.07,20.07,0,0,1,2.73,3.81,2.9,2.9,0,0,0,.64.73l4.67-3.35a.9.9,0,0,0,.4-.68h0Zm0,38.74a.88.88,0,0,1-.48.62L380.28,436a2.75,2.75,0,0,1-1.58.28V445a2.64,2.64,0,0,0,1.57-.26l10.17-5.88a.78.78,0,0,0,.47-.66ZM324.49,431a3.32,3.32,0,0,0-1,.24l-10.3,4.78a2.26,2.26,0,0,1-.92.2l0,8.8a2.69,2.69,0,0,0,.92-.18l10.3-4.78a3.47,3.47,0,0,1,1-.24Zm29.84,10.82a1.54,1.54,0,0,1-1.25.67h-15a1.58,1.58,0,0,1-.91-.33V451a1.48,1.48,0,0,0,.9.32h14.95a1.6,1.6,0,0,0,1.31-.75Z" style="fill:#fff;opacity:0.7000000000000001"></path><path d="M378,384.06l-10.31,4.77a3.78,3.78,0,0,1-2.35.15,60.75,60.75,0,0,0-8-1.91,1.94,1.94,0,0,1-1.49-1.44l-1.29-6.8a1.58,1.58,0,0,0-1.5-1.24h-15a1.58,1.58,0,0,0-1.5,1.24l-1.29,6.8a1.94,1.94,0,0,1-1.49,1.44,60.22,60.22,0,0,0-8,1.91,3.81,3.81,0,0,1-2.36-.15l-10.31-4.77a2.72,2.72,0,0,0-2.25.1L300.75,390a.76.76,0,0,0-.07,1.38l8.06,5.8a1.07,1.07,0,0,1,.15,1.65,20.06,20.06,0,0,0-2.88,4,2.5,2.5,0,0,1-1.83,1.22l-13.55.86a1.36,1.36,0,0,0-1.27,1.35v7.56a1.36,1.36,0,0,0,1.27,1.34l13.55.86a2.52,2.52,0,0,1,1.83,1.22,20.06,20.06,0,0,0,2.88,4,1.07,1.07,0,0,1-.15,1.65l-8.06,5.8a.76.76,0,0,0,.07,1.38L310.92,436a2.72,2.72,0,0,0,2.25.1l10.31-4.77a3.78,3.78,0,0,1,2.35-.15,60.75,60.75,0,0,0,8,1.91,2,2,0,0,1,1.49,1.45l1.29,6.79a1.59,1.59,0,0,0,1.5,1.25h15a1.59,1.59,0,0,0,1.5-1.25l1.29-6.79a2,2,0,0,1,1.49-1.45,61.81,61.81,0,0,0,8-1.9,3.74,3.74,0,0,1,2.36.14L378,436.05a2.72,2.72,0,0,0,2.25-.1l10.17-5.87a.76.76,0,0,0,.07-1.38l-8.06-5.8a1.07,1.07,0,0,1-.15-1.65,20.06,20.06,0,0,0,2.88-4A2.5,2.5,0,0,1,387,416l13.55-.86a1.36,1.36,0,0,0,1.27-1.34v-7.57a1.36,1.36,0,0,0-1.27-1.34L387,404.07a2.5,2.5,0,0,1-1.83-1.22,20.35,20.35,0,0,0-2.88-4,1.07,1.07,0,0,1,.15-1.65l8.06-5.8a.76.76,0,0,0-.07-1.38l-10.17-5.87A2.72,2.72,0,0,0,378,384.06Zm-15.25,16.08c9.49,5.47,9.49,14.36,0,19.83s-24.87,5.48-34.36,0-9.49-14.37,0-19.84S353.29,394.66,362.78,400.14Z" style="fill:#0FBCF9"></path><g style="opacity:0.55"><path d="M378,384.06l-10.31,4.77a3.78,3.78,0,0,1-2.35.15,60.75,60.75,0,0,0-8-1.91,1.94,1.94,0,0,1-1.49-1.44l-1.29-6.8a1.58,1.58,0,0,0-1.5-1.24h-15a1.58,1.58,0,0,0-1.5,1.24l-1.29,6.8a1.94,1.94,0,0,1-1.49,1.44,60.22,60.22,0,0,0-8,1.91,3.81,3.81,0,0,1-2.36-.15l-10.31-4.77a2.72,2.72,0,0,0-2.25.1L300.75,390a.76.76,0,0,0-.07,1.38l8.06,5.8a1.07,1.07,0,0,1,.15,1.65,20.06,20.06,0,0,0-2.88,4,2.5,2.5,0,0,1-1.83,1.22l-13.55.86a1.36,1.36,0,0,0-1.27,1.35v7.56a1.36,1.36,0,0,0,1.27,1.34l13.55.86a2.52,2.52,0,0,1,1.83,1.22,20.06,20.06,0,0,0,2.88,4,1.07,1.07,0,0,1-.15,1.65l-8.06,5.8a.76.76,0,0,0,.07,1.38L310.92,436a2.72,2.72,0,0,0,2.25.1l10.31-4.77a3.78,3.78,0,0,1,2.35-.15,60.75,60.75,0,0,0,8,1.91,2,2,0,0,1,1.49,1.45l1.29,6.79a1.59,1.59,0,0,0,1.5,1.25h15a1.59,1.59,0,0,0,1.5-1.25l1.29-6.79a2,2,0,0,1,1.49-1.45,61.81,61.81,0,0,0,8-1.9,3.74,3.74,0,0,1,2.36.14L378,436.05a2.72,2.72,0,0,0,2.25-.1l10.17-5.87a.76.76,0,0,0,.07-1.38l-8.06-5.8a1.07,1.07,0,0,1-.15-1.65,20.06,20.06,0,0,0,2.88-4A2.5,2.5,0,0,1,387,416l13.55-.86a1.36,1.36,0,0,0,1.27-1.34v-7.57a1.36,1.36,0,0,0-1.27-1.34L387,404.07a2.5,2.5,0,0,1-1.83-1.22,20.35,20.35,0,0,0-2.88-4,1.07,1.07,0,0,1,.15-1.65l8.06-5.8a.76.76,0,0,0-.07-1.38l-10.17-5.87A2.72,2.72,0,0,0,378,384.06Zm-15.25,16.08c9.49,5.47,9.49,14.36,0,19.83s-24.87,5.48-34.36,0-9.49-14.37,0-19.84S353.29,394.66,362.78,400.14Z" style="fill:#fff"></path><path d="M353.08,442.89h-15a2,2,0,0,1-1.86-1.54l-1.29-6.8a1.58,1.58,0,0,0-1.19-1.15,62.74,62.74,0,0,1-8-1.92,3.49,3.49,0,0,0-2.1.12l-10.31,4.78a3.1,3.1,0,0,1-2.58-.12l-10.17-5.87a1.21,1.21,0,0,1-.66-1,1.19,1.19,0,0,1,.56-1l8.06-5.8a.72.72,0,0,0,.31-.51.78.78,0,0,0-.22-.61,20.82,20.82,0,0,1-2.93-4.06,2.16,2.16,0,0,0-1.53-1l-13.56-.85a1.75,1.75,0,0,1-1.6-1.71v-7.56a1.75,1.75,0,0,1,1.6-1.72l13.56-.85a2.17,2.17,0,0,0,1.53-1,20.82,20.82,0,0,1,2.93-4.06.78.78,0,0,0,.22-.61.72.72,0,0,0-.31-.51l-8.06-5.8a1.19,1.19,0,0,1-.56-1,1.21,1.21,0,0,1,.66-1l10.17-5.87a3.1,3.1,0,0,1,2.58-.12l10.31,4.78a3.42,3.42,0,0,0,2.1.12,61.49,61.49,0,0,1,8-1.91,1.61,1.61,0,0,0,1.19-1.16l1.29-6.79a2,2,0,0,1,1.86-1.55h15a2,2,0,0,1,1.86,1.55l1.29,6.79a1.61,1.61,0,0,0,1.19,1.16,61.11,61.11,0,0,1,8.05,1.91,3.49,3.49,0,0,0,2.1-.12l10.31-4.78a3.1,3.1,0,0,1,2.58.12l10.17,5.87a1.21,1.21,0,0,1,.66,1,1.19,1.19,0,0,1-.56,1l-8.06,5.8a.72.72,0,0,0-.31.51.81.81,0,0,0,.22.61,20.82,20.82,0,0,1,2.93,4.06,2.16,2.16,0,0,0,1.53,1l13.56.85a1.75,1.75,0,0,1,1.6,1.71v7.57a1.75,1.75,0,0,1-1.6,1.71L387,416.4a2.16,2.16,0,0,0-1.53,1,20.82,20.82,0,0,1-2.93,4.06.78.78,0,0,0-.22.61.72.72,0,0,0,.31.51l8.06,5.8a1.19,1.19,0,0,1,.56,1,1.21,1.21,0,0,1-.66,1l-10.17,5.87a3.1,3.1,0,0,1-2.58.12l-10.31-4.78a3.49,3.49,0,0,0-2.1-.12,61.49,61.49,0,0,1-8.05,1.92,1.58,1.58,0,0,0-1.19,1.15l-1.29,6.8A2,2,0,0,1,353.08,442.89Zm-28.19-12.24a3.42,3.42,0,0,1,1.05.14,61.74,61.74,0,0,0,8,1.89,2.3,2.3,0,0,1,1.78,1.74l1.29,6.79a1.23,1.23,0,0,0,1.15,1h15a1.23,1.23,0,0,0,1.15-1l1.29-6.79a2.3,2.3,0,0,1,1.78-1.74,62.14,62.14,0,0,0,8-1.89,4.12,4.12,0,0,1,2.62.16l10.3,4.77a2.38,2.38,0,0,0,1.92-.08l10.17-5.87a.54.54,0,0,0,.3-.37.52.52,0,0,0-.26-.4l-8.06-5.8a1.46,1.46,0,0,1-.61-1A1.47,1.47,0,0,1,382,421a19.59,19.59,0,0,0,2.83-3.92,2.85,2.85,0,0,1,2.13-1.41l13.55-.86a1,1,0,0,0,.93-1v-7.57a1,1,0,0,0-.93-1L387,404.43a2.85,2.85,0,0,1-2.13-1.41A20,20,0,0,0,382,399.1a1.44,1.44,0,0,1,.21-2.19l8.06-5.8a.52.52,0,0,0,.26-.39.54.54,0,0,0-.3-.38l-10.17-5.87a2.38,2.38,0,0,0-1.92-.08l-10.3,4.77a4.12,4.12,0,0,1-2.62.16,61.74,61.74,0,0,0-8-1.89,2.3,2.3,0,0,1-1.78-1.74l-1.29-6.79a1.23,1.23,0,0,0-1.15-.95h-15a1.23,1.23,0,0,0-1.15.95l-1.29,6.79a2.3,2.3,0,0,1-1.78,1.74,61.74,61.74,0,0,0-8,1.89,4.09,4.09,0,0,1-2.61-.16L313,384.39a2.38,2.38,0,0,0-1.92.08l-10.17,5.87a.54.54,0,0,0-.3.37.52.52,0,0,0,.26.4l8.06,5.8a1.46,1.46,0,0,1,.61,1,1.47,1.47,0,0,1-.4,1.16,19.59,19.59,0,0,0-2.83,3.92,2.85,2.85,0,0,1-2.13,1.41l-13.55.86a1,1,0,0,0-.93,1v7.56a1,1,0,0,0,.93,1l13.55.86a2.85,2.85,0,0,1,2.13,1.41,19.59,19.59,0,0,0,2.83,3.92,1.47,1.47,0,0,1,.4,1.16,1.46,1.46,0,0,1-.61,1l-8.06,5.8a.52.52,0,0,0-.26.4.54.54,0,0,0,.3.37l10.17,5.87a2.38,2.38,0,0,0,1.92.08l10.3-4.77A3.89,3.89,0,0,1,324.89,430.65Zm20.71-6.22c-6.29,0-12.58-1.38-17.36-4.14s-7.3-6.35-7.3-10.23,2.59-7.52,7.3-10.24c9.57-5.52,25.15-5.52,34.72,0h0c4.71,2.72,7.3,6.35,7.3,10.23s-2.59,7.52-7.3,10.24S351.89,424.43,345.6,424.43Zm0-28c-6.16,0-12.31,1.35-17,4.06-4.47,2.58-6.93,6-6.93,9.61s2.46,7,6.93,9.6c9.37,5.41,24.63,5.41,34,0,4.47-2.58,6.94-6,6.94-9.61s-2.47-7-6.94-9.6h0C357.91,397.74,351.76,396.39,345.6,396.39Z" style="fill:#fff"></path></g></g><g id="freepik--gear--inject-41"><path d="M253.48,417.08a2,2,0,0,1-1.35-2l.41-3.42a1.57,1.57,0,0,0-1.4-1.76l-9-.94a2.53,2.53,0,0,0-2.33,1.26l-1.79,3.5a3.19,3.19,0,0,1-2.33,1.52,45.46,45.46,0,0,0-4.67.58,4.62,4.62,0,0,1-2.91-.59L223.27,412a3.44,3.44,0,0,0-2.82-.29l-7.21,2.89a1,1,0,0,0-.74.92h0v.08h0V423h0a1.16,1.16,0,0,0,.36.81l.42.44a3.8,3.8,0,0,1-2,.62l-8.23-.33A2.2,2.2,0,0,0,201,426l-1.25,4a1.67,1.67,0,0,0-.05.49h0v7.43h0a1.35,1.35,0,0,0,1.16,1.3l6.38,1.09-2.48,1.25a1,1,0,0,0-.65.9h0v7.44h0a1.08,1.08,0,0,0,.44.82l4.6,3.83a3.28,3.28,0,0,0,2.76.54l7-2.19a4.9,4.9,0,0,1,3,.19,36.37,36.37,0,0,0,3.76,1.38,2,2,0,0,1,.92.66v5h0a1.57,1.57,0,0,0,1.4,1.54l9,.94a2.52,2.52,0,0,0,2.32-1.26l1.8-3.5a3.17,3.17,0,0,1,2.33-1.52c1.57-.12,3.13-.31,4.66-.58a4.6,4.6,0,0,1,2.91.59l4.85,3.21a3.45,3.45,0,0,0,2.82.3l7.21-2.89a1,1,0,0,0,.74-1h0v-7.42h0a1.17,1.17,0,0,0-.35-.8l-.42-.45a3.78,3.78,0,0,1,2-.61l8.24.33a2.21,2.21,0,0,0,2.08-1.46l1.24-4a1.51,1.51,0,0,0,.07-.46h0v-7.4l0,0a1.33,1.33,0,0,0-1.14-1.38l-6.38-1.09,2.48-1.25a1,1,0,0,0,.65-.92h0v-7.4h0a1.06,1.06,0,0,0-.45-.86L270,417a3.27,3.27,0,0,0-2.76-.54l-7,2.19a4.91,4.91,0,0,1-3-.19A37.73,37.73,0,0,0,253.48,417.08Zm-29.89,18.66a13.39,13.39,0,0,1,6.15-4.45c7.81-3.13,18.53-2,23.95,2.5a10.21,10.21,0,0,1,1.83,1.94,13.32,13.32,0,0,1-6.16,4.47c-7.81,3.13-18.54,2-24-2.5A9.72,9.72,0,0,1,223.59,435.74Z" style="fill:#0FBCF9"></path><path d="M253.48,417.08a2,2,0,0,1-1.35-2l.41-3.42a1.57,1.57,0,0,0-1.4-1.76l-9-.94a2.53,2.53,0,0,0-2.33,1.26l-1.79,3.5a3.19,3.19,0,0,1-2.33,1.52,45.46,45.46,0,0,0-4.67.58,4.62,4.62,0,0,1-2.91-.59L223.27,412a3.44,3.44,0,0,0-2.82-.29l-7.21,2.89a1,1,0,0,0-.74.92h0v.08h0V423h0a1.16,1.16,0,0,0,.36.81l.42.44a3.8,3.8,0,0,1-2,.62l-8.23-.33A2.2,2.2,0,0,0,201,426l-1.25,4a1.67,1.67,0,0,0-.05.49h0v7.43h0a1.35,1.35,0,0,0,1.16,1.3l6.38,1.09-2.48,1.25a1,1,0,0,0-.65.9h0v7.44h0a1.08,1.08,0,0,0,.44.82l4.6,3.83a3.28,3.28,0,0,0,2.76.54l7-2.19a4.9,4.9,0,0,1,3,.19,36.37,36.37,0,0,0,3.76,1.38,2,2,0,0,1,.92.66v5h0a1.57,1.57,0,0,0,1.4,1.54l9,.94a2.52,2.52,0,0,0,2.32-1.26l1.8-3.5a3.17,3.17,0,0,1,2.33-1.52c1.57-.12,3.13-.31,4.66-.58a4.6,4.6,0,0,1,2.91.59l4.85,3.21a3.45,3.45,0,0,0,2.82.3l7.21-2.89a1,1,0,0,0,.74-1h0v-7.42h0a1.17,1.17,0,0,0-.35-.8l-.42-.45a3.78,3.78,0,0,1,2-.61l8.24.33a2.21,2.21,0,0,0,2.08-1.46l1.24-4a1.51,1.51,0,0,0,.07-.46h0v-7.4l0,0a1.33,1.33,0,0,0-1.14-1.38l-6.38-1.09,2.48-1.25a1,1,0,0,0,.65-.92h0v-7.4h0a1.06,1.06,0,0,0-.45-.86L270,417a3.27,3.27,0,0,0-2.76-.54l-7,2.19a4.91,4.91,0,0,1-3-.19A37.73,37.73,0,0,0,253.48,417.08Zm-29.89,18.66a13.39,13.39,0,0,1,6.15-4.45c7.81-3.13,18.53-2,23.95,2.5a10.21,10.21,0,0,1,1.83,1.94,13.32,13.32,0,0,1-6.16,4.47c-7.81,3.13-18.54,2-24-2.5A9.72,9.72,0,0,1,223.59,435.74Z" style="fill:#fff;opacity:0.2"></path><path d="M210.57,434.9a2.71,2.71,0,0,0-1.91-1.83l-7.84-1.34a1.35,1.35,0,0,1-1.16-1.22v7.35a1.35,1.35,0,0,0,1.16,1.29l6.38,1.09,3.3-1.65a1.57,1.57,0,0,0,.65-2.13A10.13,10.13,0,0,1,210.57,434.9Zm1.91-12h0a1.17,1.17,0,0,0,.34.81l.43.45a3.38,3.38,0,0,0,.68-.52,17,17,0,0,1,2-1.76,1.39,1.39,0,0,0,.2-2.11l-3.27-3.47a1.18,1.18,0,0,1-.36-.8Z" style="opacity:0.1"></path><path d="M229.74,423.87c-6.74,2.7-9.11,7.67-6.14,11.88a13.24,13.24,0,0,1,6.14-4.46c7.81-3.13,18.53-2,23.95,2.5a9.56,9.56,0,0,1,1.82,1.94c2.09-3,1.61-6.51-1.81-9.36C248.27,421.86,237.55,420.75,229.74,423.87Z" style="opacity:0.1"></path><path d="M241.83,449.52a2.58,2.58,0,0,0-.74.86l-1.81,3.5A2.43,2.43,0,0,1,238,455v7.42a2.46,2.46,0,0,0,1.33-1.11l1.8-3.5a2.68,2.68,0,0,1,.77-.85Zm24.78-1h0a1,1,0,0,1-.75,1l-7.19,2.89a3.26,3.26,0,0,1-1.89.07v7.42a3.43,3.43,0,0,0,1.89-.07l7.21-2.89a1,1,0,0,0,.74-1Zm-47.82-3.1-6.91,2.17a3,3,0,0,1-1.74,0V455a3.05,3.05,0,0,0,1.74,0l6.93-2.17Zm60.66-11.73a2.41,2.41,0,0,1-.08.44l-1.24,4a2.18,2.18,0,0,1-2.08,1.46l-8.23-.33a3.2,3.2,0,0,0-1.28.27v7.41a3.41,3.41,0,0,1,1.29-.26l8.23.33a2.23,2.23,0,0,0,2.08-1.46l1.24-4a1.26,1.26,0,0,0,.07-.46Zm-4.4-12a1.1,1.1,0,0,1-.06.26.81.81,0,0,1-.25.38,1.43,1.43,0,0,1-.36.25l-5.78,2.91a.93.93,0,0,0-.35.25,1.31,1.31,0,0,0-.39.6,1.39,1.39,0,0,0-.09.58l0,.29a2.7,2.7,0,0,0,.14.4,10.91,10.91,0,0,1,.59,1.55,2.7,2.7,0,0,0,1.91,1.85l1.45.24,2.49-1.24a1.06,1.06,0,0,0,.65-.92h0Z" style="fill:#0FBCF9"></path><path d="M241.83,449.52a2.58,2.58,0,0,0-.74.86l-1.81,3.5A2.43,2.43,0,0,1,238,455v7.42a2.46,2.46,0,0,0,1.33-1.11l1.8-3.5a2.68,2.68,0,0,1,.77-.85Zm24.78-1h0a1,1,0,0,1-.75,1l-7.19,2.89a3.26,3.26,0,0,1-1.89.07v7.42a3.43,3.43,0,0,0,1.89-.07l7.21-2.89a1,1,0,0,0,.74-1Zm-47.82-3.1-6.91,2.17a3,3,0,0,1-1.74,0V455a3.05,3.05,0,0,0,1.74,0l6.93-2.17Zm60.66-11.73a2.41,2.41,0,0,1-.08.44l-1.24,4a2.18,2.18,0,0,1-2.08,1.46l-8.23-.33a3.2,3.2,0,0,0-1.28.27v7.41a3.41,3.41,0,0,1,1.29-.26l8.23.33a2.23,2.23,0,0,0,2.08-1.46l1.24-4a1.26,1.26,0,0,0,.07-.46Zm-4.4-12a1.1,1.1,0,0,1-.06.26.81.81,0,0,1-.25.38,1.43,1.43,0,0,1-.36.25l-5.78,2.91a.93.93,0,0,0-.35.25,1.31,1.31,0,0,0-.39.6,1.39,1.39,0,0,0-.09.58l0,.29a2.7,2.7,0,0,0,.14.4,10.91,10.91,0,0,1,.59,1.55,2.7,2.7,0,0,0,1.91,1.85l1.45.24,2.49-1.24a1.06,1.06,0,0,0,.65-.92h0Z" style="fill:#fff;opacity:0.7000000000000001"></path><path d="M267.22,416.47l-7,2.19a4.91,4.91,0,0,1-3-.19,37.73,37.73,0,0,0-3.75-1.39,2,2,0,0,1-1.35-2l.41-3.42a1.57,1.57,0,0,0-1.4-1.76l-9-.94a2.53,2.53,0,0,0-2.33,1.26l-1.79,3.5a3.19,3.19,0,0,1-2.33,1.52,45.46,45.46,0,0,0-4.67.58,4.62,4.62,0,0,1-2.91-.59L223.27,412a3.44,3.44,0,0,0-2.82-.29l-7.21,2.89a1,1,0,0,0-.39,1.76l3.27,3.48a1.39,1.39,0,0,1-.2,2.11,17.83,17.83,0,0,0-2,1.76,4.06,4.06,0,0,1-2.67,1.13l-8.23-.33A2.2,2.2,0,0,0,201,426l-1.25,4a1.37,1.37,0,0,0,1.1,1.8l7.83,1.34a2.68,2.68,0,0,1,1.92,1.84,10.47,10.47,0,0,0,.59,1.55,1.58,1.58,0,0,1-.66,2.13l-5.78,2.9a1,1,0,0,0-.2,1.74l4.59,3.83a3.28,3.28,0,0,0,2.76.55l7-2.2a4.94,4.94,0,0,1,3,.19,37.73,37.73,0,0,0,3.75,1.39,2,2,0,0,1,1.35,2l-.41,3.42a1.57,1.57,0,0,0,1.4,1.76l9,.94a2.53,2.53,0,0,0,2.33-1.26l1.79-3.49a3.12,3.12,0,0,1,2.33-1.52c1.57-.12,3.13-.32,4.67-.58a4.51,4.51,0,0,1,2.9.58l4.85,3.22a3.41,3.41,0,0,0,2.82.29l7.21-2.89a1,1,0,0,0,.39-1.76L263,444.25a1.39,1.39,0,0,1,.2-2.11,19.92,19.92,0,0,0,2-1.75,4,4,0,0,1,2.67-1.14l8.23.33a2.2,2.2,0,0,0,2.08-1.46l1.25-4a1.37,1.37,0,0,0-1.1-1.8L270.44,431a2.68,2.68,0,0,1-1.91-1.84,10.47,10.47,0,0,0-.59-1.55,1.58,1.58,0,0,1,.66-2.13l5.78-2.9a1,1,0,0,0,.2-1.74L270,417A3.27,3.27,0,0,0,267.22,416.47Zm-13.53,9.9c5.42,4.51,3.48,10.7-4.33,13.83s-18.54,2-24-2.5-3.48-10.7,4.33-13.83S248.27,421.86,253.69,426.37Z" style="fill:#0FBCF9"></path><g style="opacity:0.55"><path d="M267.22,416.47l-7,2.19a4.91,4.91,0,0,1-3-.19,37.73,37.73,0,0,0-3.75-1.39,2,2,0,0,1-1.35-2l.41-3.42a1.57,1.57,0,0,0-1.4-1.76l-9-.94a2.53,2.53,0,0,0-2.33,1.26l-1.79,3.5a3.19,3.19,0,0,1-2.33,1.52,45.46,45.46,0,0,0-4.67.58,4.62,4.62,0,0,1-2.91-.59L223.27,412a3.44,3.44,0,0,0-2.82-.29l-7.21,2.89a1,1,0,0,0-.39,1.76l3.27,3.48a1.39,1.39,0,0,1-.2,2.11,17.83,17.83,0,0,0-2,1.76,4.06,4.06,0,0,1-2.67,1.13l-8.23-.33A2.2,2.2,0,0,0,201,426l-1.25,4a1.37,1.37,0,0,0,1.1,1.8l7.83,1.34a2.68,2.68,0,0,1,1.92,1.84,10.47,10.47,0,0,0,.59,1.55,1.58,1.58,0,0,1-.66,2.13l-5.78,2.9a1,1,0,0,0-.2,1.74l4.59,3.83a3.28,3.28,0,0,0,2.76.55l7-2.2a4.94,4.94,0,0,1,3,.19,37.73,37.73,0,0,0,3.75,1.39,2,2,0,0,1,1.35,2l-.41,3.42a1.57,1.57,0,0,0,1.4,1.76l9,.94a2.53,2.53,0,0,0,2.33-1.26l1.79-3.49a3.12,3.12,0,0,1,2.33-1.52c1.57-.12,3.13-.32,4.67-.58a4.51,4.51,0,0,1,2.9.58l4.85,3.22a3.41,3.41,0,0,0,2.82.29l7.21-2.89a1,1,0,0,0,.39-1.76L263,444.25a1.39,1.39,0,0,1,.2-2.11,19.92,19.92,0,0,0,2-1.75,4,4,0,0,1,2.67-1.14l8.23.33a2.2,2.2,0,0,0,2.08-1.46l1.25-4a1.37,1.37,0,0,0-1.1-1.8L270.44,431a2.68,2.68,0,0,1-1.91-1.84,10.47,10.47,0,0,0-.59-1.55,1.58,1.58,0,0,1,.66-2.13l5.78-2.9a1,1,0,0,0,.2-1.74L270,417A3.27,3.27,0,0,0,267.22,416.47Zm-13.53,9.9c5.42,4.51,3.48,10.7-4.33,13.83s-18.54,2-24-2.5-3.48-10.7,4.33-13.83S248.27,421.86,253.69,426.37Z" style="fill:#fff"></path><path d="M237.15,455.6l-.23,0-9-.94a2,2,0,0,1-1.37-.74,2,2,0,0,1-.43-1.51l.41-3.42a1.5,1.5,0,0,0-1-1.55,36.93,36.93,0,0,1-3.8-1.41,4.46,4.46,0,0,0-2.67-.17L212,448a3.69,3.69,0,0,1-3.18-.63l-4.6-3.82a1.53,1.53,0,0,1-.61-1.33,1.51,1.51,0,0,1,.9-1.16l5.78-2.9a1.12,1.12,0,0,0,.45-1.54,11,11,0,0,1-.61-1.62,2.26,2.26,0,0,0-1.56-1.52l-7.83-1.34a1.79,1.79,0,0,1-1.45-2.37l1.24-4a2.62,2.62,0,0,1,2.53-1.78l8.23.33a3.64,3.64,0,0,0,2.33-1,20.84,20.84,0,0,1,2-1.8,1,1,0,0,0,.42-.73.9.9,0,0,0-.27-.71l-3.27-3.48a1.47,1.47,0,0,1,.55-2.49l7.21-2.88a3.88,3.88,0,0,1,3.24.33l4.84,3.22a4.16,4.16,0,0,0,2.58.51c1.53-.26,3.12-.46,4.71-.58a2.73,2.73,0,0,0,2-1.28l1.79-3.49a3,3,0,0,1,2.77-1.5l9,.94a2,2,0,0,1,1.37.75,2,2,0,0,1,.43,1.5l-.42,3.42a1.53,1.53,0,0,0,1,1.56,36.07,36.07,0,0,1,3.8,1.4,4.55,4.55,0,0,0,2.67.18l7-2.2a3.7,3.7,0,0,1,3.18.63l4.6,3.83a1.41,1.41,0,0,1-.29,2.48l-5.78,2.91a1.11,1.11,0,0,0-.45,1.53A12.76,12.76,0,0,1,269,429a2.22,2.22,0,0,0,1.56,1.52l7.83,1.34a1.81,1.81,0,0,1,1.45,2.37l-1.25,4A2.64,2.64,0,0,1,276,440l-8.23-.33a3.54,3.54,0,0,0-2.33,1,20.84,20.84,0,0,1-2,1.8,1.06,1.06,0,0,0-.43.73.91.91,0,0,0,.28.71l3.27,3.48a1.46,1.46,0,0,1-.55,2.49l-7.21,2.88a3.84,3.84,0,0,1-3.24-.33l-4.84-3.22a4.19,4.19,0,0,0-2.59-.51c-1.53.26-3.11.46-4.7.58a2.73,2.73,0,0,0-2,1.28l-1.8,3.49A3,3,0,0,1,237.15,455.6ZM220,444.82a5.45,5.45,0,0,1,2,.37,36,36,0,0,0,3.71,1.37,2.4,2.4,0,0,1,1.66,2.52L227,452.5a1.12,1.12,0,0,0,1,1.25l9,.94a2.09,2.09,0,0,0,1.88-1l1.79-3.5a3.61,3.61,0,0,1,2.7-1.76c1.56-.12,3.12-.31,4.62-.57a5,5,0,0,1,3.23.65l4.85,3.21a3,3,0,0,0,2.41.25l7.2-2.88a.69.69,0,0,0,.46-.45.68.68,0,0,0-.23-.59l-3.27-3.48a1.82,1.82,0,0,1-.51-1.4,1.92,1.92,0,0,1,.76-1.37,18,18,0,0,0,1.93-1.72,4.48,4.48,0,0,1,3-1.26l8.24.33A1.75,1.75,0,0,0,277.7,438l1.25-4a.92.92,0,0,0-.75-1.23l-7.83-1.34a3.1,3.1,0,0,1-2.27-2.15,10.79,10.79,0,0,0-.56-1.49,2,2,0,0,1,.86-2.72l5.78-2.9a.65.65,0,0,0,.41-.46.63.63,0,0,0-.29-.53l-4.6-3.83a2.8,2.8,0,0,0-2.34-.47l-7,2.2a5.43,5.43,0,0,1-3.3-.21,34.39,34.39,0,0,0-3.71-1.37,2.39,2.39,0,0,1-1.65-2.51l.41-3.42a1.12,1.12,0,0,0-1-1.26l-9-.94a2,2,0,0,0-1.88,1l-1.79,3.49a3.61,3.61,0,0,1-2.7,1.76,45.9,45.9,0,0,0-4.62.58,5.13,5.13,0,0,1-3.23-.65L223,412.36a3,3,0,0,0-2.41-.25l-7.2,2.89a.67.67,0,0,0-.46.44.69.69,0,0,0,.23.6l3.27,3.47a1.87,1.87,0,0,1,.51,1.4,1.9,1.9,0,0,1-.77,1.37,18.9,18.9,0,0,0-1.92,1.72,4.52,4.52,0,0,1-3,1.27l-8.24-.34a1.79,1.79,0,0,0-1.63,1.16l-1.25,4a.94.94,0,0,0,.08.79,1,1,0,0,0,.67.43l7.83,1.34a3.11,3.11,0,0,1,2.27,2.15,9.27,9.27,0,0,0,.56,1.49,2,2,0,0,1-.86,2.72l-5.78,2.9a.63.63,0,0,0-.41.46.66.66,0,0,0,.29.54l4.6,3.83a2.83,2.83,0,0,0,2.34.46l7-2.2A4.41,4.41,0,0,1,220,444.82Zm19.59-2.41c-5.57,0-11.06-1.52-14.47-4.37-2.43-2-3.55-4.49-3.15-7,.48-3.1,3.26-5.87,7.6-7.61,7.94-3.18,18.89-2,24.41,2.57h0c2.42,2,3.54,4.49,3.15,7-.49,3.1-3.26,5.88-7.6,7.62A27.14,27.14,0,0,1,239.59,442.41Zm-.05-19.87a26.17,26.17,0,0,0-9.63,1.75c-4,1.62-6.62,4.14-7.06,6.92-.34,2.15.67,4.34,2.84,6.15,5.3,4.4,15.84,5.49,23.5,2.42,4.05-1.62,6.62-4.14,7.06-6.92.34-2.15-.67-4.33-2.84-6.14h0C250.14,424,244.89,422.54,239.54,422.54Z" style="fill:#fff"></path></g></g></g><g id="freepik--chess-piece--inject-41"><g id="freepik--chess-piece--inject-41"><path d="M306.12,231.91c-8.31-4.8-21.79-4.8-30.11,0-4.16,2.4-6.22,5.54-6.21,8.69v3.59c0,3.15,2,6.3,6.21,8.7,8.31,4.8,21.79,4.8,30.11,0,4.16-2.4,6.22-5.55,6.21-8.7V240.6C312.34,237.45,310.28,234.31,306.12,231.91Z" style="fill:#37474f"></path><path d="M306.12,231.91c-8.31-4.8-21.79-4.8-30.11,0-4.16,2.4-6.22,5.54-6.21,8.69v3.59c0,3.15,2,6.3,6.21,8.7,8.31,4.8,21.79,4.8,30.11,0,4.16-2.4,6.22-5.55,6.21-8.7V240.6C312.34,237.45,310.28,234.31,306.12,231.91Z" style="opacity:0.2"></path><path d="M281.23,229.7a24.46,24.46,0,0,0-5.22,2.21c-4.16,2.4-6.22,5.54-6.21,8.69v3.59c0,3.15,2,6.3,6.21,8.7a24.46,24.46,0,0,0,5.22,2.21Z" style="opacity:0.2"></path><path d="M276,231.91c8.32-4.8,21.8-4.8,30.11,0s8.31,12.58,0,17.38-21.8,4.8-30.11,0S267.69,236.71,276,231.91Z" style="fill:#37474f"></path><path d="M276,231.91c8.32-4.8,21.8-4.8,30.11,0s8.31,12.58,0,17.38-21.8,4.8-30.11,0S267.69,236.71,276,231.91Z" style="opacity:0.4"></path><path d="M291.05,223.61c-20.35,0-23,8.75-23,13.27s2.75,8.27,8.42,11.54h0a32.26,32.26,0,0,0,29.11,0c5.67-3.27,8.42-7,8.42-11.54S311.4,223.61,291.05,223.61Z" style="fill:#37474f"></path><path d="M298.65,242l-.38.05c-1.52.21-4.3,0-5.53,1.22-2.07,2,.79,3.72,2.57,4.27a12.94,12.94,0,0,0,9-.82,13.79,13.79,0,0,0,5.89-5c.55-.94,1.6-3.7.21-4.34a1.9,1.9,0,0,0-2.2.55,19.07,19.07,0,0,1-2.16,1.52,16.8,16.8,0,0,1-2.11,1.19A19.55,19.55,0,0,1,298.65,242Z" style="fill:#fff;opacity:0.1"></path><path d="M288.57,239.32c12,1.08,20.43-3.71,23.39-8.85-2.64-3.58-8.45-6.86-20.91-6.86-20.35,0-23,8.75-23,13.27s2.75,8.27,8.42,11.54h0a32.26,32.26,0,0,0,29.11,0,27.05,27.05,0,0,0,3.46-2.35c-4.28,3-11.36,5.19-20.51,3.86S276.05,238.19,288.57,239.32Z" style="opacity:0.1"></path><path d="M281.25,235.58l-1.12-10.86c-10.45,2.49-12.07,8.62-12.07,12.16,0,4.52,2.75,8.27,8.42,11.54h0a5.93,5.93,0,0,0,.56.29C270.78,244.66,274.65,233.66,281.25,235.58Z" style="opacity:0.1"></path><path d="M306.08,212.11c-8.29-4.78-21.74-4.79-30,0-4.15,2.4-6.2,5.53-6.2,8.67v4.7c0,3.14,2,6.28,6.2,8.68,8.29,4.78,21.73,4.79,30,0,4.15-2.4,6.21-5.54,6.19-8.68v-4.7C312.28,217.64,310.22,214.51,306.08,212.11Z" style="fill:#37474f"></path><path d="M306.08,212.11c-8.29-4.78-21.74-4.79-30,0-4.15,2.4-6.2,5.53-6.2,8.67v4.7c0,3.14,2,6.28,6.2,8.68,8.29,4.78,21.73,4.79,30,0,4.15-2.4,6.21-5.54,6.19-8.68v-4.7C312.28,217.64,310.22,214.51,306.08,212.11Z" style="opacity:0.2"></path><path d="M276.05,234.16a23.59,23.59,0,0,0,4.6,2v-26a23.59,23.59,0,0,0-4.6,2c-4.15,2.4-6.2,5.53-6.2,8.67v4.7C269.84,228.62,271.9,231.76,276.05,234.16Z" style="opacity:0.2"></path><path d="M276.05,212.11c8.29-4.79,21.74-4.78,30,0s8.29,12.55,0,17.34-21.74,4.78-30,0S267.76,216.9,276.05,212.11Z" style="fill:#455a64"></path><path d="M310.3,217.1h0c-2.65-5.45-9.33-21.83-9.33-48.69H281.14c0,26.86-6.68,43.24-9.33,48.69h0c-1.62,3.54.1,7.43,5.2,10.19,7.75,4.2,20.31,4.2,28.06,0C310.2,224.53,311.92,220.64,310.3,217.1Z" style="fill:#37474f"></path><path d="M300.3,186.15a123.37,123.37,0,0,0,5.43,25c1.72,5.25,4.26,8.84.93,12.12s-11.43,4.28-11.43,4.28a25.6,25.6,0,0,0,8-4.75c3.4-3.16,1.36-7.74.36-11.65C301.94,204.78,299.73,194.9,300.3,186.15Z" style="fill:#fff;opacity:0.1"></path><path d="M293.65,230.35c-1.69-.67-5.2-1.87-2.59-14.87s2.56-33.48,2.49-47.07H281.14c0,26.86-6.68,43.24-9.33,48.69h0c-1.62,3.54.1,7.43,5.2,10.19C281.57,229.75,287.75,230.77,293.65,230.35Z" style="opacity:0.1"></path><path d="M282.09,208.78c2.32-8.7,3-26.61,3.07-40.37h-4c0,26.86-6.68,43.24-9.33,48.69h0c-1.62,3.54.1,7.43,5.2,10.19a23.42,23.42,0,0,0,4.31,1.76C274.88,225.11,279.69,217.83,282.09,208.78Z" style="opacity:0.1"></path><path d="M302.11,153.89c-6.1-3.52-16-3.52-22.09,0-3,1.76-4.56,4.07-4.56,6.37v5.67c0,2.31,1.51,4.62,4.56,6.38,6.1,3.52,16,3.52,22.09,0,3.05-1.76,4.56-4.07,4.55-6.38v-5.67C306.67,158,305.16,155.65,302.11,153.89Z" style="fill:#37474f"></path><path d="M302.11,153.89c-6.1-3.52-16-3.52-22.09,0-3,1.76-4.56,4.07-4.56,6.37v5.67c0,2.31,1.51,4.62,4.56,6.38,6.1,3.52,16,3.52,22.09,0,3.05-1.76,4.56-4.07,4.55-6.38v-5.67C306.67,158,305.16,155.65,302.11,153.89Z" style="opacity:0.2"></path><path d="M289.22,151.32a21.61,21.61,0,0,0-9.2,2.57c-3,1.76-4.56,4.07-4.56,6.37v5.67c0,2.31,1.51,4.62,4.56,6.38a21.61,21.61,0,0,0,9.2,2.57Z" style="opacity:0.2"></path><path d="M280,153.89c6.1-3.52,16-3.52,22.09,0s6.09,9.23,0,12.75-16,3.52-22.09,0S273.92,157.41,280,153.89Z" style="fill:#455a64"></path><path d="M304.18,132.24c-7.24-4.18-19-4.18-26.23,0-4.16,2.4-5.92,5.66-5.3,8.79h0l4.65,18.58h0c.36,1.72,1.67,3.38,3.95,4.7,5.42,3.13,14.2,3.13,19.62,0,2.28-1.32,3.59-3,3.95-4.7h0L309.49,141h0C310.1,137.9,308.34,134.64,304.18,132.24Z" style="fill:#37474f"></path><path d="M305.37,133c-1,8.43-3.19,21.51-4.43,31.26,2.24-1.31,3.53-3,3.88-4.66h0L309.49,141h0C310,138.22,308.66,135.32,305.37,133Z" style="fill:#fff;opacity:0.1"></path><path d="M282.09,130.45a20.86,20.86,0,0,0-4.14,1.79c-4.16,2.4-5.92,5.66-5.3,8.79h0l4.65,18.58h0c.36,1.72,1.67,3.38,3.95,4.7a16.41,16.41,0,0,0,3.89,1.57Z" style="opacity:0.1"></path><path d="M278,132.24c7.24-4.18,19-4.18,26.23,0s7.24,11,0,15.14-19,4.18-26.23,0S270.71,136.42,278,132.24Z" style="fill:#455a64"></path><path d="M302,145.21c-6.06,3.5-15.89,3.5-22,0-3.48-2-4.95-4.74-4.43-7.37h0l3.89-14.52h0a6.27,6.27,0,0,1,3.31-3.93c4.53-2.62,11.89-2.62,16.43,0a6.3,6.3,0,0,1,3.31,3.93h0l3.89,14.52h0C307,140.47,305.53,143.2,302,145.21Z" style="fill:#37474f"></path><path d="M303,144.56c-.84-7.06-2.66-17-3.71-25.14a6.27,6.27,0,0,1,3.26,3.9h0l3.89,14.52h0C307,140.2,305.8,142.63,303,144.56Z" style="fill:#fff;opacity:0.1"></path><path d="M283.55,146.71a18.08,18.08,0,0,1-3.47-1.5c-3.48-2-4.95-4.74-4.43-7.37h0l3.89-14.52h0a6.27,6.27,0,0,1,3.31-3.93,13.42,13.42,0,0,1,3.25-1.32Z" style="opacity:0.1"></path><path d="M282.84,128.88c4.54,2.62,11.91,2.62,16.45,0s4.54-6.87,0-9.49-11.91-2.62-16.45,0S278.3,126.26,282.84,128.88Z" style="fill:#455a64"></path><path d="M299.93,120.23h0l-.19-.17-.2-.18a12.49,12.49,0,0,0-17,0l-.26.24c-.07.07-.14.12-.2.19h0c-2.19,2.25-1.63,5.15,1.69,7.07a16,16,0,0,0,14.49,0C301.66,125.43,302.19,122.49,299.93,120.23Z" style="fill:#37474f"></path><path d="M295.6,118a12.17,12.17,0,0,1,4.13,3,4,4,0,0,1-.27,4.41,5.84,5.84,0,0,0-.45-4.14A11.19,11.19,0,0,0,295.6,118Z" style="fill:#fff;opacity:0.2"></path><path d="M284.1,125.2c-2.51-2.36-1.25-5,.59-6.88a12.46,12.46,0,0,0-2.11,1.55l-.26.24c-.07.07-.14.12-.2.19h0c-2.19,2.25-1.63,5.15,1.69,7.07a16,16,0,0,0,14.49,0A7.68,7.68,0,0,0,300,126c-.14.12-1.28,1.17-5.16,1.56C288.9,128.21,286,127,284.1,125.2Z" style="opacity:0.1"></path><polygon points="295.9 100.95 295.9 106.53 300.74 103.74 300.74 109.32 295.9 112.12 295.9 120.92 291.06 123.71 291.06 114.91 286.23 117.7 286.23 112.12 291.06 109.32 291.06 103.74 295.9 100.95" style="fill:#455a64"></polygon><polygon points="291.06 123.71 286.23 120.92 286.23 117.7 291.06 114.91 291.06 123.71" style="fill:#263238"></polygon><polygon points="286.23 112.12 281.39 109.32 281.39 114.91 286.23 117.7 286.23 112.12" style="fill:#37474f"></polygon><polygon points="291.06 109.32 286.23 106.53 281.39 109.32 286.23 112.12 291.06 109.32" style="fill:#455a64"></polygon><polygon points="291.06 109.32 286.23 106.53 281.39 109.32 286.23 112.12 291.06 109.32" style="fill:#fff;opacity:0.2"></polygon><polygon points="291.06 103.74 286.23 100.95 286.23 106.53 291.06 109.32 291.06 103.74" style="fill:#37474f"></polygon><polygon points="295.9 100.95 291.06 98.16 286.23 100.95 291.06 103.74 295.9 100.95" style="fill:#455a64"></polygon><polygon points="295.9 100.95 291.06 98.16 286.23 100.95 291.06 103.74 295.9 100.95" style="fill:#fff;opacity:0.2"></polygon><polygon points="300.74 103.74 295.9 100.95 295.9 106.53 300.74 103.74" style="fill:#455a64"></polygon><polygon points="300.74 103.74 295.9 100.95 295.9 106.53 300.74 103.74" style="fill:#fff;opacity:0.2"></polygon></g></g><g id="freepik--Plants--inject-41"><g id="freepik--plants--inject-41"><path d="M465.24,236a11.62,11.62,0,0,1,4.2-11.67c4.64-3.88,10.92-5.47,11.53-5.09s0,6.8-4.84,12A13.56,13.56,0,0,1,465.24,236Z" style="fill:#455a64"></path><path d="M462.51,250.78a11.59,11.59,0,0,1,9.05-8.47c5.9-1.34,12.22.11,12.59.74s-3.11,6-9.77,8.45A13.62,13.62,0,0,1,462.51,250.78Z" style="fill:#455a64"></path><path d="M451.18,253a11.64,11.64,0,0,1-6.77-10.39c-.29-6,1.68-11.63,2.36-11.89s6,4.51,7.54,10.68C456,248.15,452.15,251.55,451.18,253Z" style="fill:#455a64"></path><path d="M444.66,304.05c-1.33-5.28-.94-10.94-.39-16.3a92,92,0,0,1,2.83-14.91,118.85,118.85,0,0,1,12.34-29c3.42-5.75,7.29-11.74,12.41-16.12.11-.1.4.12.31.23A94.3,94.3,0,0,0,462,243.31a111,111,0,0,0-7.32,14.81,114.34,114.34,0,0,0-7.11,27.13c-.87,6.17-.72,12.33-.87,18.54A1,1,0,0,1,444.66,304.05Z" style="fill:#37474f"></path><path d="M452.38,257.77a36.54,36.54,0,0,1-2.9-7.68,20.62,20.62,0,0,1-.79-7.8c0-.36.33.12.36.35a59.36,59.36,0,0,0,1.64,6.82,26.29,26.29,0,0,0,3.19,6.73,1.66,1.66,0,0,1-.1,1.89A.88.88,0,0,1,452.38,257.77Z" style="fill:#37474f"></path><path d="M453,256.94c2.44-3,5.16-4.73,9-7a34.75,34.75,0,0,1,4.74-2.24,20.21,20.21,0,0,1,6-1.41c.08,0,.56.17.41.21a56.32,56.32,0,0,0-5.68,2.15,31.23,31.23,0,0,0-4.89,2.6,49.94,49.94,0,0,0-8.66,6.82C453.43,258.63,452.56,257.46,453,256.94Z" style="fill:#37474f"></path><path d="M454.18,271.58a11.62,11.62,0,0,1,7.09-10.17c5.49-2.53,12-2.43,12.46-1.9s-1.78,6.56-7.8,10.3A13.57,13.57,0,0,1,454.18,271.58Z" style="fill:#455a64"></path><path d="M446.15,279.6c1.77-3.42,4.05-5.7,7.39-8.71a34.75,34.75,0,0,1,4.16-3.19,20.71,20.71,0,0,1,5.62-2.64c.08,0,.59.05.45.13a56.93,56.93,0,0,0-5.12,3.28,31.53,31.53,0,0,0-4.23,3.57,49,49,0,0,0-7.05,8.48C446.94,281.16,445.84,280.19,446.15,279.6Z" style="fill:#37474f"></path></g><g id="freepik--plants--inject-41"><path d="M426.51,208.11a12.63,12.63,0,0,0-2.22-13.29c-4.21-5-10.61-8-11.35-7.67s-1.3,7.27,2.86,13.74S424.67,207.65,426.51,208.11Z" style="fill:#455a64"></path><path d="M426.58,224.42a12.63,12.63,0,0,0-8-10.81c-6.05-2.56-13.08-2.24-13.6-1.64s2.16,7.06,8.82,10.92S424.73,224.85,426.58,224.42Z" style="fill:#455a64"></path><path d="M438.25,229a12.65,12.65,0,0,0,9.25-9.8c1.48-6.39.45-12.75-.22-13.16s-7.3,3.65-10.13,10C434.07,222.87,437.5,227.25,438.25,229Z" style="fill:#455a64"></path><path d="M435.35,284.8c2.43-5.38,3.12-11.5,3.57-17.34a98.7,98.7,0,0,0-.15-16.49,129.2,129.2,0,0,0-7.56-33.42c-2.54-6.81-5.52-14-10.15-19.63-.1-.12-.45.05-.37.19a102.36,102.36,0,0,1,7.9,18.43,120,120,0,0,1,5,17.25,124.27,124.27,0,0,1,2.36,30.37c-.27,6.76-1.63,13.32-2.67,20A1.11,1.11,0,0,0,435.35,284.8Z" style="fill:#37474f"></path><path d="M436.05,233.85a39.79,39.79,0,0,0,4.59-7.65A22.57,22.57,0,0,0,443,218c0-.39-.37.06-.46.3a64.54,64.54,0,0,1-3.07,7,29,29,0,0,1-4.7,6.57,1.79,1.79,0,0,0-.26,2A1,1,0,0,0,436.05,233.85Z" style="fill:#37474f"></path><path d="M435.57,232.85c-2-3.65-4.6-6-8.32-9.21a37.89,37.89,0,0,0-4.63-3.32,22.48,22.48,0,0,0-6.18-2.67c-.09,0-.64.07-.49.15a58.74,58.74,0,0,1,5.66,3.39,33.65,33.65,0,0,1,4.72,3.73,53,53,0,0,1,7.94,9C434.76,234.57,435.92,233.48,435.57,232.85Z" style="fill:#37474f"></path><path d="M431.46,248.27A12.64,12.64,0,0,0,425.85,236c-5.38-3.77-12.33-4.92-13-4.44s.64,7.35,6.34,12.52S429.56,248.31,431.46,248.27Z" style="fill:#455a64"></path><path d="M438.49,258.39c-1.23-4-3.23-6.88-6.22-10.74a36.47,36.47,0,0,0-3.83-4.22,22.44,22.44,0,0,0-5.49-3.9c-.09,0-.64-.06-.51.05a58.72,58.72,0,0,1,4.83,4.49,35,35,0,0,1,3.84,4.63A54.11,54.11,0,0,1,437,259.13C437.34,259.9,438.7,259.08,438.49,258.39Z" style="fill:#37474f"></path></g></g><g id="freepik--Coins--inject-41"><g id="freepik--coins--inject-41"><path d="M383.37,328.1a24.77,24.77,0,0,1,9.14-8.45c14.93-8.62,39.15-8.62,54.08,0a24.77,24.77,0,0,1,9.14,8.45h2.06v7.82h0c-.27,5.43-4,10.81-11.17,15-14.93,8.62-39.15,8.62-54.08,0-7.18-4.15-10.93-9.53-11.2-15h0V328.1Z" style="fill:#0FBCF9"></path><path d="M383.37,328.1a24.77,24.77,0,0,1,9.14-8.45c14.93-8.62,39.15-8.62,54.08,0a24.77,24.77,0,0,1,9.14,8.45h2.06v7.82h0c-.27,5.43-4,10.81-11.17,15-14.93,8.62-39.15,8.62-54.08,0-7.18-4.15-10.93-9.53-11.2-15h0V328.1Z" style="opacity:0.25"></path><path d="M419.55,313.19c9.78,0,19.57,2.15,27,6.46a24.77,24.77,0,0,1,9.14,8.45h2.06v7.82h0c-.27,5.43-4,10.81-11.17,15-7.47,4.31-17.26,6.47-27,6.47Z" style="opacity:0.1"></path><path d="M440.44,316.77a42.31,42.31,0,0,1,6.15,2.88,24.77,24.77,0,0,1,9.14,8.45h2.06v7.82h0c-.27,5.43-4,10.81-11.17,15a42.31,42.31,0,0,1-6.15,2.88Z" style="opacity:0.1"></path><path d="M398.66,316.77a42.31,42.31,0,0,0-6.15,2.88,24.77,24.77,0,0,0-9.14,8.45h-2.06v7.82h0c.27,5.44,4,10.82,11.2,15a42.31,42.31,0,0,0,6.15,2.88Z" style="fill:#0FBCF9;opacity:0.5"></path><path d="M446.59,312.49c14.94,8.63,14.93,22.61,0,31.23-13.07,7.54-33.24,8.49-48.08,2.83h0l-.6-.23a41.43,41.43,0,0,1-5.4-2.6c-12.46-7.19-14.52-18.11-6.21-26.54h0a28.84,28.84,0,0,1,6.2-4.69C407.44,303.87,431.66,303.87,446.59,312.49Z" style="fill:#0FBCF9"></path><path d="M446.59,312.49c14.94,8.63,14.93,22.61,0,31.23-13.07,7.54-33.24,8.49-48.08,2.83h0l-.6-.23a41.43,41.43,0,0,1-5.4-2.6c-12.46-7.19-14.52-18.11-6.21-26.54h0a28.84,28.84,0,0,1,6.2-4.69C407.44,303.87,431.66,303.87,446.59,312.49Z" style="opacity:0.2"></path><path d="M386.3,317.18a16.78,16.78,0,0,0-4,13.63c1.33,7.58,11.95,14,15.61,15.51a41.43,41.43,0,0,1-5.4-2.6C380.05,336.53,378,325.61,386.3,317.18Z" style="fill:#f5f5f5;opacity:0.5"></path><path d="M452.79,339a16.69,16.69,0,0,0,4-13.62c-1.32-7.59-11.94-14-15.61-15.51a41.53,41.53,0,0,1,5.41,2.59C459,319.68,461.11,330.6,452.79,339Z" style="fill:#f5f5f5;opacity:0.5"></path><path d="M394.43,342.59c-13.89-8-13.89-21,0-29s36.39-8,50.27,0,13.88,21,0,29S408.31,350.6,394.43,342.59Z" style="fill:#0FBCF9"></path><path d="M394.43,342.59c-13.89-8-13.89-21,0-29s36.39-8,50.27,0,13.88,21,0,29S408.31,350.6,394.43,342.59Z" style="fill:#fff;opacity:0.4"></path><path d="M385.63,334.21c-2.86-5.29-1.93-11.11,2.79-16a23.82,23.82,0,0,1,3-2.63,28.73,28.73,0,0,1,2.88-1.9c.57-.33,1.15-.65,1.75-.95-1.48,2.43-.93,5,7.44,5.52,16.38,1-4.38,16.62-4.38,16.62S388.56,329.72,385.63,334.21Z" style="fill:#fff;opacity:0.2"></path><path d="M387.32,329.87c-2.46-.27-3.68-2.8-2.72-5.64s3.72-4.93,6.18-4.66,3.68,2.81,2.72,5.65S389.78,330.15,387.32,329.87Z" style="fill:#fff;opacity:0.5"></path><path d="M413.24,342.92c.8-6.08,27.4-22.93,27.4-22.93s5.9-2.36,3.94-6.49a33.16,33.16,0,0,1,2.84,1.84c.62.45,1.19.9,1.73,1.37,7.92,6.86,7.93,15.86,0,22.73-.54.47-1.11.92-1.73,1.37-.81.59-1.69,1.16-2.63,1.71s-1.85,1-2.82,1.48c-.78.37-1.58.71-2.4,1s-1.64.62-2.49.9a51.7,51.7,0,0,1-7.94,1.91l-1.78.26a63.4,63.4,0,0,1-7.94.5,61.23,61.23,0,0,1-9.7-.8S414,346.92,413.24,342.92Z" style="fill:#0FBCF9"></path><path d="M413.24,342.92c.8-6.08,27.4-22.93,27.4-22.93s5.9-2.36,3.94-6.49a33.16,33.16,0,0,1,2.84,1.84c.62.45,1.19.9,1.73,1.37,7.92,6.86,7.93,15.86,0,22.73-.54.47-1.11.92-1.73,1.37-.81.59-1.69,1.16-2.63,1.71s-1.85,1-2.82,1.48c-.78.37-1.58.71-2.4,1s-1.64.62-2.49.9a51.7,51.7,0,0,1-7.94,1.91l-1.78.26a63.4,63.4,0,0,1-7.94.5,61.23,61.23,0,0,1-9.7-.8S414,346.92,413.24,342.92Z" style="fill:#fff;opacity:0.30000000000000004"></path><path d="M438.3,317.26c9.93,5.73,10.33,14.87,1.21,20.88-.38.25-.79.5-1.21.75-10.34,6-27.11,6-37.45,0s-10.35-15.66,0-21.63c.42-.24.86-.48,1.3-.7C412.55,311.3,428.38,311.53,438.3,317.26Z" style="fill:#0FBCF9"></path><path d="M438.3,317.26c9.93,5.73,10.33,14.87,1.21,20.88-.38.25-.79.5-1.21.75-10.34,6-27.11,6-37.45,0s-10.35-15.66,0-21.63c.42-.24.86-.48,1.3-.7C412.55,311.3,428.38,311.53,438.3,317.26Z" style="opacity:0.2"></path><path d="M437.46,317.74c9.89,5.71,9.89,15,0,20.67s-25.91,5.71-35.8,0-9.88-15,0-20.67S427.58,312,437.46,317.74Z" style="fill:#0FBCF9"></path><path d="M437.46,317.74c9.89,5.71,9.89,15,0,20.67s-25.91,5.71-35.8,0-9.88-15,0-20.67S427.58,312,437.46,317.74Z" style="opacity:0.5"></path><path d="M437.46,321.82c-9.88-5.71-25.91-5.71-35.8,0-4,2.33-6.43,5.26-7.16,8.29.73,3,3.12,6,7.16,8.3,9.89,5.71,25.92,5.71,35.8,0,4.05-2.34,6.43-5.26,7.17-8.3C443.89,327.08,441.51,324.15,437.46,321.82Z" style="fill:#0FBCF9"></path><path d="M437.46,321.82c-9.88-5.71-25.91-5.71-35.8,0-4,2.33-6.43,5.26-7.16,8.29.73,3,3.12,6,7.16,8.3,9.89,5.71,25.92,5.71,35.8,0,4.05-2.34,6.43-5.26,7.17-8.3C443.89,327.08,441.51,324.15,437.46,321.82Z" style="opacity:0.35000000000000003"></path><path d="M435.5,332.48c0-.5,0-2.51,0-3,0-1.24-.86-2.45-2.71-3.52l-.06-.05c-3.4-2-6.91-1.7-10-.91h0c-1.33.34-2.59.77-3.74,1.16a35.91,35.91,0,0,1-4,1.25h0a6.91,6.91,0,0,1-1.91.18,4,4,0,0,1-1.59-.42l.13-.08a3.89,3.89,0,0,1,.4-.25,9.53,9.53,0,0,1,1.06-.53,7.34,7.34,0,0,1,5.63-.12l3.24-3.28v-3a15.39,15.39,0,0,0-8.87-.32,17.12,17.12,0,0,0-2.82,1l-3.25-1.87-3.87,2.23v3l1.32.77a3.19,3.19,0,0,0-.57,1.75c0,.5,0,2.49,0,3,0,1.24.89,2.43,2.76,3.51a11.28,11.28,0,0,0,5.34,1.54h0c.35,0,.71,0,1.07,0a21.41,21.41,0,0,0,5.74-1.24l1.12-.39-3.27,3.28v3a15.93,15.93,0,0,0,12.52-.54l3.21,1.85,3.87-2.24v-3l-1.33-.77A3.47,3.47,0,0,0,435.5,332.48Zm-8.16-.26a9.44,9.44,0,0,1-.9.45,8.38,8.38,0,0,1-6.34.09c3-1.07,5.57-2,7.73-.86C427.68,332,427.51,332.12,427.34,332.22Z" style="fill:#0FBCF9"></path><path d="M422.7,325h0c-1.33.34-2.59.77-3.74,1.16a35.91,35.91,0,0,1-4,1.25h0a6.91,6.91,0,0,1-1.91.18,4,4,0,0,1-1.84-.55c-1.25-.72-1.43-1.77.38-3l.4-.24a8.06,8.06,0,0,1,1.06-.53,7.35,7.35,0,0,1,5.63-.13l3.24-3.27a15.39,15.39,0,0,0-8.87-.32,16.81,16.81,0,0,0-2.82,1l-3.25-1.87-3.87,2.23,3.21,1.86,0,0c-3.26,2.48-3.33,5,.34,7.16a11.4,11.4,0,0,0,5.34,1.54h0c.35,0,.71,0,1.07,0a21,21,0,0,0,5.74-1.24c3.72-1.24,6.73-2.71,9.23-1.26,1.68,1,1.22,2.19-.62,3.25a9.44,9.44,0,0,1-.9.45,8.31,8.31,0,0,1-6.45,0l-3.41,3.42a15.93,15.93,0,0,0,12.52-.55l3.21,1.85,3.87-2.23-3.2-1.85c3.22-2.5,3.59-5.21-.18-7.41l-.06-.05C429.34,323.93,425.83,324.19,422.7,325Z" style="fill:#0FBCF9"></path><g style="opacity:0.30000000000000004"><path d="M422.7,325h0c-1.33.34-2.59.77-3.74,1.16a35.91,35.91,0,0,1-4,1.25h0a6.91,6.91,0,0,1-1.91.18,4,4,0,0,1-1.84-.55c-1.25-.72-1.43-1.77.38-3l.4-.24a8.06,8.06,0,0,1,1.06-.53,7.35,7.35,0,0,1,5.63-.13l3.24-3.27a15.39,15.39,0,0,0-8.87-.32,16.81,16.81,0,0,0-2.82,1l-3.25-1.87-3.87,2.23,3.21,1.86,0,0c-3.26,2.48-3.33,5,.34,7.16a11.4,11.4,0,0,0,5.34,1.54h0c.35,0,.71,0,1.07,0a21,21,0,0,0,5.74-1.24c3.72-1.24,6.73-2.71,9.23-1.26,1.68,1,1.22,2.19-.62,3.25a9.44,9.44,0,0,1-.9.45,8.31,8.31,0,0,1-6.45,0l-3.41,3.42a15.93,15.93,0,0,0,12.52-.55l3.21,1.85,3.87-2.23-3.2-1.85c3.22-2.5,3.59-5.21-.18-7.41l-.06-.05C429.34,323.93,425.83,324.19,422.7,325Z" style="fill:#fff"></path></g><polygon points="403.05 320.9 406.96 319.13 410.17 320.54 406.92 318.67 403.05 320.9" style="fill:#f5f5f5;opacity:0.45"></polygon><path d="M412.54,319.69a18.19,18.19,0,0,1,8.33.28l-2.25,3.19,3.24-3.27A15.44,15.44,0,0,0,412.54,319.69Z" style="fill:#f5f5f5;opacity:0.45"></path><path d="M432.74,325.89l.06.05c3.77,2.2,3.4,4.91.18,7.41,2.85-3.11,2.34-5.28-.77-7.07a14.6,14.6,0,0,0-9.51-1.3C425.83,324.19,429.34,323.93,432.74,325.89Z" style="fill:#f5f5f5;opacity:0.45"></path><polygon points="432.98 333.35 435.43 335.24 432.31 337.44 436.18 335.2 432.98 333.35" style="fill:#f5f5f5;opacity:0.45"></polygon><path d="M426.44,332.67a8.37,8.37,0,0,1-6.18.54l-3.68,2.92,3.41-3.42A8.31,8.31,0,0,0,426.44,332.67Z" style="fill:#f5f5f5;opacity:0.45"></path><path d="M414.9,327.39a5,5,0,0,1-4.64-.44c-1.12-1-.4-2,1.27-2.89-1.81,1.19-1.63,2.24-.38,3a4,4,0,0,0,1.84.55A6.91,6.91,0,0,0,414.9,327.39Z" style="fill:#f5f5f5;opacity:0.45"></path><path d="M406.23,322.78c-.28.25-2.61,2.42-1.58,4.59s4.51,3.81,7.27,4.11h0a11.4,11.4,0,0,1-5.34-1.54C402.9,327.82,403,325.26,406.23,322.78Z" style="fill:#f5f5f5;opacity:0.45"></path><path d="M377.65,317.53a24.57,24.57,0,0,1,9.13-8.45c14.94-8.62,39.15-8.62,54.08,0a24.61,24.61,0,0,1,9.14,8.45h2.06v7.81h0c-.28,5.43-4,10.82-11.18,15-14.93,8.62-39.15,8.62-54.08,0-7.18-4.15-10.93-9.54-11.2-15h0v-7.81Z" style="fill:#0FBCF9"></path><path d="M377.65,317.53a24.57,24.57,0,0,1,9.13-8.45c14.94-8.62,39.15-8.62,54.08,0a24.61,24.61,0,0,1,9.14,8.45h2.06v7.81h0c-.28,5.43-4,10.82-11.18,15-14.93,8.62-39.15,8.62-54.08,0-7.18-4.15-10.93-9.54-11.2-15h0v-7.81Z" style="opacity:0.25"></path><path d="M413.82,302.61c9.79,0,19.58,2.16,27,6.47a24.61,24.61,0,0,1,9.14,8.45h2.06v7.81h0c-.28,5.43-4,10.82-11.18,15-7.46,4.31-17.25,6.46-27,6.46Z" style="opacity:0.1"></path><path d="M434.71,306.2a42.31,42.31,0,0,1,6.15,2.88,24.61,24.61,0,0,1,9.14,8.45h2.06v7.81h0c-.28,5.43-4,10.82-11.18,15a42.31,42.31,0,0,1-6.15,2.88Z" style="opacity:0.1"></path><path d="M392.94,306.2a41.94,41.94,0,0,0-6.16,2.88,24.57,24.57,0,0,0-9.13,8.45h-2.07v7.81h0c.28,5.43,4,10.82,11.2,15a41.94,41.94,0,0,0,6.16,2.88Z" style="fill:#0FBCF9;opacity:0.5"></path><path d="M440.86,301.92c14.94,8.62,14.94,22.6,0,31.22-13.06,7.55-33.23,8.49-48.08,2.83h0l-.59-.23a40.31,40.31,0,0,1-5.41-2.6c-12.45-7.19-14.52-18.1-6.2-26.53h0a28.84,28.84,0,0,1,6.2-4.69C401.71,293.3,425.93,293.3,440.86,301.92Z" style="fill:#0FBCF9"></path><path d="M440.86,301.92c14.94,8.62,14.94,22.6,0,31.22-13.06,7.55-33.23,8.49-48.08,2.83h0l-.59-.23a40.31,40.31,0,0,1-5.41-2.6c-12.45-7.19-14.52-18.1-6.2-26.53h0a28.84,28.84,0,0,1,6.2-4.69C401.71,293.3,425.93,293.3,440.86,301.92Z" style="opacity:0.2"></path><path d="M380.58,306.61a16.69,16.69,0,0,0-4,13.62c1.32,7.59,11.95,14,15.61,15.51a40.31,40.31,0,0,1-5.41-2.6C374.33,326,372.26,315,380.58,306.61Z" style="fill:#f5f5f5;opacity:0.5"></path><path d="M447.07,328.45a16.73,16.73,0,0,0,4-13.62c-1.33-7.59-11.95-14-15.61-15.51a41.43,41.43,0,0,1,5.4,2.6C453.32,309.11,455.39,320,447.07,328.45Z" style="fill:#f5f5f5;opacity:0.5"></path><path d="M388.7,332c-13.88-8-13.88-21,0-29s36.39-8,50.27,0,13.89,21,0,29S402.58,340,388.7,332Z" style="fill:#0FBCF9"></path><path d="M388.7,332c-13.88-8-13.88-21,0-29s36.39-8,50.27,0,13.89,21,0,29S402.58,340,388.7,332Z" style="fill:#fff;opacity:0.4"></path><path d="M379.9,323.63c-2.86-5.28-1.92-11.1,2.79-16a24.69,24.69,0,0,1,3-2.64,29.87,29.87,0,0,1,2.88-1.89c.57-.34,1.15-.65,1.75-.95-1.47,2.43-.93,5,7.44,5.52,16.38,1-4.38,16.62-4.38,16.62S382.83,319.15,379.9,323.63Z" style="fill:#fff;opacity:0.2"></path><path d="M381.59,319.3c-2.46-.27-3.68-2.8-2.72-5.65s3.72-4.92,6.18-4.65,3.68,2.81,2.72,5.65S384.05,319.58,381.59,319.3Z" style="fill:#fff;opacity:0.5"></path><path d="M407.51,332.35c.81-6.08,27.4-22.93,27.4-22.93s5.9-2.37,3.94-6.49a32.53,32.53,0,0,1,2.85,1.84c.61.44,1.19.9,1.72,1.37,7.92,6.86,7.93,15.86,0,22.73-.53.46-1.11.92-1.72,1.37q-1.23.88-2.64,1.71c-.9.53-1.85,1-2.82,1.48-.77.36-1.58.71-2.4,1s-1.64.62-2.49.9a53.05,53.05,0,0,1-7.93,1.91c-.6.09-1.19.18-1.79.25a61.41,61.41,0,0,1-17.64-.29S408.27,336.35,407.51,332.35Z" style="fill:#0FBCF9"></path><path d="M407.51,332.35c.81-6.08,27.4-22.93,27.4-22.93s5.9-2.37,3.94-6.49a32.53,32.53,0,0,1,2.85,1.84c.61.44,1.19.9,1.72,1.37,7.92,6.86,7.93,15.86,0,22.73-.53.46-1.11.92-1.72,1.37q-1.23.88-2.64,1.71c-.9.53-1.85,1-2.82,1.48-.77.36-1.58.71-2.4,1s-1.64.62-2.49.9a53.05,53.05,0,0,1-7.93,1.91c-.6.09-1.19.18-1.79.25a61.41,61.41,0,0,1-17.64-.29S408.27,336.35,407.51,332.35Z" style="fill:#fff;opacity:0.30000000000000004"></path><path d="M432.58,306.69c9.92,5.73,10.32,14.87,1.21,20.87-.39.26-.8.51-1.22.75-10.34,6-27.1,6-37.45,0s-10.34-15.65,0-21.62c.42-.24.86-.48,1.3-.7C406.82,300.73,422.65,301,432.58,306.69Z" style="fill:#0FBCF9"></path><path d="M432.58,306.69c9.92,5.73,10.32,14.87,1.21,20.87-.39.26-.8.51-1.22.75-10.34,6-27.1,6-37.45,0s-10.34-15.65,0-21.62c.42-.24.86-.48,1.3-.7C406.82,300.73,422.65,301,432.58,306.69Z" style="opacity:0.2"></path><path d="M431.74,307.17c9.88,5.7,9.88,15,0,20.67s-25.91,5.7-35.8,0-9.88-15,0-20.67S421.85,301.46,431.74,307.17Z" style="fill:#0FBCF9"></path><path d="M431.74,307.17c9.88,5.7,9.88,15,0,20.67s-25.91,5.7-35.8,0-9.88-15,0-20.67S421.85,301.46,431.74,307.17Z" style="opacity:0.5"></path><path d="M431.74,311.24c-9.89-5.7-25.92-5.7-35.81,0-4,2.34-6.43,5.26-7.16,8.3.73,3,3.12,6,7.16,8.3,9.89,5.7,25.92,5.7,35.8,0,4-2.34,6.44-5.27,7.17-8.3C438.17,316.5,435.78,313.58,431.74,311.24Z" style="fill:#0FBCF9"></path><path d="M431.74,311.24c-9.89-5.7-25.92-5.7-35.81,0-4,2.34-6.43,5.26-7.16,8.3.73,3,3.12,6,7.16,8.3,9.89,5.7,25.92,5.7,35.8,0,4-2.34,6.44-5.27,7.17-8.3C438.17,316.5,435.78,313.58,431.74,311.24Z" style="opacity:0.35000000000000003"></path><path d="M429.78,321.9c0-.49,0-2.5,0-3,0-1.24-.86-2.44-2.7-3.52l-.07,0c-3.4-2-6.91-1.7-10-.92h0c-1.33.33-2.6.76-3.75,1.16a37.79,37.79,0,0,1-4,1.24h0a6.91,6.91,0,0,1-1.91.18,4,4,0,0,1-1.58-.42l.12-.09.4-.24a8.73,8.73,0,0,1,1.06-.53,7.39,7.39,0,0,1,5.63-.13l3.24-3.27v-3a15.48,15.48,0,0,0-8.87-.32,18.16,18.16,0,0,0-2.82,1l-3.25-1.88-3.87,2.24v3l1.33.76a3.16,3.16,0,0,0-.57,1.75v3c0,1.24.89,2.44,2.76,3.52a11.29,11.29,0,0,0,5.35,1.54h0c.35,0,.72,0,1.07,0a21,21,0,0,0,5.75-1.24l1.11-.38-3.26,3.27v3a15.91,15.91,0,0,0,12.51-.54l3.21,1.85,3.87-2.24v-3l-1.33-.76A3.51,3.51,0,0,0,429.78,321.9Zm-8.17-.25a7.45,7.45,0,0,1-.9.44,8.31,8.31,0,0,1-6.33.1c3-1.07,5.56-2,7.72-.86C422,321.44,421.79,321.54,421.61,321.65Z" style="fill:#0FBCF9"></path><path d="M417,314.4h0c-1.33.33-2.6.76-3.75,1.16a37.79,37.79,0,0,1-4,1.24h0a6.91,6.91,0,0,1-1.91.18,4,4,0,0,1-1.84-.55c-1.25-.72-1.43-1.77.38-3l.4-.25a8.63,8.63,0,0,1,1.06-.52,7.3,7.3,0,0,1,5.63-.13l3.24-3.28a15.48,15.48,0,0,0-8.87-.32,18.16,18.16,0,0,0-2.82,1l-3.25-1.88-3.87,2.24,3.21,1.85,0,0c-3.26,2.47-3.32,5,.34,7.15a11.18,11.18,0,0,0,5.35,1.54h0c.35,0,.72,0,1.07,0a21.4,21.4,0,0,0,5.75-1.24c3.71-1.25,6.72-2.71,9.23-1.26,1.68,1,1.21,2.18-.63,3.25a7.45,7.45,0,0,1-.9.44,8.31,8.31,0,0,1-6.45.05l-3.4,3.41a15.91,15.91,0,0,0,12.51-.54l3.21,1.85,3.87-2.24-3.2-1.85c3.22-2.49,3.59-5.2-.17-7.41l-.07,0C423.61,313.36,420.1,313.62,417,314.4Z" style="fill:#0FBCF9"></path><g style="opacity:0.30000000000000004"><path d="M417,314.4h0c-1.33.33-2.6.76-3.75,1.16a37.79,37.79,0,0,1-4,1.24h0a6.91,6.91,0,0,1-1.91.18,4,4,0,0,1-1.84-.55c-1.25-.72-1.43-1.77.38-3l.4-.25a8.63,8.63,0,0,1,1.06-.52,7.3,7.3,0,0,1,5.63-.13l3.24-3.28a15.48,15.48,0,0,0-8.87-.32,18.16,18.16,0,0,0-2.82,1l-3.25-1.88-3.87,2.24,3.21,1.85,0,0c-3.26,2.47-3.32,5,.34,7.15a11.18,11.18,0,0,0,5.35,1.54h0c.35,0,.72,0,1.07,0a21.4,21.4,0,0,0,5.75-1.24c3.71-1.25,6.72-2.71,9.23-1.26,1.68,1,1.21,2.18-.63,3.25a7.45,7.45,0,0,1-.9.44,8.31,8.31,0,0,1-6.45.05l-3.4,3.41a15.91,15.91,0,0,0,12.51-.54l3.21,1.85,3.87-2.24-3.2-1.85c3.22-2.49,3.59-5.2-.17-7.41l-.07,0C423.61,313.36,420.1,313.62,417,314.4Z" style="fill:#fff"></path></g><polygon points="397.32 310.33 401.23 308.56 404.44 309.97 401.19 308.1 397.32 310.33" style="fill:#f5f5f5;opacity:0.45"></polygon><path d="M406.81,309.12a17.92,17.92,0,0,1,8.33.28l-2.25,3.19,3.24-3.27A15.36,15.36,0,0,0,406.81,309.12Z" style="fill:#f5f5f5;opacity:0.45"></path><path d="M427,315.32l.07,0c3.76,2.21,3.39,4.92.17,7.41,2.85-3.11,2.34-5.28-.76-7.07a14.76,14.76,0,0,0-9.52-1.3C420.1,313.62,423.61,313.36,427,315.32Z" style="fill:#f5f5f5;opacity:0.45"></path><polygon points="427.25 322.77 429.7 324.66 426.58 326.86 430.45 324.63 427.25 322.77" style="fill:#f5f5f5;opacity:0.45"></polygon><path d="M420.71,322.09a8.29,8.29,0,0,1-6.17.54l-3.68,2.92,3.4-3.41A8.31,8.31,0,0,0,420.71,322.09Z" style="fill:#f5f5f5;opacity:0.45"></path><path d="M409.17,316.82a5,5,0,0,1-4.64-.44c-1.12-1-.4-2,1.27-2.89-1.81,1.19-1.63,2.24-.38,3a4,4,0,0,0,1.84.55A6.91,6.91,0,0,0,409.17,316.82Z" style="fill:#f5f5f5;opacity:0.45"></path><path d="M400.5,312.21c-.28.24-2.61,2.42-1.58,4.59s4.51,3.8,7.27,4.1h0a11.18,11.18,0,0,1-5.35-1.54C397.18,317.25,397.24,314.68,400.5,312.21Z" style="fill:#f5f5f5;opacity:0.45"></path><path d="M380.54,303.56a24.72,24.72,0,0,1,9.13-8.44c14.94-8.63,39.15-8.63,54.09,0a24.72,24.72,0,0,1,9.13,8.44H455v7.82h0c-.27,5.43-4,10.81-11.17,15-14.94,8.62-39.15,8.62-54.09,0-7.18-4.15-10.92-9.53-11.2-15h0v-7.82Z" style="fill:#0FBCF9"></path><path d="M380.54,303.56a24.72,24.72,0,0,1,9.13-8.44c14.94-8.63,39.15-8.63,54.09,0a24.72,24.72,0,0,1,9.13,8.44H455v7.82h0c-.27,5.43-4,10.81-11.17,15-14.94,8.62-39.15,8.62-54.09,0-7.18-4.15-10.92-9.53-11.2-15h0v-7.82Z" style="opacity:0.25"></path><path d="M416.71,288.65c9.79,0,19.58,2.15,27.05,6.47a24.72,24.72,0,0,1,9.13,8.44H455v7.82h0c-.28,5.43-4,10.81-11.17,15-7.47,4.31-17.26,6.47-27.05,6.47Z" style="opacity:0.1"></path><path d="M437.6,292.23a41.44,41.44,0,0,1,6.16,2.89,24.72,24.72,0,0,1,9.13,8.44H455v7.82h0c-.28,5.43-4,10.81-11.17,15a42.43,42.43,0,0,1-6.16,2.88Z" style="opacity:0.1"></path><path d="M395.83,292.23a41.44,41.44,0,0,0-6.16,2.89,24.72,24.72,0,0,0-9.13,8.44h-2.07v7.82h0c.28,5.43,4,10.81,11.2,15a42.43,42.43,0,0,0,6.16,2.88Z" style="fill:#0FBCF9;opacity:0.5"></path><path d="M443.76,288c14.93,8.63,14.93,22.61,0,31.23-13.07,7.54-33.24,8.49-48.09,2.83h0l-.59-.23a42.2,42.2,0,0,1-5.41-2.6c-12.45-7.19-14.52-18.11-6.2-26.53h0a29.68,29.68,0,0,1,6.2-4.69C404.61,279.33,428.82,279.33,443.76,288Z" style="fill:#0FBCF9"></path><path d="M443.76,288c14.93,8.63,14.93,22.61,0,31.23-13.07,7.54-33.24,8.49-48.09,2.83h0l-.59-.23a42.2,42.2,0,0,1-5.41-2.6c-12.45-7.19-14.52-18.11-6.2-26.53h0a29.68,29.68,0,0,1,6.2-4.69C404.61,279.33,428.82,279.33,443.76,288Z" style="opacity:0.2"></path><path d="M383.47,292.65a16.73,16.73,0,0,0-4,13.62c1.32,7.59,11.95,14,15.61,15.51a42.2,42.2,0,0,1-5.41-2.6C377.22,312,375.15,301.07,383.47,292.65Z" style="fill:#f5f5f5;opacity:0.5"></path><path d="M450,314.49a16.73,16.73,0,0,0,4-13.62c-1.32-7.59-11.95-14-15.61-15.51a40.91,40.91,0,0,1,5.41,2.6C456.21,295.15,458.28,306.06,450,314.49Z" style="fill:#f5f5f5;opacity:0.5"></path><path d="M391.59,318.05c-13.88-8-13.88-21,0-29s36.39-8,50.28,0,13.88,21,0,29S405.48,326.07,391.59,318.05Z" style="fill:#0FBCF9"></path><path d="M391.59,318.05c-13.88-8-13.88-21,0-29s36.39-8,50.28,0,13.88,21,0,29S405.48,326.07,391.59,318.05Z" style="fill:#fff;opacity:0.4"></path><path d="M382.8,309.67c-2.86-5.28-1.93-11.11,2.79-16.05a23.14,23.14,0,0,1,3-2.63,30.57,30.57,0,0,1,2.88-1.9c.56-.33,1.15-.65,1.75-.95-1.48,2.43-.94,5,7.43,5.53,16.39.95-4.38,16.61-4.38,16.61S385.72,305.18,382.8,309.67Z" style="fill:#fff;opacity:0.2"></path><path d="M384.49,305.34c-2.46-.28-3.68-2.81-2.73-5.65s3.73-4.93,6.19-4.65,3.67,2.8,2.72,5.64S386.94,305.61,384.49,305.34Z" style="fill:#fff;opacity:0.5"></path><path d="M410.4,318.38c.81-6.08,27.41-22.92,27.41-22.92s5.89-2.37,3.94-6.49a29,29,0,0,1,2.84,1.84c.61.44,1.19.89,1.73,1.36,7.92,6.86,7.93,15.87,0,22.73-.53.47-1.11.92-1.72,1.37-.82.59-1.69,1.17-2.64,1.72s-1.84,1-2.82,1.47c-.77.37-1.58.71-2.39,1s-1.65.63-2.5.9a51.57,51.57,0,0,1-7.93,1.91c-.59.1-1.19.18-1.79.26a63.36,63.36,0,0,1-7.93.5,60.2,60.2,0,0,1-9.71-.8S411.16,322.39,410.4,318.38Z" style="fill:#0FBCF9"></path><path d="M410.4,318.38c.81-6.08,27.41-22.92,27.41-22.92s5.89-2.37,3.94-6.49a29,29,0,0,1,2.84,1.84c.61.44,1.19.89,1.73,1.36,7.92,6.86,7.93,15.87,0,22.73-.53.47-1.11.92-1.72,1.37-.82.59-1.69,1.17-2.64,1.72s-1.84,1-2.82,1.47c-.77.37-1.58.71-2.39,1s-1.65.63-2.5.9a51.57,51.57,0,0,1-7.93,1.91c-.59.1-1.19.18-1.79.26a63.36,63.36,0,0,1-7.93.5,60.2,60.2,0,0,1-9.71-.8S411.16,322.39,410.4,318.38Z" style="fill:#fff;opacity:0.30000000000000004"></path><path d="M435.47,292.72c9.92,5.73,10.32,14.87,1.21,20.88-.39.25-.79.5-1.21.75-10.35,6-27.11,6-37.45,0s-10.35-15.65,0-21.63c.42-.24.86-.47,1.3-.7C409.72,286.76,425.55,287,435.47,292.72Z" style="fill:#0FBCF9"></path><path d="M435.47,292.72c9.92,5.73,10.32,14.87,1.21,20.88-.39.25-.79.5-1.21.75-10.35,6-27.11,6-37.45,0s-10.35-15.65,0-21.63c.42-.24.86-.47,1.3-.7C409.72,286.76,425.55,287,435.47,292.72Z" style="opacity:0.2"></path><path d="M434.63,293.2c9.88,5.71,9.88,15,0,20.67s-25.92,5.71-35.8,0-9.89-15,0-20.67S424.74,287.49,434.63,293.2Z" style="fill:#0FBCF9"></path><path d="M434.63,293.2c9.88,5.71,9.88,15,0,20.67s-25.92,5.71-35.8,0-9.89-15,0-20.67S424.74,287.49,434.63,293.2Z" style="opacity:0.5"></path><path d="M434.63,297.28c-9.89-5.71-25.92-5.71-35.8,0-4.05,2.33-6.43,5.26-7.17,8.29.74,3,3.12,6,7.17,8.3,9.88,5.71,25.91,5.71,35.8,0,4-2.33,6.43-5.26,7.16-8.3C441.06,302.54,438.67,299.61,434.63,297.28Z" style="fill:#0FBCF9"></path><path d="M434.63,297.28c-9.89-5.71-25.92-5.71-35.8,0-4.05,2.33-6.43,5.26-7.17,8.29.74,3,3.12,6,7.17,8.3,9.88,5.71,25.91,5.71,35.8,0,4-2.33,6.43-5.26,7.16-8.3C441.06,302.54,438.67,299.61,434.63,297.28Z" style="opacity:0.35000000000000003"></path><path d="M432.67,307.94c0-.49,0-2.51,0-3,0-1.24-.86-2.44-2.7-3.52l-.06,0c-3.4-2-6.92-1.71-10-.92h0c-1.33.34-2.59.77-3.75,1.17a37.09,37.09,0,0,1-4,1.24h0a7.27,7.27,0,0,1-1.91.19,4.31,4.31,0,0,1-1.58-.42l.13-.09a3.73,3.73,0,0,1,.39-.25,9.4,9.4,0,0,1,1.06-.52,7.3,7.3,0,0,1,5.63-.13l3.25-3.28v-3a15.43,15.43,0,0,0-8.88-.32,18.47,18.47,0,0,0-2.82,1l-3.24-1.87-3.88,2.24v3l1.33.77a3.21,3.21,0,0,0-.57,1.75c0,.5,0,2.49,0,3,0,1.24.89,2.44,2.76,3.51a11.21,11.21,0,0,0,5.35,1.54h0c.36,0,.72,0,1.07,0a21.4,21.4,0,0,0,5.75-1.24l1.12-.39-3.27,3.28v3a15.94,15.94,0,0,0,12.52-.54l3.2,1.85,3.88-2.24v-3l-1.33-.77A3.55,3.55,0,0,0,432.67,307.94Zm-8.17-.26a9.44,9.44,0,0,1-.9.45,8.31,8.31,0,0,1-6.33.09c3-1.07,5.56-2,7.72-.85C424.84,307.47,424.68,307.58,424.5,307.68Z" style="fill:#0FBCF9"></path><path d="M419.87,300.44h0c-1.33.34-2.59.77-3.75,1.17a37.09,37.09,0,0,1-4,1.24h0a7.27,7.27,0,0,1-1.91.19,4.22,4.22,0,0,1-1.84-.55c-1.25-.72-1.43-1.78.39-3l.39-.24a9.52,9.52,0,0,1,1.06-.53,7.39,7.39,0,0,1,5.63-.13l3.25-3.27a15.43,15.43,0,0,0-8.88-.32,18.47,18.47,0,0,0-2.82,1l-3.24-1.87-3.88,2.24,3.21,1.85,0,0c-3.25,2.48-3.32,5,.34,7.16a11.32,11.32,0,0,0,5.35,1.54h0c.36,0,.72,0,1.07,0a21,21,0,0,0,5.75-1.24c3.72-1.24,6.73-2.71,9.23-1.26,1.68,1,1.21,2.19-.63,3.25a9.44,9.44,0,0,1-.9.45,8.32,8.32,0,0,1-6.45.05l-3.4,3.41a15.94,15.94,0,0,0,12.52-.54l3.2,1.85,3.88-2.24-3.21-1.85c3.22-2.49,3.59-5.21-.17-7.41l-.06,0C426.51,299.39,423,299.65,419.87,300.44Z" style="fill:#0FBCF9"></path><g style="opacity:0.30000000000000004"><path d="M419.87,300.44h0c-1.33.34-2.59.77-3.75,1.17a37.09,37.09,0,0,1-4,1.24h0a7.27,7.27,0,0,1-1.91.19,4.22,4.22,0,0,1-1.84-.55c-1.25-.72-1.43-1.78.39-3l.39-.24a9.52,9.52,0,0,1,1.06-.53,7.39,7.39,0,0,1,5.63-.13l3.25-3.27a15.43,15.43,0,0,0-8.88-.32,18.47,18.47,0,0,0-2.82,1l-3.24-1.87-3.88,2.24,3.21,1.85,0,0c-3.25,2.48-3.32,5,.34,7.16a11.32,11.32,0,0,0,5.35,1.54h0c.36,0,.72,0,1.07,0a21,21,0,0,0,5.75-1.24c3.72-1.24,6.73-2.71,9.23-1.26,1.68,1,1.21,2.19-.63,3.25a9.44,9.44,0,0,1-.9.45,8.32,8.32,0,0,1-6.45.05l-3.4,3.41a15.94,15.94,0,0,0,12.52-.54l3.2,1.85,3.88-2.24-3.21-1.85c3.22-2.49,3.59-5.21-.17-7.41l-.06,0C426.51,299.39,423,299.65,419.87,300.44Z" style="fill:#fff"></path></g><polygon points="400.21 296.37 404.13 294.59 407.33 296 404.09 294.13 400.21 296.37" style="fill:#f5f5f5;opacity:0.45"></polygon><path d="M409.7,295.15a18.19,18.19,0,0,1,8.33.28l-2.25,3.19,3.25-3.27A15.47,15.47,0,0,0,409.7,295.15Z" style="fill:#f5f5f5;opacity:0.45"></path><path d="M429.91,301.36l.06,0c3.76,2.2,3.39,4.92.17,7.41,2.86-3.11,2.34-5.28-.76-7.07a14.61,14.61,0,0,0-9.51-1.3C423,299.65,426.51,299.39,429.91,301.36Z" style="fill:#f5f5f5;opacity:0.45"></path><polygon points="430.14 308.81 432.6 310.7 429.47 312.9 433.35 310.66 430.14 308.81" style="fill:#f5f5f5;opacity:0.45"></polygon><path d="M423.6,308.13a8.35,8.35,0,0,1-6.17.54l-3.68,2.92,3.4-3.41A8.32,8.32,0,0,0,423.6,308.13Z" style="fill:#f5f5f5;opacity:0.45"></path><path d="M412.06,302.85a5,5,0,0,1-4.63-.44c-1.12-1-.41-2,1.27-2.89-1.82,1.19-1.64,2.25-.39,3a4.22,4.22,0,0,0,1.84.55A7.27,7.27,0,0,0,412.06,302.85Z" style="fill:#f5f5f5;opacity:0.45"></path><path d="M403.39,298.24c-.27.25-2.6,2.42-1.58,4.59,1.1,2.32,4.52,3.81,7.27,4.11h0a11.32,11.32,0,0,1-5.35-1.54C400.07,303.28,400.14,300.72,403.39,298.24Z" style="fill:#f5f5f5;opacity:0.45"></path><path d="M371.67,294.63a24.68,24.68,0,0,1,9.14-8.44c14.93-8.63,39.14-8.63,54.08,0a24.72,24.72,0,0,1,9.13,8.44h2.07v7.82h0c-.27,5.43-4,10.81-11.17,15-14.94,8.62-39.15,8.62-54.08,0-7.19-4.15-10.93-9.53-11.2-15h0v-7.82Z" style="fill:#0FBCF9"></path><path d="M371.67,294.63a24.68,24.68,0,0,1,9.14-8.44c14.93-8.63,39.14-8.63,54.08,0a24.72,24.72,0,0,1,9.13,8.44h2.07v7.82h0c-.27,5.43-4,10.81-11.17,15-14.94,8.62-39.15,8.62-54.08,0-7.19-4.15-10.93-9.53-11.2-15h0v-7.82Z" style="opacity:0.25"></path><path d="M407.84,279.72c9.79,0,19.58,2.15,27.05,6.47a24.72,24.72,0,0,1,9.13,8.44h2.07v7.82h0c-.27,5.43-4,10.81-11.17,15-7.47,4.31-17.26,6.47-27.05,6.47Z" style="opacity:0.1"></path><path d="M428.73,283.3a41,41,0,0,1,6.16,2.89,24.72,24.72,0,0,1,9.13,8.44h2.07v7.82h0c-.27,5.43-4,10.81-11.17,15a41.94,41.94,0,0,1-6.16,2.88Z" style="opacity:0.1"></path><path d="M387,283.3a40.86,40.86,0,0,0-6.15,2.89,24.68,24.68,0,0,0-9.14,8.44h-2.06v7.82h0c.27,5.43,4,10.81,11.2,15a41.82,41.82,0,0,0,6.15,2.88Z" style="fill:#0FBCF9;opacity:0.5"></path><path d="M434.89,279c14.93,8.63,14.93,22.61,0,31.23-13.07,7.54-33.24,8.49-48.08,2.83h0l-.59-.23a41.43,41.43,0,0,1-5.4-2.6c-12.46-7.19-14.53-18.11-6.21-26.53h0a29.16,29.16,0,0,1,6.2-4.69C395.74,270.4,420,270.4,434.89,279Z" style="fill:#0FBCF9"></path><path d="M434.89,279c14.93,8.63,14.93,22.61,0,31.23-13.07,7.54-33.24,8.49-48.08,2.83h0l-.59-.23a41.43,41.43,0,0,1-5.4-2.6c-12.46-7.19-14.53-18.11-6.21-26.53h0a29.16,29.16,0,0,1,6.2-4.69C395.74,270.4,420,270.4,434.89,279Z" style="opacity:0.2"></path><path d="M374.6,283.72a16.73,16.73,0,0,0-4,13.62c1.32,7.59,11.95,14,15.61,15.51a41.43,41.43,0,0,1-5.4-2.6C368.35,303.06,366.28,292.14,374.6,283.72Z" style="fill:#f5f5f5;opacity:0.5"></path><path d="M441.09,305.56a16.69,16.69,0,0,0,4-13.62c-1.32-7.59-11.95-14-15.61-15.51a40.91,40.91,0,0,1,5.41,2.6C447.34,286.22,449.41,297.13,441.09,305.56Z" style="fill:#f5f5f5;opacity:0.5"></path><ellipse cx="407.86" cy="294.61" rx="35.55" ry="20.52" style="fill:#0FBCF9"></ellipse><ellipse cx="407.86" cy="294.61" rx="35.55" ry="20.52" style="fill:#fff;opacity:0.4"></ellipse><path d="M373.93,300.74c-2.86-5.29-1.93-11.11,2.79-16.05a23.82,23.82,0,0,1,3-2.63,30.57,30.57,0,0,1,2.88-1.9c.57-.33,1.15-.65,1.75-1-1.48,2.43-.94,5,7.44,5.52,16.38,1-4.38,16.62-4.38,16.62S376.85,296.25,373.93,300.74Z" style="fill:#fff;opacity:0.2"></path><path d="M375.62,296.4c-2.46-.27-3.68-2.8-2.72-5.64s3.72-4.93,6.18-4.65,3.68,2.8,2.72,5.64S378.08,296.68,375.62,296.4Z" style="fill:#fff;opacity:0.5"></path><path d="M401.53,309.45c.81-6.08,27.41-22.92,27.41-22.92s5.9-2.37,3.94-6.49a30.87,30.87,0,0,1,2.84,1.83c.62.45,1.19.9,1.73,1.37,7.92,6.86,7.93,15.87,0,22.73-.54.47-1.12.92-1.73,1.37a30.11,30.11,0,0,1-2.64,1.72c-.9.52-1.84,1-2.81,1.47-.78.37-1.58.71-2.4,1s-1.64.63-2.49.9a52,52,0,0,1-7.94,1.91l-1.78.26a63.52,63.52,0,0,1-7.94.5,61.13,61.13,0,0,1-9.7-.8S402.29,313.46,401.53,309.45Z" style="fill:#0FBCF9"></path><path d="M401.53,309.45c.81-6.08,27.41-22.92,27.41-22.92s5.9-2.37,3.94-6.49a30.87,30.87,0,0,1,2.84,1.83c.62.45,1.19.9,1.73,1.37,7.92,6.86,7.93,15.87,0,22.73-.54.47-1.12.92-1.73,1.37a30.11,30.11,0,0,1-2.64,1.72c-.9.52-1.84,1-2.81,1.47-.78.37-1.58.71-2.4,1s-1.64.63-2.49.9a52,52,0,0,1-7.94,1.91l-1.78.26a63.52,63.52,0,0,1-7.94.5,61.13,61.13,0,0,1-9.7-.8S402.29,313.46,401.53,309.45Z" style="fill:#fff;opacity:0.30000000000000004"></path><path d="M426.6,283.79c9.92,5.73,10.32,14.87,1.21,20.88-.38.25-.79.5-1.21.75-10.35,6-27.11,6-37.45,0s-10.35-15.65,0-21.63l1.3-.7C400.85,277.83,416.68,278.07,426.6,283.79Z" style="fill:#0FBCF9"></path><path d="M426.6,283.79c9.92,5.73,10.32,14.87,1.21,20.88-.38.25-.79.5-1.21.75-10.35,6-27.11,6-37.45,0s-10.35-15.65,0-21.63l1.3-.7C400.85,277.83,416.68,278.07,426.6,283.79Z" style="opacity:0.2"></path><path d="M425.76,284.27c9.89,5.71,9.89,15,0,20.67s-25.91,5.71-35.8,0-9.89-15,0-20.67S415.87,278.56,425.76,284.27Z" style="fill:#0FBCF9"></path><path d="M425.76,284.27c9.89,5.71,9.89,15,0,20.67s-25.91,5.71-35.8,0-9.89-15,0-20.67S415.87,278.56,425.76,284.27Z" style="opacity:0.5"></path><path d="M425.76,288.35c-9.89-5.71-25.91-5.71-35.8,0-4,2.33-6.43,5.26-7.17,8.29.74,3,3.13,6,7.17,8.3,9.89,5.71,25.91,5.71,35.8,0,4-2.33,6.43-5.26,7.17-8.3C432.19,293.61,429.8,290.68,425.76,288.35Z" style="fill:#0FBCF9"></path><path d="M425.76,288.35c-9.89-5.71-25.91-5.71-35.8,0-4,2.33-6.43,5.26-7.17,8.29.74,3,3.13,6,7.17,8.3,9.89,5.71,25.91,5.71,35.8,0,4-2.33,6.43-5.26,7.17-8.3C432.19,293.61,429.8,290.68,425.76,288.35Z" style="opacity:0.35000000000000003"></path><path d="M423.8,299c0-.49,0-2.51,0-3,0-1.24-.85-2.44-2.7-3.52l-.06,0c-3.4-2-6.91-1.71-10-.92h0c-1.33.34-2.59.77-3.75,1.16a35.28,35.28,0,0,1-4,1.25h0a6.91,6.91,0,0,1-1.91.18,4,4,0,0,1-1.59-.42l.13-.08a3.89,3.89,0,0,1,.4-.25,9.53,9.53,0,0,1,1.06-.53,7.32,7.32,0,0,1,5.62-.12l3.25-3.28v-3a15.4,15.4,0,0,0-8.87-.32,18.21,18.21,0,0,0-2.83,1l-3.24-1.87-3.88,2.24v3l1.33.77a3.21,3.21,0,0,0-.57,1.75c0,.5,0,2.49,0,3,0,1.24.89,2.43,2.75,3.51a11.21,11.21,0,0,0,5.35,1.54h0c.35,0,.71,0,1.07,0a21.41,21.41,0,0,0,5.74-1.24l1.12-.39-3.27,3.28v3a15.94,15.94,0,0,0,12.52-.54l3.2,1.85,3.88-2.24v-3l-1.33-.77A3.47,3.47,0,0,0,423.8,299Zm-8.17-.26a7.56,7.56,0,0,1-.9.45,8.31,8.31,0,0,1-6.33.09c3-1.07,5.57-2,7.73-.85C416,298.54,415.81,298.65,415.63,298.75Z" style="fill:#0FBCF9"></path><path d="M411,291.51h0c-1.33.34-2.59.77-3.75,1.16a35.28,35.28,0,0,1-4,1.25h0a6.91,6.91,0,0,1-1.91.18,4,4,0,0,1-1.85-.55c-1.24-.72-1.42-1.77.39-3l.4-.24a8.06,8.06,0,0,1,1.06-.53,7.37,7.37,0,0,1,5.62-.13l3.25-3.27a15.4,15.4,0,0,0-8.87-.32,18.21,18.21,0,0,0-2.83,1l-3.24-1.87-3.88,2.24,3.21,1.85,0,0c-3.25,2.48-3.32,5,.34,7.16a11.43,11.43,0,0,0,5.35,1.54h0c.35,0,.71,0,1.07,0a21,21,0,0,0,5.74-1.24c3.72-1.24,6.73-2.71,9.23-1.26,1.68,1,1.22,2.19-.63,3.25a7.56,7.56,0,0,1-.9.45,8.32,8.32,0,0,1-6.45.05l-3.4,3.41a15.89,15.89,0,0,0,12.52-.55l3.2,1.86,3.88-2.24-3.21-1.85c3.22-2.49,3.6-5.21-.17-7.41l-.06,0C417.64,290.46,414.13,290.72,411,291.51Z" style="fill:#0FBCF9"></path><g style="opacity:0.30000000000000004"><path d="M411,291.51h0c-1.33.34-2.59.77-3.75,1.16a35.28,35.28,0,0,1-4,1.25h0a6.91,6.91,0,0,1-1.91.18,4,4,0,0,1-1.85-.55c-1.24-.72-1.42-1.77.39-3l.4-.24a8.06,8.06,0,0,1,1.06-.53,7.37,7.37,0,0,1,5.62-.13l3.25-3.27a15.4,15.4,0,0,0-8.87-.32,18.21,18.21,0,0,0-2.83,1l-3.24-1.87-3.88,2.24,3.21,1.85,0,0c-3.25,2.48-3.32,5,.34,7.16a11.43,11.43,0,0,0,5.35,1.54h0c.35,0,.71,0,1.07,0a21,21,0,0,0,5.74-1.24c3.72-1.24,6.73-2.71,9.23-1.26,1.68,1,1.22,2.19-.63,3.25a7.56,7.56,0,0,1-.9.45,8.32,8.32,0,0,1-6.45.05l-3.4,3.41a15.89,15.89,0,0,0,12.52-.55l3.2,1.86,3.88-2.24-3.21-1.85c3.22-2.49,3.6-5.21-.17-7.41l-.06,0C417.64,290.46,414.13,290.72,411,291.51Z" style="fill:#fff"></path></g><polygon points="391.35 287.44 395.26 285.66 398.46 287.07 395.22 285.2 391.35 287.44" style="fill:#f5f5f5;opacity:0.45"></polygon><path d="M400.84,286.22a18.15,18.15,0,0,1,8.32.28l-2.25,3.19,3.25-3.27A15.44,15.44,0,0,0,400.84,286.22Z" style="fill:#f5f5f5;opacity:0.45"></path><path d="M421,292.43l.06,0c3.77,2.2,3.39,4.92.17,7.41,2.86-3.11,2.34-5.28-.76-7.07a14.6,14.6,0,0,0-9.51-1.3C414.13,290.72,417.64,290.46,421,292.43Z" style="fill:#f5f5f5;opacity:0.45"></path><polygon points="421.27 299.88 423.73 301.77 420.6 303.96 424.48 301.73 421.27 299.88" style="fill:#f5f5f5;opacity:0.45"></polygon><path d="M414.73,299.2a8.35,8.35,0,0,1-6.17.54l-3.68,2.92,3.4-3.41A8.32,8.32,0,0,0,414.73,299.2Z" style="fill:#f5f5f5;opacity:0.45"></path><path d="M403.2,293.92a5,5,0,0,1-4.64-.44c-1.12-1-.4-2,1.27-2.89-1.81,1.19-1.63,2.24-.39,3a4,4,0,0,0,1.85.55A6.91,6.91,0,0,0,403.2,293.92Z" style="fill:#f5f5f5;opacity:0.45"></path><path d="M394.52,289.31c-.27.25-2.6,2.42-1.57,4.59,1.09,2.32,4.51,3.81,7.27,4.11h0a11.43,11.43,0,0,1-5.35-1.54C391.2,294.35,391.27,291.79,394.52,289.31Z" style="fill:#f5f5f5;opacity:0.45"></path><path d="M379.78,282.21a24.65,24.65,0,0,1,9.13-8.45c14.94-8.62,39.15-8.62,54.09,0a24.65,24.65,0,0,1,9.13,8.45h2.07V290h0c-.27,5.43-4,10.82-11.17,15-14.94,8.62-39.15,8.62-54.09,0-7.18-4.15-10.92-9.54-11.2-15h0v-7.81Z" style="fill:#0FBCF9"></path><path d="M379.78,282.21a24.65,24.65,0,0,1,9.13-8.45c14.94-8.62,39.15-8.62,54.09,0a24.65,24.65,0,0,1,9.13,8.45h2.07V290h0c-.27,5.43-4,10.82-11.17,15-14.94,8.62-39.15,8.62-54.09,0-7.18-4.15-10.92-9.54-11.2-15h0v-7.81Z" style="opacity:0.25"></path><path d="M416,267.29c9.79,0,19.58,2.16,27.05,6.47a24.65,24.65,0,0,1,9.13,8.45h2.07V290h0c-.27,5.43-4,10.82-11.17,15-7.47,4.31-17.26,6.46-27.05,6.46Z" style="opacity:0.1"></path><path d="M436.84,270.88a41.94,41.94,0,0,1,6.16,2.88,24.65,24.65,0,0,1,9.13,8.45h2.07V290h0c-.27,5.43-4,10.82-11.17,15a41.94,41.94,0,0,1-6.16,2.88Z" style="opacity:0.1"></path><path d="M395.07,270.88a42.43,42.43,0,0,0-6.16,2.88,24.65,24.65,0,0,0-9.13,8.45h-2.07V290h0c.28,5.43,4,10.82,11.2,15a42.43,42.43,0,0,0,6.16,2.88Z" style="fill:#0FBCF9;opacity:0.5"></path><path d="M443,266.6c14.93,8.62,14.93,22.6,0,31.22-13.07,7.55-33.24,8.49-48.08,2.83h0l-.59-.23a40.91,40.91,0,0,1-5.41-2.6c-12.45-7.19-14.52-18.1-6.2-26.53h0a29.34,29.34,0,0,1,6.2-4.69C403.85,258,428.06,258,443,266.6Z" style="fill:#0FBCF9"></path><path d="M443,266.6c14.93,8.62,14.93,22.6,0,31.22-13.07,7.55-33.24,8.49-48.08,2.83h0l-.59-.23a40.91,40.91,0,0,1-5.41-2.6c-12.45-7.19-14.52-18.1-6.2-26.53h0a29.34,29.34,0,0,1,6.2-4.69C403.85,258,428.06,258,443,266.6Z" style="opacity:0.2"></path><path d="M382.71,271.29a16.73,16.73,0,0,0-4,13.62c1.32,7.59,12,14,15.61,15.51a40.91,40.91,0,0,1-5.41-2.6C376.46,290.63,374.39,279.72,382.71,271.29Z" style="fill:#f5f5f5;opacity:0.5"></path><path d="M449.2,293.13a16.73,16.73,0,0,0,4-13.62c-1.32-7.59-11.95-14-15.61-15.51a42.2,42.2,0,0,1,5.41,2.6C455.45,273.79,457.52,284.71,449.2,293.13Z" style="fill:#f5f5f5;opacity:0.5"></path><ellipse cx="415.97" cy="282.18" rx="35.55" ry="20.52" style="fill:#0FBCF9"></ellipse><ellipse cx="415.97" cy="282.18" rx="35.55" ry="20.52" style="fill:#fff;opacity:0.4"></ellipse><path d="M449.9,288.31c2.86-5.28,1.93-11.1-2.79-16a24.69,24.69,0,0,0-3-2.64,30.57,30.57,0,0,0-2.88-1.9c-.57-.33-1.15-.64-1.75-.94,1.48,2.43.94,5-7.44,5.52-16.38,1,4.38,16.62,4.38,16.62S447,283.83,449.9,288.31Z" style="fill:#fff;opacity:0.2"></path><path d="M448.21,284c2.46-.28,3.68-2.8,2.72-5.65s-3.72-4.92-6.18-4.65-3.68,2.81-2.72,5.65S445.75,284.26,448.21,284Z" style="fill:#fff;opacity:0.5"></path><path d="M422.3,297c-.81-6.08-27.41-22.93-27.41-22.93s-5.89-2.37-3.94-6.49a30.91,30.91,0,0,0-2.84,1.84c-.62.44-1.19.9-1.73,1.37-7.92,6.86-7.93,15.86,0,22.73.54.46,1.12.92,1.73,1.37a30.07,30.07,0,0,0,2.64,1.71c.9.53,1.84,1,2.81,1.48.78.36,1.58.71,2.4,1s1.64.62,2.49.9a53.18,53.18,0,0,0,7.94,1.91c.59.09,1.19.18,1.78.25a61.41,61.41,0,0,0,17.64-.29S421.54,301,422.3,297Z" style="fill:#0FBCF9"></path><path d="M422.3,297c-.81-6.08-27.41-22.93-27.41-22.93s-5.89-2.37-3.94-6.49a30.91,30.91,0,0,0-2.84,1.84c-.62.44-1.19.9-1.73,1.37-7.92,6.86-7.93,15.86,0,22.73.54.46,1.12.92,1.73,1.37a30.07,30.07,0,0,0,2.64,1.71c.9.53,1.84,1,2.81,1.48.78.36,1.58.71,2.4,1s1.64.62,2.49.9a53.18,53.18,0,0,0,7.94,1.91c.59.09,1.19.18,1.78.25a61.41,61.41,0,0,0,17.64-.29S421.54,301,422.3,297Z" style="fill:#fff;opacity:0.30000000000000004"></path><path d="M397.23,271.37c-9.92,5.73-10.32,14.87-1.21,20.87.39.26.79.51,1.21.75,10.35,6,27.11,6,37.45,0s10.35-15.65,0-21.62c-.43-.24-.86-.48-1.3-.7C423,265.41,407.15,265.64,397.23,271.37Z" style="fill:#0FBCF9"></path><path d="M397.23,271.37c-9.92,5.73-10.32,14.87-1.21,20.87.39.26.79.51,1.21.75,10.35,6,27.11,6,37.45,0s10.35-15.65,0-21.62c-.43-.24-.86-.48-1.3-.7C423,265.41,407.15,265.64,397.23,271.37Z" style="opacity:0.2"></path><ellipse cx="415.97" cy="282.18" rx="25.32" ry="14.62" style="fill:#0FBCF9"></ellipse><ellipse cx="415.97" cy="282.18" rx="25.32" ry="14.62" style="opacity:0.5"></ellipse><path d="M398.07,275.92c9.89-5.71,25.91-5.71,35.8,0,4,2.34,6.43,5.26,7.17,8.3-.74,3-3.13,6-7.17,8.3-9.88,5.7-25.91,5.7-35.8,0-4-2.34-6.43-5.27-7.17-8.3C391.64,281.18,394,278.26,398.07,275.92Z" style="fill:#0FBCF9"></path><path d="M398.07,275.92c9.89-5.71,25.91-5.71,35.8,0,4,2.34,6.43,5.26,7.17,8.3-.74,3-3.13,6-7.17,8.3-9.88,5.7-25.91,5.7-35.8,0-4-2.34-6.43-5.27-7.17-8.3C391.64,281.18,394,278.26,398.07,275.92Z" style="opacity:0.35000000000000003"></path><path d="M431.91,286.58c0-.49,0-2.5,0-3,0-1.24-.86-2.44-2.7-3.52l-.06,0c-3.4-2-6.91-1.7-10-.92h0c-1.33.33-2.59.76-3.75,1.16a37.09,37.09,0,0,1-4,1.24h0a7,7,0,0,1-1.92.18,4,4,0,0,1-1.58-.42l.13-.09.39-.24a9.52,9.52,0,0,1,1.06-.53,7.39,7.39,0,0,1,5.63-.13l3.25-3.27v-3a15.52,15.52,0,0,0-8.88-.32,18.53,18.53,0,0,0-2.82,1l-3.24-1.88L399.45,275v3l1.33.76a3.24,3.24,0,0,0-.57,1.75c0,.5,0,2.5,0,3,0,1.24.89,2.44,2.76,3.52a11.43,11.43,0,0,0,5.35,1.54h0c.36,0,.72,0,1.07,0a21,21,0,0,0,5.75-1.24l1.12-.38L413,290.23v3a15.9,15.9,0,0,0,12.52-.55l3.2,1.86,3.88-2.24v-3l-1.33-.76A3.58,3.58,0,0,0,431.91,286.58Zm-8.17-.26a6.3,6.3,0,0,1-.9.45,8.31,8.31,0,0,1-6.33.1c3-1.07,5.57-2,7.72-.86A4.58,4.58,0,0,1,423.74,286.32Z" style="fill:#0FBCF9"></path><path d="M419.11,279.08h0c-1.33.33-2.59.76-3.75,1.16a37.09,37.09,0,0,1-4,1.24h0a7,7,0,0,1-1.92.18,4.09,4.09,0,0,1-1.84-.55c-1.24-.72-1.43-1.77.39-3l.39-.25a9.4,9.4,0,0,1,1.06-.52,7.3,7.3,0,0,1,5.63-.13l3.25-3.28a15.52,15.52,0,0,0-8.88-.32,18.53,18.53,0,0,0-2.82,1l-3.24-1.88L399.45,275l3.21,1.85,0,0c-3.25,2.47-3.32,5,.34,7.15a11.21,11.21,0,0,0,5.35,1.54h0c.36,0,.72,0,1.07,0a21.4,21.4,0,0,0,5.75-1.24c3.72-1.25,6.73-2.71,9.23-1.26,1.68,1,1.21,2.18-.63,3.24a6.3,6.3,0,0,1-.9.45,8.32,8.32,0,0,1-6.45.05l-3.4,3.41a15.94,15.94,0,0,0,12.52-.54l3.2,1.85,3.88-2.24-3.21-1.85c3.22-2.49,3.59-5.2-.17-7.41l-.06,0C425.75,278,422.24,278.3,419.11,279.08Z" style="fill:#0FBCF9"></path><g style="opacity:0.30000000000000004"><path d="M419.11,279.08h0c-1.33.33-2.59.76-3.75,1.16a37.09,37.09,0,0,1-4,1.24h0a7,7,0,0,1-1.92.18,4.09,4.09,0,0,1-1.84-.55c-1.24-.72-1.43-1.77.39-3l.39-.25a9.4,9.4,0,0,1,1.06-.52,7.3,7.3,0,0,1,5.63-.13l3.25-3.28a15.52,15.52,0,0,0-8.88-.32,18.53,18.53,0,0,0-2.82,1l-3.24-1.88L399.45,275l3.21,1.85,0,0c-3.25,2.47-3.32,5,.34,7.15a11.21,11.21,0,0,0,5.35,1.54h0c.36,0,.72,0,1.07,0a21.4,21.4,0,0,0,5.75-1.24c3.72-1.25,6.73-2.71,9.23-1.26,1.68,1,1.21,2.18-.63,3.24a6.3,6.3,0,0,1-.9.45,8.32,8.32,0,0,1-6.45.05l-3.4,3.41a15.94,15.94,0,0,0,12.52-.54l3.2,1.85,3.88-2.24-3.21-1.85c3.22-2.49,3.59-5.2-.17-7.41l-.06,0C425.75,278,422.24,278.3,419.11,279.08Z" style="fill:#fff"></path></g><polygon points="399.45 275.01 403.37 273.24 406.57 274.65 403.33 272.77 399.45 275.01" style="fill:#f5f5f5;opacity:0.45"></polygon><path d="M408.94,273.8a17.92,17.92,0,0,1,8.33.28L415,277.27l3.25-3.27A15.39,15.39,0,0,0,408.94,273.8Z" style="fill:#f5f5f5;opacity:0.45"></path><path d="M429.15,280l.06,0c3.76,2.21,3.39,4.92.17,7.41,2.86-3.11,2.34-5.28-.76-7.07a14.73,14.73,0,0,0-9.51-1.3C422.24,278.3,425.75,278,429.15,280Z" style="fill:#f5f5f5;opacity:0.45"></path><polygon points="429.38 287.45 431.84 289.34 428.71 291.54 432.59 289.31 429.38 287.45" style="fill:#f5f5f5;opacity:0.45"></polygon><path d="M422.84,286.77a8.29,8.29,0,0,1-6.17.54L413,290.23l3.4-3.41A8.32,8.32,0,0,0,422.84,286.77Z" style="fill:#f5f5f5;opacity:0.45"></path><path d="M411.31,281.5a5,5,0,0,1-4.64-.44c-1.12-1-.41-2,1.27-2.89-1.82,1.19-1.63,2.24-.39,3a4.09,4.09,0,0,0,1.84.55A7,7,0,0,0,411.31,281.5Z" style="fill:#f5f5f5;opacity:0.45"></path><path d="M402.63,276.89c-.27.24-2.6,2.42-1.57,4.59s4.51,3.8,7.26,4.1h0A11.21,11.21,0,0,1,403,284C399.31,281.93,399.38,279.36,402.63,276.89Z" style="fill:#f5f5f5;opacity:0.45"></path><polygon points="448.15 278.02 449.11 270.71 450.08 278.02 462.75 278.58 450.08 279.14 449.11 286.45 448.15 279.14 435.48 278.58 448.15 278.02" style="fill:#fff"></polygon></g></g><g id="freepik--Character--inject-41"><g id="freepik--character--inject-41"><g id="freepik--Bottom--inject-41"><path d="M78.22,332.37c.57-3-2.39-4.8-3.81-6.47-2.21-2.58-3-6.67-3-9.83-.13-3.95-.7-6.75,1.54-10.4,2.65-4.32,6.37-9.41,19-22l-17.37-8.22c-3.16,5.59-10.38,17.14-10.38,17.14l-.67,1c-1.52,2-2.36,3.62-4.74,5.41l-.88.51c-1.5,1.14-5.37,2.44-5.15,6.22s1.68,4.66,3.46,7.69a11.54,11.54,0,0,1,2.17,6.68c.18,3,0,4.36.11,7.08.06,2.29,2.25,5.54,6.58,6.88C71.35,336,77.67,335.34,78.22,332.37Z" style="fill:#9e6767"></path><path d="M50.51,305.93a42.43,42.43,0,0,0-4.34,8.47l4.53,6,3.36-6.39A23.06,23.06,0,0,1,50.51,305.93Z" style="fill:#263238"></path><path d="M50.7,320.44l5.88-.63a5.35,5.35,0,0,0-.73-3.73,7.71,7.71,0,0,0-1.79-2Z"></path><path d="M51.63,304.49a4.42,4.42,0,0,0-1.09,1.31,11.46,11.46,0,0,0,1.52,6.34c1.3,1.84,3.38,3.77,4,6.43s-.35,6.82.83,10.53,4.86,7.87,12.54,8.59c5.49.53,7.51-.62,9.29-1.86.57-2.46.48-3.09-2.59-5S51.63,304.49,51.63,304.49Z" style="fill:#263238"></path><path d="M61.41,294.21c-2.33,3.1-3.16,4.29-5.36,5.72-2.66,1.73-3.2,2.41-4.42,4.56-.42,3.27.27,4.59,3.32,8.64a12.39,12.39,0,0,1,2.92,8.53c.12,4.73-1.43,7,4.35,11.66,4.5,3.61,14,3.51,16.5.79,2-6.53-3.69-5.86-5.3-12.65-.89-3.76-1.7-7.92-.7-11.75a13.66,13.66,0,0,1,1.63-3.66c.64-1,2.56-3.38,1.41-4.62L75,302.54c-1.37.37-4.43-.14-6.71-1.89-5.5-4.22-4.77-7-4.77-7l.67-1C63.59,292,62.74,292.46,61.41,294.21Z" style="fill:#37474f"></path><path d="M94.92,219.67l12.89-17.59s17.79-9.59,24.43-16.37a71.77,71.77,0,0,1,2.52,36.16,95.19,95.19,0,0,1-20.27,42.32c-5.48,6.42-33.91,31.69-33.91,31.69-2.85-.41-10.8-6.66-11.8-10.76,0,0,6.22-11.15,9.9-16.88,4.8-7.47,6.21-11.05,15.22-17.33C93.18,243.23,94.92,219.67,94.92,219.67Z" style="fill:#37474f"></path><path d="M72.46,284.39l-.59-.38.35-.55c8.64-13.51,16.86-26.07,36-30.18l.15.68c-18.86,4-27,16.47-35.56,29.88Z" style="fill:#263238"></path><path d="M87.8,255.78l.93-.85.39-.34,1-.82.47-.37c.35-.28.72-.57,1.11-.86l.47-.36,1.76-1.27c0-.31-.05-.66-.07-1,0-.09,0-.19,0-.28,0-.35,0-.71,0-1.1a.31.31,0,0,1,0-.1c0-.42,0-.87,0-1.33,0-.11,0-.21,0-.32v-1.47c0-.51,0-1,0-1.59v-.27c0-.51,0-1,0-1.57v-.1c0-.6,0-1.21,0-1.83v-.06c0-.61,0-1.23.07-1.85v0L119,217c.12-.54,12-8.23,12-8.23-.86,7.52-8.59,11-8.59,11l2.63,29c-.15.26-2.21,3.83-2.37,4.09s-.36.6-.55.89c-.29.47-.58.92-.87,1.37l-.45.69c-.42.63-.83,1.25-1.24,1.84l-.45.62-.81,1.14-.49.66-.73,1-.45.58-.74.93-.34.42c-.34.43-.68.83-1,1.2-2.95,3.46-12.56,12.38-20.79,19.88a88.88,88.88,0,0,1,.38-11.87L87.6,256Z" style="fill:#263238"></path><path d="M66.5,288.82s-.26,3.57,4.43,7.22a11.33,11.33,0,0,0,7.45,2.53l5.55-5.43s-3,.8-7.6-3.2a14.38,14.38,0,0,1-5.08-9.43Z" style="fill:#455a64"></path><path d="M117.62,350.08c1.48,4.36,6.62,5.32,10.65,4,2.28-.75,3.37-3.33,4.81-5,2.12-2.53,5.26-4,8.35-5.14s6.3-2.24,8.89-4.29a14.11,14.11,0,0,0,4.7-6.79,5.5,5.5,0,0,0,.3-2.63c-.38-2.12-2.7-3.41-4.86-3.42s-4.17.95-6.14,1.81a81.6,81.6,0,0,1-8.17,3,9.11,9.11,0,0,1-2.67.53c-1.44,0-3.63-1.13-4.18-2.36-.87-2-1.87-23.74-1.86-24.75l-20.76,5.26s7.78,23.53,9,27.5A8.36,8.36,0,0,1,116,339C116.6,342.65,116.39,346.49,117.62,350.08Z" style="fill:#9e6767"></path><path d="M88.45,187.24c-7.08,14.74-9.71,20.53-6.76,35.37,2,10.11,8.43,26.92,16.16,49.59-.54,13,1.41,16.93,4.16,26,4.22,13.83,9.31,26.16,9.31,26.16s3.65-5.78,17.06-5c-.82-13.08-1.59-38.73-2.68-48.21-1.63-14.07-6.22-54.24-6.22-54.24s16.78-2,16.78-29.65Z" style="fill:#37474f"></path><path d="M115.9,321a253.15,253.15,0,0,1-8.07-24.08,93.74,93.74,0,0,1-3-17.44c-.22-3.5-.27-7.8-.35-9.32-.26-5-2.42-15.65-6.34-27.29a180.36,180.36,0,0,1-6.46-27l.35,0a6.06,6.06,0,0,0,3.84-1.38c3.47-2.72,5.83-9.36,7-19.73l-.69-.08c-1.15,10-3.49,16.7-6.76,19.27a5.37,5.37,0,0,1-3.87,1.2c-1.44-9.9,1.11-17,3.37-23.25.57-1.61,1.11-3.13,1.59-4.67h-.73c-.46,1.45-1,2.9-1.52,4.43-2.3,6.4-4.91,13.65-3.36,23.87a173.15,173.15,0,0,0,6.57,27.56c3.72,11.09,6.05,22.18,6.3,27.11.08,1.47.13,5.78.35,9.23a87.06,87.06,0,0,0,3.08,17.49c1.74,6.57,5.12,16.78,8.09,24.38C115.47,321.2,115.69,321.11,115.9,321Z" style="fill:#263238"></path><path d="M153.79,325.88c-1.84-1.93-5.56-.66-8,.32-5.05,2.05-6.58,3.45-10.33,4.16-5.43,1-5.26-2.07-5.26-2.07s-4-2.87-11,1c-5,2.72-4.94,6.26-4.94,6.26A24.06,24.06,0,0,1,116,343.8c.19,5.09.64,6.7,1.29,8.13l22.64-14.8,1.61-.38C146.43,334.08,153.79,325.88,153.79,325.88Z" style="fill:#37474f"></path><path d="M156.56,329.58a4.15,4.15,0,0,0-1.42-2.84c-.26-.19-1.18-.73-1.35-.86-2.33-1.67-6.8,1.47-10.59,4.59-4.42,3.63-12.07,4.16-15.75,9.21s-8,6.84-9.54,9.07a3.82,3.82,0,0,0,.18,4.69c.21.25,1,1,1.13,1.2,1.07,1.13,3,1.66,5.41,1.32,4.78-.68,8.27-2,12.46-7.41s9-2.6,13.78-6A13.17,13.17,0,0,0,156.56,329.58Z" style="fill:#263238"></path><path d="M156.56,329.58c-1.06-6.37-7.1-2.28-12,1.75-4.42,3.63-12.07,4.16-15.75,9.2s-8.12,6.78-9.53,9.08c-2.58,4.17.57,7,5.36,6.35s8.27-2,12.46-7.41,9-2.6,13.78-6A13.17,13.17,0,0,0,156.56,329.58Z"></path><path d="M139.47,345.52l-10.67-5c-3.67,5.05-8.12,6.78-9.53,9.08a13.63,13.63,0,0,0-1.59,3.23l1.66,3.61.56.61h0c1.07,1.11,3,1.63,5.37,1.3,4.79-.68,8.27-2,12.47-7.41.86-1.12,1.64-2.12,2.38-3Z" style="fill:#263238"></path><path d="M119.93,352c-2.57,4.18.58,7,5.36,6.36s8.27-2,12.47-7.41c.86-1.12,1.64-2.12,2.38-3l-10.67-5C125.79,348,121.35,349.72,119.93,352Z"></path><path d="M108.46,317l3.5,9.25s4.4-5.41,16.54-4.59l-.57-10.16S116,309,108.46,317Z" style="fill:#455a64"></path></g><g id="freepik--Top--inject-41"><path id="freepik--Chest--inject-41" d="M87.83,187.49c1.18-3.69,4.42-5.14,4.7-14.39.14-4.58,0-15.09,0-15.09s8.12-4.69,8.64-22.4l8.85-1.9,4.78-.81,12.51,2.7,6.16,2.89c1.89,2.3,5.44,6,7.91,11.18,3.56,7.48,3.14,15-2.63,19.6-.23,1.06-1.83,17.49-1.28,21.71a7.84,7.84,0,0,1-1.36,5.71C130.12,203.5,100.68,206.8,87.83,187.49Z" style="fill:#fafafa"></path><path d="M212.4,127c1.12-.24,1.33.83.64,1.63-1.64,1.9-4.72,1.79-6.17,2.59-.34.23-4.4,3.95-4.52,5.09,1.15-.51,4.64-2.41,5.82-2.86.34-.13,1.3-.31,4.28-.86a4.2,4.2,0,0,1,1.55-.14c.36.11.73.86.07,1.61-1.16,1.34-3.3,1.29-4.95,1.95-.81.3-3.31,1.39-4.05,3,2.44-.7,4-.61,7.78-.27.44,0,.52.27.5.56a1.53,1.53,0,0,1-.84,1.13c-1,.55-2.54.33-4.2.55a10.67,10.67,0,0,0-4.66,2.11,4.59,4.59,0,0,0-1.27,1.4,22.62,22.62,0,0,0-.95,2.21,8,8,0,0,1-7.7,4.56.89.89,0,0,1-.9-1.18c.13-3.6,1.88-6.92,3.17-10.29.43-1.11,3.77-9.38,3.94-9.66.07-.12,8.71-2.42,9-2.45C209.76,127.53,211.32,127.19,212.4,127Z" style="fill:#874c4c"></path><path d="M143.24,142.9c3.65,2.43,22.41,13.37,22.41,13.37S181.51,148.07,185,146c4.75-2.84,6.22-6.27,7.54-9.27,1.89-4.31,2.57-4.54,4.62-5.88,1.27-.83,4.12-3.18,4.23-3.26a4.12,4.12,0,0,1,1.48-.55c.27-.08,1.41-.35,1.69-.41,1.59-.38,2.59-.53,4.17-.91a7.59,7.59,0,0,1,1.49-.24.64.64,0,0,1,.31.06.55.55,0,0,1,.14.58,3.57,3.57,0,0,1-1.8,2.25,12.12,12.12,0,0,1-2.77,1c-.58.18-.92.23-2.1.58a2.8,2.8,0,0,0-1.2.84,32.61,32.61,0,0,0-4.57,5.44,11.74,11.74,0,0,0,5.43-3c1.39-1.4,2.69.4,1.39,2.65-1.49,2.59-3.76,3-5.66,6.44s.92,6.85-3.55,9.68a65.32,65.32,0,0,0-7.33,4.63c-3.44,2.62-14,12.13-16.63,13.85-5.82,3.76-6.11,3.57-18.6-2.35-17.61-8.35-15.32-7.77-15.32-7.77l-4.37-22.3A36.21,36.21,0,0,1,143.24,142.9Z" style="fill:#9e6767"></path><path d="M133.6,137.69a45.14,45.14,0,0,1,10.68,5.23c11.18,6.71,21.29,12.94,21.29,12.94l11.05-5.65a10.34,10.34,0,0,0,1,6.62,7.74,7.74,0,0,0,6.07,4.14s-4,3.53-8.91,7.53-6.93,4.8-8.54,5.05-3.55-.84-7.46-2.54-21.3-10.52-21.3-10.52Z" style="fill:#0FBCF9"></path><path d="M198.19,136.27a14.17,14.17,0,0,0-3.24,1.86c-.37.33-.25-.81,1.32-2s2.9-1.09,3.26-1.63Z" style="fill:#874c4c"></path><path d="M127.28,135.6l6.29,2.08c5.39,5.76,11.3,15.49,10.59,22.06a17.88,17.88,0,0,1-4.77,10.41s-1.52,14.48-1.21,21.73,1.15,24.17,1.15,24.17a23.39,23.39,0,0,1-8.77,2.53c0-9.24,1.71-42.79,3.29-50.64S137.73,147.65,127.28,135.6Z" style="fill:#0FBCF9"></path><path d="M127.28,135.6l6.29,2.08c5.39,5.76,11.3,15.49,10.59,22.06a17.88,17.88,0,0,1-4.77,10.41s-1.52,14.48-1.21,21.73,1.15,24.17,1.15,24.17a23.39,23.39,0,0,1-8.77,2.53c0-9.24,1.71-42.79,3.29-50.64S137.73,147.65,127.28,135.6Z" style="opacity:0.30000000000000004"></path><path d="M134.19,171.78c.87-2,1.79-4,2.72-6s1.84-4,2.71-6a23.52,23.52,0,0,0,1.13-3c.33-1-.23-1.91-.79-2.81a29.22,29.22,0,0,0-4.26-4.85l-.15-.14.07-.19a10.63,10.63,0,0,0,.58-3.42,9.31,9.31,0,0,0-.63-3.43,10.44,10.44,0,0,0-2-2.9,16.85,16.85,0,0,0-2.74-2.31,14.85,14.85,0,0,1,2.91,2.14,10,10,0,0,1,2.19,2.91,9.23,9.23,0,0,1,.79,3.58,10.35,10.35,0,0,1-.55,3.65l-.08-.33a28.91,28.91,0,0,1,4.42,4.94,7.78,7.78,0,0,1,.78,1.52,2,2,0,0,1,.11.44,1.35,1.35,0,0,1,.07.46,2.82,2.82,0,0,1-.13.89,24,24,0,0,1-1.19,3.1c-.89,2-1.91,3.95-2.9,5.9S135.21,169.85,134.19,171.78Z" style="opacity:0.2"></path><path d="M110,133.71s2.11,4,4.28,12.8,4.35,16.89,3,24.49-10.67,46.5-10.67,46.5-11.19-.24-20.38-5.92l3.44-15.1-6.25,13.87a19.19,19.19,0,0,1-4.92-3.72c5.31-15.4,11.39-22.58,12.69-28.38.89-4-.6-15.7.48-25.85a60.43,60.43,0,0,1,4.46-16.53Z" style="fill:#0FBCF9"></path><path d="M110,133.71s2.11,4,4.28,12.8,4.35,16.89,3,24.49-10.67,46.5-10.67,46.5-11.19-.24-20.38-5.92l3.44-15.1-6.25,13.87a19.19,19.19,0,0,1-4.92-3.72c5.31-15.4,11.39-22.58,12.69-28.38.89-4-.6-15.7.48-25.85a60.43,60.43,0,0,1,4.46-16.53Z" style="opacity:0.30000000000000004"></path><path d="M115.41,173a17.89,17.89,0,0,0-2.08-5.78c-1-1.82-2-3.58-3.14-5.32-.55-.87-1.11-1.73-1.68-2.6l-.86-1.29c-.14-.23-.28-.43-.43-.68a1.23,1.23,0,0,1-.1-.2c0-.1-.06-.21-.08-.31a2.26,2.26,0,0,1,0-.53,9.48,9.48,0,0,1,1.59-2.85c.64-.83,1.31-1.63,2-2.4l0,.51-2.57-3.69L106.8,146l-.31-.47-.16-.23a1.48,1.48,0,0,1-.21-.37,1.77,1.77,0,0,1,0-.71c0-.19.1-.38.16-.57a35.28,35.28,0,0,1,1.82-4.17c.68-1.35,1.37-2.69,2.12-4-.6,1.38-1.21,2.76-1.79,4.15a44.49,44.49,0,0,0-1.58,4.2,2.75,2.75,0,0,0-.14.93c0-.09,0,.05.09.11l.16.23.34.45,1.34,1.84,2.65,3.68.19.27-.23.25c-.67.76-1.33,1.55-1.93,2.37a9.08,9.08,0,0,0-1.48,2.51c0,.08,0,.19,0,.24a.2.2,0,0,1,0,.07.61.61,0,0,0,.07.14c.11.2.26.43.39.64l.84,1.31c.56.87,1.11,1.75,1.65,2.63,1.05,1.79,2.06,3.62,2.93,5.51a25.11,25.11,0,0,1,1.12,2.92A10.64,10.64,0,0,1,115.41,173Z" style="opacity:0.2"></path><g id="freepik--Head--inject-41"><g id="freepik--head--inject-41"><g id="freepik--head--inject-41"><path d="M112.25,130.25a11.71,11.71,0,0,0,2.28-.75,7.07,7.07,0,0,1,3.41-.72c1.45.18,2.62,1.18,4,1.58a5.92,5.92,0,0,0,2.37.15c.49-.06,1-.21,1.45-.31a6.79,6.79,0,0,1,2.42-.08,5.56,5.56,0,0,0,2.5,0c1.29-.41,2.06-1.77,3.31-2.3s3,0,4.51-.27a4.77,4.77,0,0,0,3.23-2.32,6.66,6.66,0,0,0,.79-4,5.88,5.88,0,0,1,.05-2.8,5.47,5.47,0,0,1,1.19-1.49c.89-.93,1.64-2.23,1.26-3.46-.33-1.07-1.46-1.85-1.51-3a1.74,1.74,0,0,1,2.11-1.68,1.77,1.77,0,0,1,1,2.54,4.39,4.39,0,0,0,2.07-3.17,4.25,4.25,0,0,0-1.37-2.91A30.38,30.38,0,0,1,145,103a4.3,4.3,0,0,1-.78-1.59,3.2,3.2,0,0,1-.07-.87c0-.52.26-1,.35-1.53a4.49,4.49,0,0,0-3-5c-1.1-.32-2.43-.27-3.16-1.16a8,8,0,0,1-.82-2.35c-.77-2-3.44-2.64-5.45-1.91-1,.36-2,1-3,.73a4.74,4.74,0,0,1-1.79-1.24A8.76,8.76,0,0,0,124,86.34a8.86,8.86,0,0,0-1.77-.38c-.3,0-.6,0-.9,0s-.47,0-.69,0a5.59,5.59,0,0,0-.59-.08c-.25,0-.49,0-.74,0a7.49,7.49,0,0,0-2.8.9,7.09,7.09,0,0,0-1.86,1.5,10.33,10.33,0,0,1-1.17,1.3c-1.16.93-2.78.88-4.25,1a9.55,9.55,0,0,0-4.76,1.73,6.11,6.11,0,0,0-2.5,4.29,5.29,5.29,0,0,1-.33,2.25,3,3,0,0,1-1.32,1.12,34.94,34.94,0,0,0-3.68,1.82,4,4,0,0,0-2,3.36,6.47,6.47,0,0,0,1.49,3.08A3.78,3.78,0,0,1,97,111.5a12.05,12.05,0,0,1-1.18,1.85A3.44,3.44,0,0,0,97.26,118c1,.49,2.46.65,2.73,1.74a4.4,4.4,0,0,1-.3,1.84c-.35,1.86,1.4,3.6,3.27,3.9,1.05.17,2.25,0,3.08.71s.92,1.56,1.41,2.33a3.59,3.59,0,0,0,2.14,1.53c.43.12.87.07,1.3.18A3,3,0,0,0,112.25,130.25Z" style="fill:#263238"></path><path d="M111.09,123.61a3.12,3.12,0,0,1-2.33-.3,6.39,6.39,0,0,1-2.76-2.83,7.18,7.18,0,0,1-.51-5.09,3.93,3.93,0,0,1,2.35-2.45,3,3,0,0,1,2.74.07,2.68,2.68,0,0,1,.9,1.07,8.91,8.91,0,0,1,.53,1.5c.12.44.18,1.57.82,1.6.29,0,.45-.24.56-.47a4.28,4.28,0,0,0,.27-1.67c0-.33-.31-3-.24-3,3.37-1.75,2.59-7.49,4.36-9.91,2.77-3.79,7.59-3,9.18-2.22a6.25,6.25,0,0,1,6.51-.67c2.36,1.14,4,3.69,5.16,12.6,1.19,9.09-.15,15.23-2.18,17.25-1.4,1.39-5.19,2.23-8.41,2.17l-.76,4.32s5.81,6.69-3.75,6.42c-8.63-.24-12.6-8.12-12.6-8.12s1.94-11.69,1.94-11.73A2.57,2.57,0,0,1,111.09,123.61Z" style="fill:#9e6767"></path><path d="M125.51,113.12a1.51,1.51,0,1,1-1.05-1.9A1.53,1.53,0,0,1,125.51,113.12Z" style="fill:#263238"></path><path d="M128.8,122.24a1.17,1.17,0,0,1-1.42.86,1.2,1.2,0,0,1-.81-1.46,1.16,1.16,0,1,1,2.23.6Z" style="fill:#874c4c"></path><path d="M136.55,107.28l-3.24-1.58a1.72,1.72,0,0,1,2.35-.87A1.89,1.89,0,0,1,136.55,107.28Z" style="fill:#263238"></path><path d="M133.49,112.31a1.51,1.51,0,1,0,.8-2A1.55,1.55,0,0,0,133.49,112.31Z" style="fill:#263238"></path><path d="M124,106.28,120.54,108a1.85,1.85,0,0,1,.79-2.57A2,2,0,0,1,124,106.28Z" style="fill:#263238"></path><polygon points="134.75 116.63 129.95 118.69 128.84 109.72 134.75 116.63" style="fill:#874c4c"></polygon></g></g><path d="M128,131.28c-4.63,0-10.22-1.78-12.82-5.79.7,3.73,5.66,6.35,8.29,7a14.44,14.44,0,0,0,4.21.64Z" style="fill:#874c4c"></path></g><g id="freepik--Briefcase--inject-41"><path d="M17.17,252.44l15.14-38.37a3.37,3.37,0,0,1,2.09-1.68l1.34-.37a1.26,1.26,0,0,1,1.06.09h0l41.37,28.58L58.65,281.75,17.29,253.19h0A.58.58,0,0,1,17.17,252.44Z" style="fill:#37474f"></path><path d="M58.65,281.75q-5.26-3.42-10.48-6.94L37.8,267.73l-10.3-7.2q-5.14-3.63-10.21-7.34c3.51,2.29,7,4.6,10.47,6.95l10.38,7.08,10.3,7.2Q53.57,278,58.65,281.75Z" style="fill:#263238"></path><path d="M66.41,280l-6.8,1.84c-.88.24-1.38-.13-1.11-.82l15.15-38.36a3.36,3.36,0,0,1,2.08-1.69l1.35-.36c.88-.24,1.45.14,1.28.84l-10,36.84A2.87,2.87,0,0,1,66.41,280Z" style="fill:#263238"></path><path d="M47.91,270.73a.63.63,0,0,0,.67-.32L56,252.22c.09-.23-.08-.46-.37-.51a.61.61,0,0,0-.69.31l-7.37,18.19c-.1.23.07.46.36.52Z" style="fill:#0FBCF9"></path><path d="M29.06,258a.62.62,0,0,0,.66-.32l7.37-18.19c.09-.23-.08-.46-.37-.52a.64.64,0,0,0-.69.32l-7.37,18.19c-.09.23.07.46.36.51Z" style="fill:#0FBCF9"></path><path d="M62.42,260.15c1.59,1.09,4.22.44,4.86-1.2l6.36-16.34a3.39,3.39,0,0,1,2.09-1.67l1.34-.37a1.37,1.37,0,0,1,1,0L36.8,212.1h0a1.22,1.22,0,0,0-1.06-.09l-1.35.37a3.37,3.37,0,0,0-2.08,1.68L26,230.25a5.15,5.15,0,0,0,2.15,6.24Z" style="fill:#455a64"></path><polygon points="47.93 248.47 43.02 245.08 42 247.52 46.92 250.92 47.93 248.47" style="fill:#0FBCF9"></polygon></g><path d="M50.9,221.85c2-3.46,5.06-9,6.31-8.93l-.53-1.73s-1.22-.32-3.29,2.67c-1.69,2.46-4.25,6.77-4.25,6.77Z" style="fill:#37474f"></path><path d="M63.79,223.68a5.82,5.82,0,0,0,3.94-2.39,6,6,0,0,0,0-3.93c-.52-.8-2.82-4.14-3.77-4s-2.7,4.76-2.2,6.72A9.83,9.83,0,0,0,63.79,223.68Z" style="fill:#874c4c"></path><path d="M53.75,215.7a49.65,49.65,0,0,1,.24-7,43.63,43.63,0,0,1,1.35-6c1.26-5,4.41-19.82,7.08-27.33L74.56,185s-8,15.7-8.9,18.35c-.5,1.57.93,3.8,1.43,5.34a17.8,17.8,0,0,1,.68,4.53,26.88,26.88,0,0,0,.75,4.89,1.57,1.57,0,0,1,.07.61,1,1,0,0,1-1.18.73,2.22,2.22,0,0,1-1.26-.85,9.92,9.92,0,0,1-1.66-3.33c-.06-.17-.15-.37-.33-.41a.47.47,0,0,0-.41.23,5.3,5.3,0,0,0-.52,1.41,8.26,8.26,0,0,0,.39,3.75A3.24,3.24,0,0,0,66.14,223c-.19.12-.79.52-1,.62a6.84,6.84,0,0,1-1.21.46,3.07,3.07,0,0,1-2.28-.5c-.92-.53-1.5-1.59-2.5-1.94a7.9,7.9,0,0,0-.84-.2,2.52,2.52,0,0,1-1.59-1c-.31-.46-.41-1.06-.82-1.44a4.44,4.44,0,0,0-.75-.46A3.28,3.28,0,0,1,53.75,215.7Z" style="fill:#9e6767"></path><path d="M66.17,217c.85,1.61.78,4.5,0,6.67s-2.91,6.68-2.91,6.68l-1.72-1.19s.72-1.62,2.2-5c1.37-3.11,1.14-5,.81-5.88a3.5,3.5,0,0,0-1.3-1.77s.07-1.73.79-1.68C64.78,215.07,65.31,215.41,66.17,217Z" style="fill:#263238"></path><path d="M78.14,179.47s14.19-15.39,17.16-18.82,8.92-16.61,4.43-25.34c-7.46,0-9.89,1-16,8.69s-15.39,19.76-18.31,23.89c-2.2,3.12-3.07,6.2-4.57,11.85-1.31,4.93-2.15,8.86-2.15,8.86s1,1.75,6,3.25c4.55,1.38,6.41.06,6.41.06Z" style="fill:#0FBCF9"></path></g></g></g><g id="freepik--Arrow--inject-41"><g id="freepik--arrow--inject-41"><polygon points="141.12 382.45 181.74 405.91 137.93 365.04 97.31 341.58 141.12 382.45" style="fill:#0FBCF9"></polygon><polygon points="97.31 341.58 141.12 382.45 181.74 405.91 137.93 365.04 97.31 341.58" style="opacity:0.30000000000000004"></polygon><polygon points="211.46 236.2 252.08 259.65 320.57 325.75 279.95 302.3 211.46 236.2" style="fill:#0FBCF9"></polygon><polygon points="211.46 236.2 252.08 259.65 320.57 325.75 279.95 302.3 211.46 236.2" style="opacity:0.30000000000000004"></polygon><polygon points="55.02 430.61 95.64 454.06 137.93 365.04 97.31 341.58 55.02 430.61" style="fill:#0FBCF9"></polygon><polygon points="145.91 372.49 181.74 405.91 252.08 259.65 211.46 236.2 145.91 372.49" style="fill:#0FBCF9"></polygon><polygon points="285.11 291.52 320.57 325.75 427.38 102.38 386.76 78.93 285.11 291.52" style="fill:#0FBCF9"></polygon><polygon points="372.48 71.69 440.91 111.2 436.15 29.86 372.48 71.69" style="fill:#0FBCF9"></polygon></g></g><g id="freepik--speech-bubble--inject-41"><g id="freepik--speech-bubble--inject-41"><g id="freepik--speech-bubble--inject-41"><path d="M214.75,62a29,29,0,1,0,0,41.06A29.07,29.07,0,0,0,214.75,62Zm-39.22,39.21a26.42,26.42,0,1,1,37.37,0A26.46,26.46,0,0,1,175.53,101.23Z" style="fill:#455a64"></path><path d="M212.9,101.23a26.42,26.42,0,1,1,0-37.36A26.46,26.46,0,0,1,212.9,101.23Z" style="fill:#fff"></path><path d="M166.92,107.62l4.16-9.41,7.48,7.48-9.41,4.15A1.69,1.69,0,0,1,166.92,107.62Z" style="fill:#455a64"></path></g><path d="M184.09,69.07l1.18,11.72a9,9,0,0,0,17.88,0l1.19-11.72Zm11,13.37v1.21h-1.52V82.44a2.74,2.74,0,0,1-2.63-2.2l1.82-.47A1.47,1.47,0,0,0,194.33,81c.72,0,1.22-.31,1.22-1,0-1-1.08-1-2.23-1.33S191,77.94,191,76.31a2.36,2.36,0,0,1,2.37-2.41V72.68h1.51v1.23a2.7,2.7,0,0,1,2.51,2l-1.74.46c-.14-.65-.61-1.05-1.53-1.05s-1.24.4-1.24.9c0,.75.66.91,1.82,1.19s2.78.7,2.78,2.54A2.49,2.49,0,0,1,195.05,82.44Z" style="fill:#0FBCF9"></path><path d="M194.22,88.58a3,3,0,0,0-3.05,3h6.09A3,3,0,0,0,194.22,88.58Z" style="fill:#0FBCF9"></path><path d="M199.22,94h-10a.71.71,0,0,1-.71-.71h0a.71.71,0,0,1,.71-.71h10a.71.71,0,0,1,.71.71h0A.71.71,0,0,1,199.22,94Z" style="fill:#0FBCF9"></path><path d="M200.91,95H187.52a2.33,2.33,0,0,0-2.33,2.33h18.05A2.33,2.33,0,0,0,200.91,95Z" style="fill:#0FBCF9"></path><path d="M185.76,85.26h-.45a6.87,6.87,0,0,1-6.62-5.06l-1.53-5.61a2.31,2.31,0,0,1,2.23-2.92h4l.21,2h-4.22a.35.35,0,0,0-.25.12.32.32,0,0,0,0,.27l1.53,5.62a4.84,4.84,0,0,0,4.21,3.55A10.12,10.12,0,0,0,185.76,85.26Z" style="fill:#0FBCF9"></path><path d="M202.67,85.26h.45a6.87,6.87,0,0,0,6.62-5.06l1.53-5.61A2.31,2.31,0,0,0,209,71.67h-4l-.21,2H209a.35.35,0,0,1,.25.12.32.32,0,0,1,.05.27l-1.53,5.62a4.84,4.84,0,0,1-4.21,3.55A10.12,10.12,0,0,1,202.67,85.26Z" style="fill:#0FBCF9"></path></g></g></svg>