<svg xmlns="http://www.w3.org/2000/svg" viewBox="0 0 500 500"><g id="freepik--Floor--inject-400"><path id="freepik--floor--inject-400" d="M75.33,253.57c-95.18,54.95-95.18,144,0,199s249.5,54.95,344.67,0,95.18-144,0-199S170.5,198.62,75.33,253.57Z" style="fill:#f5f5f5"></path></g><g id="freepik--Shadows--inject-400"><ellipse id="freepik--Shadow--inject-400" cx="112.72" cy="398.42" rx="67.43" ry="38.93" style="fill:#e0e0e0"></ellipse><ellipse id="freepik--shadow--inject-400" cx="384.05" cy="410.87" rx="67.43" ry="38.93" style="fill:#e0e0e0"></ellipse><ellipse id="freepik--shadow--inject-400" cx="254.32" cy="336.11" rx="67.43" ry="38.93" style="fill:#e0e0e0"></ellipse><path id="freepik--shadow--inject-400" d="M206.41,464.28a3.77,3.77,0,0,1-3.66-3l-.91-4.79a51.77,51.77,0,0,1-6.1-1.49l-.2,0-8.24,3.82a4.35,4.35,0,0,1-1.85.39,4.57,4.57,0,0,1-2.26-.57L175,453.9a3.1,3.1,0,0,1-.26-5.29l5.11-3.68a16.93,16.93,0,0,1-1.38-2.07l-10.56-.67a3.58,3.58,0,0,1-3.35-3.57v-6.11a3.59,3.59,0,0,1,3.35-3.57l10.56-.67a18.61,18.61,0,0,1,1.38-2.07l-5.11-3.67a3.09,3.09,0,0,1,.26-5.29l8.21-4.74a4.57,4.57,0,0,1,2.26-.58,4.47,4.47,0,0,1,1.85.39l8.31,3.85s0,0,0,0h.1a57.58,57.58,0,0,1,6.12-1.48l.91-4.79a3.78,3.78,0,0,1,3.66-3h12.08a3.78,3.78,0,0,1,3.66,3l.91,4.79a53.31,53.31,0,0,1,6.1,1.49l.2,0,8.24-3.83a4.51,4.51,0,0,1,1.85-.39,4.67,4.67,0,0,1,2.25.57l8.22,4.75a3.08,3.08,0,0,1,.27,5.28l-5.11,3.68a20,20,0,0,1,1.37,2.07l10.56.67a3.59,3.59,0,0,1,3.35,3.57v6.11a3.58,3.58,0,0,1-3.35,3.57l-10.56.67a18.07,18.07,0,0,1-1.37,2.07l5.11,3.68a3.09,3.09,0,0,1-.27,5.29l-8.21,4.74a4.57,4.57,0,0,1-2.26.57h0a4.35,4.35,0,0,1-1.85-.39L229.29,455s0,0,0,0h-.1a53.09,53.09,0,0,1-6.12,1.48l-.91,4.79a3.77,3.77,0,0,1-3.66,3Zm6-37.55a25.75,25.75,0,0,0-12.63,3c-2.86,1.65-4.5,3.79-4.5,5.86s1.64,4.2,4.5,5.85a28.17,28.17,0,0,0,25.26,0c2.86-1.65,4.51-3.78,4.51-5.85s-1.65-4.21-4.51-5.86A25.75,25.75,0,0,0,212.45,426.73Z" style="fill:#e0e0e0"></path><path id="freepik--shadow--inject-400" d="M279.27,425l-.41,0-6.74-.71a3.66,3.66,0,0,1-3.26-4.08l.21-1.68c-.78-.26-1.52-.55-2.24-.86a1.58,1.58,0,0,0-.4-.05h-.14l-5.2,1.63a4.32,4.32,0,0,1-1.31.19,4.94,4.94,0,0,1-3.09-1.06l-3.44-2.87a3.2,3.2,0,0,1,.63-5.44l3.22-1.62a.19.19,0,0,1,0-.08l-5.42-.92a3.51,3.51,0,0,1-2.78-4.54l.93-3a4.16,4.16,0,0,1,3.88-2.85l6.22.25a.84.84,0,0,0,.23-.12c.17-.17.35-.35.54-.52l-1.42-1.51a3.24,3.24,0,0,1,1.18-5.33l5.4-2.16a4.56,4.56,0,0,1,1.71-.32,4.94,4.94,0,0,1,2.7.77l3.63,2.41a1.62,1.62,0,0,0,.38.05c1.14-.19,2.33-.34,3.54-.44l1.24-2.42a4.37,4.37,0,0,1,3.81-2.3,2.82,2.82,0,0,1,.41,0l6.73.7a3.61,3.61,0,0,1,2.49,1.36,3.67,3.67,0,0,1,.78,2.73l-.21,1.68c.78.26,1.52.55,2.24.86a1.58,1.58,0,0,0,.4.05h.13l5.21-1.63a4.33,4.33,0,0,1,1.31-.2,5,5,0,0,1,3.09,1.07l3.44,2.86a3.2,3.2,0,0,1-.63,5.44L305,402l0,.08,5.42.93a3.5,3.5,0,0,1,2.78,4.54l-.93,3a4.15,4.15,0,0,1-3.88,2.84l-6.22-.25a1,1,0,0,0-.23.12c-.17.18-.35.35-.54.53l1.41,1.5a3.24,3.24,0,0,1-1.17,5.34l-5.4,2.16a4.52,4.52,0,0,1-1.71.31,4.88,4.88,0,0,1-2.7-.77l-3.63-2.41a2.49,2.49,0,0,0-.38,0c-1.14.2-2.34.35-3.54.44l-1.24,2.43A4.39,4.39,0,0,1,279.27,425Zm1.78-24.74a17.46,17.46,0,0,0-6.41,1.15c-2.23.9-3.75,2.25-3.95,3.52a3.08,3.08,0,0,0,1.38,2.61c1.94,1.62,5.39,2.62,9,2.62a17.5,17.5,0,0,0,6.41-1.15c2.23-.89,3.75-2.24,3.95-3.51a3.08,3.08,0,0,0-1.38-2.61C288.11,401.29,284.66,400.28,281.05,400.28Z" style="fill:#e0e0e0"></path></g><g id="freepik--Arrows--inject-400"><g id="freepik--Arrow--inject-400"><polygon points="461.04 313.29 461.04 213.28 462.28 214 469.22 210 454.8 183.01 447.64 187.14 433.96 197.65 441.91 202.24 441.91 310.46 453.93 317.39 461.04 313.29" style="fill:#f5f5f5"></polygon><path d="M454.6,183.7l13.95,26.11-6.27,3.61-.24-.13-1.5-.87V313l-6.61,3.82-11.52-6.65V202l-.5-.28-7.05-4.07,13.08-10.06,6.66-3.84m.39-1.39-7.6,4.4-14.32,11,8.34,4.82V310.74L453.93,318l7.61-4.39V214.15l.74.43,7.6-4.39L455,182.31Z" style="fill:#e6e6e6"></path><polygon id="freepik--down-arrow--inject-400" points="453.93 317.97 441.41 310.74 441.41 202.53 433.07 197.71 447.38 186.71 462.28 214.58 453.93 209.76 453.93 317.97" style="fill:#ebebeb"></polygon><polygon points="461.54 313.58 453.93 317.97 453.93 209.76 461.54 214.15 461.54 313.58" style="fill:#e0e0e0"></polygon></g><g id="freepik--arrow--inject-400"><polygon points="31.74 352.25 31.74 179.7 30.5 180.42 23.56 176.41 37.98 149.42 45.14 153.55 58.81 164.07 50.86 168.66 50.86 349.42 38.84 356.36 31.74 352.25" style="fill:#f5f5f5"></polygon><path d="M38.18,150.11,44.83,154,57.91,164l-7,4.07-.5.29V349.13l-11.52,6.65L32.24,352V178.83l-1.5.87-.24.14-6.27-3.62,14-26.11m-.4-1.38L22.89,176.6,30.5,181l.74-.42v172l7.6,4.39,12.52-7.22V169l8.35-4.82-14.32-11-7.61-4.39Z" style="fill:#e6e6e6"></path><polygon id="freepik--down-arrow--inject-400" points="38.84 356.93 51.36 349.71 51.36 168.95 59.71 164.13 45.39 153.12 30.5 180.99 38.84 176.18 38.84 356.93" style="fill:#ebebeb"></polygon><polygon points="31.24 352.54 38.84 356.93 38.84 176.18 31.24 180.57 31.24 352.54" style="fill:#e0e0e0"></polygon></g></g><g id="freepik--Gears--inject-400"><g id="freepik--gears--inject-400"><g id="freepik--Gear--inject-400"><path d="M248.68,411.28l-8.22-4.74a2.16,2.16,0,0,0-1.81-.08l-8.33,3.85a3,3,0,0,1-1.91.12,49.48,49.48,0,0,0-6.46-1.54,1.55,1.55,0,0,1-1.2-1.17l-1-5.49a1.29,1.29,0,0,0-1.22-1H206.41a1.28,1.28,0,0,0-1.21,1l-1,5.49a1.55,1.55,0,0,1-1.2,1.17,49.48,49.48,0,0,0-6.46,1.54,3.05,3.05,0,0,1-1.91-.12l-8.32-3.85a2.18,2.18,0,0,0-1.82.08l-8.22,4.74a.67.67,0,0,0-.38.56h0l0,7.12h0a.7.7,0,0,0,.33.55l3.78,2.72a1.88,1.88,0,0,1-.93.39l-10.95.69a1.11,1.11,0,0,0-1,1.09v4.65h0l0,8.57a1.12,1.12,0,0,0,1,1.09l10.95.69a1.84,1.84,0,0,1,1,.4l-3.76,2.7a.7.7,0,0,0-.33.55h0l0,7.13h0a.69.69,0,0,0,.39.56l8.21,4.74a2.22,2.22,0,0,0,1.82.08l8.32-3.86a3,3,0,0,1,1.91-.11,47.9,47.9,0,0,0,6.46,1.53,1.6,1.6,0,0,1,1.21,1.17l1,5.49a1.28,1.28,0,0,0,1.21,1h12.08a1.29,1.29,0,0,0,1.22-1l1-5.49a1.55,1.55,0,0,1,1.2-1.16,49.48,49.48,0,0,0,6.46-1.54,3,3,0,0,1,1.91.11l8.33,3.86a2.2,2.2,0,0,0,1.81-.08l8.22-4.74a.7.7,0,0,0,.38-.55h0l0-7.14h0a.7.7,0,0,0-.33-.55L245,439.79a1.86,1.86,0,0,1,.94-.38l10.94-.69a1.11,1.11,0,0,0,1-1.09l0-7.1V424.4a1.1,1.1,0,0,0-1-1.09l-10.94-.69a1.72,1.72,0,0,1-.95-.41l3.75-2.7A.69.69,0,0,0,249,419h0l0-7.13h0A.67.67,0,0,0,248.68,411.28Zm-55.45,18.45c.59-2,2.34-3.9,5.34-5.63,7.67-4.42,20.09-4.42,27.75,0,2.82,1.63,4.65,3.41,5.48,5.24-.66,2.24-2.48,4.39-5.47,6.12-7.67,4.43-20.09,4.43-27.76,0A11.34,11.34,0,0,1,193.23,429.73Z" style="fill:#0FBCF9"></path><path d="M248.68,411.28l-8.22-4.74a2.16,2.16,0,0,0-1.81-.08l-8.33,3.85a3,3,0,0,1-1.91.12,49.48,49.48,0,0,0-6.46-1.54,1.55,1.55,0,0,1-1.2-1.17l-1-5.49a1.29,1.29,0,0,0-1.22-1H206.41a1.28,1.28,0,0,0-1.21,1l-1,5.49a1.55,1.55,0,0,1-1.2,1.17,49.48,49.48,0,0,0-6.46,1.54,3.05,3.05,0,0,1-1.91-.12l-8.32-3.85a2.18,2.18,0,0,0-1.82.08l-8.22,4.74a.67.67,0,0,0-.38.56h0l0,7.12h0a.7.7,0,0,0,.33.55l3.78,2.72a1.88,1.88,0,0,1-.93.39l-10.95.69a1.11,1.11,0,0,0-1,1.09v4.65h0l0,8.57a1.12,1.12,0,0,0,1,1.09l10.95.69a1.84,1.84,0,0,1,1,.4l-3.76,2.7a.7.7,0,0,0-.33.55h0l0,7.13h0a.69.69,0,0,0,.39.56l8.21,4.74a2.22,2.22,0,0,0,1.82.08l8.32-3.86a3,3,0,0,1,1.91-.11,47.9,47.9,0,0,0,6.46,1.53,1.6,1.6,0,0,1,1.21,1.17l1,5.49a1.28,1.28,0,0,0,1.21,1h12.08a1.29,1.29,0,0,0,1.22-1l1-5.49a1.55,1.55,0,0,1,1.2-1.16,49.48,49.48,0,0,0,6.46-1.54,3,3,0,0,1,1.91.11l8.33,3.86a2.2,2.2,0,0,0,1.81-.08l8.22-4.74a.7.7,0,0,0,.38-.55h0l0-7.14h0a.7.7,0,0,0-.33-.55L245,439.79a1.86,1.86,0,0,1,.94-.38l10.94-.69a1.11,1.11,0,0,0,1-1.09l0-7.1V424.4a1.1,1.1,0,0,0-1-1.09l-10.94-.69a1.72,1.72,0,0,1-.95-.41l3.75-2.7A.69.69,0,0,0,249,419h0l0-7.13h0A.67.67,0,0,0,248.68,411.28Zm-55.45,18.45c.59-2,2.34-3.9,5.34-5.63,7.67-4.42,20.09-4.42,27.75,0,2.82,1.63,4.65,3.41,5.48,5.24-.66,2.24-2.48,4.39-5.47,6.12-7.67,4.43-20.09,4.43-27.76,0A11.34,11.34,0,0,1,193.23,429.73Z" style="fill:#fff;opacity:0.2"></path><path d="M180.47,433.27a2,2,0,0,0-1.48-1l-10.94-.69a1.11,1.11,0,0,1-1-1.09v-1.45l0,8.56a1.12,1.12,0,0,0,1,1.1l10.95.69a1.86,1.86,0,0,1,1,.39l2.74-2a.87.87,0,0,0,.12-1.34A16.57,16.57,0,0,1,180.47,433.27ZM175.82,419h0a.7.7,0,0,0,.33.55l3.78,2.72a1.77,1.77,0,0,0,.54-.59,16.33,16.33,0,0,1,2.33-3.23.87.87,0,0,0-.12-1.34l-6.51-4.68a.78.78,0,0,1-.33-.48Z" style="opacity:0.1"></path><path d="M226.32,419.44c-7.66-4.42-20.08-4.43-27.75,0-4.84,2.8-6.62,6.69-5.34,10.29.57-2,2.34-3.89,5.34-5.63,7.67-4.42,20.09-4.42,27.75,0,2.81,1.62,4.65,3.39,5.48,5.22C232.82,425.85,231,422.14,226.32,419.44Z" style="opacity:0.1"></path><path d="M257.87,430.65a1.15,1.15,0,0,1-1,1l-10.94.69a1.4,1.4,0,0,0-.55.14v7.14a1.35,1.35,0,0,1,.53-.16l10.95-.7a1.1,1.1,0,0,0,1-1.08Zm-8.81-18.81h0a.35.35,0,0,1,0,.22.37.37,0,0,1-.13.21.93.93,0,0,1-.15.13l-6.51,4.68a.51.51,0,0,0-.15.14.89.89,0,0,0-.21.41.82.82,0,0,0,0,.27l0,.14a1.22,1.22,0,0,0,.22.38.53.53,0,0,1,.12.14,16.61,16.61,0,0,1,2.21,3.08,2,2,0,0,0,.52.59l3.76-2.7A.72.72,0,0,0,249,419h0Zm0,31.28a.71.71,0,0,1-.38.51l-8.22,4.74a2.23,2.23,0,0,1-1.27.22l0,7.11a2.12,2.12,0,0,0,1.27-.21l8.21-4.75a.65.65,0,0,0,.39-.54Zm-53.66,1.27a2.82,2.82,0,0,0-.82.2l-8.32,3.86a1.93,1.93,0,0,1-.75.16v7.1a2,2,0,0,0,.74-.14l8.32-3.86a2.9,2.9,0,0,1,.82-.19Zm24.1,8.74a1.26,1.26,0,0,1-1,.55H206.41a1.24,1.24,0,0,1-.74-.27v7.13a1.32,1.32,0,0,0,.73.26h12.08a1.26,1.26,0,0,0,1.05-.61Z" style="fill:#0FBCF9"></path><path d="M257.87,430.65a1.15,1.15,0,0,1-1,1l-10.94.69a1.4,1.4,0,0,0-.55.14v7.14a1.35,1.35,0,0,1,.53-.16l10.95-.7a1.1,1.1,0,0,0,1-1.08Zm-8.81-18.81h0a.35.35,0,0,1,0,.22.37.37,0,0,1-.13.21.93.93,0,0,1-.15.13l-6.51,4.68a.51.51,0,0,0-.15.14.89.89,0,0,0-.21.41.82.82,0,0,0,0,.27l0,.14a1.22,1.22,0,0,0,.22.38.53.53,0,0,1,.12.14,16.61,16.61,0,0,1,2.21,3.08,2,2,0,0,0,.52.59l3.76-2.7A.72.72,0,0,0,249,419h0Zm0,31.28a.71.71,0,0,1-.38.51l-8.22,4.74a2.23,2.23,0,0,1-1.27.22l0,7.11a2.12,2.12,0,0,0,1.27-.21l8.21-4.75a.65.65,0,0,0,.39-.54Zm-53.66,1.27a2.82,2.82,0,0,0-.82.2l-8.32,3.86a1.93,1.93,0,0,1-.75.16v7.1a2,2,0,0,0,.74-.14l8.32-3.86a2.9,2.9,0,0,1,.82-.19Zm24.1,8.74a1.26,1.26,0,0,1-1,.55H206.41a1.24,1.24,0,0,1-.74-.27v7.13a1.32,1.32,0,0,0,.73.26h12.08a1.26,1.26,0,0,0,1.05-.61Z" style="fill:#fff;opacity:0.5"></path><path d="M238.65,406.46l-8.33,3.85a3,3,0,0,1-1.91.12,49.48,49.48,0,0,0-6.46-1.54,1.55,1.55,0,0,1-1.2-1.17l-1-5.49a1.29,1.29,0,0,0-1.22-1H206.41a1.28,1.28,0,0,0-1.21,1l-1,5.49a1.55,1.55,0,0,1-1.2,1.17,49.48,49.48,0,0,0-6.46,1.54,3.05,3.05,0,0,1-1.91-.12l-8.32-3.85a2.18,2.18,0,0,0-1.82.08l-8.22,4.74a.61.61,0,0,0-.05,1.11l6.51,4.68a.87.87,0,0,1,.12,1.34,16.5,16.5,0,0,0-2.32,3.22,2.06,2.06,0,0,1-1.48,1l-10.95.69a1.11,1.11,0,0,0-1,1.09v6.11a1.12,1.12,0,0,0,1,1.09l10.95.69a2,2,0,0,1,1.47,1,16.57,16.57,0,0,0,2.33,3.22.87.87,0,0,1-.12,1.34l-6.51,4.68a.61.61,0,0,0,.05,1.11l8.22,4.75a2.22,2.22,0,0,0,1.82.08l8.32-3.86a3,3,0,0,1,1.91-.11A47.9,47.9,0,0,0,203,446a1.58,1.58,0,0,1,1.2,1.17l1,5.49a1.28,1.28,0,0,0,1.21,1h12.08a1.29,1.29,0,0,0,1.22-1l1-5.49A1.58,1.58,0,0,1,222,446a47.9,47.9,0,0,0,6.46-1.53,3,3,0,0,1,1.91.11l8.33,3.86a2.2,2.2,0,0,0,1.81-.08l8.22-4.75a.61.61,0,0,0,0-1.11l-6.51-4.68a.87.87,0,0,1-.12-1.34,16.57,16.57,0,0,0,2.33-3.22,2,2,0,0,1,1.47-1l11-.69a1.11,1.11,0,0,0,1-1.09V424.4a1.1,1.1,0,0,0-1-1.09l-10.94-.69a2,2,0,0,1-1.48-1,16.33,16.33,0,0,0-2.33-3.23.87.87,0,0,1,.12-1.34l6.51-4.68a.61.61,0,0,0,0-1.11l-8.22-4.74A2.16,2.16,0,0,0,238.65,406.46Zm-12.32,13c7.66,4.43,7.66,11.6,0,16s-20.09,4.43-27.76,0-7.66-11.59,0-16S218.66,415,226.33,419.44Z" style="fill:#0FBCF9"></path><path d="M238.65,406.46l-8.33,3.85a3,3,0,0,1-1.91.12,49.48,49.48,0,0,0-6.46-1.54,1.55,1.55,0,0,1-1.2-1.17l-1-5.49a1.29,1.29,0,0,0-1.22-1H206.41a1.28,1.28,0,0,0-1.21,1l-1,5.49a1.55,1.55,0,0,1-1.2,1.17,49.48,49.48,0,0,0-6.46,1.54,3.05,3.05,0,0,1-1.91-.12l-8.32-3.85a2.18,2.18,0,0,0-1.82.08l-8.22,4.74a.61.61,0,0,0-.05,1.11l6.51,4.68a.87.87,0,0,1,.12,1.34,16.5,16.5,0,0,0-2.32,3.22,2.06,2.06,0,0,1-1.48,1l-10.95.69a1.11,1.11,0,0,0-1,1.09v6.11a1.12,1.12,0,0,0,1,1.09l10.95.69a2,2,0,0,1,1.47,1,16.57,16.57,0,0,0,2.33,3.22.87.87,0,0,1-.12,1.34l-6.51,4.68a.61.61,0,0,0,.05,1.11l8.22,4.75a2.22,2.22,0,0,0,1.82.08l8.32-3.86a3,3,0,0,1,1.91-.11A47.9,47.9,0,0,0,203,446a1.58,1.58,0,0,1,1.2,1.17l1,5.49a1.28,1.28,0,0,0,1.21,1h12.08a1.29,1.29,0,0,0,1.22-1l1-5.49A1.58,1.58,0,0,1,222,446a47.9,47.9,0,0,0,6.46-1.53,3,3,0,0,1,1.91.11l8.33,3.86a2.2,2.2,0,0,0,1.81-.08l8.22-4.75a.61.61,0,0,0,0-1.11l-6.51-4.68a.87.87,0,0,1-.12-1.34,16.57,16.57,0,0,0,2.33-3.22,2,2,0,0,1,1.47-1l11-.69a1.11,1.11,0,0,0,1-1.09V424.4a1.1,1.1,0,0,0-1-1.09l-10.94-.69a2,2,0,0,1-1.48-1,16.33,16.33,0,0,0-2.33-3.23.87.87,0,0,1,.12-1.34l6.51-4.68a.61.61,0,0,0,0-1.11l-8.22-4.74A2.16,2.16,0,0,0,238.65,406.46Zm-12.32,13c7.66,4.43,7.66,11.6,0,16s-20.09,4.43-27.76,0-7.66-11.59,0-16S218.66,415,226.33,419.44Z" style="fill:#fff;opacity:0.55"></path><g style="opacity:0.55"><path d="M257.13,430.69h0a.43.43,0,0,1-.32.21l-10.95.69a2.75,2.75,0,0,0-2,1.3l0,.05-.17.31a15.47,15.47,0,0,1-2,2.77,2.26,2.26,0,0,0-.23.31,1.56,1.56,0,0,0,.46,2.07l6.46,4.65-8.17,4.71a1.53,1.53,0,0,1-1.17.06L230.61,444a3.72,3.72,0,0,0-2.4-.15,49.56,49.56,0,0,1-6.38,1.52,2.27,2.27,0,0,0-1.53,1.1,1.9,1.9,0,0,0-.24.62l-1,5.49a.78.78,0,0,1-.05.14.61.61,0,0,1-.48.3H206.41a.59.59,0,0,1-.53-.44l-1-5.49a2.25,2.25,0,0,0-1.77-1.72,49.56,49.56,0,0,1-6.38-1.52,3.72,3.72,0,0,0-2.4.15L186,447.82a1.53,1.53,0,0,1-1.17-.06l-8.17-4.71,6.47-4.65a1.72,1.72,0,0,0,.46-.51,1.58,1.58,0,0,0-.24-1.87,15.33,15.33,0,0,1-2.22-3.08,2.71,2.71,0,0,0-2.05-1.35l-10.95-.69a.42.42,0,0,1-.37-.39V424.4a.35.35,0,0,1,.06-.19.41.41,0,0,1,.31-.21l10.95-.69a2.72,2.72,0,0,0,2-1.3l0,0c0-.11.11-.21.17-.32a16.22,16.22,0,0,1,2.05-2.77,1.6,1.6,0,0,0,.23-.3,1.56,1.56,0,0,0-.45-2.07l-6.47-4.65,8.17-4.72a1.49,1.49,0,0,1,1.17-.05l8.33,3.85a3.75,3.75,0,0,0,2.41.15,47.44,47.44,0,0,1,6.37-1.51,2.29,2.29,0,0,0,1.53-1.11,1.9,1.9,0,0,0,.24-.62l1-5.49a1.21,1.21,0,0,1,.05-.14.62.62,0,0,1,.48-.3h12.08a.6.6,0,0,1,.53.44l1,5.49a2.28,2.28,0,0,0,1.77,1.73,47.59,47.59,0,0,1,6.38,1.51,3.72,3.72,0,0,0,2.4-.15l8.33-3.85a1.49,1.49,0,0,1,1.17.05l8.17,4.72-6.46,4.65a1.63,1.63,0,0,0-.47.51,1.57,1.57,0,0,0,.24,1.86,15.11,15.11,0,0,1,2.22,3.09,2.7,2.7,0,0,0,2.05,1.34l10.95.69a.43.43,0,0,1,.37.4v6.11a.41.41,0,0,1-.05.18m-63.9-7.18c-2.54,4.41-.58,9.34,5,12.56,7.84,4.53,20.6,4.53,28.45,0a13.27,13.27,0,0,0,5-4.68,7.51,7.51,0,0,0,.57-6.7,12.31,12.31,0,0,0-5.56-5.85c-7.85-4.53-20.61-4.53-28.45,0a13.21,13.21,0,0,0-5,4.67m64.5,7.53a1.08,1.08,0,0,0,.14-.53V424.4a1.1,1.1,0,0,0-1-1.09l-10.94-.69a2,2,0,0,1-1.48-1,16.57,16.57,0,0,0-2.33-3.22.87.87,0,0,1-.14-1,1,1,0,0,1,.26-.3l6.51-4.68a.79.79,0,0,0,.25-.27.59.59,0,0,0-.3-.84l-8.22-4.74a2.16,2.16,0,0,0-1.81-.08l-8.33,3.85a3,3,0,0,1-1.91.12,49.48,49.48,0,0,0-6.46-1.54,1.55,1.55,0,0,1-1.2-1.17l-1-5.49a1.29,1.29,0,0,0-1.22-1H206.41a1.29,1.29,0,0,0-1.08.65,1.14,1.14,0,0,0-.13.35l-1,5.49a1.14,1.14,0,0,1-.15.4,1.57,1.57,0,0,1-1.05.77,49.48,49.48,0,0,0-6.46,1.54,3.05,3.05,0,0,1-1.91-.12l-8.32-3.85a2.18,2.18,0,0,0-1.82.08l-8.22,4.74a.76.76,0,0,0-.3.29.6.6,0,0,0,.25.82l6.51,4.68a.86.86,0,0,1,.25,1.16,1,1,0,0,1-.13.18,16.82,16.82,0,0,0-2.14,2.89c-.06.11-.13.22-.18.33l0,0a2.06,2.06,0,0,1-1.46.95l-10.95.69a1.1,1.1,0,0,0-.88.55,1.11,1.11,0,0,0-.14.54v6.11a1.12,1.12,0,0,0,1,1.09l10.95.69a2,2,0,0,1,1.47,1,16.57,16.57,0,0,0,2.33,3.22.89.89,0,0,1,.15,1.05,1.06,1.06,0,0,1-.27.29l-6.51,4.68a.79.79,0,0,0-.25.27.59.59,0,0,0,.3.84l8.22,4.75a2.22,2.22,0,0,0,1.82.08l8.32-3.86a3,3,0,0,1,1.91-.11A47.9,47.9,0,0,0,203,446a1.58,1.58,0,0,1,1.2,1.17l1,5.49a1.28,1.28,0,0,0,1.21,1h12.08a1.29,1.29,0,0,0,1.08-.65,1.42,1.42,0,0,0,.14-.36l1-5.49a1.22,1.22,0,0,1,.15-.4,1.64,1.64,0,0,1,1-.77,47.9,47.9,0,0,0,6.46-1.53,3,3,0,0,1,1.91.11l8.33,3.86a2.2,2.2,0,0,0,1.81-.08l8.22-4.75a.87.87,0,0,0,.31-.29.61.61,0,0,0-.26-.82l-6.51-4.68a.85.85,0,0,1-.25-1.15.8.8,0,0,1,.13-.19,16.08,16.08,0,0,0,2.14-2.89l.19-.33v0a2,2,0,0,1,1.46-.95l11-.69a1.14,1.14,0,0,0,.88-.56Zm-63.9-7.18a12.69,12.69,0,0,1,4.74-4.42c7.67-4.42,20.09-4.42,27.76,0,5.43,3.14,7,7.66,4.74,11.6a12.61,12.61,0,0,1-4.74,4.42c-7.67,4.43-20.09,4.43-27.76,0-5.43-3.13-7-7.66-4.74-11.6Z" style="fill:#fff"></path></g></g><g id="freepik--gear--inject-400"><path d="M291.48,385.93a1.48,1.48,0,0,1-1-1.52l.31-2.56a1.18,1.18,0,0,0-1-1.32l-6.74-.7a1.88,1.88,0,0,0-1.74.94l-1.35,2.61a2.34,2.34,0,0,1-1.74,1.14c-1.18.09-2.34.24-3.49.44a3.45,3.45,0,0,1-2.18-.44l-3.63-2.41a2.6,2.6,0,0,0-2.11-.22l-5.39,2.16a.82.82,0,0,0-.56.69h0v.06h0v5.51h0a.84.84,0,0,0,.27.6l.31.34a2.84,2.84,0,0,1-1.48.46l-6.17-.25a1.64,1.64,0,0,0-1.55,1.09l-.94,3a1.18,1.18,0,0,0,0,.37h0v5.56h0a1,1,0,0,0,.87,1l4.77.82-1.86.93a.77.77,0,0,0-.48.68h0v5.57h0a.89.89,0,0,0,.34.62l3.44,2.86a2.43,2.43,0,0,0,2.07.41l5.24-1.64a3.7,3.7,0,0,1,2.23.14,27.55,27.55,0,0,0,2.81,1,1.43,1.43,0,0,1,.7.48v3.76h0a1.17,1.17,0,0,0,1.05,1.15l6.74.71a1.89,1.89,0,0,0,1.74-.94l1.34-2.62a2.38,2.38,0,0,1,1.75-1.14c1.17-.09,2.34-.23,3.49-.43a3.47,3.47,0,0,1,2.18.44l3.62,2.4a2.53,2.53,0,0,0,2.11.22l5.4-2.16a.79.79,0,0,0,.56-.72h0v-5.56h0a.88.88,0,0,0-.27-.6l-.31-.33a2.82,2.82,0,0,1,1.48-.46l6.16.25a1.67,1.67,0,0,0,1.56-1.1l.93-3a1,1,0,0,0,.05-.34h0v-5.54l0,0a1,1,0,0,0-.86-1l-4.77-.81,1.86-.94a.75.75,0,0,0,.48-.68h0v-5.53h0a.8.8,0,0,0-.33-.64l-3.44-2.87a2.46,2.46,0,0,0-2.07-.4l-5.25,1.64a3.63,3.63,0,0,1-2.23-.15A25.87,25.87,0,0,0,291.48,385.93Zm-22.36,14a10,10,0,0,1,4.6-3.33c5.84-2.34,13.87-1.51,17.92,1.87a7.61,7.61,0,0,1,1.37,1.45,10,10,0,0,1-4.61,3.35c-5.84,2.34-13.87,1.5-17.92-1.87A7.11,7.11,0,0,1,269.12,399.89Z" style="fill:#0FBCF9"></path><path d="M291.48,385.93a1.48,1.48,0,0,1-1-1.52l.31-2.56a1.18,1.18,0,0,0-1-1.32l-6.74-.7a1.88,1.88,0,0,0-1.74.94l-1.35,2.61a2.34,2.34,0,0,1-1.74,1.14c-1.18.09-2.34.24-3.49.44a3.45,3.45,0,0,1-2.18-.44l-3.63-2.41a2.6,2.6,0,0,0-2.11-.22l-5.39,2.16a.82.82,0,0,0-.56.69h0v.06h0v5.51h0a.84.84,0,0,0,.27.6l.31.34a2.84,2.84,0,0,1-1.48.46l-6.17-.25a1.64,1.64,0,0,0-1.55,1.09l-.94,3a1.18,1.18,0,0,0,0,.37h0v5.56h0a1,1,0,0,0,.87,1l4.77.82-1.86.93a.77.77,0,0,0-.48.68h0v5.57h0a.89.89,0,0,0,.34.62l3.44,2.86a2.43,2.43,0,0,0,2.07.41l5.24-1.64a3.7,3.7,0,0,1,2.23.14,27.55,27.55,0,0,0,2.81,1,1.43,1.43,0,0,1,.7.48v3.76h0a1.17,1.17,0,0,0,1.05,1.15l6.74.71a1.89,1.89,0,0,0,1.74-.94l1.34-2.62a2.38,2.38,0,0,1,1.75-1.14c1.17-.09,2.34-.23,3.49-.43a3.47,3.47,0,0,1,2.18.44l3.62,2.4a2.53,2.53,0,0,0,2.11.22l5.4-2.16a.79.79,0,0,0,.56-.72h0v-5.56h0a.88.88,0,0,0-.27-.6l-.31-.33a2.82,2.82,0,0,1,1.48-.46l6.16.25a1.67,1.67,0,0,0,1.56-1.1l.93-3a1,1,0,0,0,.05-.34h0v-5.54l0,0a1,1,0,0,0-.86-1l-4.77-.81,1.86-.94a.75.75,0,0,0,.48-.68h0v-5.53h0a.8.8,0,0,0-.33-.64l-3.44-2.87a2.46,2.46,0,0,0-2.07-.4l-5.25,1.64a3.63,3.63,0,0,1-2.23-.15A25.87,25.87,0,0,0,291.48,385.93Zm-22.36,14a10,10,0,0,1,4.6-3.33c5.84-2.34,13.87-1.51,17.92,1.87a7.61,7.61,0,0,1,1.37,1.45,10,10,0,0,1-4.61,3.35c-5.84,2.34-13.87,1.5-17.92-1.87A7.11,7.11,0,0,1,269.12,399.89Z" style="fill:#fff;opacity:0.2"></path><path d="M259.37,399.26a2,2,0,0,0-1.43-1.37l-5.86-1a1,1,0,0,1-.87-.91v5.49a1,1,0,0,0,.86,1l4.78.82,2.47-1.24a1.18,1.18,0,0,0,.49-1.59A8,8,0,0,1,259.37,399.26Zm1.43-8.95h0a1,1,0,0,0,.26.61l.32.33a2.29,2.29,0,0,0,.51-.39,11.82,11.82,0,0,1,1.48-1.31,1,1,0,0,0,.15-1.58l-2.45-2.6a.88.88,0,0,1-.27-.6Z" style="opacity:0.1"></path><path d="M273.72,391c-5,2-6.82,5.74-4.6,8.89a9.85,9.85,0,0,1,4.6-3.34c5.84-2.34,13.87-1.51,17.92,1.87a7.32,7.32,0,0,1,1.37,1.45c1.56-2.23,1.2-4.87-1.36-7C287.59,389.5,279.57,388.67,273.72,391Z" style="opacity:0.1"></path><path d="M282.77,410.2a2,2,0,0,0-.56.65l-1.35,2.62a1.86,1.86,0,0,1-1,.83v5.55a1.86,1.86,0,0,0,1-.83l1.35-2.62a1.9,1.9,0,0,1,.57-.64Zm18.54-.74h0a.76.76,0,0,1-.56.72l-5.38,2.16a2.43,2.43,0,0,1-1.42.06V418a2.51,2.51,0,0,0,1.42-.06l5.39-2.16a.79.79,0,0,0,.56-.72Zm-35.78-2.32-5.18,1.63a2.31,2.31,0,0,1-1.3,0v5.54a2.35,2.35,0,0,0,1.31,0l5.18-1.63Zm45.39-8.77a2,2,0,0,1-.06.32l-.93,3a1.63,1.63,0,0,1-1.55,1.1l-6.16-.25a2.43,2.43,0,0,0-1,.2v5.55a2.47,2.47,0,0,1,1-.2l6.16.25a1.66,1.66,0,0,0,1.56-1.1l.93-3a1,1,0,0,0,.05-.34Zm-3.29-9a.67.67,0,0,1-.05.19.61.61,0,0,1-.18.28,1.15,1.15,0,0,1-.28.19l-4.32,2.18a.75.75,0,0,0-.26.18,1.08,1.08,0,0,0-.3.46,1.18,1.18,0,0,0-.06.43,1.8,1.8,0,0,0,0,.22,1.82,1.82,0,0,0,.11.3,8.49,8.49,0,0,1,.44,1.15,2,2,0,0,0,1.43,1.39l1.08.18,1.87-.93a.8.8,0,0,0,.48-.69h0Z" style="fill:#0FBCF9"></path><path d="M282.77,410.2a2,2,0,0,0-.56.65l-1.35,2.62a1.86,1.86,0,0,1-1,.83v5.55a1.86,1.86,0,0,0,1-.83l1.35-2.62a1.9,1.9,0,0,1,.57-.64Zm18.54-.74h0a.76.76,0,0,1-.56.72l-5.38,2.16a2.43,2.43,0,0,1-1.42.06V418a2.51,2.51,0,0,0,1.42-.06l5.39-2.16a.79.79,0,0,0,.56-.72Zm-35.78-2.32-5.18,1.63a2.31,2.31,0,0,1-1.3,0v5.54a2.35,2.35,0,0,0,1.31,0l5.18-1.63Zm45.39-8.77a2,2,0,0,1-.06.32l-.93,3a1.63,1.63,0,0,1-1.55,1.1l-6.16-.25a2.43,2.43,0,0,0-1,.2v5.55a2.47,2.47,0,0,1,1-.2l6.16.25a1.66,1.66,0,0,0,1.56-1.1l.93-3a1,1,0,0,0,.05-.34Zm-3.29-9a.67.67,0,0,1-.05.19.61.61,0,0,1-.18.28,1.15,1.15,0,0,1-.28.19l-4.32,2.18a.75.75,0,0,0-.26.18,1.08,1.08,0,0,0-.3.46,1.18,1.18,0,0,0-.06.43,1.8,1.8,0,0,0,0,.22,1.82,1.82,0,0,0,.11.3,8.49,8.49,0,0,1,.44,1.15,2,2,0,0,0,1.43,1.39l1.08.18,1.87-.93a.8.8,0,0,0,.48-.69h0Z" style="fill:#fff;opacity:0.5"></path><path d="M301.77,385.47l-5.25,1.64a3.63,3.63,0,0,1-2.23-.15,25.87,25.87,0,0,0-2.81-1,1.48,1.48,0,0,1-1-1.52l.31-2.56a1.18,1.18,0,0,0-1-1.32l-6.74-.7a1.88,1.88,0,0,0-1.74.94l-1.35,2.61a2.34,2.34,0,0,1-1.74,1.14c-1.18.09-2.34.24-3.49.44a3.45,3.45,0,0,1-2.18-.44l-3.63-2.41a2.6,2.6,0,0,0-2.11-.22l-5.39,2.16a.76.76,0,0,0-.29,1.32l2.44,2.61a1,1,0,0,1-.15,1.57,14.61,14.61,0,0,0-1.47,1.32,3,3,0,0,1-2,.85l-6.17-.25a1.64,1.64,0,0,0-1.55,1.09l-.94,3a1,1,0,0,0,.83,1.35l5.86,1a2,2,0,0,1,1.43,1.38,7.45,7.45,0,0,0,.44,1.16,1.18,1.18,0,0,1-.49,1.59L255,404.19a.73.73,0,0,0-.15,1.31l3.44,2.86a2.47,2.47,0,0,0,2.07.41l5.24-1.64a3.73,3.73,0,0,1,2.24.14,25.89,25.89,0,0,0,2.81,1,1.46,1.46,0,0,1,1,1.52l-.31,2.56a1.17,1.17,0,0,0,1.05,1.31l6.74.71a1.89,1.89,0,0,0,1.74-.94l1.35-2.62a2.34,2.34,0,0,1,1.74-1.14c1.17-.09,2.34-.23,3.49-.43a3.45,3.45,0,0,1,2.18.43l3.62,2.41a2.55,2.55,0,0,0,2.12.22l5.39-2.16a.76.76,0,0,0,.29-1.32l-2.45-2.6a1,1,0,0,1,.15-1.58,13.66,13.66,0,0,0,1.48-1.31,3,3,0,0,1,2-.85l6.16.25a1.66,1.66,0,0,0,1.56-1.1l.93-3a1,1,0,0,0-.82-1.35l-5.86-1a2,2,0,0,1-1.43-1.37,9.28,9.28,0,0,0-.44-1.17,1.18,1.18,0,0,1,.49-1.59l4.33-2.17a.72.72,0,0,0,.15-1.3l-3.44-2.87A2.46,2.46,0,0,0,301.77,385.47Zm-10.13,7.41c4.06,3.37,2.61,8-3.24,10.35s-13.87,1.5-17.92-1.87-2.61-8,3.24-10.35S287.59,389.5,291.64,392.88Z" style="fill:#0FBCF9"></path><path d="M301.77,385.47l-5.25,1.64a3.63,3.63,0,0,1-2.23-.15,25.87,25.87,0,0,0-2.81-1,1.48,1.48,0,0,1-1-1.52l.31-2.56a1.18,1.18,0,0,0-1-1.32l-6.74-.7a1.88,1.88,0,0,0-1.74.94l-1.35,2.61a2.34,2.34,0,0,1-1.74,1.14c-1.18.09-2.34.24-3.49.44a3.45,3.45,0,0,1-2.18-.44l-3.63-2.41a2.6,2.6,0,0,0-2.11-.22l-5.39,2.16a.76.76,0,0,0-.29,1.32l2.44,2.61a1,1,0,0,1-.15,1.57,14.61,14.61,0,0,0-1.47,1.32,3,3,0,0,1-2,.85l-6.17-.25a1.64,1.64,0,0,0-1.55,1.09l-.94,3a1,1,0,0,0,.83,1.35l5.86,1a2,2,0,0,1,1.43,1.38,7.45,7.45,0,0,0,.44,1.16,1.18,1.18,0,0,1-.49,1.59L255,404.19a.73.73,0,0,0-.15,1.31l3.44,2.86a2.47,2.47,0,0,0,2.07.41l5.24-1.64a3.73,3.73,0,0,1,2.24.14,25.89,25.89,0,0,0,2.81,1,1.46,1.46,0,0,1,1,1.52l-.31,2.56a1.17,1.17,0,0,0,1.05,1.31l6.74.71a1.89,1.89,0,0,0,1.74-.94l1.35-2.62a2.34,2.34,0,0,1,1.74-1.14c1.17-.09,2.34-.23,3.49-.43a3.45,3.45,0,0,1,2.18.43l3.62,2.41a2.55,2.55,0,0,0,2.12.22l5.39-2.16a.76.76,0,0,0,.29-1.32l-2.45-2.6a1,1,0,0,1,.15-1.58,13.66,13.66,0,0,0,1.48-1.31,3,3,0,0,1,2-.85l6.16.25a1.66,1.66,0,0,0,1.56-1.1l.93-3a1,1,0,0,0-.82-1.35l-5.86-1a2,2,0,0,1-1.43-1.37,9.28,9.28,0,0,0-.44-1.17,1.18,1.18,0,0,1,.49-1.59l4.33-2.17a.72.72,0,0,0,.15-1.3l-3.44-2.87A2.46,2.46,0,0,0,301.77,385.47Zm-10.13,7.41c4.06,3.37,2.61,8-3.24,10.35s-13.87,1.5-17.92-1.87-2.61-8,3.24-10.35S287.59,389.5,291.64,392.88Z" style="fill:#fff;opacity:0.55"></path><g style="opacity:0.55"><path d="M309.18,401.58a1,1,0,0,1-.78.46l-6.16-.25a3.68,3.68,0,0,0-2.54,1.07,14.27,14.27,0,0,1-1.4,1.25,1.79,1.79,0,0,0-.24,2.65l2.45,2.6.07.1-.1.05-5.39,2.15a1.85,1.85,0,0,1-1.44-.14L290,409.11a4.15,4.15,0,0,0-2.7-.55c-1.12.2-2.27.34-3.42.43a3.08,3.08,0,0,0-2.29,1.43.47.47,0,0,0-.05.1l-1.35,2.61h0a1.16,1.16,0,0,1-1,.55l-6.74-.7a.44.44,0,0,1-.31-.17.43.43,0,0,1-.09-.33l.31-2.56a2.21,2.21,0,0,0-1.52-2.31,23.73,23.73,0,0,1-2.73-1,4.46,4.46,0,0,0-2.74-.17l-5.25,1.64a1.7,1.7,0,0,1-1.38-.27l-3.44-2.86a.17.17,0,0,1-.06-.06l.07,0,4.32-2.17a1.83,1.83,0,0,0,.78-.73,2,2,0,0,0,.05-1.82,6.78,6.78,0,0,1-.4-1.06,2.73,2.73,0,0,0-2-1.88l-5.86-1A.29.29,0,0,1,252,396a.31.31,0,0,1,0-.27l.93-3a1.39,1.39,0,0,1,.06-.13.94.94,0,0,1,.78-.45l6.16.24a3.68,3.68,0,0,0,2.54-1.06,12.09,12.09,0,0,1,1.4-1.25,2,2,0,0,0,.49-.56,1.72,1.72,0,0,0-.25-2.09l-2.45-2.61a.36.36,0,0,1-.07-.09l.1,0,5.39-2.16a1.86,1.86,0,0,1,1.44.15l3.63,2.41a4.13,4.13,0,0,0,2.7.54c1.12-.19,2.27-.33,3.42-.42a3.09,3.09,0,0,0,2.29-1.44.41.41,0,0,0,.05-.09l1.34-2.62h0a1.21,1.21,0,0,1,1-.55l6.74.71a.47.47,0,0,1,.31.16.46.46,0,0,1,.09.34l-.31,2.56a2.21,2.21,0,0,0,1.52,2.3c1,.3,1.87.64,2.73,1a4.38,4.38,0,0,0,2.74.17l5.25-1.64a1.78,1.78,0,0,1,1.38.27l3.44,2.87.06.05-.07,0-4.32,2.17a1.9,1.9,0,0,0-.78.73,2,2,0,0,0-.05,1.82,7.63,7.63,0,0,1,.4,1.06,2.72,2.72,0,0,0,2,1.89l5.86,1a.3.3,0,0,1,.25.41l-.93,3-.06.13h0m-41-7.18c-1.47,2.54-.8,5.35,1.8,7.52,4.23,3.52,12.6,4.41,18.66,2a10.25,10.25,0,0,0,5.24-4.06c1.47-2.55.8-5.36-1.8-7.52-4.23-3.52-12.61-4.42-18.66-2a10.26,10.26,0,0,0-5.24,4.07m41.6,7.54a1.11,1.11,0,0,0,.12-.27l.93-3a1,1,0,0,0-.82-1.35l-5.86-1a2,2,0,0,1-1.43-1.37,9.28,9.28,0,0,0-.44-1.17,1.26,1.26,0,0,1,0-1.15,1.18,1.18,0,0,1,.47-.44l4.33-2.17a.93.93,0,0,0,.4-.35.74.74,0,0,0-.25-.95l-3.44-2.87a2.46,2.46,0,0,0-2.07-.4l-5.25,1.64a3.63,3.63,0,0,1-2.23-.15,25.87,25.87,0,0,0-2.81-1,1.48,1.48,0,0,1-1-1.52l.31-2.56a1.18,1.18,0,0,0-1-1.32l-6.74-.7a1.88,1.88,0,0,0-1.71.88l0,.06-1.35,2.61,0,.07a2.37,2.37,0,0,1-1.71,1.07c-1.18.09-2.34.24-3.49.44a3.45,3.45,0,0,1-2.18-.44l-3.63-2.41a2.6,2.6,0,0,0-2.11-.22l-5.39,2.16a1,1,0,0,0-.47.38.78.78,0,0,0,.18.94l2.44,2.61a1,1,0,0,1,.16,1.23,1.23,1.23,0,0,1-.31.34,14.61,14.61,0,0,0-1.47,1.32,3,3,0,0,1-2,.85l-6.17-.25a1.67,1.67,0,0,0-1.43.82,1.59,1.59,0,0,0-.12.27l-.94,3a1,1,0,0,0,.83,1.35l5.86,1a2,2,0,0,1,1.43,1.38,7.45,7.45,0,0,0,.44,1.16,1.26,1.26,0,0,1,0,1.15,1.18,1.18,0,0,1-.47.44L255,404.19a1,1,0,0,0-.4.36.73.73,0,0,0,.25.95l3.44,2.86a2.47,2.47,0,0,0,2.07.41l5.24-1.64a3.73,3.73,0,0,1,2.24.14,25.89,25.89,0,0,0,2.81,1,1.46,1.46,0,0,1,1,1.52l-.31,2.56a1.17,1.17,0,0,0,1.05,1.31l6.74.71a1.91,1.91,0,0,0,1.71-.89l0,0,1.34-2.62,0-.06a2.38,2.38,0,0,1,1.71-1.08c1.17-.09,2.34-.23,3.49-.43a3.45,3.45,0,0,1,2.18.43l3.62,2.41a2.55,2.55,0,0,0,2.12.22l5.39-2.16a.92.92,0,0,0,.47-.38.78.78,0,0,0-.18-.94l-2.45-2.6a1,1,0,0,1-.15-1.23,1.1,1.1,0,0,1,.3-.35,13.66,13.66,0,0,0,1.48-1.31,3,3,0,0,1,2-.85l6.16.25a1.67,1.67,0,0,0,1.44-.83Zm-41-7.18a9.54,9.54,0,0,1,4.88-3.75c5.84-2.34,13.87-1.51,17.92,1.87,2.41,2,2.88,4.45,1.64,6.59a9.55,9.55,0,0,1-4.88,3.76c-5.84,2.34-13.87,1.5-17.92-1.87-2.41-2-2.88-4.45-1.64-6.6Z" style="fill:#fff"></path></g></g><path d="M238.65,406.46l-8.33,3.85a3,3,0,0,1-1.91.12,49.48,49.48,0,0,0-6.46-1.54,1.55,1.55,0,0,1-1.2-1.17l-1-5.49a1.29,1.29,0,0,0-1.22-1H206.41a1.28,1.28,0,0,0-1.21,1l-1,5.49a1.55,1.55,0,0,1-1.2,1.17,49.48,49.48,0,0,0-6.46,1.54,3.05,3.05,0,0,1-1.91-.12l-8.32-3.85a2.18,2.18,0,0,0-1.82.08l-8.22,4.74a.61.61,0,0,0-.05,1.11l6.51,4.68a.87.87,0,0,1,.12,1.34,16.5,16.5,0,0,0-2.32,3.22,2.06,2.06,0,0,1-1.48,1l-10.95.69a1.11,1.11,0,0,0-1,1.09v6.11a1.12,1.12,0,0,0,1,1.09l10.95.69a2,2,0,0,1,1.47,1,16.57,16.57,0,0,0,2.33,3.22.87.87,0,0,1-.12,1.34l-6.51,4.68a.61.61,0,0,0,.05,1.11l8.22,4.75a2.22,2.22,0,0,0,1.82.08l8.32-3.86a3,3,0,0,1,1.91-.11A47.9,47.9,0,0,0,203,446a1.58,1.58,0,0,1,1.2,1.17l1,5.49a1.28,1.28,0,0,0,1.21,1h12.08a1.29,1.29,0,0,0,1.22-1l1-5.49A1.58,1.58,0,0,1,222,446a47.9,47.9,0,0,0,6.46-1.53,3,3,0,0,1,1.91.11l8.33,3.86a2.2,2.2,0,0,0,1.81-.08l8.22-4.75a.61.61,0,0,0,0-1.11l-6.51-4.68a.87.87,0,0,1-.12-1.34,16.57,16.57,0,0,0,2.33-3.22,2,2,0,0,1,1.47-1l11-.69a1.11,1.11,0,0,0,1-1.09V424.4a1.1,1.1,0,0,0-1-1.09l-10.94-.69a2,2,0,0,1-1.48-1,16.33,16.33,0,0,0-2.33-3.23.87.87,0,0,1,.12-1.34l6.51-4.68a.61.61,0,0,0,0-1.11l-8.22-4.74A2.16,2.16,0,0,0,238.65,406.46Zm-12.32,13c7.66,4.43,7.66,11.6,0,16s-20.09,4.43-27.76,0-7.66-11.59,0-16S218.66,415,226.33,419.44Z" style="fill:#fff;opacity:0.35000000000000003"></path><path d="M301.77,385.47l-5.25,1.64a3.63,3.63,0,0,1-2.23-.15,25.87,25.87,0,0,0-2.81-1,1.48,1.48,0,0,1-1-1.52l.31-2.56a1.18,1.18,0,0,0-1-1.32l-6.74-.7a1.88,1.88,0,0,0-1.74.94l-1.35,2.61a2.34,2.34,0,0,1-1.74,1.14c-1.18.09-2.34.24-3.49.44a3.45,3.45,0,0,1-2.18-.44l-3.63-2.41a2.6,2.6,0,0,0-2.11-.22l-5.39,2.16a.76.76,0,0,0-.29,1.32l2.44,2.61a1,1,0,0,1-.15,1.57,14.61,14.61,0,0,0-1.47,1.32,3,3,0,0,1-2,.85l-6.17-.25a1.64,1.64,0,0,0-1.55,1.09l-.94,3a1,1,0,0,0,.83,1.35l5.86,1a2,2,0,0,1,1.43,1.38,7.45,7.45,0,0,0,.44,1.16,1.18,1.18,0,0,1-.49,1.59L255,404.19a.73.73,0,0,0-.15,1.31l3.44,2.86a2.47,2.47,0,0,0,2.07.41l5.24-1.64a3.73,3.73,0,0,1,2.24.14,25.89,25.89,0,0,0,2.81,1,1.46,1.46,0,0,1,1,1.52l-.31,2.56a1.17,1.17,0,0,0,1.05,1.31l6.74.71a1.89,1.89,0,0,0,1.74-.94l1.35-2.62a2.34,2.34,0,0,1,1.74-1.14c1.17-.09,2.34-.23,3.49-.43a3.45,3.45,0,0,1,2.18.43l3.62,2.41a2.55,2.55,0,0,0,2.12.22l5.39-2.16a.76.76,0,0,0,.29-1.32l-2.45-2.6a1,1,0,0,1,.15-1.58,13.66,13.66,0,0,0,1.48-1.31,3,3,0,0,1,2-.85l6.16.25a1.66,1.66,0,0,0,1.56-1.1l.93-3a1,1,0,0,0-.82-1.35l-5.86-1a2,2,0,0,1-1.43-1.37,9.28,9.28,0,0,0-.44-1.17,1.18,1.18,0,0,1,.49-1.59l4.33-2.17a.72.72,0,0,0,.15-1.3l-3.44-2.87A2.46,2.46,0,0,0,301.77,385.47Zm-10.13,7.41c4.06,3.37,2.61,8-3.24,10.35s-13.87,1.5-17.92-1.87-2.61-8,3.24-10.35S287.59,389.5,291.64,392.88Z" style="fill:#fff;opacity:0.35000000000000003"></path></g></g><g id="freepik--Triangles--inject-400"><g id="freepik--triangles--inject-400"><polygon points="313.31 68.89 349.17 89.59 331.24 56.66 313.31 68.89" style="fill:#e0e0e0"></polygon><polygon points="313.31 83.95 349.17 104.65 331.24 71.72 313.31 83.95" style="fill:#ebebeb"></polygon><polygon points="313.31 99 349.17 119.7 331.24 86.77 313.31 99" style="fill:#f5f5f5"></polygon></g></g><g id="freepik--character-1--inject-400"><g id="freepik--Character--inject-400"><g id="freepik--Bottom--inject-400"><path d="M99.24,397.64a5.33,5.33,0,0,0,.31-3.39,21.21,21.21,0,0,0-1.91-4.64,29.83,29.83,0,0,1-2-19.45c.69-2.87,2.94-5.07,4.88-7.21,4.21-4.63,8.81-8.91,13.42-13.12l-15.84-17.4C94.59,340.21,86,356.55,86,356.55l-1,1.87c-.33.4-.51.88-.81,1.29a11.93,11.93,0,0,1-1.44,1.4l-2.86,2.78a7.41,7.41,0,0,0-2.07,2.79c-.68,2.07.56,4.21,1.24,6.28,1.12,3.37.76,7,.88,10.55a13.63,13.63,0,0,0,.35,2.85A12.51,12.51,0,0,0,82.9,391a27.86,27.86,0,0,0,9.59,7.43,7.31,7.31,0,0,0,4,.58A3.91,3.91,0,0,0,99.24,397.64Z" style="fill:#ffbda7"></path><path d="M76.23,366a8.06,8.06,0,0,0-1.12,2.93c-.24,1.08,2.21,5.28,2.41,7.41s0,2.81,0,5.57c0,3.06-.89,6.22,3.92,12.22s9.49,7.92,13,8.46a8,8,0,0,0,3.78-.52s3.2-2.9,1.75-4.89S76.23,366,76.23,366Z" style="fill:#263238"></path><path d="M98.1,368.37c.17.74-.34,1.62-.76,3.22a18.22,18.22,0,0,0-.23,6.83c2,11.68,6.07,16.2,3.17,21.31-1,1.86-4.88,2.81-12.88-1.91-4.08-2.41-8.45-9-8.67-12.62s.4-6.34.1-9.11-3.13-7.41-2.6-10.1c.44-1.81,2.42-3.73,3.2-4.36a32,32,0,0,0,4.08-3.77c.88-1.1,1.51-1.81,2.49-1.31l-1,1.87c-.86,3.37-.75,4.07-.6,5.56.2,2,.89,2.82,1.2,4.38.68-2.23.65-4,2.21-4.44.85-.23,1.74-.28,4.63.87S97.94,367.71,98.1,368.37Z" style="fill:#455a64"></path><path d="M87.46,397.85c-4.09-2.42-8.46-9-8.67-12.62a31.39,31.39,0,0,1,0-3.64c0,.24.06.49.1.69.1.44.21.89.34,1.32a10.41,10.41,0,0,0,2.47,4.7c1.14,1.11,3.89,3.93,5.74,3.29,1-.36,1.52-1.71,1.46-3,0-.56-.26-2-.26-2a17.46,17.46,0,0,1,5.49.07c3.32.71,3.38,1.13,3.38,1.13a7.42,7.42,0,0,0,.82,2.35A5.83,5.83,0,0,0,100,392a3.18,3.18,0,0,0,.8.35c.87,2.54,1.36,4.79-.41,7.46C99.07,401.48,95.46,402.57,87.46,397.85Z" style="fill:#37474f"></path><path d="M96.92,374.58h0a4.26,4.26,0,0,0-.24,1.67,42.32,42.32,0,0,0,.73,7.68,6.08,6.08,0,0,1-.16,2.91,5.26,5.26,0,0,0-.5,1.08.69.69,0,0,0,.27.81,1.29,1.29,0,0,0,1.39.19,1.79,1.79,0,0,0,.62-.86,5.37,5.37,0,0,0,.29-.65,73.4,73.4,0,0,1-2.2-9A17.79,17.79,0,0,1,96.92,374.58Z" style="fill:#37474f"></path><path d="M82.59,363.14a17.23,17.23,0,0,1,.36-4.65c.21-.23.41-.44.56-.63.88-1.1,1.51-1.81,2.49-1.31l-1,1.87a14.16,14.16,0,0,0-.22,4.92c.36,2.24.51,3.46.82,5,.75,5.13.36,7.09,1.59,11.73s3.29,7.27,2.76,7.77-2,.49-3.62-3-2.42-10.06-2.42-13.32S82.86,366.44,82.59,363.14Z" style="fill:#37474f"></path><path d="M88.44,386.53a.49.49,0,0,0,.27.06,11.43,11.43,0,0,1,8.55,2.23.48.48,0,0,0,.53-.79,12.33,12.33,0,0,0-9.15-2.39.49.49,0,0,0-.44.51A.52.52,0,0,0,88.44,386.53Z" style="fill:#ebebeb"></path><path d="M87.72,382.9A.55.55,0,0,0,88,383a12.74,12.74,0,0,1,9.15,2.13.47.47,0,0,0,.67-.17.49.49,0,0,0-.17-.67A13.74,13.74,0,0,0,87.9,382a.5.5,0,0,0-.45.53A.47.47,0,0,0,87.72,382.9Z" style="fill:#ebebeb"></path><path d="M86.53,379a.47.47,0,0,0,.29.05,14.57,14.57,0,0,1,10.27,2.26.53.53,0,0,0,.73-.19.54.54,0,0,0-.19-.74A15.61,15.61,0,0,0,86.71,378a.54.54,0,0,0-.48.6A.55.55,0,0,0,86.53,379Z" style="fill:#ebebeb"></path><path d="M86.1,374.93a.54.54,0,0,0,.29.05,14.06,14.06,0,0,1,10,2.29.55.55,0,0,0,.73-.19.53.53,0,0,0-.19-.72,15.11,15.11,0,0,0-10.65-2.43.53.53,0,0,0-.19,1Z" style="fill:#ebebeb"></path><path d="M85.75,370.76a.58.58,0,0,0,.29.06c3.83-.27,6.62.62,10.34,3a.54.54,0,0,0,.73-.17.52.52,0,0,0-.16-.72c-3.91-2.48-6.92-3.43-11-3.14a.53.53,0,0,0-.49.56A.53.53,0,0,0,85.75,370.76Z" style="fill:#ebebeb"></path><path d="M141.9,223.74c1.29,8.86,5.46,20,7.78,40.95,2.17,19.68,3.14,29.94,1.76,39.72a25.11,25.11,0,0,1-5.6,12.73C134.48,331.21,110,354.33,110,354.33s-2.82-1.2-7.51-6.39S97.6,333.5,97.6,333.5s2.58-7.69,8.85-23.73c4.49-11.46,11.14-16.4,11.14-16.4L112,230.19C125.4,231.41,135.63,228.89,141.9,223.74Z" style="fill:#263238"></path><path d="M110.62,353.7c2.13-2,9.13-8.72,16.75-16.44,1-8.75,2.33-21.68,2.16-29.16-.22-10-2-44-2-44,9.74-5.16,11.24-13.73,11-20.65,0,0-14.68-.14-25.21,1.52l4.32,48.37s-5.79,5.09-12,19.61c-3.74,8.8-5.85,14.37-6.95,17.42l-.49,1.4c-.36,1-.51,1.54-.51,1.54A30.47,30.47,0,0,0,98.82,341h0a.56.56,0,0,1,0,.12,18,18,0,0,0,3.58,6.78C106.78,352.61,109.66,353.52,110.62,353.7Z"></path><path d="M129.46,405.18s-6.91-8.62-6.91-19.08,1.14-28.26,1.14-28.26l-21.37,5.45,4.7,27.95.24,2.21S106,405.65,115.59,406A126.16,126.16,0,0,0,129.46,405.18Z" style="fill:#ffbda7"></path><path d="M104.24,405.18a8.18,8.18,0,0,0,.78,3.19c.43,1.07,5,3.22,6.48,4.93s1.66,2.43,3.33,4.78c1.85,2.61,2.94,5.88,10.65,8.18s12.87,1.17,16.22-.46a8.45,8.45,0,0,0,3-2.7s1-4.39-1.41-5.24S104.24,405.18,104.24,405.18Z" style="fill:#263238"></path><path d="M124.46,394.21c.59.54.67,1.6,1.27,3.22a18.93,18.93,0,0,0,3.87,6c8.71,8.84,14.86,10.33,15.41,16.44.2,2.24-2.53,5.33-12.22,6-4.95.36-12.61-2.68-15-5.7s-3.43-5.69-5.33-7.89-7.11-4.52-8.25-7.14c-.7-1.82-.14-4.65.15-5.65a33.54,33.54,0,0,0,1.27-5.68c.11-1.47.22-2.45,1.36-2.61l.24,2.21c1.27,3.41,1.78,3.95,2.8,5.14,1.35,1.59,2.45,1.9,3.64,3.05-.75-2.32-1.85-3.85-.75-5.13.6-.7,1.33-1.27,4.5-2S123.93,393.73,124.46,394.21Z" style="fill:#455a64"></path><path d="M132.86,425.9c-5,.35-12.61-2.68-15-5.7a34.64,34.64,0,0,1-2.15-3.13c.18.18.34.38.5.53.35.32.71.64,1.08.94a11,11,0,0,0,4.92,2.57c1.64.27,5.68,1.07,6.89-.59.69-.93.29-2.38-.54-3.47-.35-.46-1.4-1.54-1.4-1.54a18.17,18.17,0,0,1,4.76-3.21c3.28-1.37,3.58-1,3.58-1a7.85,7.85,0,0,0,2.11,1.53,6.27,6.27,0,0,0,2.46.61,3.93,3.93,0,0,0,.9-.18c2.26,1.66,4,3.31,4.08,6.65C145,422.11,142.55,425.2,132.86,425.9Z" style="fill:#37474f"></path><path d="M127.15,400.25a0,0,0,0,0,0,0,4.37,4.37,0,0,0,.78,1.57,44.33,44.33,0,0,0,5.2,6.18,6.18,6.18,0,0,1,1.59,2.6,5.56,5.56,0,0,0,.22,1.23.73.73,0,0,0,.71.53,1.32,1.32,0,0,0,1.31-.67,1.9,1.9,0,0,0,0-1.11c0-.24-.08-.48-.13-.72a76.61,76.61,0,0,1-7.25-6.44A17.71,17.71,0,0,1,127.15,400.25Z" style="fill:#37474f"></path><path d="M108,399a18,18,0,0,1-2.46-4.23c0-.32.09-.62.11-.87.11-1.47.22-2.45,1.36-2.61l.25,2.21a14.8,14.8,0,0,0,2.74,4.36c1.64,1.72,2.5,2.68,3.69,3.83,3.69,4,4.53,5.89,8.35,9.15s7.15,4.3,7,5-1.41,1.61-4.88-.4-8.06-7.21-10-10S110.2,401.62,108,399Z" style="fill:#37474f"></path><path d="M127,415.58a.54.54,0,0,0,.27-.11,11.94,11.94,0,0,1,8.68-3.17.51.51,0,0,0,.49-.5.49.49,0,0,0-.5-.49,12.83,12.83,0,0,0-9.29,3.39.5.5,0,0,0,.35.88Z" style="fill:#ebebeb"></path><path d="M124.18,412.89a.47.47,0,0,0,.26-.11,13.37,13.37,0,0,1,9.14-3.61.51.51,0,0,0,.48-.54.51.51,0,0,0-.54-.48,14.37,14.37,0,0,0-9.73,3.84.51.51,0,0,0-.07.72A.53.53,0,0,0,124.18,412.89Z" style="fill:#ebebeb"></path><path d="M120.83,410.23a.51.51,0,0,0,.29-.13,15.12,15.12,0,0,1,10.17-4.16.58.58,0,0,0,.52-.61.56.56,0,0,0-.6-.52,16.32,16.32,0,0,0-10.83,4.44.56.56,0,0,0,.45,1Z" style="fill:#ebebeb"></path><path d="M118,407a.5.5,0,0,0,.28-.12,14.74,14.74,0,0,1,10-4,.56.56,0,0,0,.51-.59.54.54,0,0,0-.58-.51A15.92,15.92,0,0,0,117.61,406a.55.55,0,0,0-.06.78A.52.52,0,0,0,118,407Z" style="fill:#ebebeb"></path><path d="M115.27,403.61a.53.53,0,0,0,.28-.12c3.14-2.51,6.06-3.41,10.67-3.59a.55.55,0,1,0,0-1.1c-4.83.19-8,1.17-11.31,3.83a.56.56,0,0,0-.09.78A.57.57,0,0,0,115.27,403.61Z" style="fill:#ebebeb"></path><path d="M141.9,223.74s1.71,11.44-1.94,21.87c-3.16,9.07-9.24,14.17-15.64,16.3,0,0,2.12,40.69,2.69,46.35s-.76,26.19-2,39.7-1.56,18.14-1.56,18.14-2.82,3-10.72,3.2-10.41-3.18-10.41-3.18-5-15.62-5.2-27.87c-.12-7,1.38-10.52.08-17.48s-11-38-12.59-52.66.81-27.61,11-42.65C106.68,232.8,131.89,231,141.9,223.74Z" style="fill:#263238"></path><path d="M100.19,227.73c-5.54,7.82-13.52,23.94-7.86,47,1.61,6.57,3.22,12.91,4.78,19,3.63,14.35,6.51,25.68,6.9,30a35.79,35.79,0,0,1-.35,7.3,62.29,62.29,0,0,0,0,17.17c1,7.39,2.44,15.16,3.48,20.42-.34-.09-.65-.18-.94-.28-1-5.26-2.43-12.82-3.4-20a63.07,63.07,0,0,1,0-17.38,34.33,34.33,0,0,0,.35-7.13c-.38-4.26-3.25-15.57-6.88-29.88-1.55-6.13-3.16-12.47-4.77-19-5.71-23.26,2.25-39.57,7.87-47.57Z"></path></g><g id="freepik--Top--inject-400"><g id="freepik--Arm--inject-400"><g id="freepik--arm--inject-400"><path d="M167.17,142.66c-2-10.32-4.88-20.61-7.4-30.64a31.57,31.57,0,0,1-1.24-10.16,9.71,9.71,0,0,0-.74-4.2c-1.46-3.23-3.23-5.2-4.57-8a36.45,36.45,0,0,1-2.65-6.8c-.71-1.93-1.55-2.47-2.6-2.28s-.66,2.72-.66,2.72A10.14,10.14,0,0,0,145.75,80c-1.06-1-2.53-1.23-2.82-.13s-.09,1.38-.09,1.38c-.71,0-2.17,1.17-1.73,3.56,0,0-1.83-.35-1.61,3.41.24,4.26,2.25,8.24,3.29,10.45.36.86.22,1.87-.68,1.09-1.21-1-2.2-2.46-3.74-3a2.93,2.93,0,0,0-1.37-.19,2.12,2.12,0,0,0-1.2.64c-.71.71.32,2,.89,2.72,2.26,2.93,3.46,6.11,6.51,8.35,1,.72,2.53,2,2.79,3.13,1.58,7.07,3.11,26.34,3,31.57-4.95,10.18-19.19,30.66-19.19,30.66-4.17,9,3.49,26.37,11.83,25.66,1-7.75,11.88-22.85,24-44.9C167.56,150.87,168.35,148.93,167.17,142.66Z" style="fill:#ffbda7"></path><path d="M151.76,86.11a24.63,24.63,0,0,1-.9-2.67c-.32-1.22-.62-2.57-2-2.94a2,2,0,0,0-1,0,1.12,1.12,0,0,0-.62.85,3.74,3.74,0,0,0-.1.81c-.18-.43-.38-.86-.54-1.25a3.26,3.26,0,0,0-1.62-1.73A2.13,2.13,0,0,0,143.7,79a1.26,1.26,0,0,0-1,.93,5.78,5.78,0,0,0-.13,1.22,1.74,1.74,0,0,0-1.11.72,3.24,3.24,0,0,0-.55,1.23,3.59,3.59,0,0,0,0,1.59,1.57,1.57,0,0,0-1.26,1.17,6.43,6.43,0,0,0-.3,1.83,16.74,16.74,0,0,0,.63,4.46,43.65,43.65,0,0,0,2.86,6.71,50.26,50.26,0,0,1-2.65-6.77,16.33,16.33,0,0,1-.57-4.39,5.63,5.63,0,0,1,.3-1.74c.17-.54.63-1,1.13-1h0a1.8,1.8,0,0,1,1.39,1.33c.15.39.73,2.44.87,2.85a28.21,28.21,0,0,0,2.53,5.35A33.27,33.27,0,0,1,143.58,89c-.12-.4-.7-2.41-.84-2.83a2.1,2.1,0,0,0-1.5-1.54,3.31,3.31,0,0,1,0-1.51,2.8,2.8,0,0,1,.49-1.08,1.42,1.42,0,0,1,.91-.59h0c.44,0,.84.33,1.1.76a5.85,5.85,0,0,1,.6,1.43,21.35,21.35,0,0,0,.93,3.08,28.46,28.46,0,0,0,1.29,2.94l1.52,2.82-1.43-2.86a27,27,0,0,1-1.19-3,21.65,21.65,0,0,1-.83-3.09,6.21,6.21,0,0,0-.59-1.53,1.8,1.8,0,0,0-1.07-.91,5.94,5.94,0,0,1,.1-1.15c.1-.74,1-.8,1.67-.45a2.84,2.84,0,0,1,1.46,1.53c.31.68.63,1.49.93,2.29a33.26,33.26,0,0,0,1.33,3.06c.68,1.35,1.36,2.69,2.16,4-.74-1.31-1.36-2.68-2-4s-.7-1.67-1.21-3.07a5.35,5.35,0,0,1,0-1.83c.07-.29.2-.58.44-.66a1.86,1.86,0,0,1,.88,0c1.22.3,1.53,1.55,1.86,2.74a16.77,16.77,0,0,0,1,2.66,37.22,37.22,0,0,0,1.58,3.53C152.68,88.52,152.19,87.33,151.76,86.11Z" style="fill:#f0997a"></path></g><path d="M152.63,105.68c.32-3-2.89-6-5.58-7.22C150.67,99.15,153.62,101.36,152.63,105.68Z" style="fill:#f0997a"></path></g><path d="M131.2,166.76a3.66,3.66,0,0,1,.89,2.4,9.1,9.1,0,0,0,5.23-9.92c-.65-3.15-2.93-5.68-4.2-8.63a14.65,14.65,0,0,1-.79-9.39c.77-2.9,2.47-6,1-9-2.54-5-8.53-7.74-13.78-8.86a27.81,27.81,0,0,0-10.21,0c-6.13,1.13-13.6,5.52-14.69,12.16A18.42,18.42,0,0,0,92.14,137a14.6,14.6,0,0,0-1.81,2.65,18.22,18.22,0,0,0-1.79,6.72,44.28,44.28,0,0,0,.07,9.56,24,24,0,0,1,.33,4.86c-.17,1.94-.94,3.8-1,5.74-.18,5.5,5,8.66,10,8.22a7,7,0,0,1-2-3,6.5,6.5,0,0,0,2.53,2.2,11.67,11.67,0,0,0,3.26,1.12,39.24,39.24,0,0,0,12.66,1.38,34.07,34.07,0,0,0,11.35-3.26,12.65,12.65,0,0,0,3.69-2.41A5.59,5.59,0,0,0,131.2,166.76Z" style="fill:#263238"></path><g id="freepik--Chest--inject-400"><path d="M125,175.16s-15.54.37-21,2.08-10.16,3.18-10.16,3.18c-1.84,2.26-5.44,11-6,19.7-.29,4.26,5.72,16.62,5.9,21.55.15,4.23-3.88,11.86-6.45,18.38,11.5,17.22,52.73,14,57.85-1.75A146.6,146.6,0,0,1,142.73,222a83.48,83.48,0,0,1-.11-13.18s5.19-4.79,4.86-11.13c-.3-5.76-2.56-9.87-8.42-15.88a76.26,76.26,0,0,0-9.13-8.36A6.09,6.09,0,0,1,125,175.16Z" style="fill:#f0f0f0"></path><path d="M130,174.94a88.8,88.8,0,0,1,8.28,7.7c5.78,5.92,7.82,9.74,8.11,15.15.3,5.72-4.45,10.19-4.49,10.24l-.34.31,0,.45,0,.45a83.07,83.07,0,0,0,.13,12.88,146.39,146.39,0,0,0,2.31,16.1c-2.57,7.12-14.33,12.25-28.16,12.25-12.35,0-22.47-3.94-27.24-10.56.62-1.56,1.33-3.19,2-4.78,2.27-5.21,4.41-10.14,4.28-13.5-.09-2.55-1.52-6.61-3-10.9-1.41-4-3-8.56-2.87-10.53.58-8.26,3.84-16.35,5.6-18.81l9.82-3.07c5.14-1.6,19.78-2,20.69-2h.56a7.08,7.08,0,0,0,4.38-1.37m0-1.45a5.93,5.93,0,0,1-4.35,1.69l-.55,0s-15.54.37-21,2.08-10.16,3.18-10.16,3.18c-1.84,2.26-5.44,11-6,19.7-.29,4.26,5.72,16.62,5.9,21.55.15,4.23-3.88,11.86-6.45,18.38,5.32,8,17,11.55,28.52,11.55,13.39,0,26.58-4.84,29.33-13.3A146.6,146.6,0,0,1,142.73,222a84.77,84.77,0,0,1-.11-13.18s5.19-4.79,4.86-11.13c-.3-5.76-2.56-9.87-8.42-15.88a76.26,76.26,0,0,0-9.13-8.36Z" style="fill:#e0e0e0"></path><path d="M126.85,211.33a10.65,10.65,0,0,1-5.61,3.57,17.19,17.19,0,0,1-7.48.27,12.86,12.86,0,0,1-8.31-5.39c-.09-.13-.22-.27-.37-.22s-.17.29-.12.46a9.58,9.58,0,0,0,3.13,4.89,11.84,11.84,0,0,0,6.14,2.23,16.19,16.19,0,0,0,8.19-1,7.4,7.4,0,0,0,2.74-1.77,7.52,7.52,0,0,0,1.81-2.89C127,211.38,126.94,211.26,126.85,211.33Z" style="opacity:0.2"></path></g><g id="freepik--Head--inject-400"><path d="M105,173.72c-.3-5.25-.82-10.47-.82-10.47-.44,1.11-3.74,3.36-7.56.85a7.23,7.23,0,0,1-2.38-9.29c1.72-2.91,5.13-3.24,7.83-.12.15.18,1.08-.21,1.25-.31a1.8,1.8,0,0,0,.73-.88,3,3,0,0,0,.15-1.42,7.79,7.79,0,0,0-.4-1.56,37,37,0,0,0,10-7.9c3.67-4.4,5.22-10.58,4.94-11.27a18,18,0,0,1,4.82,1.57,12.75,12.75,0,0,1,4.29,4.19c1.08,1.94.89,3.78,1.35,5.8.28,1.22,1.28,3.58,1.54,4.89,1.82,9.1,1.56,13.59-1.24,16.78a12.72,12.72,0,0,1-6.84,3.62s.11,1.11.31,4c.15,2,.3,2.93,2,3,2.1,1.66,4.62,8.22-4.69,9.12s-16.12-2.23-18.21-6.46C104.5,176.86,105.14,175.53,105,173.72Z" style="fill:#ffbda7"></path><path d="M122.73,168.2c-6.42,1.15-11.89.08-15.63-3.7a9.22,9.22,0,0,0,4.09,4.33,20.86,20.86,0,0,0,11.71,1.5Z" style="fill:#f0997a"></path><path d="M122.73,158.12l-6.55-.78a3.14,3.14,0,0,0,2.74,3.66A3.49,3.49,0,0,0,122.73,158.12Z" style="fill:#b16668"></path><path d="M120.34,160.85a3.38,3.38,0,0,1-1.42.15,3.12,3.12,0,0,1-2.6-2.11A3.81,3.81,0,0,1,120.34,160.85Z" style="fill:#ffa8a7"></path><polygon points="118.02 143.41 120.91 155.1 126.18 151.94 118.02 143.41" style="fill:#f0997a"></polygon><path d="M127.12,145.05a1.57,1.57,0,0,1-1.48,1.68,1.58,1.58,0,1,1,1.48-1.68Z" style="fill:#263238"></path><path d="M115.09,147.76a1.58,1.58,0,1,1-1.68-1.48A1.58,1.58,0,0,1,115.09,147.76Z" style="fill:#263238"></path><path d="M127.24,141.25l-4.28-.83a2.1,2.1,0,0,1,2.49-1.74A2.27,2.27,0,0,1,127.24,141.25Z" style="fill:#263238"></path><path d="M108.53,146.07l3.54-2.64a2.12,2.12,0,0,0-3-.49A2.3,2.3,0,0,0,108.53,146.07Z" style="fill:#263238"></path></g><path id="freepik--arm--inject-400" d="M48.4,270.7c2.36-1.63,3.88-3.47,6-5.32,3.78-3.22,3.84-4.64,8.49-20,1.77-5.86,2.81-9.21,3.69-11.71,0,0,3.87-11.69,8.8-28.65s5.89-21.32,18.41-24.59c10.58,10.07-.89,31.61-.89,31.61s-6.06,15.51-8.26,22.33a94.91,94.91,0,0,1-5.6,13.49c-3.57,6.67-8.34,13.13-9.25,20.83-.15,1.19-.21,2.38-.35,3.56a20.73,20.73,0,0,1-2.14,7.13,12.73,12.73,0,0,1-5.19,5.22c-2.16,1.31-3.08,1.35-4.94,3.08-2.79,2.59-4.57-.71-2.62-3.47a9.47,9.47,0,0,1,2.92-2.74c.74-.52,3.34-2,1.52-2.74s-3.88.79-5.39,1.65c-4.47,2.59-7.31,3.49-12.26,5-1.72.51-4.21,1-5.88.11-1.51-.77-.86-2.11.35-2.78.31-.17.8-.25,1-.52a10.06,10.06,0,0,0,.51-1.2,5.23,5.23,0,0,1,1.8-1.88,2.12,2.12,0,0,0,.63-.47,2.9,2.9,0,0,0,.35-.8c.62-1.6,2.6-2.07,4-3.13a20,20,0,0,0,2.06-2.15A13.38,13.38,0,0,1,48.4,270.7Z" style="fill:#ffbda7"></path></g></g></g><g id="freepik--characters-2-and-3--inject-400"><g id="freepik--character-2-and-3--inject-400"><g id="freepik--character--inject-400"><g id="freepik--bottom--inject-400"><path d="M229.74,294.76c.66,7.65,1.09,13.32,1,14.63a14.91,14.91,0,0,1-5.17,9.67c-4.31,4.09-7.37,5.72-12.73,9.25.71,1.9,11.75,2.09,14.92.73a119,119,0,0,0,13.36-6.89c4.4-2.88,5.46-4.65,5.66-9.19,0-.56.47-4.25.43-4.5.06-1.07.75-6.81,1.65-13.88Z" style="fill:#ffa8a7"></path><path d="M294.65,309.88V291.6L275,293l3.65,17.91s2.19,24.39,3.22,28.35c3.32,12.79,14.51,7.63,15.84.85C298.62,335.62,294.65,309.88,294.65,309.88Z" style="fill:#ffa8a7"></path><path d="M204,335.52c-.29,0-.51,3,1.12,4.12,1.89,1.32,7.31,3.36,14.19,2.11s10.49-3.48,13.12-5.82,6.3-5.61,9.39-6.45c2.87-.77,7.51-2.59,8.38-3.49s.49-4.61.49-4.61Z" style="fill:#263238"></path><path d="M247.18,308.46a2.07,2.07,0,0,1,1.2,1.2c.29,1,.39,2.33,1,4a28.49,28.49,0,0,1,1.32,9c-.25,1.93-6.47,3.94-9.43,5.2a38.91,38.91,0,0,0-9.43,6.39,29.79,29.79,0,0,1-14.29,6c-6.89.51-11.48-1-13-3.19-1.9-2.75-1.26-5.76,6.43-9.67,1.46-.74,6.53-4,8.25-5.13a40.41,40.41,0,0,0,5.14-4.06c.79-.76,1.55-1.55,2.26-2.38a10.07,10.07,0,0,0,1.84-2.51c.08-.2.12-.43.19-.64a10.91,10.91,0,0,0,.4-1.76c.08-.62.1-1.52.7-1.93s10.58.8,11.35,1.78a5.28,5.28,0,0,1,.84,2.64c.05.43.07.86.1,1.29,0,.19-.05.52.23.43s.5-.75.59-1c.19-.49.29-1,.5-1.51a4.17,4.17,0,0,1,.87-1.62c1.25-1.11,2.54-1,2.9-1.37C247.08,309.61,247.16,308.83,247.18,308.46Z" style="fill:#37474f"></path><path d="M210.5,327.58c10,0,13.35,7.29,14,10.82a24.77,24.77,0,0,1-7,1.82c-6.89.51-11.77-.94-13.31-3.17C202.41,334.46,203.59,330.51,210.5,327.58Z" style="fill:#fafafa"></path><path d="M225.25,328.47a.56.56,0,0,0,.3-.12.43.43,0,0,0,0-.65c-1.5-1.5-6.24-4.63-9.85-4a.45.45,0,0,0-.39.52.47.47,0,0,0,.56.37c3.37-.54,7.78,2.58,9,3.77A.48.48,0,0,0,225.25,328.47Z" style="fill:#f5f5f5"></path><path d="M229.39,325.87a.49.49,0,0,0,.3-.12.42.42,0,0,0,0-.64c-1.5-1.51-6.24-4.64-9.85-4.05a.46.46,0,0,0-.39.53.48.48,0,0,0,.56.37c3.37-.55,7.78,2.58,9,3.77A.51.51,0,0,0,229.39,325.87Z" style="fill:#f5f5f5"></path><path d="M233.19,323a.44.44,0,0,0,.3-.12.43.43,0,0,0,0-.64c-1.51-1.5-6.26-4.64-9.85-4.05a.46.46,0,0,0-.4.53.48.48,0,0,0,.56.37c3.37-.54,7.78,2.58,9,3.77A.51.51,0,0,0,233.19,323Z" style="fill:#f5f5f5"></path><path d="M236.91,320.06a.56.56,0,0,0,.3-.12.43.43,0,0,0,0-.64c-2.07-2.13-7.08-4.63-10.68-4a.45.45,0,0,0-.4.52.48.48,0,0,0,.56.37c3.25-.52,8,1.87,9.8,3.76A.48.48,0,0,0,236.91,320.06Z" style="fill:#f5f5f5"></path><path d="M280.29,340.57c.31,4.23,1,7,2.7,9.51s4.7,3.22,7.78,2.46,7-2.75,7.86-6.42,1.33-6.18.58-10.1Z" style="fill:#263238"></path><path d="M294.65,309.88c1.27-.14,1,5.7,1.8,11.4.85,6.1,1.83,8.52,2.59,13.52.87,5.72-.12,8.28-2.24,11.77s-9.7,7-13.52,2c-3.11-4-3.29-8.49-3.07-14.21a77.17,77.17,0,0,0-1-14.34c-.59-4.61-1.63-8.64-.53-9.13a39.28,39.28,0,0,0,1.13,4.45c.13.31.63,1.1.82-.09.05-.36-.08-1.18-.05-1.53.08-1,.73-1.16,1.14-1.38a13,13,0,0,1,5.41-1.17c2.49,0,4.64-.13,6,.51.84.39.83,1.13.92,1.85s.14,1.4.37,1.22C294.89,314.44,294.65,309.88,294.65,309.88Z" style="fill:#37474f"></path><path d="M299.43,338.11a13.58,13.58,0,0,1-2.28,8.73c-2.12,3.48-10.32,7-14.14,2.05-1.89-2.44-2.43-5.35-2.72-8.33C282.5,336.72,295.84,334.9,299.43,338.11Z" style="fill:#fafafa"></path><path d="M283,334.31l.15,0a23.06,23.06,0,0,1,11.66-1.18.47.47,0,0,0,.56-.33.44.44,0,0,0-.36-.53,23.71,23.71,0,0,0-12.28,1.25.43.43,0,0,0-.21.59A.48.48,0,0,0,283,334.31Z" style="fill:#f5f5f5"></path><path d="M294.48,328.83a.47.47,0,0,0,.39-.3.44.44,0,0,0-.3-.56c-5.72-1.74-12,1-12.26,1.15a.41.41,0,0,0-.19.59.49.49,0,0,0,.64.18c.05,0,6.19-2.71,11.52-1.08A.65.65,0,0,0,294.48,328.83Z" style="fill:#f5f5f5"></path><path d="M294.23,324.81a.47.47,0,0,0,.39-.3.41.41,0,0,0-.29-.55c-6.3-2-12.27,1-12.49,1.11a.42.42,0,0,0-.15.6.49.49,0,0,0,.64.15c.05,0,5.83-2.92,11.69-1A.75.75,0,0,0,294.23,324.81Z" style="fill:#f5f5f5"></path><path d="M293.87,320.85a.48.48,0,0,0,.39-.29A.42.42,0,0,0,294,320c-5.9-2-12.34,1.1-12.58,1.24a.42.42,0,0,0-.16.6.48.48,0,0,0,.64.15c.06,0,6.3-3,11.78-1.16A.5.5,0,0,0,293.87,320.85Z" style="fill:#ebebeb"></path><path d="M286.66,161.62c1.3,12,1.74,14.92,2.65,41.52.88,25.8.89,29.58,1,32.69.36,7.13,4.75,10,5.1,26.8.32,15.4-.25,34.27-.25,34.27s-3,2.6-9.35,2.92a21.07,21.07,0,0,1-9.93-1.83s-8.45-34.53-11.1-45.15c-3.13-12.49-8.2-34.24-8.2-34.24s-2.54,19.4-3.5,25.65c-.91,6,1.3,8.29-.09,21.65-1.1,10.65-4.38,28.45-4.38,28.45a21.05,21.05,0,0,1-9.43,2.1c-7.22-.31-9.5-2.6-9.5-2.6s-4.05-39.83-4.08-55.06c0-16.12,1.07-54.28,1.13-78Z" style="fill:#455a64"></path><path d="M256.62,218.6l-3.7-26.8s-9.38-2.64-15.23-8.76c.28,4.43,8.49,10.37,12.4,11.38l4.36,23.77-1.33,26.06Z" style="fill:#37474f"></path><path d="M269.66,165.19a35.45,35.45,0,0,1,3.28,7.11,63,63,0,0,1,2.09,7.49,73.13,73.13,0,0,1,1.21,7.64,46.28,46.28,0,0,1,.25,7.72c-.56-2.53-1.08-5-1.6-7.54s-1-5-1.57-7.51-1.1-5-1.68-7.46S270.39,167.68,269.66,165.19Z" style="fill:#37474f"></path><path d="M273.24,166.24a28.45,28.45,0,0,1,3.59,4,38.11,38.11,0,0,1,2.88,4.5,32.21,32.21,0,0,1,2.12,4.86,19.45,19.45,0,0,1,1.08,5.16l-2.35-4.7c-.79-1.54-1.58-3.07-2.41-4.59s-1.66-3-2.48-4.58S274,167.85,273.24,166.24Z" style="fill:#37474f"></path><path d="M267.47,195.85c.89,8,1.66,16.05,2.43,24.07s2.54,16.9,3.82,24.84,7.41,39.16,8.42,47.17C280.46,284,273.35,253,272,245s-2.91-16.93-3.44-25S267.69,203.91,267.47,195.85Z" style="fill:#37474f"></path><path d="M235.11,195.5l-.9,21c-.12,3.51-.28,7-.37,10.51s-.22,7-.07,10.47,1.21,37,.88,44c-1.08-7.8-2.2-36.92-2.63-44-.15-7.1.33-14.09.83-21.11S234.11,202.47,235.11,195.5Z" style="fill:#37474f"></path><path d="M249.5,290.25l-1.07,7.38s-4,1.81-10.57,1.41-8.15-2.49-8.15-2.49l-.65-7s2.49,1.81,8.55,2.05C245.44,291.93,249.5,290.25,249.5,290.25Z" style="fill:#37474f"></path><path d="M295.55,291.73l-.25,7.36s-3.12,2.36-9.72,3-9.52-1.6-9.52-1.6l-1.36-6.5s3.31,1.31,9.35.81A38.53,38.53,0,0,0,295.55,291.73Z" style="fill:#37474f"></path></g><g id="freepik--top--inject-400"><path d="M181.59,128.55c4.91,3,10,6.83,15.21,9.33,6.86,3.28,13.18,3.34,17.58-.37a166.93,166.93,0,0,0,21.2-22.13c3.4-4.55,2.34-18.62,1.52-23.92-10.52,1.47-13.51,6.59-19.18,13.44s-13.15,15.66-13.15,15.66c-3.61-1.29-6.41-2.12-10-3.42-2.7-1-5.84-2.1-8.53-3.09a49.47,49.47,0,0,1-8.65-3.82,5.45,5.45,0,0,1-2.06-3,28,28,0,0,0-2.28-5.68c-1.09-1.77-2.3-3.39-3.32-5.21a3.29,3.29,0,0,0-.75-1,.94.94,0,0,0-.81-.24,1,1,0,0,0-.51.33c-1.26,1.31-.78,3-.2,4.55.23.59,1.06,2,.84,2.67-.27.79-1.47.39-2,.12a10,10,0,0,1-1.76-1.17c-2.11-1.78-3.2-4.5-5.18-6.41a4,4,0,0,0-1.55-1,1.79,1.79,0,0,0-1.74.36c-.17.16-.31.39-.55.43a1.06,1.06,0,0,1-.61-.18,1.85,1.85,0,0,0-2.61,1.92,3,3,0,0,1,.1.84,2.35,2.35,0,0,1-.48.89,3,3,0,0,0-.47,1.9c0,.41.39,1.39.17,1.72-.91,1.39-.36,3,.48,4.28a43.45,43.45,0,0,0,5.42,6.72c3.51,3.29,6,4.74,11.26,7.77C171,122,179,127,181.59,128.55Z" style="fill:#ffa8a7"></path><path d="M159,107.16l-2-2.29a20.43,20.43,0,0,0-2.2-2.26,2.45,2.45,0,0,0-1.93-.73c-.08,0-.06.17,0,.17a3.08,3.08,0,0,1,2.17,1.36c.61.78,1.26,1.53,1.92,2.27a41.38,41.38,0,0,0,4,4.17s.06-.07,0-.1A26.08,26.08,0,0,0,159,107.16Z" style="fill:#f28f8f"></path><path d="M157.77,101.07a20.31,20.31,0,0,0-2-2.13c-.6-.53-1.68-1.48-2.55-1.1,0,0,0,.07,0,.06a2.36,2.36,0,0,1,.88.3,4,4,0,0,1,1,.62,20.92,20.92,0,0,1,2.91,3.25,36.52,36.52,0,0,0,4.21,4.58s0,0,0-.05l-.27-.35c-1.12-1.43-2.3-2.82-3.43-4.24C158.28,101.7,158,101.38,157.77,101.07Z" style="fill:#f28f8f"></path><path d="M164.68,105.15a55.31,55.31,0,0,0-3.94-5.22c-.69-.85-1.37-1.72-2.13-2.52a19.9,19.9,0,0,0-2.48-2.11c-.1-.07-.1.15,0,.19a58.81,58.81,0,0,1,4.34,4.86,50.47,50.47,0,0,0,4.19,4.91C164.68,105.33,164.71,105.2,164.68,105.15Z" style="fill:#f28f8f"></path><path d="M168.78,113.07c.07-.32-.43-.74-.59-1a5,5,0,0,1-.75-2.13,8.84,8.84,0,0,1,.39-3.65s0-.13-.07-.09a3,3,0,0,0-.73,1,4.23,4.23,0,0,0-.42,1.24,5.16,5.16,0,0,0,.81,3.5C167.71,112.33,168.22,113,168.78,113.07Z" style="fill:#f28f8f"></path><path d="M237.88,90.62c-9.15.95-12.84,4.16-20.57,13.61-7.05,8.62-12.65,15.77-12.65,15.77l-14.1-5a15.15,15.15,0,0,0-5.6,6.35c-2.48,6-2.18,8.79-2.18,8.79s8,4.94,13.49,7.81c8.52,4.43,12.41,4.36,17.71.17,10.62-8.39,22.71-22.37,22.71-22.37S239.94,103,237.88,90.62Z" style="fill:#455a64"></path><g id="freepik--chest--inject-400"><path d="M227.28,112.82c1.49-14.79,7.33-21.71,10.6-22.2,2.76-.7,17.33-2.48,24.72-1.45,10.6,1.47,17.53,5.14,25.48,10.94,6.15,11.74-1.09,23.56-1.32,40.56a225,225,0,0,0,.92,24.19c-11.76,9.91-51.19,11.16-61.13,0C226.66,150.52,225.82,127.32,227.28,112.82Z" style="fill:#0FBCF9"></path><g id="freepik--head--inject-400"><path d="M267.7,82.67c.87-4.39,5.39-8.86,7.48-12.65s3.23-6.49,3.11-10c-.06-2.07-1.28-4.9-2.8-5.54a9.6,9.6,0,0,0-6.69-12.16,32.38,32.38,0,0,1-4.2-1.3c-1.64-.74-2-2.09-3.29-3.27-2.25-2-6.13-2.18-7.7.74-1.47-2-3.56-2-6-1.49a4.1,4.1,0,0,0-3.28,4.55c-3.17-1.89-6.19.29-6.54,2.17-.25,1.39,0,2.58-.94,3.8-1.07,1.38-3,1.3-3.57.15-.39,2,.34,3.5,2.49,3.46a4.52,4.52,0,0,0-.67,3.76,4.11,4.11,0,0,0,3.63,2.94,7.16,7.16,0,0,0,.87,3,7.24,7.24,0,0,0,2.47,2.36c3.21,1.64,6.79,2.25,10.28,3.08l4.13,1c.24.06,1.5.17,1.64.39Z" style="fill:#263238"></path><path d="M273.2,77.12a4.27,4.27,0,0,1-5.19-.3l-.6,13.28c-2.2,6.4-9.79,10.62-15.23,10.14-6.32-.56-6.7-5-2.33-9.82l-.06-4a43.54,43.54,0,0,1-5.14-.41c-3.44-.57-6-3.45-6.84-7.22a39,39,0,0,1,0-14.85,13,13,0,0,0,.29-3.62c-.24-3.23.4-5.08,1.3-7.76,3.9-3,12.72-3.74,20.78,1.48-1.08,4.85.7,8.78,4.2,10.74-.21,1.31-.47,4.64,1.7,4.64,1.56,0,1.73-2,3.38-3.63s5.4-2,6.78.55C278.16,70,276.66,75.19,273.2,77.12Z" style="fill:#ffa8a7"></path><path d="M249.79,86.46c5.5-.49,9.78-1,12.75-4.88a33.86,33.86,0,0,0,3.49-6.4,26.85,26.85,0,0,1-2.58,8.08c-1.45,2.49-5,4.67-13.61,5.16Z" style="fill:#f28f8f"></path><path d="M252.72,65.34a1.54,1.54,0,1,0,3.08,0,1.55,1.55,0,0,0-1.52-1.62A1.57,1.57,0,0,0,252.72,65.34Z" style="fill:#263238"></path><path d="M253.28,60.29l3.45,1.52a2,2,0,0,0-1-2.55A1.84,1.84,0,0,0,253.28,60.29Z" style="fill:#263238"></path><path d="M240.05,60.46l3.69-.9a1.84,1.84,0,0,0-2.24-1.43A2,2,0,0,0,240.05,60.46Z" style="fill:#263238"></path><path d="M240.51,64.16a1.55,1.55,0,1,0,1.56-1.59A1.57,1.57,0,0,0,240.51,64.16Z" style="fill:#263238"></path><polygon points="241.96 70.42 247.67 73.23 248.67 62.15 241.96 70.42" style="fill:#f28f8f"></polygon><path d="M253.2,74.63,247,76.77a3.24,3.24,0,0,0,4.14,2.16A3.44,3.44,0,0,0,253.2,74.63Z" style="fill:#b16668"></path><path d="M252.55,75.76a3.59,3.59,0,0,1,.79-.08,3.39,3.39,0,0,1-2.25,3.25,3.17,3.17,0,0,1-1,.16A3,3,0,0,1,252.55,75.76Z" style="fill:#f28f8f"></path></g></g></g></g><g id="freepik--character--inject-400"><g id="freepik--bottom--inject-400"><path d="M372.81,378.53l1.88-16.74L355,356s1.46,17,1.35,22.88c-.06,2.79-2,8-2,8s8,4.14,12.13,2.45,6.88-8.22,6.78-9.42S372.81,378.53,372.81,378.53Z" style="fill:#c8856a"></path><path d="M332.18,404.88c-.26,0-.46,2.43,1,3.62a18.83,18.83,0,0,0,13.39,3.07c6.38-.93,9.81-2.94,12.33-5.09s6.06-5.19,8.94-5.87a20.59,20.59,0,0,0,7.13-3.68c.85-.83.66-4.47.66-4.47Z" style="fill:#263238"></path><path d="M372.81,378.5a1,1,0,0,1,1,.84c.22,1,.48,3.91.94,5.55a28.89,28.89,0,0,1,.79,8.83c-.32,1.87-5.38,4.2-8.16,5.3a35.62,35.62,0,0,0-9,5.8c-3,2.49-9.24,5.14-13.41,5.19-4.94,0-10.52-1.43-11.84-3.66-1.63-2.77-2.83-6,4.42-9.45,1.38-.66,6.19-3.58,7.83-4.63,4.43-2.86,7.54-5.47,9.52-10.43a2.73,2.73,0,0,1,1-1.52,2.36,2.36,0,0,1,1.42-.15c1.22.15,6.1.72,7.22,1.22s2.39,1,2.39,2.2a3.67,3.67,0,0,1-.25,1.26c-.08.26-.14.6.08.74s.5,0,.69-.2a19,19,0,0,0,1.92-2.36,21,21,0,0,1,1.85-2.14,11.64,11.64,0,0,0,1.24-.83C372.91,379.62,372.8,379.08,372.81,378.5Z" style="fill:#455a64"></path><path d="M358.38,404.82c1.26-1.06,2.6-2.08,3.94-3h0s-8.51,5.3-12,3c-2.27-1.47-1.24-3.32-1.19-3.9s-8-4.58-10.13-4.8h0c-.6.34-1.09.63-1.42.77-5.67,2.35-6.38,5.26-5.36,8.89,1.32,2.23,6.32,4.48,12.7,4.37C349.06,410.08,355.42,407.31,358.38,404.82Z" style="fill:#37474f"></path><path d="M349.67,399.21c-4.52,1.87-2.57,2.68-1.29,2.83s8.86-4.38,13.46-8.1c4.8-3.88,8.51-9,10.29-10.46.67-.53,1.38-1.19,2-1.79-.14-1-.26-1.88-.36-2.36a1,1,0,0,0-1-.83c0,.58.1,1.12-.33,1.56a11.64,11.64,0,0,1-1.24.83,21,21,0,0,0-1.85,2.14,19,19,0,0,1-1.92,2.36C363.58,390.43,354.18,397.34,349.67,399.21Z" style="fill:#37474f"></path><path d="M348.69,401.38a.48.48,0,0,0,.29-.11.43.43,0,0,0,0-.62c-1.31-1.53-7.47-5.1-10.81-4.68a.45.45,0,0,0-.39.5.43.43,0,0,0,.5.38c3.12-.38,9,3.16,10,4.37A.44.44,0,0,0,348.69,401.38Z" style="fill:#263238"></path><path d="M352.62,398.91a.49.49,0,0,0,.28-.11.43.43,0,0,0,.05-.62c-1.31-1.53-7.46-5.1-10.81-4.68a.44.44,0,1,0,.12.88c3.12-.38,9,3.16,10,4.37A.48.48,0,0,0,352.62,398.91Z" style="fill:#263238"></path><path d="M356.55,396.56a.45.45,0,0,0,.33-.73c-1.31-1.53-7.47-5.1-10.81-4.68a.45.45,0,0,0-.39.5.44.44,0,0,0,.5.38c3.13-.38,9,3.16,10,4.37A.44.44,0,0,0,356.55,396.56Z" style="fill:#263238"></path><path d="M360.18,393.89a.42.42,0,0,0,.28-.1.44.44,0,0,0,.05-.63c-1.31-1.52-7.48-5.09-10.81-4.67a.44.44,0,0,0-.39.49.45.45,0,0,0,.5.39c3.12-.38,9,3.16,10,4.37A.44.44,0,0,0,360.18,393.89Z" style="fill:#263238"></path><path d="M363.73,391.23a.48.48,0,0,0,.28-.1.45.45,0,0,0,.06-.63c-1.8-2.16-8.24-5.12-11.58-4.7a.45.45,0,0,0-.39.49.46.46,0,0,0,.51.39c3-.38,9.16,2.47,10.77,4.39A.44.44,0,0,0,363.73,391.23Z" style="fill:#263238"></path><path d="M404.48,396.38l-3.57-18.67,18.37-2.24-.31,18.3s1.23,5,.15,6.62S407,403.46,406,402.3,404.48,396.38,404.48,396.38Z" style="fill:#c8856a"></path><path d="M405.33,425.63c.34,4.17,1.13,6.89,2.85,9.2s4.91,2.8,8.12,1.79,7.3-3.3,8.17-7,.63-6.16-.16-10Z" style="fill:#263238"></path><path d="M419,393.77c1.33,0,.86,3.23,1.3,8.85.47,6.09,3.05,10.93,3.86,15.82.92,5.59.63,8.15-1.56,11.77s-10.09,7.69-14.09,3.14c-3.25-3.72-3.46-8.14-3.25-13.82a129.17,129.17,0,0,0,.06-14.42c-.32-4.22-2-8.16-.81-8.73.1.61,1.08,4.9,1.82,4.86a7.78,7.78,0,0,0,0-1.6,1.87,1.87,0,0,1,.34-1.4,6.27,6.27,0,0,1,2.17-1c1.3-.34,3.62-.75,4.95-1,.66-.11,1.32-.2,2-.25a5.54,5.54,0,0,1,1.68.06,1,1,0,0,1,.73.51,1.53,1.53,0,0,1,.08.64,4.07,4.07,0,0,0,.19,1.15c0,.16.18.35.37.3a.37.37,0,0,0,.21-.37C419,397.62,419,394.13,419,393.77Z" style="fill:#455a64"></path><path d="M423.8,416.86c.14.8,1,6.14-.64,7.26s-2.84-2.95-2.84-2.95-4.25-.76-10.38,2.16c.33.85-.57,3.83-2.27,3.37s-2.45-6.6-2.46-6.68c-.17,5.44.11,9.72,3.27,13.33,4,4.55,11.9.49,14.09-3.14s2.48-6.18,1.56-11.77C424,417.88,423.92,417.36,423.8,416.86Z" style="fill:#37474f"></path><path d="M419.84,421.58c.06,2,2.33,1.15,2.39-1.75s-1.24-10-1.65-14.74c-.16-6.84-.28-11.35-1.61-11.32a1.27,1.27,0,0,0,0,.2s0,3.89,0,4.33c.1,4.18-.11,12.27.35,16.05A58.62,58.62,0,0,1,419.84,421.58Z" style="fill:#37474f"></path><path d="M410.66,423.21a56.16,56.16,0,0,1-1.38-7.07c-.52-3.74-2.5-11.27-3.47-15.31-.33-.67-1.33-4.45-1.33-4.45-.93.23-.13,3.83.24,5.51s.84,3.5,1.3,5.91c1.21,4.77,1.11,11.87,1.9,14.62S411.12,425.19,410.66,423.21Z" style="fill:#37474f"></path><path d="M409.82,423.51a.49.49,0,0,0,.17-.06,18.1,18.1,0,0,1,10.2-1.84.55.55,0,0,0,.6-.37.4.4,0,0,0-.36-.5,18.89,18.89,0,0,0-10.9,2,.43.43,0,0,0-.2.6A.45.45,0,0,0,409.82,423.51Z" style="fill:#263238"></path><path d="M408.64,419.17a.52.52,0,0,0,.16-.06,22.54,22.54,0,0,1,11.42-2.06.55.55,0,0,0,.59-.38.4.4,0,0,0-.38-.48,23.23,23.23,0,0,0-12.07,2.18.44.44,0,0,0-.22.6A.49.49,0,0,0,408.64,419.17Z" style="fill:#263238"></path><path d="M419.83,412.86a.55.55,0,0,0,.42-.33.4.4,0,0,0-.32-.52c-6-1.25-11.81,1.94-12.05,2.08a.43.43,0,0,0-.2.6.51.51,0,0,0,.67.12s5.72-3.12,11.28-1.95Z" style="fill:#263238"></path><path d="M419.43,408.91a.52.52,0,0,0,.41-.32.39.39,0,0,0-.31-.53,17.52,17.52,0,0,0-12.29,2.07.43.43,0,0,0-.16.61.52.52,0,0,0,.68.08,16.74,16.74,0,0,1,11.45-1.91Z" style="fill:#263238"></path><path d="M419,404.48a.55.55,0,0,0,.4-.32.4.4,0,0,0-.29-.54c-6.16-1.48-12.13,2.05-12.38,2.2a.43.43,0,0,0-.18.61.5.5,0,0,0,.68.1c.06,0,5.82-3.44,11.54-2.06A.6.6,0,0,0,419,404.48Z" style="fill:#263238"></path><path d="M407,230.08c7.58,15,8.81,21.67,9.37,50.28s.47,36.63.59,40.08,2.69,9.95,3.34,27c.6,15.85-.4,30-.4,30s-2.45,3.07-9.27,3.65c-6.28.54-9.69-1.88-9.69-1.88s-6.37-26.47-8.75-36.71-9.32-43.89-9.32-43.89l-4.19,19.56a110.33,110.33,0,0,1-.56,25.5c-1.92,14.9-3.42,23.84-3.42,23.84s-3.52,2.09-10.86,1.69a20.21,20.21,0,0,1-8.48-2.11s-4.41-44.61-4.41-61.5c0-17.57.31-46.06,5.43-73.31Z" style="fill:#455a64"></path><path d="M358.79,258.82c2.67,7,12.39,11.86,16.67,12.84l5,26.65-1.82,19.93,4.19-19.56-5.61-32.49S365.37,265.39,358.79,258.82Z" style="fill:#37474f"></path><path d="M399.33,255.42c.7,2.74,1.33,5.5,2,8.25s1.32,5.52,2,8.3a53.2,53.2,0,0,0-.59-8.55,83.93,83.93,0,0,0-1.63-8.42,73,73,0,0,0-2.56-8.22,39.42,39.42,0,0,0-3.85-7.75c.9,2.73,1.69,5.44,2.45,8.17S398.66,252.67,399.33,255.42Z" style="fill:#37474f"></path><path d="M404.36,250.14c1,1.65,1.88,3.32,2.81,5l2.73,5.12a22.25,22.25,0,0,0-1.38-5.68,36.57,36.57,0,0,0-2.5-5.3,41.27,41.27,0,0,0-3.29-4.88,31.4,31.4,0,0,0-4.06-4.34c.89,1.76,1.86,3.43,2.82,5.1S403.43,248.47,404.36,250.14Z" style="fill:#37474f"></path><path d="M399.16,327.28c-1.36-8.82-2.18-17.6-3.38-26.45s-2.33-17.73-3.62-26.59c.56,8.93,1.24,17.84,2.16,26.74s1.52,17.76,3,26.62c3.16,18.94,8.24,37.31,10.38,46C406.28,364.78,401.52,342.67,399.16,327.28Z" style="fill:#37474f"></path><path d="M359,290l1.36-20.69c-1.12,6.83-2,13.7-2.66,20.59s-1.27,13.77-1.29,20.76c.24,7,.8,13.83,1.39,20.73S359.13,345.12,360,352q-.3-10.37-.86-20.72l-.55-10.35c-.18-3.44-.4-6.9-.48-10.32s.16-6.86.32-10.3S358.81,293.41,359,290Z" style="fill:#37474f"></path></g><g id="freepik--top--inject-400"><g id="freepik--arm--inject-400"><path d="M309.93,150.8c1.73-.47,1.53,1.16,1.73,1.06s-.67-2.19,1.68-2.57c1.66-.27,1.41,1.07,1.8,1.42,0,0-.75-2.14,2.1-2.6,1.76-.29,1.67,2,1.8,1.73s-.06-4.87-.1-8.88c0-3.82,1.49-4.29,2.12-4.34s1.1.38,1.39,3.26,1.1,11.47,1.34,13.28.56,2.74,1.85,1,2.33-3.15,3.82-3.84c2.48-1.16,3.53.19,2.69,1.5-1.18,1.84-2.07,4.2-3.64,7.35-.82,1.64-1.49,3.23-2.15,4.32-2.21,3.86-.57,6.67,1,11,1.2,3.34,2.64,6.28,5.5,12.77a128.82,128.82,0,0,0,15.56-4.87c7.3-2.72,13.21-5.39,20.33-5.76l-14.1,24.56s-8.53,2.5-20.17,5c-9.79,2.14-12.21.83-14.18-2.9-1.6-3-2.43-6.42-3.3-10.68-1.38-6.78-2.92-15.66-3.33-18.46s-.35-4.38-1.73-6.21c-1.88-2.5-2.35-4.57-2.77-7.51-.2-1.41-.62-4-.75-6.05S308.67,151.15,309.93,150.8Z" style="fill:#c8856a"></path><path d="M332.85,187.28c2.26,4.65,1.25,9.63-.16,11.71,4.9-5.37,2.63-12.33,2.63-12.33Z" style="fill:#af6152"></path><path d="M311.82,158.62c.71-.48.73-1.85.73-1.85a2.37,2.37,0,0,0,.73,1.35,1.77,1.77,0,0,0,2.22-.1,2.57,2.57,0,0,0,.35-1.67,2.92,2.92,0,0,0,.91,1.09,1.5,1.5,0,0,0,2.12-.51c.62-.78.45-3.41.17-5.85a11,11,0,0,1,.74,2.9,5.75,5.75,0,0,1-.13,3.12,6.2,6.2,0,0,1,2.83-.93c-2.58,1.1-5.84,5.52-6.33,9.09a7.78,7.78,0,0,1,1.85-6.75,1.56,1.56,0,0,1-1.67-.8,1.88,1.88,0,0,1-1.73,1.43,1.79,1.79,0,0,1-1.9-.7s-.06.82-1.23.95-1.72-.72-1.89-1.87A1.63,1.63,0,0,0,311.82,158.62Z" style="fill:#af6152"></path></g><path d="M420.79,158c.89-1.38,1.22-4.19.16-5.45a6.54,6.54,0,0,0-3.91-2.18,3.47,3.47,0,0,1-3-3.89c-.18-3-1.1-4.71-2.74-5.84-4.41-3-16-3-15.42,4.68.08,1.15.5,2.4-.09,3.39a3.69,3.69,0,0,1-1.06,1,28,28,0,0,0-5.6,4.55c-1.54,1.85-2.45,4.46-1.59,6.71s3,3.58,3.46,5.81c.61,3.06-2.4,6.1-1.46,9.08.76,2.38,2.7,2.84,4.82,3.09,2.44.28,3.36,3.25,6.13,3a14.82,14.82,0,0,1,3.63.36,10.43,10.43,0,0,0,4.45-.17,5.63,5.63,0,0,0,3.45-2.67c.63-1.22.71-2.73,1.61-3.77s1.87-1.39,2.68-2.23a5.12,5.12,0,0,0,1.68-3.13,3.22,3.22,0,0,0-.73-2.47,2.15,2.15,0,0,1,1.56,1.9,6.51,6.51,0,0,1-.38,2.57,5.45,5.45,0,0,0,2-7.94c-.57-.82-1.39-1.58-1.42-2.57C419,160.19,419.91,159.34,420.79,158Z" style="fill:#263238"></path><path d="M404.38,138.44c4.37,2.24,4.27,10.61-1,14.33S397.79,134.57,404.38,138.44Z" style="fill:#0FBCF9"></path><g id="freepik--head--inject-400"><path d="M359.89,132.88c.67-5.6,7-6,8.65-5.84a8,8,0,0,0,6.41-2.88,8,8,0,0,1,7.68-2.49c4.51,1.06,3.52,3,7.35,4.15,3.41,1.05,5.89-.12,9,2.74a8.74,8.74,0,0,1,2.48,7.29c2.34,1.37,5.65,9.8,1.14,19.24-2.32,4.86-5.19,7.17-8.75,11.23l-3.53.1c-1.23-3-4.22-2.34-7-2.95-1.78-.75-2.83-2.69-4.6-3.44s-3.88-.11-5.82-.4c-1.5-.23-3-1.08-4.58-.65-3.52,1.53-8.93-1.43-8.63-5.53.1-1.24.76-2.46.49-3.68-.35-1.6-2.09-2.44-3-3.78a4.27,4.27,0,0,1,.14-5.13C359.81,138.06,359.51,136.07,359.89,132.88Z" style="fill:#263238"></path><path d="M373.61,176.3l1.84-.27c1.57-.23,1.32-1,1.42-2.59L377,171a13,13,0,0,1-7.64-2.11c-2.91-2.06-4.76-5.41-4.83-15.4,0-4,1.38-12.21,2.58-15,2.15-4.5,6.94-6.46,9.5-1.75,6.9-5.64,14.85,1.39,14.74,9.72-.8,6.89,1.33,7.18,2.67,7.2,1.88-4.33,6.31-4.37,8.24-1.64,1.75,2.46,1.79,6.32-1.39,9.91s-6.68,1.37-6.74.68c0,0-.31,9.27-.34,11.12s.63,2.43,2.94,3.14c0,0-2.48,5-24.91,12.94A24.59,24.59,0,0,1,373.61,176.3Z" style="fill:#c8856a"></path><path d="M367.57,143.36l4-1.06a2,2,0,0,0-2.46-1.5A2.16,2.16,0,0,0,367.57,143.36Z" style="fill:#263238"></path><path d="M385.35,144.41l-3.81-1.6a2,2,0,0,1,2.64-1.15A2.16,2.16,0,0,1,385.35,144.41Z" style="fill:#263238"></path><path d="M382.86,149.59a1.73,1.73,0,1,1-1.59-1.85A1.73,1.73,0,0,1,382.86,149.59Z" style="fill:#263238"></path><circle cx="369.24" cy="148.32" r="1.73" style="fill:#263238"></circle><path d="M398.91,160.46a1.63,1.63,0,1,1-1.68-1.59A1.63,1.63,0,0,1,398.91,160.46Z" style="fill:#0FBCF9"></path><path d="M380,159l-5.22,1.52a2.67,2.67,0,0,0,3.32,1.94A2.85,2.85,0,0,0,380,159Z" style="fill:#af6152"></path><path d="M379.63,160.13a3,3,0,0,0-3.05,2.26,2.59,2.59,0,0,0,1.51,0,2.81,2.81,0,0,0,1.94-2.22Z" style="fill:#f28f8f"></path><path d="M377,171c6.63-.5,13-2.16,14.74-6.17a6.79,6.79,0,0,1-3.9,5.55,25.63,25.63,0,0,1-10.92,2.73Z" style="fill:#af6152"></path><polygon points="369.24 153.5 374.88 156.38 376.67 145.48 369.24 153.5" style="fill:#af6152"></polygon></g><path d="M406.21,225.13s1.42-19,3-27.89S404.7,179,404.7,179l-8-2.07c-3.33,3.17-11.61,7.93-21.51,9.23-2.08-3.67-.59-10-.59-10l-5.85.49s-2.9,3.42-9.07,9.95c-6,6.37-8.43,10.66-8.09,16.72.33,5.78,5.46,9.91,5.46,9.91a57.34,57.34,0,0,1,.82,8.92c-1.5,6-4.25,23.29-4.25,23.29s11.14,7.42,31.51,6.26,28.43-8.65,28.43-8.65S412.22,235.54,406.21,225.13Z" style="fill:#f0f0f0"></path><path d="M373.37,177.27c-.34,2.15-.72,6.41.94,9.34l.33.58.67-.08c9.32-1.23,17.62-5.51,21.66-9.13l7.09,1.84c1,1.7,5.41,9.77,4.12,17.25-1.53,8.83-2.95,27.8-3,28l0,.31.16.26a64.27,64.27,0,0,1,7.09,17c-1.88,1.46-10.19,7.06-27.37,8-1.42.08-2.85.12-4.24.12-14.79,0-23.89-4.61-26.12-5.88.52-3.24,2.82-17.33,4.12-22.54l0-.1v-.11a59,59,0,0,0-.83-9.1l0-.39-.31-.25c-.05,0-4.79-3.91-5.09-9.19s1.67-9.45,7.82-16c5.07-5.38,8-8.68,8.84-9.67l4.13-.35m1.22-1.11-5.85.49s-2.9,3.42-9.07,9.95c-6,6.37-8.43,10.66-8.09,16.72.33,5.78,5.46,9.91,5.46,9.91a57.34,57.34,0,0,1,.82,8.92c-1.5,6-4.25,23.29-4.25,23.29s9.58,6.38,27.22,6.38c1.38,0,2.81,0,4.29-.12,20.37-1.16,28.43-8.65,28.43-8.65s-1.33-7.51-7.34-17.92c0,0,1.42-19,3-27.89S404.7,179,404.7,179l-8-2.07c-3.33,3.17-11.61,7.93-21.51,9.23-2.08-3.67-.59-10-.59-10Z" style="fill:#e0e0e0"></path><path d="M392,211.11a12.77,12.77,0,0,1-12.35,6.31,13.48,13.48,0,0,1-11.19-7.56s0,9.41,11.11,9.81S392,211.11,392,211.11Z" style="fill:#e0e0e0"></path></g></g><g id="freepik--arrow--inject-400"><polygon points="460.38 357.75 370.19 305.68 324.79 229.4 324.79 229.4 217.08 167.31 183.24 70 192.35 68.21 156.61 29.29 143.1 37.09 135.98 84.45 145.09 82.66 184.04 194.65 184.04 194.65 184.04 194.65 293.79 258.07 339.19 334.35 339.19 334.35 446.88 396.46 460.38 388.66 460.38 357.75" style="fill:#0FBCF9"></polygon><polygon points="143.1 37.09 178.84 76.01 169.74 77.8 203.57 175.11 311.28 237.2 311.28 237.2 356.68 313.48 446.88 365.55 446.88 396.46 339.19 334.35 339.19 334.35 293.79 258.07 184.04 194.65 184.04 194.65 184.04 194.65 145.09 82.66 135.98 84.45 143.1 37.09" style="fill:#0FBCF9"></polygon><polygon points="143.1 37.09 178.84 76.01 169.74 77.8 203.57 175.11 311.28 237.2 311.28 237.2 356.68 313.48 446.88 365.55 446.88 396.46 339.19 334.35 339.19 334.35 293.79 258.07 184.04 194.65 184.04 194.65 184.04 194.65 145.09 82.66 135.98 84.45 143.1 37.09" style="fill:#fff;opacity:0.2"></polygon><polygon points="178.84 76.01 192.35 68.21 156.61 29.29 143.1 37.09 178.84 76.01" style="fill:#0FBCF9"></polygon><polygon points="178.84 76.01 192.35 68.21 156.61 29.29 143.1 37.09 178.84 76.01" style="fill:#fff;opacity:0.5"></polygon><polygon points="217.08 167.31 203.57 175.11 311.28 237.2 324.79 229.4 217.08 167.31" style="fill:#fff;opacity:0.5"></polygon><polygon points="370.19 305.68 356.68 313.48 446.88 365.55 460.38 357.75 370.19 305.68" style="fill:#fff;opacity:0.5"></polygon></g><g id="freepik--arm--inject-400"><path d="M219,138.08a32.34,32.34,0,0,1-6.79-1.38,32.25,32.25,0,0,0-5.63-.82c-2-.19-3.94-.33-5.91-.54-.5-.05-.7.41-.73.85a2.84,2.84,0,0,0,1,2.19,6.28,6.28,0,0,0,2.17,1.18,17.43,17.43,0,0,0,2.14.61c.76.16,2.56.52,2.15,1.64Z" style="fill:#ffa8a7"></path><path d="M219,138.08a12.92,12.92,0,0,1-4.58-.57,20.34,20.34,0,0,0-2.29-.61,18.24,18.24,0,0,0-2.35-.36c-1.5-.21-3-.33-4.56-.54s-3-.39-4.55-.66c1.54,0,3.07.09,4.6.18s3.06.19,4.6.39a17.85,17.85,0,0,1,2.29.46c.76.23,1.51.39,2.26.67s1,.33,1.91.61A17.68,17.68,0,0,0,219,138.08Z" style="fill:#f28f8f"></path><path d="M287.83,101c-5.2-.85-11.37,2.34-17.27,10.16l-17.93,23.31s-14.73,2.07-21.81,2.91c-8.21,1-9.43.89-11.86.73l-11.6,3.73c-.3.81-1.8,1.47-2.5,1.88-3.87,2.32-10.2,2.76-12.68,3s-2.79,1.18-2.15,2.15a3.08,3.08,0,0,0,1.71.78c-1.39.09-2.53.38-3,1.14-.56,1,1,1.5,1.74,1.67l1.87.47a1.32,1.32,0,0,0,0,1.28,2.84,2.84,0,0,0,1,.75,12.58,12.58,0,0,0,5.72.79,10.05,10.05,0,0,0-2.44.72.92.92,0,0,0-.41,1.08c.18.51,2.44.76,3,.79,4.37.24,4.29.07,6.79-.62a27.8,27.8,0,0,0,4.4-1.66c.89-.47,2.44-1.26,3.76-2a13.52,13.52,0,0,1,7.43-2.3c11.76.46,17.51.51,31.5.77,7.46.14,9.68-2.32,14.07-7.51,4.64-5.47,9.35-10.78,16.86-19.53C289.39,119.15,292.57,111.17,287.83,101Z" style="fill:#ffa8a7"></path><path d="M192.38,152.94a35.68,35.68,0,0,0,6.91.32,12.7,12.7,0,0,0,3.32-.86l3.29-1.14a28.51,28.51,0,0,1-3.16,1.5,11.6,11.6,0,0,1-3.4.94A22,22,0,0,1,192.38,152.94Z" style="fill:#f28f8f"></path><path d="M192,149.8a36.49,36.49,0,0,0,6.91.32,13.54,13.54,0,0,0,3.32-.86l3.29-1.15a28.51,28.51,0,0,1-3.16,1.5,11.3,11.3,0,0,1-3.4.94A22.28,22.28,0,0,1,192,149.8Z" style="fill:#f28f8f"></path><path d="M199,155.76a24.62,24.62,0,0,0,3.54-.83c1.16-.33,2.28-.8,3.47-1.14a14,14,0,0,1-3.34,1.57A9,9,0,0,1,199,155.76Z" style="fill:#f28f8f"></path><path d="M284.65,97.7c5.55,3.33,7.09,6.57,7.78,9.15s1.08,9.31-4,16.28-21.67,23.44-24.66,26.23-3,3.59-9.22,3.5c-6.55-.1-11.52-.47-11.52-.47a13.22,13.22,0,0,0,2-9c-.56-5.61-3-7.92-3-7.92l10.32-1.6s10.64-14,16.6-21.74S279.23,99.62,284.65,97.7Z" style="fill:#455a64"></path></g><g id="freepik--arm--inject-400"><path d="M346.28,225.79a32,32,0,0,1-6.71-.52,30.82,30.82,0,0,0-5.52-.1c-1.92.05-3.84.15-5.76.19-.49,0-.62.47-.6.91a2.73,2.73,0,0,0,1.23,2,6.09,6.09,0,0,0,2.23.88,17.11,17.11,0,0,0,2.13.32c.75.07,2.53.2,2.28,1.33Z" style="fill:#c8856a"></path><path d="M346.28,225.79a12.48,12.48,0,0,1-4.48,0,19.77,19.77,0,0,0-2.28-.3,17.72,17.72,0,0,0-2.31-.07c-1.46,0-3,.05-4.45,0s-3,0-4.47-.09c1.48-.18,3-.29,4.46-.39s3-.18,4.47-.18a17.5,17.5,0,0,1,2.27.18c.75.12,1.5.18,2.26.36s1,.2,1.91.36A17.29,17.29,0,0,0,346.28,225.79Z" style="fill:#af6152"></path><path d="M404.7,179c-5.63,3.45-7.21,6.39-11.95,14.64l-14.46,24.63s-13.94,3.77-20.67,5.43c-7.79,1.92-9,2-11.34,2.14l-10.72,5c-.19.82-1.56,1.63-2.18,2.11-3.45,2.71-9.5,3.89-11.86,4.46s-2.54,1.48-1.82,2.33a3,3,0,0,0,1.75.55c-1.32.25-2.4.67-2.73,1.46-.41,1,1.18,1.31,1.88,1.39l1.86.23a1.31,1.31,0,0,0,.14,1.24,2.8,2.8,0,0,0,1,.6,12.12,12.12,0,0,0,5.61.07,9.16,9.16,0,0,0-2.26,1,.87.87,0,0,0-.27,1.08c.24.47,2.44.44,3,.4,4.24-.29,4.14-.45,6.47-1.42a25.38,25.38,0,0,0,4-2.12c.81-.57,2.2-1.51,3.38-2.43a13.27,13.27,0,0,1,6.88-3.11c11.39-1,16.94-1.62,30.45-3.05,7.21-.77,9.05-3.41,12.66-8.94,3.8-5.83,7.7-11.51,13.88-20.85C411.87,199,418.28,182.45,404.7,179Z" style="fill:#c8856a"></path><path d="M322.46,243.31a34.57,34.57,0,0,0,6.7-.52,12.78,12.78,0,0,0,3.09-1.23l3-1.5a29.5,29.5,0,0,1-2.86,1.83,11.47,11.47,0,0,1-3.17,1.31A21.27,21.27,0,0,1,322.46,243.31Z" style="fill:#af6152"></path><path d="M321.74,240.32a34.74,34.74,0,0,0,6.71-.52,13.11,13.11,0,0,0,3.09-1.23l3-1.5a28.33,28.33,0,0,1-2.86,1.83,11.35,11.35,0,0,1-3.17,1.31A21.26,21.26,0,0,1,321.74,240.32Z" style="fill:#af6152"></path><path d="M329.22,245.22a22.92,22.92,0,0,0,3.31-1.22c1.08-.46,2.1-1.05,3.21-1.52a13.63,13.63,0,0,1-3,1.92A8.63,8.63,0,0,1,329.22,245.22Z" style="fill:#af6152"></path></g></g></g><g id="freepik--speech-bubble-2--inject-400"><g id="freepik--speech-bubble--inject-400"><g id="freepik--speech-bubble--inject-400"><path d="M409.5,76.61a26.56,26.56,0,0,0-5.67,18.74l.42,3A26.64,26.64,0,0,0,457,92.31l-.27-3A26.64,26.64,0,0,0,409.5,76.61Z" style="fill:#fff"></path><g id="freepik--Check--inject-400"><path d="M426.67,108.52a3.8,3.8,0,0,1-2.79-1.21L415.19,98a3.83,3.83,0,0,1,5.6-5.24l5.64,6,13.35-16.91a3.83,3.83,0,0,1,6,4.75l-16.11,20.4a3.83,3.83,0,0,1-2.84,1.46Z" style="fill:#0FBCF9"></path></g><path d="M407.76,75.16a29,29,0,0,0,1.09,37.33l-2.68,8.57a1.68,1.68,0,0,0,2.45,2l7.76-4.53a28.92,28.92,0,1,0-8.62-43.32ZM447,72.33a26.59,26.59,0,0,1,9.74,17l.27,3a26.64,26.64,0,0,1-52.77,6l-.42-3a26.65,26.65,0,0,1,43.18-23Z" style="fill:#455a64"></path></g></g></g><g id="freepik--speech-bubble-1--inject-400"><g id="freepik--speech-bubble--inject-400"><g id="freepik--speech-bubble--inject-400"><path d="M87.75,76.61a26.56,26.56,0,0,1,5.67,18.74l-.42,3a26.64,26.64,0,0,1-52.77-6.06l.28-3A26.64,26.64,0,0,1,87.75,76.61Z" style="fill:#fff"></path><path d="M80.86,103.1a.41.41,0,0,0,0-.49l-2-2.48a2,2,0,0,1-.24-2s0,0,0,0h0a2,2,0,0,1,1.6-1.24l3.14-.35a.4.4,0,0,0,.36-.34A16.09,16.09,0,0,0,84,93.23a16.35,16.35,0,0,0-.24-2.94.4.4,0,0,0-.36-.33l-3.13-.37a2,2,0,0,1-1.59-1.22.64.64,0,0,0,0-.07,1.94,1.94,0,0,1,.25-2l2-2.47a.41.41,0,0,0,0-.49,16.37,16.37,0,0,0-4.12-4.14.41.41,0,0,0-.49,0l-2.48,2a2,2,0,0,1-2,.25l0,0a2,2,0,0,1-1.24-1.6l-.35-3.14a.4.4,0,0,0-.34-.36,17.15,17.15,0,0,0-5.85,0,.43.43,0,0,0-.33.36l-.37,3.14A2,2,0,0,1,62,81.37l0,0a2,2,0,0,1-2-.26l-2.47-2a.41.41,0,0,0-.49,0,16.71,16.71,0,0,0-4.14,4.12.44.44,0,0,0,0,.5l2,2.47a2,2,0,0,1,.24,2,.14.14,0,0,0,0,.06,2,2,0,0,1-1.59,1.22l-3.16.36a.41.41,0,0,0-.35.34,16.79,16.79,0,0,0,0,5.83.38.38,0,0,0,.35.33l3.15.38A2,2,0,0,1,55.06,98s0,0,0,0a2,2,0,0,1-.24,2l-2,2.47a.42.42,0,0,0,0,.49A17,17,0,0,0,57,107.18a.42.42,0,0,0,.49,0l2.47-2a2,2,0,0,1,2-.23h0a2,2,0,0,1,1.24,1.59l.35,3.15a.41.41,0,0,0,.34.36,16.27,16.27,0,0,0,2.92.26,17.55,17.55,0,0,0,2.93-.25.41.41,0,0,0,.33-.36l.37-3.14A2,2,0,0,1,71.7,105h0a2,2,0,0,1,2,.25l2.46,2a.41.41,0,0,0,.49,0A16.92,16.92,0,0,0,80.86,103.1Zm-14-1.25a8.67,8.67,0,1,1,8.68-8.64A8.66,8.66,0,0,1,66.85,101.85Z" style="fill:#0FBCF9"></path><path d="M48.84,70.57a28.92,28.92,0,0,0,32,47.91L88.63,123a1.68,1.68,0,0,0,2.45-2l-2.68-8.57A28.92,28.92,0,0,0,48.84,70.57Zm38.88,6A26.62,26.62,0,0,1,93.43,95.3l-.42,3a26.64,26.64,0,0,1-52.77-6l.26-3A26.65,26.65,0,0,1,87.72,76.57Z" style="fill:#455a64"></path></g></g></g></svg>
