<svg xmlns="http://www.w3.org/2000/svg" viewBox="0 0 500 500"><g id="freepik--Floor--inject-393"><path id="freepik--floor--inject-393" d="M75.39,454.12C-21,398.45-21,308.18,75.39,252.5s252.79-55.68,349.22,0,96.44,146,0,201.62S171.82,509.8,75.39,454.12Z" style="fill:#fafafa"></path></g><g id="freepik--Board--inject-393"><g id="freepik--board--inject-393"><g id="freepik--board--inject-393"><path d="M184,16.72l1.09.63V166.59c0,3.53-2.14,7.63-4.79,9.16L33.23,260.64a3.12,3.12,0,0,1-3,.33c-.24-.12-1.06-.61-1.24-.72-1-.58-1.65-1.93-1.65-3.85V107.16Z" style="fill:#e0e0e0"></path><path d="M33.23,260.64l147.06-84.89c2.65-1.53,4.79-5.63,4.79-9.16V17.35L28.44,107.78V257C28.44,260.55,30.58,262.17,33.23,260.64Z" style="fill:#fafafa"></path><path d="M183.85,19.48V166.59c0,3.08-1.91,6.78-4.18,8.09l-147,84.9a2.68,2.68,0,0,1-1.29.41c-1.23,0-1.66-1.6-1.66-3V108.49l154.18-89m1.23-2.13L28.44,107.78V257c0,2.63,1.19,4.2,2.89,4.2a3.87,3.87,0,0,0,1.9-.58l147.06-84.89c2.65-1.53,4.79-5.63,4.79-9.16V17.35Z" style="fill:#e0e0e0"></path></g><g id="freepik--sticky-notes--inject-393"><g id="freepik--notes-shadows--inject-393" style="opacity:0.15"><polygon points="40.52 178.63 51.23 172.44 51.23 155.96 40.52 162.14 40.52 178.63"></polygon><polygon points="39.35 201.72 50.06 195.54 50.06 179.05 39.35 185.23 39.35 201.72"></polygon></g><g id="freepik--Notes--inject-393"><g id="freepik--Note--inject-393"><polygon points="51.76 195.11 40.69 201.41 39.69 188.03 50.83 181.6 51.76 195.11" style="fill:#f0f0f0"></polygon><polygon points="50.83 181.6 39.69 188.03 39.69 185.97 50.83 179.54 50.83 181.6" style="fill:#e0e0e0"></polygon><polygon points="50.83 181.6 39.69 188.03 39.69 185.97 50.83 179.54 50.83 181.6" style="fill:#e6e6e6;opacity:0.1"></polygon></g><g id="freepik--note--inject-393"><path d="M52.69,171.89,45.29,176c-.83.46-1.37-.87-1.38-1.68-.82.53-2.52.86-2.6-.19l-.69-9.35,11.14-6.43Z" style="fill:#fff"></path><polygon points="51.76 158.38 40.62 164.81 40.62 162.75 51.76 156.32 51.76 158.38" style="fill:#f0f0f0"></polygon><polygon points="41.66 174.72 44.71 176.07 43.76 173.58 41.66 174.72" style="fill:#f0f0f0"></polygon></g></g></g><g id="freepik--Chart--inject-393"><polygon points="57.86 185.8 171.93 119.86 171.93 43.14 57.86 109.08 57.86 185.8" style="opacity:0.15"></polygon><path d="M60.62,184.93l-.31-.18a2,2,0,0,1-.89-1.55V111.05a2,2,0,0,1,.89-1.55L172,44.88a2,2,0,0,1,1.8,0l.31.18a2,2,0,0,1,.89,1.55v72.15a2,2,0,0,1-.89,1.55L62.41,184.93A2,2,0,0,1,60.62,184.93Z" style="fill:#f0f0f0"></path><path d="M59.42,111.05V183.2a2,2,0,0,0,.89,1.56l.31.18a2,2,0,0,0,1.59.09c-.4.11-.7-.12-.7-.62V112.26a1.77,1.77,0,0,1,.27-.88l-2.11-1.21A2,2,0,0,0,59.42,111.05Z" style="fill:#e0e0e0"></path><path d="M174.07,46.09,62.41,110.71a2,2,0,0,0-.89,1.55v72.15c0,.58.4.81.89.52l111.66-64.62a2,2,0,0,0,.89-1.55V46.61C175,46,174.56,45.8,174.07,46.09Z" style="fill:#fff"></path><path d="M70.89,170.94h0a2.76,2.76,0,0,0,1.33-2.11,1,1,0,0,0-.14-.51l8.26-16.37c.21.33.67.37,1.19.06a2.73,2.73,0,0,0,1.33-2.1.77.77,0,0,0-.27-.65l8.53-11.36a.94.94,0,0,0,1.06-.07,2.81,2.81,0,0,0,1.33-2.11,1.36,1.36,0,0,0,0-.3l8.06-18.33c.15.5.66.63,1.29.27a2.75,2.75,0,0,0,1.33-2.11.88.88,0,0,0-.14-.51l8.27-8.94c.21.32.66.36,1.18.06a2.91,2.91,0,0,0,.94-.94l8.76,3.76a2.41,2.41,0,0,0-.38,1.18c0,.74.59,1,1.33.57a2.78,2.78,0,0,0,1.33-2.11,1.36,1.36,0,0,0,0-.3l8.06-6.69c.15.51.67.63,1.29.27a2.73,2.73,0,0,0,1.33-2.1c0-.42-.19-.69-.5-.75h0l9-16.49a1.15,1.15,0,0,0,.83-.19,2.76,2.76,0,0,0,1.33-2.1h0l8-4.6c0,.73.59,1,1.33.57a2.77,2.77,0,0,0,1.33-2.11.69.69,0,0,0-.49-.76l8.94-16.43a1.16,1.16,0,0,0,.87-.18v64.12L70.89,175.87Z" style="fill:#f0f0f0"></path><path d="M166.08,56.92l-.73.06-8.59,15.77a1.58,1.58,0,0,0-.85.24,3.08,3.08,0,0,0-1.48,2.23L147,79.5a.83.83,0,0,0-.48-.54,1.43,1.43,0,0,0-1.27.18,3.07,3.07,0,0,0-1.49,2.37,1,1,0,0,0,.44.88l-8.74,16a1.69,1.69,0,0,0-.85.25,3,3,0,0,0-1.49,2.37,1.5,1.5,0,0,0,0,.22l-7.6,6.3a.74.74,0,0,0-.31-.24,1.44,1.44,0,0,0-1.26.17,3.13,3.13,0,0,0-.88.79l-8.23-3.54a2.25,2.25,0,0,0,.28-1,1,1,0,0,0-.55-1,1.42,1.42,0,0,0-1.27.17,3.07,3.07,0,0,0-1.49,2.37,1.31,1.31,0,0,0,.1.5l-7.89,8.52-.1-.06a1.41,1.41,0,0,0-1.26.18,3.05,3.05,0,0,0-1.5,2.36,1.52,1.52,0,0,0,.06.39l-7.76,17.65a.67.67,0,0,0-.18-.11,1.39,1.39,0,0,0-1.27.17,3,3,0,0,0-1.49,2.37,1,1,0,0,0,.22.68l-8.21,10.94a1.49,1.49,0,0,0-1.16.2,3.09,3.09,0,0,0-1.5,2.37A1.15,1.15,0,0,0,80,152l-8,15.83s0,0,0,0a1.43,1.43,0,0,0-1.27.18,3.07,3.07,0,0,0-1.49,2.37,1,1,0,0,0,.55,1,1,1,0,0,0,.51.08,1.84,1.84,0,0,0,.76-.25,3.09,3.09,0,0,0,1.5-2.37,1.21,1.21,0,0,0-.1-.48l8-15.89a1.22,1.22,0,0,0,.47.07,1.91,1.91,0,0,0,.76-.26,3.07,3.07,0,0,0,1.49-2.37,1.14,1.14,0,0,0-.17-.63l8.23-11a.89.89,0,0,0,.33,0,1.7,1.7,0,0,0,.76-.25,3,3,0,0,0,1.49-2.37,2.28,2.28,0,0,0,0-.26l7.8-17.73a.41.41,0,0,0,.11.07,1.06,1.06,0,0,0,.51.08,1.84,1.84,0,0,0,.75-.25,3.09,3.09,0,0,0,1.5-2.37,1.18,1.18,0,0,0-.08-.43l7.92-8.56,0,0a1.22,1.22,0,0,0,.51.08,1.86,1.86,0,0,0,.76-.26,3,3,0,0,0,.89-.81l8.22,3.54a2.38,2.38,0,0,0-.29,1.06,1,1,0,0,0,.55,1,1.1,1.1,0,0,0,.51.08,1.86,1.86,0,0,0,.76-.26,3.05,3.05,0,0,0,1.5-2.36.88.88,0,0,0,0-.16l7.63-6.32a.66.66,0,0,0,.27.19,1,1,0,0,0,.51.08,1.7,1.7,0,0,0,.76-.25,3.07,3.07,0,0,0,1.49-2.37,1,1,0,0,0-.37-.84l8.76-16.08h0a1.84,1.84,0,0,0,.76-.25,3.18,3.18,0,0,0,1.48-2.17l7.44-4.29a.88.88,0,0,0,.46.49,1.19,1.19,0,0,0,.51.08,1.82,1.82,0,0,0,.75-.26,3.05,3.05,0,0,0,1.5-2.36,1,1,0,0,0-.37-.85ZM70.75,170.7a.71.71,0,0,1-.61.12.49.49,0,0,1-.23-.48,2.47,2.47,0,0,1,1.17-1.85,1.11,1.11,0,0,1,.43-.15.35.35,0,0,1,.18,0c.15.06.23.24.23.49A2.46,2.46,0,0,1,70.75,170.7ZM81.4,151.77a.78.78,0,0,1-.62.13l-.06-.05a.2.2,0,0,0-.09-.13h0a.85.85,0,0,1,0-.3,2.46,2.46,0,0,1,1.17-1.85.7.7,0,0,1,.61-.12.49.49,0,0,1,.22.48A2.45,2.45,0,0,1,81.4,151.77ZM92,137.58a.75.75,0,0,1-.59.13.24.24,0,0,0-.08-.06l0,0a.59.59,0,0,1-.13-.41,2.48,2.48,0,0,1,1.17-1.85.76.76,0,0,1,.61-.13.49.49,0,0,1,.23.49A2.48,2.48,0,0,1,92,137.58Zm10.65-20.46a.73.73,0,0,1-.62.12.27.27,0,0,1-.14-.14.24.24,0,0,0-.07-.21.62.62,0,0,1,0-.13,2.45,2.45,0,0,1,1.16-1.85.78.78,0,0,1,.62-.13c.14.06.22.24.22.49A2.49,2.49,0,0,1,102.69,117.12Zm10.64-11.51a.76.76,0,0,1-.61.13l0,0a.33.33,0,0,0-.1-.14h0a.67.67,0,0,1-.06-.3,2.48,2.48,0,0,1,1.17-1.85,1.06,1.06,0,0,1,.43-.15.34.34,0,0,1,.18,0,.49.49,0,0,1,.23.48A2.47,2.47,0,0,1,113.33,105.61ZM124,110.18a.74.74,0,0,1-.62.13c-.14-.06-.22-.24-.22-.49a1.88,1.88,0,0,1,.3-.94.3.3,0,0,0,.08-.08.19.19,0,0,0,0-.12,2.62,2.62,0,0,1,.74-.71,1.11,1.11,0,0,1,.43-.15.54.54,0,0,1,.19,0,.49.49,0,0,1,.22.48A2.45,2.45,0,0,1,124,110.18Zm10.64-8.82a.71.71,0,0,1-.61.12.26.26,0,0,1-.15-.14.26.26,0,0,0-.07-.19c0-.05,0-.1,0-.15A2.46,2.46,0,0,1,135,99.15a.76.76,0,0,1,.61-.13.51.51,0,0,1,.23.49A2.48,2.48,0,0,1,134.62,101.36Zm10.64-19.54a.71.71,0,0,1-.61.12.49.49,0,0,1-.22-.48,2.45,2.45,0,0,1,1.16-1.85.76.76,0,0,1,.61-.13c.15.06.23.24.23.49A2.46,2.46,0,0,1,145.26,81.82Zm10.65-6.15a.78.78,0,0,1-.62.13.42.42,0,0,1-.21-.37.27.27,0,0,0,0-.23,2.53,2.53,0,0,1,1.15-1.74.73.73,0,0,1,.62-.12.49.49,0,0,1,.22.48A2.45,2.45,0,0,1,155.91,75.67Z" style="fill:#e0e0e0"></path><path d="M166.29,60a.31.31,0,0,1-.35-.28V57l-2.83,1.33a.36.36,0,0,1-.47-.12.31.31,0,0,1,.18-.42l3.33-1.57a.38.38,0,0,1,.33,0,.27.27,0,0,1,.17.25v3.2A.37.37,0,0,1,166.29,60Z" style="fill:#e0e0e0"></path></g><g id="freepik--chart--inject-393"><polygon points="57.86 232.15 125 193.33 125 153.38 57.86 192.2 57.86 232.15" style="opacity:0.15"></polygon><path d="M60.62,231.29l-.31-.18a2,2,0,0,1-.89-1.56V194.17a2,2,0,0,1,.89-1.55L125,155.12a2,2,0,0,1,1.79,0l.31.18a2,2,0,0,1,.9,1.55v35.38a2,2,0,0,1-.89,1.56l-64.73,37.5A2,2,0,0,1,60.62,231.29Z" style="fill:#f0f0f0"></path><path d="M59.42,194.17v35.38a2,2,0,0,0,.89,1.56l.31.18a2,2,0,0,0,1.59.09c-.4.11-.7-.12-.7-.61V195.38a1.77,1.77,0,0,1,.27-.88l-2.11-1.21A2,2,0,0,0,59.42,194.17Z" style="fill:#e0e0e0"></path><path d="M127.14,156.33l-64.73,37.5a2,2,0,0,0-.89,1.55v35.39c0,.57.4.8.89.52l64.73-37.5a2,2,0,0,0,.89-1.56V156.85C128,156.28,127.63,156.05,127.14,156.33Z" style="fill:#fff"></path></g><g id="freepik--Sheet--inject-393"><polygon points="33.63 247.12 55.6 234.44 55.6 197.5 33.63 210.18 33.63 247.12" style="opacity:0.15"></polygon><path d="M35.24,247.47,56.1,235.42a1.2,1.2,0,0,0,.56-.95V198.8c0-.35-.25-.49-.56-.32L35.24,210.53a1.22,1.22,0,0,0-.55,1v35.66C34.69,247.5,34.93,247.65,35.24,247.47Z" style="fill:#fff"></path><path d="M37.35,215.93,54,206.32a1.23,1.23,0,0,0,.62-.86c0-.28-.28-.35-.62-.15l-16.64,9.6a1.23,1.23,0,0,0-.62.87C36.73,216.06,37,216.12,37.35,215.93Z" style="fill:#e0e0e0"></path><path d="M37.35,218.56,54,209a1.21,1.21,0,0,0,.62-.86c0-.28-.28-.35-.62-.15l-16.64,9.61a1.19,1.19,0,0,0-.62.86C36.73,218.69,37,218.75,37.35,218.56Z" style="fill:#e0e0e0"></path><path d="M37.35,224,54,214.42a1.23,1.23,0,0,0,.62-.87c0-.28-.28-.34-.62-.15L37.35,223a1.21,1.21,0,0,0-.62.86C36.73,224.15,37,224.22,37.35,224Z" style="fill:#e0e0e0"></path><path d="M37.35,226.65,54,217.05a1.23,1.23,0,0,0,.62-.87c0-.28-.28-.34-.62-.15l-16.64,9.61a1.23,1.23,0,0,0-.62.87C36.73,226.78,37,226.85,37.35,226.65Z" style="fill:#e0e0e0"></path><path d="M37.35,234.75,54,225.14a1.21,1.21,0,0,0,.62-.86c0-.28-.28-.35-.62-.15l-16.64,9.61a1.21,1.21,0,0,0-.62.86C36.73,234.88,37,235,37.35,234.75Z" style="fill:#e0e0e0"></path><path d="M37.35,232.12,54,222.51a1.21,1.21,0,0,0,.62-.86c0-.28-.28-.35-.62-.15l-16.64,9.61a1.19,1.19,0,0,0-.62.86C36.73,232.25,37,232.32,37.35,232.12Z" style="fill:#e0e0e0"></path><g id="freepik--Pushpin--inject-393"><path d="M46.89,207.88l0,0-.07.06c-.06,0-.08,0-.14,0l-.42-.25-.59-.35-.67-.41c-.06-.05.06-.27.14-.23l.69.37.6.34.42.24s.1,0,.1.1a.37.37,0,0,1,0,.09Z" style="fill:#e0e0e0"></path><path d="M47.32,208.19c-.33.56-.86.86-1.41.56l0,0h0a.6.6,0,0,1-.23-.53,1.89,1.89,0,0,1,.84-1.47.64.64,0,0,1,.57-.07h0l0,0A1,1,0,0,1,47.32,208.19Z" style="fill:#e0e0e0"></path><g style="opacity:0.15"><path d="M47.32,208.19c-.33.56-.86.86-1.41.56l0,0h0a.6.6,0,0,1-.23-.53,1.89,1.89,0,0,1,.84-1.47.64.64,0,0,1,.57-.07h0l0,0A1,1,0,0,1,47.32,208.19Z"></path></g><path d="M48,209.3l.62-1.07a6.32,6.32,0,0,1-1.32-.91l0,0,0,0h0a.38.38,0,0,0-.42,0,1.21,1.21,0,0,0-.55,1,.39.39,0,0,0,.16.36h0l.11,0A5.56,5.56,0,0,1,48,209.3Z" style="fill:#e0e0e0"></path><path d="M49.16,208.43a.67.67,0,0,0-.66-.66.59.59,0,0,0-.23,0h0l-.11,0a1.46,1.46,0,0,0-.66,1.16.41.41,0,0,0,0,.16.65.65,0,0,0,1.3-.11V209A.67.67,0,0,0,49.16,208.43Z" style="fill:#e0e0e0"></path><g style="opacity:0.15"><path d="M49.16,208.43a.67.67,0,0,0-.66-.66.59.59,0,0,0-.23,0h0l-.11,0a1.46,1.46,0,0,0-.66,1.16.41.41,0,0,0,0,.16.65.65,0,0,0,1.3-.11V209A.67.67,0,0,0,49.16,208.43Z"></path></g><path d="M48.5,208.1c.37-.22.67,0,.67.38a1.47,1.47,0,0,1-.67,1.16c-.37.21-.67,0-.67-.39A1.47,1.47,0,0,1,48.5,208.1Z" style="fill:#e0e0e0"></path></g></g><g id="freepik--sheet--inject-393"><polygon points="130.52 189.07 152.49 176.39 152.49 139.45 130.52 152.13 130.52 189.07" style="opacity:0.15"></polygon><path d="M132.12,189.42l20.87-12a1.21,1.21,0,0,0,.55-1V140.75c0-.35-.25-.49-.55-.31l-20.87,12a1.25,1.25,0,0,0-.55,1V189.1C131.57,189.45,131.82,189.6,132.12,189.42Z" style="fill:#fff"></path><path d="M134.23,157.88l16.64-9.61a1.19,1.19,0,0,0,.62-.86c0-.28-.27-.35-.62-.15l-16.64,9.6a1.21,1.21,0,0,0-.61.87C133.62,158,133.89,158.07,134.23,157.88Z" style="fill:#e0e0e0"></path><path d="M134.23,160.51l16.64-9.61a1.19,1.19,0,0,0,.62-.86c0-.28-.27-.35-.62-.15l-16.64,9.61a1.18,1.18,0,0,0-.61.86C133.62,160.64,133.89,160.71,134.23,160.51Z" style="fill:#e0e0e0"></path><path d="M134.23,166l16.64-9.6a1.2,1.2,0,0,0,.62-.87c0-.28-.27-.34-.62-.15L134.23,165a1.2,1.2,0,0,0-.61.86C133.62,166.1,133.89,166.17,134.23,166Z" style="fill:#e0e0e0"></path><path d="M134.23,168.6l16.64-9.6a1.2,1.2,0,0,0,.62-.87c0-.28-.27-.34-.62-.15l-16.64,9.61a1.21,1.21,0,0,0-.61.87C133.62,168.73,133.89,168.8,134.23,168.6Z" style="fill:#e0e0e0"></path><path d="M134.23,176.7l16.64-9.61a1.17,1.17,0,0,0,.62-.86c0-.28-.27-.35-.62-.15l-16.64,9.61a1.2,1.2,0,0,0-.61.86C133.62,176.83,133.89,176.9,134.23,176.7Z" style="fill:#e0e0e0"></path><path d="M134.23,174.07l16.64-9.61a1.19,1.19,0,0,0,.62-.86c0-.28-.27-.35-.62-.15l-16.64,9.61a1.18,1.18,0,0,0-.61.86C133.62,174.2,133.89,174.27,134.23,174.07Z" style="fill:#e0e0e0"></path><g id="freepik--pushpin--inject-393"><path d="M143.77,149.83l0,0a.24.24,0,0,1-.08.06s-.08,0-.13,0l-.42-.25-.59-.35-.67-.41c-.07,0,.05-.27.13-.23l.69.37.6.34.42.24c.05,0,.1,0,.1.1a.28.28,0,0,1,0,.09Z" style="fill:#e0e0e0"></path><path d="M144.2,150.14a1,1,0,0,1-1.41.56l0,0h0a.58.58,0,0,1-.24-.53,1.87,1.87,0,0,1,.85-1.47.61.61,0,0,1,.56-.07h0l.05,0A1,1,0,0,1,144.2,150.14Z" style="fill:#e0e0e0"></path><g style="opacity:0.15"><path d="M144.2,150.14a1,1,0,0,1-1.41.56l0,0h0a.58.58,0,0,1-.24-.53,1.87,1.87,0,0,1,.85-1.47.61.61,0,0,1,.56-.07h0l.05,0A1,1,0,0,1,144.2,150.14Z"></path></g><path d="M144.88,151.25l.62-1.07a6.32,6.32,0,0,1-1.32-.91s0,0,0,0l0,0h0a.38.38,0,0,0-.42,0,1.23,1.23,0,0,0-.55.95.41.41,0,0,0,.16.36h0l.11,0A5.94,5.94,0,0,1,144.88,151.25Z" style="fill:#e0e0e0"></path><path d="M146,150.38a.66.66,0,0,0-.66-.66.59.59,0,0,0-.23.05h0l-.1.05a1.47,1.47,0,0,0-.67,1.16.78.78,0,0,0,0,.16.66.66,0,0,0,.65.55.67.67,0,0,0,.66-.66s0,0,0-.06A.67.67,0,0,0,146,150.38Z" style="fill:#e0e0e0"></path><g style="opacity:0.15"><path d="M146,150.38a.66.66,0,0,0-.66-.66.59.59,0,0,0-.23.05h0l-.1.05a1.47,1.47,0,0,0-.67,1.16.78.78,0,0,0,0,.16.66.66,0,0,0,.65.55.67.67,0,0,0,.66-.66s0,0,0-.06A.67.67,0,0,0,146,150.38Z"></path></g><path d="M145.38,150.05c.37-.22.67,0,.67.38a1.47,1.47,0,0,1-.67,1.16c-.37.21-.66,0-.66-.39A1.46,1.46,0,0,1,145.38,150.05Z" style="fill:#e0e0e0"></path></g></g><g id="freepik--sheet--inject-393"><polygon points="154.77 175.3 176.74 162.62 176.74 125.68 154.77 138.36 154.77 175.3" style="opacity:0.15"></polygon><path d="M156.37,175.65l20.87-12.05a1.21,1.21,0,0,0,.55-.95V127c0-.35-.25-.49-.55-.31l-20.87,12a1.25,1.25,0,0,0-.55,1v35.66C155.82,175.68,156.07,175.83,156.37,175.65Z" style="fill:#fff"></path><path d="M158.49,144.11l16.64-9.61a1.21,1.21,0,0,0,.62-.86c0-.28-.28-.35-.62-.15l-16.64,9.6a1.2,1.2,0,0,0-.62.87C157.87,144.24,158.14,144.3,158.49,144.11Z" style="fill:#e0e0e0"></path><path d="M158.49,146.74l16.64-9.61a1.21,1.21,0,0,0,.62-.86c0-.28-.28-.35-.62-.15l-16.64,9.61a1.17,1.17,0,0,0-.62.86C157.87,146.87,158.14,146.94,158.49,146.74Z" style="fill:#e0e0e0"></path><path d="M158.49,152.2l16.64-9.6a1.23,1.23,0,0,0,.62-.87c0-.28-.28-.34-.62-.15l-16.64,9.61a1.19,1.19,0,0,0-.62.86C157.87,152.33,158.14,152.4,158.49,152.2Z" style="fill:#e0e0e0"></path><path d="M158.49,154.83l16.64-9.6a1.23,1.23,0,0,0,.62-.87c0-.28-.28-.34-.62-.15l-16.64,9.61a1.2,1.2,0,0,0-.62.87C157.87,155,158.14,155,158.49,154.83Z" style="fill:#e0e0e0"></path><path d="M158.49,162.93l16.64-9.61a1.19,1.19,0,0,0,.62-.86c0-.28-.28-.35-.62-.15l-16.64,9.61a1.19,1.19,0,0,0-.62.86C157.87,163.06,158.14,163.13,158.49,162.93Z" style="fill:#e0e0e0"></path><path d="M158.49,160.3l16.64-9.61a1.21,1.21,0,0,0,.62-.86c0-.28-.28-.35-.62-.15l-16.64,9.61a1.17,1.17,0,0,0-.62.86C157.87,160.43,158.14,160.5,158.49,160.3Z" style="fill:#e0e0e0"></path><g id="freepik--pushpin--inject-393"><path d="M168,136.06l0,0a.24.24,0,0,1-.08.06s-.08,0-.13,0l-.42-.25-.59-.35-.67-.41c-.07-.05.06-.27.13-.23l.69.37.6.34.42.24c.05,0,.1,0,.1.1a.14.14,0,0,1,0,.09Z" style="fill:#e0e0e0"></path><path d="M168.45,136.37a1,1,0,0,1-1.41.56l0,0h0a.58.58,0,0,1-.24-.53,1.87,1.87,0,0,1,.85-1.47.62.62,0,0,1,.56-.07h0l.05,0C168.78,135.21,168.77,135.81,168.45,136.37Z" style="fill:#e0e0e0"></path><g style="opacity:0.15"><path d="M168.45,136.37a1,1,0,0,1-1.41.56l0,0h0a.58.58,0,0,1-.24-.53,1.87,1.87,0,0,1,.85-1.47.62.62,0,0,1,.56-.07h0l.05,0C168.78,135.21,168.77,135.81,168.45,136.37Z"></path></g><path d="M169.13,137.48l.63-1.07a6.07,6.07,0,0,1-1.32-.91l0,0,0,0h0a.38.38,0,0,0-.42,0,1.22,1.22,0,0,0-.54.95.39.39,0,0,0,.16.36h0a.29.29,0,0,0,.1,0A5.74,5.74,0,0,1,169.13,137.48Z" style="fill:#e0e0e0"></path><path d="M170.29,136.61a.66.66,0,0,0-.66-.66.59.59,0,0,0-.23.05h0l-.1.05a1.47,1.47,0,0,0-.67,1.16.78.78,0,0,0,0,.16.66.66,0,0,0,.65.55.67.67,0,0,0,.66-.66s0,0,0-.06A.65.65,0,0,0,170.29,136.61Z" style="fill:#e0e0e0"></path><g style="opacity:0.15"><path d="M170.29,136.61a.66.66,0,0,0-.66-.66.59.59,0,0,0-.23.05h0l-.1.05a1.47,1.47,0,0,0-.67,1.16.78.78,0,0,0,0,.16.66.66,0,0,0,.65.55.67.67,0,0,0,.66-.66s0,0,0-.06A.65.65,0,0,0,170.29,136.61Z"></path></g><path d="M169.63,136.28c.37-.22.67,0,.67.38a1.47,1.47,0,0,1-.67,1.16c-.36.21-.66,0-.66-.39A1.48,1.48,0,0,1,169.63,136.28Z" style="fill:#e0e0e0"></path></g></g><g id="freepik--sheet--inject-393"><polygon points="33.63 160 55.6 147.32 55.6 110.38 33.63 123.07 33.63 160" style="opacity:0.15"></polygon><path d="M35.24,160.35l20.86-12a1.23,1.23,0,0,0,.56-1V111.69c0-.35-.25-.5-.56-.32l-20.86,12a1.22,1.22,0,0,0-.55,1V160C34.69,160.39,34.93,160.53,35.24,160.35Z" style="fill:#fff"></path><path d="M37.35,128.81,54,119.2a1.19,1.19,0,0,0,.62-.86c0-.28-.28-.35-.62-.15L37.35,127.8a1.21,1.21,0,0,0-.62.86C36.73,128.94,37,129,37.35,128.81Z" style="fill:#e0e0e0"></path><path d="M37.35,131.44,54,121.83a1.19,1.19,0,0,0,.62-.86c0-.28-.28-.35-.62-.15l-16.64,9.61a1.21,1.21,0,0,0-.62.86C36.73,131.57,37,131.64,37.35,131.44Z" style="fill:#e0e0e0"></path><path d="M37.35,136.91,54,127.3a1.23,1.23,0,0,0,.62-.86c0-.28-.28-.35-.62-.15l-16.64,9.6a1.23,1.23,0,0,0-.62.87C36.73,137,37,137.1,37.35,136.91Z" style="fill:#e0e0e0"></path><path d="M37.35,139.54,54,129.93a1.21,1.21,0,0,0,.62-.86c0-.28-.28-.35-.62-.15l-16.64,9.61a1.19,1.19,0,0,0-.62.86C36.73,139.67,37,139.73,37.35,139.54Z" style="fill:#e0e0e0"></path><path d="M37.35,147.63,54,138a1.23,1.23,0,0,0,.62-.87c0-.28-.28-.34-.62-.15l-16.64,9.61a1.23,1.23,0,0,0-.62.86C36.73,147.76,37,147.83,37.35,147.63Z" style="fill:#e0e0e0"></path><path d="M37.35,145,54,135.39a1.19,1.19,0,0,0,.62-.86c0-.28-.28-.34-.62-.15L37.35,144a1.21,1.21,0,0,0-.62.86C36.73,145.13,37,145.2,37.35,145Z" style="fill:#e0e0e0"></path><g id="freepik--pushpin--inject-393"><path d="M46.89,120.77l0,0-.07,0c-.06,0-.08,0-.14,0l-.42-.25-.59-.35-.67-.41c-.06,0,.06-.27.14-.23l.69.38.6.33.42.24s.1,0,.1.1a.36.36,0,0,1,0,.1Z" style="fill:#e0e0e0"></path><path d="M47.32,121.07c-.33.56-.86.86-1.41.56h0a.62.62,0,0,1-.23-.54,1.87,1.87,0,0,1,.84-1.46.61.61,0,0,1,.57-.08l0,0,0,0A1,1,0,0,1,47.32,121.07Z" style="fill:#e0e0e0"></path><g style="opacity:0.15"><path d="M47.32,121.07c-.33.56-.86.86-1.41.56h0a.62.62,0,0,1-.23-.54,1.87,1.87,0,0,1,.84-1.46.61.61,0,0,1,.57-.08l0,0,0,0A1,1,0,0,1,47.32,121.07Z"></path></g><path d="M48,122.18l.62-1.07a6.32,6.32,0,0,1-1.32-.91l0,0,0,0h0a.38.38,0,0,0-.42,0,1.23,1.23,0,0,0-.55,1,.39.39,0,0,0,.16.36h0a.2.2,0,0,0,.11,0A5.94,5.94,0,0,1,48,122.18Z" style="fill:#e0e0e0"></path><path d="M49.16,121.31a.66.66,0,0,0-.66-.65.59.59,0,0,0-.23,0h0l0,0-.11,0a1.48,1.48,0,0,0-.66,1.16.47.47,0,0,0,0,.17.65.65,0,0,0,.64.54.65.65,0,0,0,.66-.66v-.06A.66.66,0,0,0,49.16,121.31Z" style="fill:#e0e0e0"></path><g style="opacity:0.15"><path d="M49.16,121.31a.66.66,0,0,0-.66-.65.59.59,0,0,0-.23,0h0l0,0-.11,0a1.48,1.48,0,0,0-.66,1.16.47.47,0,0,0,0,.17.65.65,0,0,0,.64.54.65.65,0,0,0,.66-.66v-.06A.66.66,0,0,0,49.16,121.31Z"></path></g><path d="M48.5,121c.37-.21.67,0,.67.39a1.47,1.47,0,0,1-.67,1.15c-.37.22-.67,0-.67-.38A1.47,1.47,0,0,1,48.5,121Z" style="fill:#e0e0e0"></path></g></g><g id="freepik--Tube--inject-393"><path d="M27.67,112.41,24,106.06,184.32,13.5h0a1.76,1.76,0,0,1,1.88.14,5.75,5.75,0,0,1,2.6,4.49,1.84,1.84,0,0,1-.72,1.64h0l-.05,0h0Z" style="fill:#f0f0f0"></path><path d="M28.44,110.73a5.71,5.71,0,0,0-2.59-4.49c-1.43-.83-2.59-.16-2.59,1.49a5.71,5.71,0,0,0,2.59,4.49C27.28,113.05,28.44,112.38,28.44,110.73Z" style="fill:#e0e0e0"></path></g><polygon points="63.28 195.83 126.56 159.29 126.5 192.44 63.14 229.02 63.28 195.83" style="fill:#fff"></polygon><path d="M63.14,229l63.38-36.59v-7.35a5.65,5.65,0,0,0-.9,1.07,9.66,9.66,0,0,0-.56,2.3,2.71,2.71,0,0,1-.4,1,5.15,5.15,0,0,0-.33,1.19c-.34,1.1-.89,1.37-1.45,1.48a6.54,6.54,0,0,0-2.12,1.44,6.72,6.72,0,0,1-.94.66c-.41.2-.64-.09-1-.23a1.94,1.94,0,0,0-2.19.46c-.68.66-1.39.62-2.06,1.34s-1.08,1.39-1.66,1.94-1.37.68-2.07,1.2A6.35,6.35,0,0,1,109.3,200c-1.14.39-2.08,1.77-3.17,2.49-1.86,1.21-1.32-2.2-2.15-3.34-.47-.65-.29-1.78-.5-2.74a2.79,2.79,0,0,0-.41-.92c-.16-.27-.24-.72-.41-.94s-.39-.27-.54-.13c-.3.25-.22.94-.47,1.26s-.36.06-.53.2a2.61,2.61,0,0,0-.54,1,8.82,8.82,0,0,1-1.32,1.9c-.42.6-.57,1.33-1.05,1.9s-.74.63-1.07.42c-.51-.32-.6-3.69-.86-4.16s-.38-1.57-.78-2-.35.31-.62.19-.13-.32-.27-.36-.32.16-.47.39c-.27.41-.48,1-.74,1.36-.44.66-.46.06-.77.07s-.49.81-.64,1.22a14.67,14.67,0,0,0-.61,1.8,9.12,9.12,0,0,1-.47,2.29c-.11.14-.13-.09-.21,0a1.29,1.29,0,0,0-.22.65,4.17,4.17,0,0,1-.54,1.58c-.4.52-.56,0-.89.07s-.56.45-.84.45-.27-.2-.47-.1-.21.21-.32.26c-.28.13-.29-.06-.57.35a3.72,3.72,0,0,1-.51.74.87.87,0,0,1-.73.22c-.25,0-.35-.31-.52-.53s-.32-.06-.57-.07-.36-.23-.61.31a6.78,6.78,0,0,0-.33,1.74c-.1.65-.22,1.31-.34,2a8,8,0,0,1-1.07,3.21,1.62,1.62,0,0,1-.92.72c-.3,0-.64-.15-1,.08-.16.12-.2.26-.33.4-.4.38-.79.27-1.18.7a4.37,4.37,0,0,1-1,.88,8.59,8.59,0,0,0-1.3,1.51,2.92,2.92,0,0,1-1.62,1.09,3.29,3.29,0,0,1-1.55.08c-.34-.12-.6.17-1,.44s-.49,0-.77.09-.59.4-.87.48-.41-.14-.64-.12a1.06,1.06,0,0,1-.66,0c-.7-.32-1-1.22-1.18-2.31a4.81,4.81,0,0,0-.87-2.54c-.51-.49-1.37-.38-1.57-1.44a59.34,59.34,0,0,1-.77-7c-.22-4-.58-7.32-.86-7s0,7.49-1,9.56Z" style="fill:#f0f0f0"></path></g></g><g id="freepik--Shadows--inject-393"><polygon id="freepik--Shadow--inject-393" points="384.55 448.57 262.54 378.13 355.1 324.69 477.11 395.13 384.55 448.57" style="fill:#e0e0e0"></polygon><ellipse id="freepik--shadow--inject-393" cx="134.81" cy="424.09" rx="66.45" ry="38.36" style="fill:#e0e0e0"></ellipse><path id="freepik--shadow--inject-393" d="M68.43,372.7c10.3,6,10.3,15.77,0,21.79s-27,6-37.33,0-10.31-15.78,0-21.79S58.12,366.68,68.43,372.7Z" style="fill:#e0e0e0"></path><polygon id="freepik--shadow--inject-393" points="331.46 328.6 272.95 294.81 196.35 338.99 254.85 372.78 331.46 328.6" style="fill:#e6e6e6"></polygon><path id="freepik--shadow--inject-393" d="M280.38,460.93a3.91,3.91,0,0,1-3.79-3.14L276,454.4a40.51,40.51,0,0,1-4.31-1.07l-6.57,3.05a4.43,4.43,0,0,1-1.86.39h0a4.51,4.51,0,0,1-2.25-.58l-6.72-3.88a3.34,3.34,0,0,1-.29-5.69l3.53-2.53c-.17-.25-.33-.49-.48-.74l-8.22-.52a3.74,3.74,0,0,1-3.51-3.73v-5a3.76,3.76,0,0,1,3.51-3.74l8.22-.52c.15-.24.31-.49.48-.73L254,426.57a3.34,3.34,0,0,1,.28-5.69L261,417a4.51,4.51,0,0,1,2.25-.58,4.4,4.4,0,0,1,1.86.4l6.57,3a43.08,43.08,0,0,1,4.31-1.07l.64-3.38a3.91,3.91,0,0,1,3.79-3.14h9.9a3.91,3.91,0,0,1,3.79,3.14l.64,3.38a43.77,43.77,0,0,1,4.31,1.07l6.57-3a4.4,4.4,0,0,1,1.86-.4,4.51,4.51,0,0,1,2.25.58l6.72,3.88a3.34,3.34,0,0,1,.29,5.69l-3.53,2.54c.17.24.33.49.48.73l8.22.52a3.76,3.76,0,0,1,3.5,3.74v5a3.74,3.74,0,0,1-3.51,3.73l-8.22.52c-.15.25-.31.49-.48.74l3.53,2.54a3.34,3.34,0,0,1-.28,5.68l-6.73,3.88a4.51,4.51,0,0,1-2.25.58,4.43,4.43,0,0,1-1.86-.39L299,453.33a39.33,39.33,0,0,1-4.31,1.07l-.64,3.38a3.91,3.91,0,0,1-3.79,3.15Zm-5-28.43c-2.09,1.2-3.29,2.7-3.29,4.1s1.2,2.89,3.29,4.1a22.37,22.37,0,0,0,19.88,0c2.09-1.21,3.29-2.7,3.29-4.1s-1.2-2.9-3.29-4.1a22.28,22.28,0,0,0-19.88,0Z" style="fill:#e0e0e0"></path><path id="freepik--shadow--inject-393" d="M226.48,415l-.9-1.75c-.9-.09-1.79-.2-2.66-.35h0l-3,2a4.94,4.94,0,0,1-2.71.77,4.58,4.58,0,0,1-1.75-.32l-4.67-1.87a3.49,3.49,0,0,1-1.26-5.73l.64-.68-5,.2a4.31,4.31,0,0,1-4-2.95l-.8-2.58a3.71,3.71,0,0,1,2.94-4.82l2.74-.47-1-.5a3.47,3.47,0,0,1-.67-5.87l3-2.48a5,5,0,0,1,3.11-1.08,4.59,4.59,0,0,1,1.35.2l4.43,1.39h.07s0,0,0,0c.47-.2,1-.4,1.45-.58l-.11-.9a3.87,3.87,0,0,1,3.43-4.31l5.84-.61.42,0a4.5,4.5,0,0,1,3.92,2.37l.9,1.76c.89.08,1.78.19,2.66.34h0l3-2a5,5,0,0,1,2.72-.78,4.72,4.72,0,0,1,1.74.32l4.67,1.87a3.49,3.49,0,0,1,1.27,5.73l-.64.68,5-.19a4.29,4.29,0,0,1,4,2.94l.81,2.58a3.73,3.73,0,0,1-3,4.82l-2.73.47,1,.51a3.46,3.46,0,0,1,.67,5.86l-3,2.48a4.92,4.92,0,0,1-3.12,1.08,4.22,4.22,0,0,1-1.34-.2L241.5,411h-.07s0,0,0,0c-.47.2-1,.39-1.45.57l.11.9a3.83,3.83,0,0,1-.81,2.88,3.9,3.9,0,0,1-2.63,1.43l-5.83.61a3,3,0,0,1-.42,0A4.49,4.49,0,0,1,226.48,415Zm-5-16.94c-.4.34-1.06,1-.95,1.62s.94,1.7,3,2.52a14.62,14.62,0,0,0,5.3.94c3,0,5.79-.81,7.35-2.11.4-.33,1.05-1,.95-1.62s-.95-1.69-3-2.51a14.32,14.32,0,0,0-5.29-.95C225.88,395.94,223.06,396.75,221.5,398.05Z" style="fill:#e0e0e0"></path></g><g id="freepik--Gears--inject-393"><g id="freepik--gears--inject-393"><g id="freepik--Gear--inject-393"><path d="M255.34,418h0l0,5.84h0a.58.58,0,0,0,.26.45l3.08,2.21a1.42,1.42,0,0,1-.78.33l-9,.57a.91.91,0,0,0-.84.89v5a0,0,0,0,0,0,0v5.81a.9.9,0,0,0,.83.89l9,.57a1.44,1.44,0,0,1,.76.31l-3.09,2.23a.57.57,0,0,0-.27.45h0l0,5.85h0a.53.53,0,0,0,.31.44l6.73,3.89a1.84,1.84,0,0,0,1.49.07l6.82-3.16a2.46,2.46,0,0,1,1.56-.1,40.81,40.81,0,0,0,5.29,1.26,1.29,1.29,0,0,1,1,1l.85,4.49a1.06,1.06,0,0,0,1,.83h9.89a1.06,1.06,0,0,0,1-.83l.85-4.49a1.29,1.29,0,0,1,1-1,40.81,40.81,0,0,0,5.29-1.26,2.45,2.45,0,0,1,1.56.1l6.82,3.16a1.84,1.84,0,0,0,1.49-.07l6.73-3.89a.53.53,0,0,0,.31-.45h0l0-5.84h0a.57.57,0,0,0-.27-.45L312,440.89a1.48,1.48,0,0,1,.78-.33l9-.57a.9.9,0,0,0,.83-.89v-7h0v-3.81a.91.91,0,0,0-.84-.89l-9-.57a1.44,1.44,0,0,1-.77-.32l3.1-2.22a.55.55,0,0,0,.26-.46h0l0-5.84h0a.53.53,0,0,0-.31-.45l-6.73-3.89a1.84,1.84,0,0,0-1.49-.07L300,416.72a2.53,2.53,0,0,1-1.56.1,41,41,0,0,0-5.3-1.26,1.27,1.27,0,0,1-1-1l-.86-4.49a1,1,0,0,0-1-.83h-9.9a1,1,0,0,0-1,.83l-.86,4.49a1.27,1.27,0,0,1-1,1,41,41,0,0,0-5.3,1.26,2.53,2.53,0,0,1-1.56-.1l-6.82-3.16a1.84,1.84,0,0,0-1.49.07l-6.73,3.89A.53.53,0,0,0,255.34,418Zm41.36,19.36c-6.28,3.62-16.46,3.62-22.74,0a9.08,9.08,0,0,1-4.48-5A10.39,10.39,0,0,1,274,428c6.28-3.62,16.46-3.62,22.74,0,2.45,1.42,3.89,3,4.38,4.61A9.35,9.35,0,0,1,296.7,437.33Z" style="fill:#0FBCF9"></path><path d="M255.34,418h0l0,5.84h0a.58.58,0,0,0,.26.45l3.08,2.21a1.42,1.42,0,0,1-.78.33l-9,.57a.91.91,0,0,0-.84.89v5a0,0,0,0,0,0,0v5.81a.9.9,0,0,0,.83.89l9,.57a1.44,1.44,0,0,1,.76.31l-3.09,2.23a.57.57,0,0,0-.27.45h0l0,5.85h0a.53.53,0,0,0,.31.44l6.73,3.89a1.84,1.84,0,0,0,1.49.07l6.82-3.16a2.46,2.46,0,0,1,1.56-.1,40.81,40.81,0,0,0,5.29,1.26,1.29,1.29,0,0,1,1,1l.85,4.49a1.06,1.06,0,0,0,1,.83h9.89a1.06,1.06,0,0,0,1-.83l.85-4.49a1.29,1.29,0,0,1,1-1,40.81,40.81,0,0,0,5.29-1.26,2.45,2.45,0,0,1,1.56.1l6.82,3.16a1.84,1.84,0,0,0,1.49-.07l6.73-3.89a.53.53,0,0,0,.31-.45h0l0-5.84h0a.57.57,0,0,0-.27-.45L312,440.89a1.48,1.48,0,0,1,.78-.33l9-.57a.9.9,0,0,0,.83-.89v-7h0v-3.81a.91.91,0,0,0-.84-.89l-9-.57a1.44,1.44,0,0,1-.77-.32l3.1-2.22a.55.55,0,0,0,.26-.46h0l0-5.84h0a.53.53,0,0,0-.31-.45l-6.73-3.89a1.84,1.84,0,0,0-1.49-.07L300,416.72a2.53,2.53,0,0,1-1.56.1,41,41,0,0,0-5.3-1.26,1.27,1.27,0,0,1-1-1l-.86-4.49a1,1,0,0,0-1-.83h-9.9a1,1,0,0,0-1,.83l-.86,4.49a1.27,1.27,0,0,1-1,1,41,41,0,0,0-5.3,1.26,2.53,2.53,0,0,1-1.56-.1l-6.82-3.16a1.84,1.84,0,0,0-1.49.07l-6.73,3.89A.53.53,0,0,0,255.34,418Zm41.36,19.36c-6.28,3.62-16.46,3.62-22.74,0a9.08,9.08,0,0,1-4.48-5A10.39,10.39,0,0,1,274,428c6.28-3.62,16.46-3.62,22.74,0,2.45,1.42,3.89,3,4.38,4.61A9.35,9.35,0,0,1,296.7,437.33Z" style="fill:#fff;opacity:0.2"></path><path d="M309.62,438.17a.71.71,0,0,0,.1,1.09l2.24,1.62a1.46,1.46,0,0,1,.79-.32l9-.57a.92.92,0,0,0,.84-.9l0-7v1.18a.91.91,0,0,1-.84.9l-9,.56a1.64,1.64,0,0,0-1.21.81A13.85,13.85,0,0,1,309.62,438.17Zm5.7-20.14a.63.63,0,0,1-.27.4l-5.33,3.83a.72.72,0,0,0-.1,1.1,13.55,13.55,0,0,1,1.91,2.64,1.45,1.45,0,0,0,.44.49l3.1-2.23a.56.56,0,0,0,.26-.45h0Z" style="opacity:0.1"></path><path d="M274,424.2c6.28-3.62,16.46-3.63,22.74,0,4,2.29,5.43,5.48,4.38,8.43-.47-1.61-1.92-3.19-4.38-4.61-6.28-3.63-16.46-3.62-22.73,0a10.42,10.42,0,0,0-4.49,4.29C268.64,429.45,270.14,426.41,274,424.2Z" style="opacity:0.1"></path><path d="M248.14,439.1a.9.9,0,0,0,.84.89l9,.57a1.17,1.17,0,0,1,.44.13v-5.85a1.43,1.43,0,0,0-.45-.12l-9-.56a.92.92,0,0,1-.83-.78Zm7.21-15.28h0a.57.57,0,0,0,.27.45l3.08,2.22a1.71,1.71,0,0,0,.42-.48,14.27,14.27,0,0,1,1.81-2.53l.1-.12a.78.78,0,0,0,.18-.3l0-.12a.81.81,0,0,0,0-.22.66.66,0,0,0-.17-.33.37.37,0,0,0-.13-.12l-5.33-3.84a.58.58,0,0,1-.12-.1.3.3,0,0,1-.11-.17.42.42,0,0,1,0-.18h0Zm0,25.58a.52.52,0,0,0,.31.44l6.73,3.89a1.77,1.77,0,0,0,1,.18v-5.83a1.79,1.79,0,0,1-1-.18L255.65,444a.58.58,0,0,1-.31-.41Zm43.95,1.08a2.2,2.2,0,0,1,.67.15l6.82,3.16a1.51,1.51,0,0,0,.61.12v-5.82a1.31,1.31,0,0,1-.61-.13L300,444.8a2.2,2.2,0,0,0-.67-.16Zm-19.77,7.1a1,1,0,0,0,.86.5h9.89a.94.94,0,0,0,.6-.22V452a1,1,0,0,1-.6.22h-9.9a1,1,0,0,1-.83-.44Z" style="fill:#0FBCF9"></path><path d="M248.14,439.1a.9.9,0,0,0,.84.89l9,.57a1.17,1.17,0,0,1,.44.13v-5.85a1.43,1.43,0,0,0-.45-.12l-9-.56a.92.92,0,0,1-.83-.78Zm7.21-15.28h0a.57.57,0,0,0,.27.45l3.08,2.22a1.71,1.71,0,0,0,.42-.48,14.27,14.27,0,0,1,1.81-2.53l.1-.12a.78.78,0,0,0,.18-.3l0-.12a.81.81,0,0,0,0-.22.66.66,0,0,0-.17-.33.37.37,0,0,0-.13-.12l-5.33-3.84a.58.58,0,0,1-.12-.1.3.3,0,0,1-.11-.17.42.42,0,0,1,0-.18h0Zm0,25.58a.52.52,0,0,0,.31.44l6.73,3.89a1.77,1.77,0,0,0,1,.18v-5.83a1.79,1.79,0,0,1-1-.18L255.65,444a.58.58,0,0,1-.31-.41Zm43.95,1.08a2.2,2.2,0,0,1,.67.15l6.82,3.16a1.51,1.51,0,0,0,.61.12v-5.82a1.31,1.31,0,0,1-.61-.13L300,444.8a2.2,2.2,0,0,0-.67-.16Zm-19.77,7.1a1,1,0,0,0,.86.5h9.89a.94.94,0,0,0,.6-.22V452a1,1,0,0,1-.6.22h-9.9a1,1,0,0,1-.83-.44Z" style="fill:#fff;opacity:0.7000000000000001"></path><path d="M262.38,413.63l-6.73,3.89a.5.5,0,0,0,0,.91l5.33,3.83a.72.72,0,0,1,.1,1.1,13.08,13.08,0,0,0-1.9,2.64,1.66,1.66,0,0,1-1.22.8l-9,.57a.91.91,0,0,0-.84.89v5a.91.91,0,0,0,.84.9l9,.56a1.66,1.66,0,0,1,1.21.81,13.37,13.37,0,0,0,1.9,2.64.71.71,0,0,1-.1,1.09l-5.33,3.84a.5.5,0,0,0,0,.91l6.73,3.89a1.8,1.8,0,0,0,1.49.06l6.82-3.16a2.52,2.52,0,0,1,1.56-.09,41,41,0,0,0,5.3,1.26,1.27,1.27,0,0,1,1,1l.86,4.49a1,1,0,0,0,1,.83h9.9a1,1,0,0,0,1-.83l.86-4.49a1.28,1.28,0,0,1,1-1,41,41,0,0,0,5.3-1.26,2.52,2.52,0,0,1,1.56.09l6.82,3.16a1.8,1.8,0,0,0,1.49-.06L315,444a.5.5,0,0,0,0-.91l-5.33-3.84a.71.71,0,0,1-.1-1.09,13.37,13.37,0,0,0,1.9-2.64,1.68,1.68,0,0,1,1.22-.81l9-.56a.91.91,0,0,0,.84-.9v-5a.91.91,0,0,0-.84-.89l-9-.57a1.67,1.67,0,0,1-1.22-.8,13.08,13.08,0,0,0-1.9-2.64.72.72,0,0,1,.1-1.1l5.33-3.83a.5.5,0,0,0,0-.91l-6.73-3.89a1.84,1.84,0,0,0-1.49-.07L300,416.72a2.53,2.53,0,0,1-1.56.1,41,41,0,0,0-5.3-1.26,1.27,1.27,0,0,1-1-1l-.86-4.49a1,1,0,0,0-1-.83h-9.9a1,1,0,0,0-1,.83l-.86,4.49a1.27,1.27,0,0,1-1,1,41,41,0,0,0-5.3,1.26,2.53,2.53,0,0,1-1.56-.1l-6.82-3.16A1.84,1.84,0,0,0,262.38,413.63ZM296.7,424.2c6.27,3.62,6.27,9.5,0,13.13s-16.46,3.62-22.74,0-6.28-9.5,0-13.13S290.42,420.58,296.7,424.2Z" style="fill:#0FBCF9"></path><g style="opacity:0.55"><path d="M262.38,413.63l-6.73,3.89a.5.5,0,0,0,0,.91l5.33,3.83a.72.72,0,0,1,.1,1.1,13.08,13.08,0,0,0-1.9,2.64,1.66,1.66,0,0,1-1.22.8l-9,.57a.91.91,0,0,0-.84.89v5a.91.91,0,0,0,.84.9l9,.56a1.66,1.66,0,0,1,1.21.81,13.37,13.37,0,0,0,1.9,2.64.71.71,0,0,1-.1,1.09l-5.33,3.84a.5.5,0,0,0,0,.91l6.73,3.89a1.8,1.8,0,0,0,1.49.06l6.82-3.16a2.52,2.52,0,0,1,1.56-.09,41,41,0,0,0,5.3,1.26,1.27,1.27,0,0,1,1,1l.86,4.49a1,1,0,0,0,1,.83h9.9a1,1,0,0,0,1-.83l.86-4.49a1.28,1.28,0,0,1,1-1,41,41,0,0,0,5.3-1.26,2.52,2.52,0,0,1,1.56.09l6.82,3.16a1.8,1.8,0,0,0,1.49-.06L315,444a.5.5,0,0,0,0-.91l-5.33-3.84a.71.71,0,0,1-.1-1.09,13.37,13.37,0,0,0,1.9-2.64,1.68,1.68,0,0,1,1.22-.81l9-.56a.91.91,0,0,0,.84-.9v-5a.91.91,0,0,0-.84-.89l-9-.57a1.67,1.67,0,0,1-1.22-.8,13.08,13.08,0,0,0-1.9-2.64.72.72,0,0,1,.1-1.1l5.33-3.83a.5.5,0,0,0,0-.91l-6.73-3.89a1.84,1.84,0,0,0-1.49-.07L300,416.72a2.53,2.53,0,0,1-1.56.1,41,41,0,0,0-5.3-1.26,1.27,1.27,0,0,1-1-1l-.86-4.49a1,1,0,0,0-1-.83h-9.9a1,1,0,0,0-1,.83l-.86,4.49a1.27,1.27,0,0,1-1,1,41,41,0,0,0-5.3,1.26,2.53,2.53,0,0,1-1.56-.1l-6.82-3.16A1.84,1.84,0,0,0,262.38,413.63ZM296.7,424.2c6.27,3.62,6.27,9.5,0,13.13s-16.46,3.62-22.74,0-6.28-9.5,0-13.13S290.42,420.58,296.7,424.2Z" style="fill:#fff"></path><path d="M290.28,452.58h-9.9a1.39,1.39,0,0,1-1.32-1.1l-.85-4.49a1,1,0,0,0-.72-.7,41.65,41.65,0,0,1-5.34-1.26,2.2,2.2,0,0,0-1.32.07L264,448.26a2.12,2.12,0,0,1-1.79-.08l-6.73-3.88a.83.83,0,0,1-.07-1.47l5.33-3.83a.4.4,0,0,0,.17-.28.44.44,0,0,0-.12-.33,13.44,13.44,0,0,1-1.95-2.7,1.39,1.39,0,0,0-1-.64l-9-.56a1.25,1.25,0,0,1-1.15-1.23v-5a1.25,1.25,0,0,1,1.15-1.22l9-.57a1.34,1.34,0,0,0,1-.63,13.6,13.6,0,0,1,1.95-2.71.43.43,0,0,0,.12-.33.38.38,0,0,0-.17-.27l-5.33-3.84a.87.87,0,0,1-.41-.75.89.89,0,0,1,.48-.71l6.73-3.89a2.15,2.15,0,0,1,1.79-.08l6.82,3.16a2.12,2.12,0,0,0,1.32.08,41.26,41.26,0,0,1,5.34-1.27,1,1,0,0,0,.72-.69l.85-4.5a1.39,1.39,0,0,1,1.32-1.09h9.9A1.39,1.39,0,0,1,291.6,410l.85,4.5a1,1,0,0,0,.72.69,41.1,41.1,0,0,1,5.33,1.27,2.15,2.15,0,0,0,1.33-.08l6.82-3.16a2.19,2.19,0,0,1,1.79.08l6.73,3.89a.89.89,0,0,1,.48.71.87.87,0,0,1-.41.75l-5.33,3.84a.38.38,0,0,0-.17.27.43.43,0,0,0,.12.33,13.6,13.6,0,0,1,1.95,2.71,1.34,1.34,0,0,0,.95.63l9,.57a1.25,1.25,0,0,1,1.15,1.22v5a1.25,1.25,0,0,1-1.15,1.23l-9,.56a1.39,1.39,0,0,0-.95.64,13.44,13.44,0,0,1-1.95,2.7.44.44,0,0,0-.12.33.4.4,0,0,0,.17.28l5.33,3.83a.89.89,0,0,1,.41.76.91.91,0,0,1-.48.71l-6.73,3.88a2.15,2.15,0,0,1-1.79.08l-6.82-3.16a2.28,2.28,0,0,0-1.32-.08,40,40,0,0,1-5.34,1.27,1,1,0,0,0-.72.7l-.85,4.49A1.39,1.39,0,0,1,290.28,452.58Zm-18.65-8.28a2.37,2.37,0,0,1,.72.1,42,42,0,0,0,5.25,1.24,1.62,1.62,0,0,1,1.26,1.22l.85,4.5a.73.73,0,0,0,.67.56h9.9a.73.73,0,0,0,.67-.56l.85-4.49a1.62,1.62,0,0,1,1.26-1.23,42,42,0,0,0,5.25-1.24,2.84,2.84,0,0,1,1.8.1l6.82,3.16a1.47,1.47,0,0,0,1.18-.05l6.73-3.88c.09-.06.15-.12.15-.18a.28.28,0,0,0-.13-.18l-5.33-3.84a1,1,0,0,1-.45-.74,1.08,1.08,0,0,1,.3-.84,13,13,0,0,0,1.85-2.58,2,2,0,0,1,1.48-1l9-.57a.58.58,0,0,0,.53-.57v-5a.57.57,0,0,0-.53-.56l-9-.57a2,2,0,0,1-1.48-1,13.31,13.31,0,0,0-1.85-2.57,1.08,1.08,0,0,1-.3-.84,1.05,1.05,0,0,1,.45-.75l5.33-3.83A.27.27,0,0,0,315,418c0-.05-.06-.12-.15-.17l-6.73-3.88a1.47,1.47,0,0,0-1.18-.06L300.11,417a2.78,2.78,0,0,1-1.8.11,40.26,40.26,0,0,0-5.25-1.25,1.61,1.61,0,0,1-1.26-1.22l-.85-4.49a.73.73,0,0,0-.67-.56h-9.9a.73.73,0,0,0-.67.56l-.85,4.49a1.61,1.61,0,0,1-1.26,1.22,39.88,39.88,0,0,0-5.25,1.25,2.78,2.78,0,0,1-1.8-.11l-6.82-3.16a1.47,1.47,0,0,0-1.18.06h0l-6.73,3.88c-.09.05-.15.12-.15.17a.27.27,0,0,0,.13.19l5.33,3.83a1.05,1.05,0,0,1,.45.75,1.08,1.08,0,0,1-.3.84,13.07,13.07,0,0,0-1.85,2.58,2,2,0,0,1-1.48,1l-9,.57a.57.57,0,0,0-.53.56v5a.58.58,0,0,0,.53.57l9,.57a2,2,0,0,1,1.48,1,13,13,0,0,0,1.85,2.58,1.08,1.08,0,0,1,.3.84,1,1,0,0,1-.45.74l-5.33,3.84a.28.28,0,0,0-.13.18c0,.06.06.12.15.18l6.73,3.88a1.47,1.47,0,0,0,1.18.05l6.82-3.16A2.81,2.81,0,0,1,271.63,444.3Zm13.7-3.93a23.52,23.52,0,0,1-11.53-2.76c-3.14-1.81-4.88-4.24-4.88-6.85s1.74-5,4.88-6.85c6.36-3.67,16.7-3.67,23.06,0h0c3.14,1.82,4.88,4.25,4.88,6.85s-1.74,5-4.88,6.85A23.52,23.52,0,0,1,285.33,440.37Zm0-18.56a22.82,22.82,0,0,0-11.2,2.68c-2.93,1.69-4.55,3.92-4.55,6.27s1.62,4.59,4.55,6.28c6.17,3.57,16.22,3.57,22.4,0,2.93-1.69,4.55-3.92,4.55-6.28s-1.62-4.58-4.55-6.27A22.82,22.82,0,0,0,285.33,421.81Z" style="fill:#fff"></path></g></g><g id="freepik--gear--inject-393"><path d="M217.38,385.86a3.18,3.18,0,0,1-1.93.13l-4.54-1.42a2.12,2.12,0,0,0-1.79.35l-3,2.48a.68.68,0,0,0-.29.56h0v4.79h0a.65.65,0,0,0,.42.6l1.61.81-4.14.7a.88.88,0,0,0-.74.9h0v4.79h0a1,1,0,0,0,0,.3l.81,2.58a1.43,1.43,0,0,0,1.35.95l5.33-.22a2.56,2.56,0,0,1,1.29.4l-.27.29a.76.76,0,0,0-.23.52h0v4.81h0a.68.68,0,0,0,.48.62l4.67,1.87a2.22,2.22,0,0,0,1.83-.19l3.14-2.08a3,3,0,0,1,1.89-.38,30,30,0,0,0,3,.37,2.06,2.06,0,0,1,1.51,1l1.17,2.26a1.62,1.62,0,0,0,1.5.82l5.84-.61a1,1,0,0,0,.91-1h0v-3.25a1.2,1.2,0,0,1,.6-.42,25.09,25.09,0,0,0,2.44-.9,3.18,3.18,0,0,1,1.93-.13l4.54,1.43a2.12,2.12,0,0,0,1.79-.36l3-2.48a.69.69,0,0,0,.29-.53h0v-4.82h0a.68.68,0,0,0-.42-.59l-1.61-.8,4.13-.71a.89.89,0,0,0,.76-.84h0v-4.82h0a1.19,1.19,0,0,0,0-.32l-.81-2.58a1.43,1.43,0,0,0-1.35-.94l-5.34.21a2.43,2.43,0,0,1-1.28-.4l.27-.29a.76.76,0,0,0,.23-.52h0V384h0v-.05h0a.71.71,0,0,0-.48-.6l-4.67-1.87a2.25,2.25,0,0,0-1.83.19l-3.14,2.09a3,3,0,0,1-1.89.38,30.38,30.38,0,0,0-3-.38,2,2,0,0,1-1.51-1l-1.17-2.26a1.62,1.62,0,0,0-1.5-.82l-5.84.61a1,1,0,0,0-.91,1.14l.27,2.22a1.28,1.28,0,0,1-.87,1.32A25.07,25.07,0,0,0,217.38,385.86ZM238,398.33c-3.51,2.92-10.46,3.65-15.52,1.62a8.68,8.68,0,0,1-4-2.9,6.89,6.89,0,0,1,1.19-1.26c3.51-2.92,10.46-3.64,15.52-1.62a8.75,8.75,0,0,1,4,2.89A6.59,6.59,0,0,1,238,398.33Z" style="fill:#0FBCF9"></path><path d="M217.38,385.86a3.18,3.18,0,0,1-1.93.13l-4.54-1.42a2.12,2.12,0,0,0-1.79.35l-3,2.48a.68.68,0,0,0-.29.56h0v4.79h0a.65.65,0,0,0,.42.6l1.61.81-4.14.7a.88.88,0,0,0-.74.9h0v4.79h0a1,1,0,0,0,0,.3l.81,2.58a1.43,1.43,0,0,0,1.35.95l5.33-.22a2.56,2.56,0,0,1,1.29.4l-.27.29a.76.76,0,0,0-.23.52h0v4.81h0a.68.68,0,0,0,.48.62l4.67,1.87a2.22,2.22,0,0,0,1.83-.19l3.14-2.08a3,3,0,0,1,1.89-.38,30,30,0,0,0,3,.37,2.06,2.06,0,0,1,1.51,1l1.17,2.26a1.62,1.62,0,0,0,1.5.82l5.84-.61a1,1,0,0,0,.91-1h0v-3.25a1.2,1.2,0,0,1,.6-.42,25.09,25.09,0,0,0,2.44-.9,3.18,3.18,0,0,1,1.93-.13l4.54,1.43a2.12,2.12,0,0,0,1.79-.36l3-2.48a.69.69,0,0,0,.29-.53h0v-4.82h0a.68.68,0,0,0-.42-.59l-1.61-.8,4.13-.71a.89.89,0,0,0,.76-.84h0v-4.82h0a1.19,1.19,0,0,0,0-.32l-.81-2.58a1.43,1.43,0,0,0-1.35-.94l-5.34.21a2.43,2.43,0,0,1-1.28-.4l.27-.29a.76.76,0,0,0,.23-.52h0V384h0v-.05h0a.71.71,0,0,0-.48-.6l-4.67-1.87a2.25,2.25,0,0,0-1.83.19l-3.14,2.09a3,3,0,0,1-1.89.38,30.38,30.38,0,0,0-3-.38,2,2,0,0,1-1.51-1l-1.17-2.26a1.62,1.62,0,0,0-1.5-.82l-5.84.61a1,1,0,0,0-.91,1.14l.27,2.22a1.28,1.28,0,0,1-.87,1.32A25.07,25.07,0,0,0,217.38,385.86ZM238,398.33c-3.51,2.92-10.46,3.65-15.52,1.62a8.68,8.68,0,0,1-4-2.9,6.89,6.89,0,0,1,1.19-1.26c3.51-2.92,10.46-3.64,15.52-1.62a8.75,8.75,0,0,1,4,2.89A6.59,6.59,0,0,1,238,398.33Z" style="fill:#fff;opacity:0.2"></path><path d="M247.25,397.53a1,1,0,0,0,.42,1.37l2.14,1.08,4.14-.71a.89.89,0,0,0,.75-.84v-4.76a.88.88,0,0,1-.75.79l-5.09.87a1.75,1.75,0,0,0-1.23,1.19A8.3,8.3,0,0,1,247.25,397.53ZM246.38,384a.76.76,0,0,1-.23.52L244,386.74a.91.91,0,0,0,.13,1.37,10.93,10.93,0,0,1,1.28,1.14,2,2,0,0,0,.44.34l.27-.29a.8.8,0,0,0,.23-.53h0Z" style="opacity:0.1"></path><path d="M235.2,389.37c4.37,1.75,5.91,5,4,7.69a8.66,8.66,0,0,0-4-2.89c-5.06-2-12-1.3-15.52,1.62a6.48,6.48,0,0,0-1.18,1.26c-1.36-1.93-1-4.22,1.17-6.06C223.19,388.06,230.14,387.34,235.2,389.37Z" style="opacity:0.1"></path><path d="M227.35,410.8a1.75,1.75,0,0,1,.5.56l1.17,2.26a1.55,1.55,0,0,0,.86.72v-4.8a1.6,1.6,0,0,1-.85-.72l-1.17-2.27a1.61,1.61,0,0,0-.49-.56Zm-16-.64a.68.68,0,0,0,.48.62l4.67,1.87a2.21,2.21,0,0,0,1.23.05v-4.81a2.09,2.09,0,0,1-1.22-.05L211.8,406a.66.66,0,0,1-.49-.62h0Zm31-2,4.49,1.4a2,2,0,0,0,1.13,0v-4.79a2.07,2.07,0,0,1-1.13,0l-4.48-1.41ZM203,400.53a.79.79,0,0,0,0,.3l.8,2.58a1.44,1.44,0,0,0,1.35.95l5.33-.22a2.37,2.37,0,0,1,.84.17v-4.8a2,2,0,0,0-.83-.17l-5.34.21a1.42,1.42,0,0,1-1.34-.95L203,396c0-.1,0-.19-.05-.28Zm2.85-7.78h0a.67.67,0,0,0,.42.59l1.61.81.94-.16a1.74,1.74,0,0,0,1.24-1.2,7.59,7.59,0,0,1,.38-1,1.34,1.34,0,0,0,.09-.26,1.23,1.23,0,0,0,0-.19.94.94,0,0,0-.31-.76.65.65,0,0,0-.22-.17l-3.75-1.88a1,1,0,0,1-.23-.16.56.56,0,0,1-.17-.25.85.85,0,0,1,0-.17Z" style="fill:#0FBCF9"></path><path d="M227.35,410.8a1.75,1.75,0,0,1,.5.56l1.17,2.26a1.55,1.55,0,0,0,.86.72v-4.8a1.6,1.6,0,0,1-.85-.72l-1.17-2.27a1.61,1.61,0,0,0-.49-.56Zm-16-.64a.68.68,0,0,0,.48.62l4.67,1.87a2.21,2.21,0,0,0,1.23.05v-4.81a2.09,2.09,0,0,1-1.22-.05L211.8,406a.66.66,0,0,1-.49-.62h0Zm31-2,4.49,1.4a2,2,0,0,0,1.13,0v-4.79a2.07,2.07,0,0,1-1.13,0l-4.48-1.41ZM203,400.53a.79.79,0,0,0,0,.3l.8,2.58a1.44,1.44,0,0,0,1.35.95l5.33-.22a2.37,2.37,0,0,1,.84.17v-4.8a2,2,0,0,0-.83-.17l-5.34.21a1.42,1.42,0,0,1-1.34-.95L203,396c0-.1,0-.19-.05-.28Zm2.85-7.78h0a.67.67,0,0,0,.42.59l1.61.81.94-.16a1.74,1.74,0,0,0,1.24-1.2,7.59,7.59,0,0,1,.38-1,1.34,1.34,0,0,0,.09-.26,1.23,1.23,0,0,0,0-.19.94.94,0,0,0-.31-.76.65.65,0,0,0-.22-.17l-3.75-1.88a1,1,0,0,1-.23-.16.56.56,0,0,1-.17-.25.85.85,0,0,1,0-.17Z" style="fill:#fff;opacity:0.7000000000000001"></path><path d="M209.12,384.92l-3,2.48a.63.63,0,0,0,.13,1.13l3.74,1.88a1,1,0,0,1,.43,1.38,7.72,7.72,0,0,0-.38,1,1.73,1.73,0,0,1-1.24,1.19l-5.08.86A.89.89,0,0,0,203,396l.81,2.58a1.43,1.43,0,0,0,1.35.95l5.33-.21a2.56,2.56,0,0,1,1.73.73,13.1,13.1,0,0,0,1.28,1.14.91.91,0,0,1,.13,1.37l-2.12,2.25a.66.66,0,0,0,.25,1.14l4.67,1.87a2.18,2.18,0,0,0,1.83-.19l3.14-2.08a3,3,0,0,1,1.89-.38c1,.17,2,.3,3,.38a2,2,0,0,1,1.51,1l1.16,2.27a1.64,1.64,0,0,0,1.51.81l5.84-.61a1,1,0,0,0,.91-1.14l-.27-2.21a1.27,1.27,0,0,1,.87-1.32,22.72,22.72,0,0,0,2.44-.9,3.11,3.11,0,0,1,1.93-.12l4.54,1.42a2.15,2.15,0,0,0,1.79-.35l3-2.49a.63.63,0,0,0-.13-1.13l-3.75-1.88a1,1,0,0,1-.42-1.37,8.3,8.3,0,0,0,.38-1,1.73,1.73,0,0,1,1.24-1.19l5.07-.87a.89.89,0,0,0,.72-1.17l-.81-2.58a1.43,1.43,0,0,0-1.35-.94l-5.34.21a2.6,2.6,0,0,1-1.72-.73,10.93,10.93,0,0,0-1.28-1.14.91.91,0,0,1-.13-1.37l2.12-2.25a.67.67,0,0,0-.25-1.15l-4.67-1.87a2.25,2.25,0,0,0-1.83.19l-3.14,2.09a3,3,0,0,1-1.89.38,30.38,30.38,0,0,0-3-.38,2,2,0,0,1-1.51-1l-1.17-2.26a1.62,1.62,0,0,0-1.5-.82l-5.84.61a1,1,0,0,0-.91,1.14l.27,2.22a1.28,1.28,0,0,1-.87,1.32,25.07,25.07,0,0,0-2.44.89,3.18,3.18,0,0,1-1.93.13l-4.54-1.42A2.12,2.12,0,0,0,209.12,384.92Zm26.08,4.45c5.06,2,6.32,6,2.81,9S227.55,402,222.49,400s-6.32-6-2.81-9S230.14,387.34,235.2,389.37Z" style="fill:#0FBCF9"></path><g style="opacity:0.55"><path d="M209.12,384.92l-3,2.48a.63.63,0,0,0,.13,1.13l3.74,1.88a1,1,0,0,1,.43,1.38,7.72,7.72,0,0,0-.38,1,1.73,1.73,0,0,1-1.24,1.19l-5.08.86A.89.89,0,0,0,203,396l.81,2.58a1.43,1.43,0,0,0,1.35.95l5.33-.21a2.56,2.56,0,0,1,1.73.73,13.1,13.1,0,0,0,1.28,1.14.91.91,0,0,1,.13,1.37l-2.12,2.25a.66.66,0,0,0,.25,1.14l4.67,1.87a2.18,2.18,0,0,0,1.83-.19l3.14-2.08a3,3,0,0,1,1.89-.38c1,.17,2,.3,3,.38a2,2,0,0,1,1.51,1l1.16,2.27a1.64,1.64,0,0,0,1.51.81l5.84-.61a1,1,0,0,0,.91-1.14l-.27-2.21a1.27,1.27,0,0,1,.87-1.32,22.72,22.72,0,0,0,2.44-.9,3.11,3.11,0,0,1,1.93-.12l4.54,1.42a2.15,2.15,0,0,0,1.79-.35l3-2.49a.63.63,0,0,0-.13-1.13l-3.75-1.88a1,1,0,0,1-.42-1.37,8.3,8.3,0,0,0,.38-1,1.73,1.73,0,0,1,1.24-1.19l5.07-.87a.89.89,0,0,0,.72-1.17l-.81-2.58a1.43,1.43,0,0,0-1.35-.94l-5.34.21a2.6,2.6,0,0,1-1.72-.73,10.93,10.93,0,0,0-1.28-1.14.91.91,0,0,1-.13-1.37l2.12-2.25a.67.67,0,0,0-.25-1.15l-4.67-1.87a2.25,2.25,0,0,0-1.83.19l-3.14,2.09a3,3,0,0,1-1.89.38,30.38,30.38,0,0,0-3-.38,2,2,0,0,1-1.51-1l-1.17-2.26a1.62,1.62,0,0,0-1.5-.82l-5.84.61a1,1,0,0,0-.91,1.14l.27,2.22a1.28,1.28,0,0,1-.87,1.32,25.07,25.07,0,0,0-2.44.89,3.18,3.18,0,0,1-1.93.13l-4.54-1.42A2.12,2.12,0,0,0,209.12,384.92Zm26.08,4.45c5.06,2,6.32,6,2.81,9S227.55,402,222.49,400s-6.32-6-2.81-9S230.14,387.34,235.2,389.37Z" style="fill:#fff"></path><path d="M230.4,410.05a2.07,2.07,0,0,1-1.75-1.05l-1.16-2.26a1.65,1.65,0,0,0-1.18-.77,30.09,30.09,0,0,1-3.06-.38,2.55,2.55,0,0,0-1.59.32L218.52,408a2.64,2.64,0,0,1-2.21.23l-4.67-1.87a1.13,1.13,0,0,1-.72-.79,1.12,1.12,0,0,1,.32-1l2.12-2.25a.45.45,0,0,0,.14-.38.58.58,0,0,0-.22-.39,11.65,11.65,0,0,1-1.32-1.18,2.26,2.26,0,0,0-1.42-.61l-5.34.22a1.84,1.84,0,0,1-1.75-1.24l-.81-2.58a1.29,1.29,0,0,1,1-1.69l5.07-.87a1.34,1.34,0,0,0,.92-.9,7.18,7.18,0,0,1,.4-1.06.61.61,0,0,0-.24-.84l-3.75-1.88a1.11,1.11,0,0,1-.64-.85,1.1,1.1,0,0,1,.44-1l3-2.48a2.55,2.55,0,0,1,2.17-.43l4.54,1.42a2.76,2.76,0,0,0,1.65-.11,24.06,24.06,0,0,1,2.48-.91.87.87,0,0,0,.58-.88l-.26-2.22a1.43,1.43,0,0,1,1.27-1.59l5.83-.61a2.08,2.08,0,0,1,1.92,1l1.16,2.27a1.64,1.64,0,0,0,1.18.76c1,.08,2.07.21,3.06.38a2.54,2.54,0,0,0,1.59-.31l3.14-2.09a2.64,2.64,0,0,1,2.21-.23l4.67,1.88a1.12,1.12,0,0,1,.72.78,1.16,1.16,0,0,1-.32,1L244.33,387a.48.48,0,0,0-.15.38.56.56,0,0,0,.23.38,13.82,13.82,0,0,1,1.32,1.18,2.22,2.22,0,0,0,1.42.61l5.33-.21a1.87,1.87,0,0,1,1.76,1.23l.81,2.58a1.3,1.3,0,0,1-.13,1.09,1.27,1.27,0,0,1-.91.6l-5.07.87a1.36,1.36,0,0,0-.92.9,8.09,8.09,0,0,1-.4,1.07.61.61,0,0,0,.24.84l3.74,1.88a1.1,1.1,0,0,1,.65.84,1.11,1.11,0,0,1-.44,1l-3,2.48a2.55,2.55,0,0,1-2.17.43l-4.54-1.43a2.84,2.84,0,0,0-1.65.12c-.78.33-1.62.64-2.48.91a.87.87,0,0,0-.59.88l.27,2.21a1.43,1.43,0,0,1-1.27,1.6l-5.84.61Zm-7.45-5.3a2.12,2.12,0,0,1,.44,0c1,.17,2,.29,3,.37a2.4,2.4,0,0,1,1.84,1.2l1.17,2.27a1.23,1.23,0,0,0,1.1.6l5.84-.61a.61.61,0,0,0,.41-.23.59.59,0,0,0,.13-.46l-.27-2.21a1.69,1.69,0,0,1,1.16-1.76c.83-.26,1.64-.56,2.39-.88a3.54,3.54,0,0,1,2.22-.14l4.54,1.42a1.73,1.73,0,0,0,1.41-.28l3-2.48a.33.33,0,0,0,.15-.25c0-.07-.09-.14-.2-.2l-3.75-1.88a1.41,1.41,0,0,1-.61-1.91,7.89,7.89,0,0,0,.36-1,2.11,2.11,0,0,1,1.56-1.47l5.07-.87a.51.51,0,0,0,.36-.23.52.52,0,0,0,0-.41l-.81-2.58a1.07,1.07,0,0,0-.94-.67l-5.34.22a2.92,2.92,0,0,1-2-.86,13.3,13.3,0,0,0-1.24-1.1,1.36,1.36,0,0,1-.54-1,1.3,1.3,0,0,1,.36-1l2.12-2.25a.34.34,0,0,0,.12-.28.35.35,0,0,0-.23-.21l-4.67-1.87a1.84,1.84,0,0,0-1.45.15l-3.14,2.09a3.35,3.35,0,0,1-2.18.44,28.87,28.87,0,0,0-3-.37,2.47,2.47,0,0,1-1.85-1.21l-1.16-2.26a1.25,1.25,0,0,0-1.1-.6l-5.84.61a.61.61,0,0,0-.41.23.56.56,0,0,0-.13.45l.27,2.22a1.69,1.69,0,0,1-1.16,1.76,22.35,22.35,0,0,0-2.39.88,3.54,3.54,0,0,1-2.22.14L210.79,385a1.75,1.75,0,0,0-1.41.27l-3,2.49c-.1.08-.16.17-.15.24a.33.33,0,0,0,.2.21l3.75,1.88a1.42,1.42,0,0,1,.61,1.91,6.85,6.85,0,0,0-.36,1,2.14,2.14,0,0,1-1.56,1.48l-5.08.87a.47.47,0,0,0-.35.22.51.51,0,0,0,0,.42l.81,2.58a1,1,0,0,0,.94.66l5.34-.21a3,3,0,0,1,2,.85,11.11,11.11,0,0,0,1.24,1.11,1.36,1.36,0,0,1,.54,1,1.28,1.28,0,0,1-.36,1l-2.12,2.26a.31.31,0,0,0-.12.28c0,.08.1.15.22.2l4.67,1.87a1.78,1.78,0,0,0,1.46-.15l3.14-2.08A3.31,3.31,0,0,1,223,404.75Zm5.86-3.25a17.7,17.7,0,0,1-6.48-1.17c-2.85-1.14-4.68-3-5-5a5,5,0,0,1,2.09-4.63c3.61-3,10.76-3.76,15.93-1.68,2.86,1.14,4.68,3,5,5a5,5,0,0,1-2.09,4.63C236,400.5,232.45,401.5,228.81,401.5Zm0-12.88c-3.44,0-6.82.94-8.91,2.68a4.17,4.17,0,0,0-1.8,3.88c.28,1.75,1.92,3.36,4.5,4.39,4.93,2,11.71,1.28,15.11-1.56a4.19,4.19,0,0,0,1.8-3.87c-.28-1.76-1.92-3.36-4.5-4.4A17.05,17.05,0,0,0,228.85,388.62Z" style="fill:#fff"></path></g></g></g></g><g id="freepik--Boxes--inject-393"><g id="freepik--boxes--inject-393"><g id="freepik--Box--inject-393"><polygon points="252.62 365.68 252.62 329.34 205.41 302.09 205.41 338.43 252.62 365.68" style="fill:#ebebeb"></polygon><polygon points="252.62 329.34 317.92 291.69 317.92 328.03 252.62 365.68 252.62 329.34" style="fill:#e0e0e0"></polygon><polygon points="252.62 329.34 204.02 301.27 270.71 262.8 319.32 290.88 252.62 329.34" style="fill:#fafafa"></polygon><path d="M270.71,264l46.63,26.93L252.62,328.2,206,301.27,270.71,264m0-1.15L204,301.27l48.6,28.07,66.7-38.46L270.71,262.8Z" style="fill:#ebebeb"></path><polygon points="252.62 329.34 252.62 338.43 204.02 310.37 204.02 301.27 252.62 329.34" style="fill:#ebebeb"></polygon><polygon points="319.32 290.88 252.62 329.34 252.62 338.43 319.32 299.97 319.32 290.88" style="fill:#e0e0e0"></polygon><path d="M205.41,311.17v2l47.21,27.26v-2Zm112.51-10.39-65.3,37.65v2l65.3-37.66Z" style="opacity:0.1"></path><path d="M237.08,334.87,221,325.56c-.69-.41-1.25-.08-1.25.72v9.54A2.8,2.8,0,0,0,221,338l16.13,9.3c.69.41,1.26.08,1.26-.72V337A2.78,2.78,0,0,0,237.08,334.87Z" style="fill:#e0e0e0"></path><path d="M237.08,334.87,221,325.56c-.69-.41-1.25-.08-1.25.72v9.54A2.8,2.8,0,0,0,221,338l16.13,9.3c.69.41,1.26.08,1.26-.72V337A2.78,2.78,0,0,0,237.08,334.87Z" style="opacity:0.1"></path><path d="M236.05,336,222,327.83c-.47-.27-.84-.05-.84.48v7.15a1.81,1.81,0,0,0,.84,1.45L236.05,345c.46.27.84.05.84-.48V337.4A1.83,1.83,0,0,0,236.05,336Z" style="fill:#f5f5f5"></path><g style="opacity:0.2"><path d="M235.65,337.83a.2.2,0,0,0,.18-.1.21.21,0,0,0-.07-.28l-13.28-7.66a.2.2,0,1,0-.2.35l13.27,7.67A.18.18,0,0,0,235.65,337.83Z"></path><path d="M235.65,339.59a.22.22,0,0,0,.18-.1.21.21,0,0,0-.07-.28l-13.28-7.67a.21.21,0,0,0-.28.08.21.21,0,0,0,.08.28l13.27,7.66A.19.19,0,0,0,235.65,339.59Z"></path><path d="M235.65,341.34a.2.2,0,0,0,.18-.1.21.21,0,0,0-.07-.28l-13.28-7.66a.2.2,0,1,0-.2.35l13.27,7.67A.18.18,0,0,0,235.65,341.34Z"></path><path d="M235.65,343.1a.22.22,0,0,0,.18-.1.21.21,0,0,0-.07-.28l-13.28-7.67a.21.21,0,0,0-.28.08.21.21,0,0,0,.08.28l13.27,7.66A.19.19,0,0,0,235.65,343.1Z"></path></g></g><g id="freepik--box--inject-393"><polygon points="315.44 288.64 249.9 326.44 205.18 300.6 270.71 262.8 315.44 288.64" style="opacity:0.1"></polygon><g id="freepik--box--inject-393"><polygon points="249.5 323.56 249.5 287.23 202.3 259.97 202.3 296.31 249.5 323.56" style="fill:#ebebeb"></polygon><polygon points="249.5 287.23 314.8 249.58 314.8 285.92 249.5 323.56 249.5 287.23" style="fill:#e0e0e0"></polygon><polygon points="249.5 287.23 200.9 259.15 267.6 220.69 316.2 248.76 249.5 287.23" style="fill:#fafafa"></polygon><path d="M267.6,221.83l46.62,26.93L249.5,286.08l-46.62-26.93,64.72-37.32m0-1.14-66.7,38.46,48.6,28.08,66.7-38.47-48.6-28.07Z" style="fill:#ebebeb"></path><polygon points="249.5 287.23 249.5 296.31 200.9 268.25 200.9 259.15 249.5 287.23" style="fill:#ebebeb"></polygon><polygon points="316.2 248.76 249.5 287.23 249.5 296.31 316.2 257.85 316.2 248.76" style="fill:#e0e0e0"></polygon><path d="M202.3,269.06v2l47.2,27.26v-2Zm112.5-10.4-65.3,37.65v2l65.3-37.65Z" style="opacity:0.1"></path><path d="M234,292.75l-16.12-9.31c-.7-.4-1.26-.08-1.26.73v9.53a2.77,2.77,0,0,0,1.26,2.18L234,305.19c.7.4,1.26.07,1.26-.73v-9.53A2.77,2.77,0,0,0,234,292.75Z" style="fill:#e0e0e0"></path><path d="M234,292.75l-16.12-9.31c-.7-.4-1.26-.08-1.26.73v9.53a2.77,2.77,0,0,0,1.26,2.18L234,305.19c.7.4,1.26.07,1.26-.73v-9.53A2.77,2.77,0,0,0,234,292.75Z" style="opacity:0.1"></path><path d="M232.93,293.83l-14.06-8.12c-.46-.26-.84,0-.84.49v7.15a1.87,1.87,0,0,0,.84,1.45l14.06,8.11c.46.27.84.06.84-.48v-7.15A1.87,1.87,0,0,0,232.93,293.83Z" style="fill:#f5f5f5"></path><g style="opacity:0.2"><path d="M232.54,295.72a.19.19,0,0,0,.17-.1.2.2,0,0,0-.07-.28l-13.28-7.67a.21.21,0,0,0-.2.36l13.28,7.66A.17.17,0,0,0,232.54,295.72Z"></path><path d="M232.54,297.47a.18.18,0,0,0,.17-.1.2.2,0,0,0-.07-.28l-13.28-7.66a.19.19,0,0,0-.27.07.2.2,0,0,0,.07.28l13.28,7.67Z"></path><path d="M232.54,299.23a.19.19,0,0,0,.17-.1.2.2,0,0,0-.07-.28l-13.28-7.67a.21.21,0,0,0-.2.36l13.28,7.66A.17.17,0,0,0,232.54,299.23Z"></path><path d="M232.54,301a.18.18,0,0,0,.17-.1.2.2,0,0,0-.07-.28l-13.28-7.66a.19.19,0,0,0-.27.07.2.2,0,0,0,.07.28L232.44,301Z"></path></g></g></g></g></g><g id="freepik--Plants--inject-393"><g id="freepik--Plant--inject-393"><g id="freepik--Pot--inject-393"><g id="freepik--pot--inject-393"><path d="M33.21,385.23c-8.86-9.13-14.06-33.67-5.42-40.92H71.73c8.64,7.25,3.44,31.77-5.41,40.91a2.83,2.83,0,0,1-.24.25l-.31.31c-.25.24-.51.48-.8.72l-.21.16a6.94,6.94,0,0,1-.67.51,8.86,8.86,0,0,1-1.14.74c-7.28,4.26-19.09,4.26-26.38,0h0a11.17,11.17,0,0,1-1.15-.74c-.22-.16-.42-.32-.62-.48l-.26-.2c-.28-.23-.53-.46-.78-.7l-.35-.35Z" style="fill:#ebebeb"></path><path d="M67.92,341.4c10,5.85,10,15.34,0,21.19s-26.29,5.86-36.31,0-10-15.34,0-21.19S57.89,335.54,67.92,341.4Z" style="fill:#fafafa"></path><path d="M63.09,344.21c7.37,4.3,7.37,11.27,0,15.57s-19.3,4.3-26.66,0-7.36-11.27,0-15.57S55.73,339.91,63.09,344.21Z" style="fill:#e0e0e0"></path><path d="M36.43,351.6c7.36-4.3,19.3-4.3,26.66,0a12.23,12.23,0,0,1,4.41,4.09,12.32,12.32,0,0,1-4.41,4.09c-7.36,4.3-19.3,4.3-26.66,0A12.32,12.32,0,0,1,32,355.69,12.23,12.23,0,0,1,36.43,351.6Z" style="fill:#f5f5f5"></path></g><g id="freepik--plants--inject-393"><path d="M55.58,283.8,45.27,297.3l11-8.92a35.59,35.59,0,0,1,.83,12.37,79.08,79.08,0,0,0-8,9.35l8.61-6.2S60,310,59.83,320.32c0,2.7-1.66,8.22-2.54,12.27a43.66,43.66,0,0,1-1.57,5.5,3.38,3.38,0,0,1-.11.34q-3.77-1-7.75-1.91c-2.35-2.85-6.38-10.33-8.76-16.68-9.1-24.35,6.2-43.5,20.2-52.17A46.82,46.82,0,0,0,55.58,283.8Z" style="fill:#e0e0e0"></path><path d="M45.06,287.58c-2,3.32-2.62,7.2-2.92,11A52.55,52.55,0,0,0,42.59,310a48.57,48.57,0,0,0,8.24,21h0a.37.37,0,1,1-.61.43h0a49,49,0,0,1-8-21.44A53.11,53.11,0,0,1,42,298.55C42.31,294.75,43,290.87,45.06,287.58Z" style="fill:#fff"></path><path d="M5,299.64l0,0a210.63,210.63,0,0,1,13.56,21.59l14.19,3.13-10.67,1.24,5.15,9.31,13.94,3.74-11.12,1.15s2.44,10.92,10.06,15.86c4.21,2.72,6.09,2.89,7.69,2.06,2-1,3-4.05,4.06-8.61s0-13.94-3.85-23.22A28.71,28.71,0,0,0,43.91,319C34.15,306.8,14.77,300.06,5,299.64Z" style="fill:#e6e6e6"></path><path d="M19.73,305.19a58.58,58.58,0,0,1,19.14,14.92,39.4,39.4,0,0,1,6.23,10.53,37,37,0,0,1,2.44,11.95s0,0,0,.05a0,0,0,0,1,0,0,47.76,47.76,0,0,0-3.09-11.66,44.37,44.37,0,0,0-6-10.43,59.62,59.62,0,0,0-18.68-15.24s0,0,0-.06S19.71,305.19,19.73,305.19Z" style="fill:#fff"></path><path d="M92.77,294.12h0a34.91,34.91,0,0,0-4.21.69,67.82,67.82,0,0,0-15.71,5.85c-1.85.94-3.69,2-5.49,3.12-.9.57-1.79,1.16-2.66,1.78a47.18,47.18,0,0,0-11.29,10.83,29.91,29.91,0,0,0-3.57,6.5c-.11.3-.24.59-.35.9h0c-.27.78-.51,1.55-.73,2.3a40.63,40.63,0,0,0-1.31,20.34c.75,4.8,3,10.13,4.08,10.92a2.35,2.35,0,0,0,.46.26c1.48.72,3.61-.05,7.43-2.82,7.65-5.55,9.5-17.54,9.5-17.54l-11.62-.59L71.58,332l4.84-10-11.16-.7,14.58-4a221.34,221.34,0,0,1,12.91-23.18l0,0Z" style="fill:#f0f0f0"></path><path d="M88.56,294.81a67.82,67.82,0,0,0-15.71,5.85c-1.85.94-3.69,2-5.49,3.12-.9.57-1.79,1.16-2.66,1.78a47.18,47.18,0,0,0-11.29,10.83,29.91,29.91,0,0,0-3.57,6.5c-.11.3-.24.59-.35.9h0c-.27.78-.51,1.55-.73,2.3a40.63,40.63,0,0,0-1.31,20.34c.75,4.8,3,10.13,4.08,10.92a2.35,2.35,0,0,0,.46.26,2.41,2.41,0,0,0,.94.23c-1.89-7.36-.45-26.76,4.2-35.22,4.84-8.8,17.2-22.19,35.62-28.48l0,0A34.36,34.36,0,0,0,88.56,294.81Z" style="fill:#e6e6e6"></path><path d="M52.89,357.85A64.21,64.21,0,0,1,52,341.18a53.84,53.84,0,0,1,3.63-16.34,46.89,46.89,0,0,1,9.65-13.71,62.38,62.38,0,0,1,13.24-10.22s0,0,.07,0,0,0,0,.06A81.92,81.92,0,0,0,66,311.78a60.77,60.77,0,0,0-5.36,6.31,37.11,37.11,0,0,0-4.27,7.05,53.33,53.33,0,0,0-3.85,16.08,64.18,64.18,0,0,0,.5,16.61.05.05,0,0,1,0,.06A0,0,0,0,1,52.89,357.85Z" style="fill:#fff"></path></g></g></g></g><g id="freepik--Machine--inject-393"><path d="M271,375.59q1.53-4.3,9-5.18l106.91,61.66v10.37Z" style="fill:#455a64"></path><path d="M467.76,395.77q-1.51-4.32-9-5.19l-71.87,41.49v10.37Z" style="fill:#37474f"></path><polygon points="386.91 432.07 386.91 359.97 413.86 328.85 458.78 302.92 458.78 390.58 386.91 432.07" style="fill:#0FBCF9"></polygon><polygon points="386.91 432.07 386.91 359.97 413.86 328.85 458.78 302.92 458.78 390.58 386.91 432.07" style="fill:#fff;opacity:0.45"></polygon><polygon points="386.91 432.07 280 370.41 280 298.31 386.91 359.97 386.91 432.07" style="fill:#0FBCF9"></polygon><polygon points="386.91 432.07 280 370.41 280 298.31 386.91 359.97 386.91 432.07" style="fill:#fff;opacity:0.65"></polygon><polygon points="280 298.31 306.95 267.19 351.87 241.25 458.78 302.92 413.86 328.85 386.91 359.97 280 298.31" style="fill:#0FBCF9"></polygon><polygon points="280 298.31 306.95 267.19 351.87 241.25 458.78 302.92 413.86 328.85 386.91 359.97 280 298.31" style="fill:#fff;opacity:0.75"></polygon><polygon points="306.95 267.19 413.86 328.85 458.78 302.92 351.87 241.25 306.95 267.19" style="fill:#fff;opacity:0.25"></polygon><path d="M296.21,350.32l10.57,6.07a6.62,6.62,0,0,1,3,5.19v6.07c0,1.91-1.34,2.68-3,1.73l-10.57-6.08a6.61,6.61,0,0,1-3-5.19v-6.06C293.21,350.14,294.55,349.36,296.21,350.32Z" style="fill:#455a64"></path><path d="M299.06,357.16l1.37-.8h0a1.83,1.83,0,0,1,1.83.18,5.78,5.78,0,0,1,2.6,4.52,1.82,1.82,0,0,1-.76,1.68h0l-1.28.74-.23-.39a2.51,2.51,0,0,1-.75-.29,5.75,5.75,0,0,1-2.6-4.51,2.73,2.73,0,0,1,.08-.67Z" style="fill:#0FBCF9"></path><path d="M299.06,357.16l1.37-.8h0a1.83,1.83,0,0,1,1.83.18,5.78,5.78,0,0,1,2.6,4.52,1.82,1.82,0,0,1-.76,1.68h0l-1.28.74-.23-.39a2.51,2.51,0,0,1-.75-.29,5.75,5.75,0,0,1-2.6-4.51,2.73,2.73,0,0,1,.08-.67Z" style="opacity:0.2"></path><path d="M301,357.3a5.81,5.81,0,0,1,2.6,4.52c0,1.66-1.17,2.33-2.6,1.5a5.76,5.76,0,0,1-2.61-4.51C298.35,357.15,299.52,356.47,301,357.3Z" style="fill:#0FBCF9"></path><path d="M301,357.3a5.81,5.81,0,0,1,2.6,4.52c0,1.66-1.17,2.33-2.6,1.5a5.76,5.76,0,0,1-2.61-4.51C298.35,357.15,299.52,356.47,301,357.3Z" style="fill:#fff;opacity:0.25"></path><path d="M296.21,324.53l10.57,6.08a6.61,6.61,0,0,1,3,5.19v6.06c0,1.91-1.34,2.69-3,1.73l-10.57-6.07a6.62,6.62,0,0,1-3-5.19v-6.07C293.21,324.35,294.55,323.58,296.21,324.53Z" style="fill:#455a64"></path><path d="M299.06,331.37l1.37-.79h0a1.86,1.86,0,0,1,1.83.19,5.75,5.75,0,0,1,2.6,4.51,1.84,1.84,0,0,1-.76,1.69h0l-1.28.73-.23-.38a2.82,2.82,0,0,1-.75-.29,5.76,5.76,0,0,1-2.6-4.52,2.71,2.71,0,0,1,.08-.66Z" style="fill:#0FBCF9"></path><path d="M299.06,331.37l1.37-.79h0a1.86,1.86,0,0,1,1.83.19,5.75,5.75,0,0,1,2.6,4.51,1.84,1.84,0,0,1-.76,1.69h0l-1.28.73-.23-.38a2.82,2.82,0,0,1-.75-.29,5.76,5.76,0,0,1-2.6-4.52,2.71,2.71,0,0,1,.08-.66Z" style="opacity:0.2"></path><path d="M301,331.52a5.77,5.77,0,0,1,2.6,4.51c0,1.66-1.17,2.34-2.6,1.51a5.76,5.76,0,0,1-2.61-4.52C298.35,331.36,299.52,330.69,301,331.52Z" style="fill:#0FBCF9"></path><path d="M301,331.52a5.77,5.77,0,0,1,2.6,4.51c0,1.66-1.17,2.34-2.6,1.51a5.76,5.76,0,0,1-2.61-4.52C298.35,331.36,299.52,330.69,301,331.52Z" style="fill:#fff;opacity:0.25"></path><path d="M318.27,334.9l51.27,29.58a3.65,3.65,0,0,1,1.66,2.87v14.16c0,1.06-.74,1.49-1.66,1L318.27,352.9a3.7,3.7,0,0,1-1.66-2.88V335.86C316.61,334.8,317.35,334.37,318.27,334.9Z" style="fill:#455a64"></path><path d="M319.73,341.14a3.56,3.56,0,0,0,1.66,2.76l45,26c.92.53,1.66.16,1.66-.84a3.55,3.55,0,0,0-1.66-2.75l-45-26C320.47,339.77,319.73,340.15,319.73,341.14Z" style="fill:#0FBCF9"></path><path d="M319.73,341.14a3.56,3.56,0,0,0,1.66,2.76l45,26c.92.53,1.66.16,1.66-.84a3.55,3.55,0,0,0-1.66-2.75l-45-26C320.47,339.77,319.73,340.15,319.73,341.14Z" style="fill:#fff;opacity:0.45"></path><path d="M366.43,377.07c.91.54,1.66.16,1.66-.84a3.59,3.59,0,0,0-1.66-2.76l-20.16-11.62v3.58Z" style="fill:#0FBCF9"></path><path d="M319.73,348.34a3.56,3.56,0,0,0,1.66,2.76l24.88,14.33v-3.59L321.39,347.5C320.47,347,319.73,347.34,319.73,348.34Z" style="fill:#263238"></path><path d="M318.27,360.77l51.27,29.57a3.67,3.67,0,0,1,1.66,2.88v14.15c0,1.06-.74,1.49-1.66,1l-51.27-29.57a3.7,3.7,0,0,1-1.66-2.88V361.73C316.61,360.67,317.35,360.24,318.27,360.77Z" style="fill:#455a64"></path><path d="M319.73,367a3.55,3.55,0,0,0,1.66,2.76l45,26c.92.53,1.66.15,1.66-.84a3.55,3.55,0,0,0-1.66-2.76l-45-26C320.47,365.63,319.73,366,319.73,367Z" style="fill:#0FBCF9"></path><path d="M319.73,367a3.55,3.55,0,0,0,1.66,2.76l45,26c.92.53,1.66.15,1.66-.84a3.55,3.55,0,0,0-1.66-2.76l-45-26C320.47,365.63,319.73,366,319.73,367Z" style="fill:#fff;opacity:0.45"></path><path d="M366.43,402.94c.91.53,1.66.15,1.66-.84a3.59,3.59,0,0,0-1.66-2.77l-13.92-8v3.59Z" style="fill:#0FBCF9"></path><path d="M319.73,374.2a3.55,3.55,0,0,0,1.66,2.76l31.12,17.94v-3.59l-31.12-17.95C320.47,372.83,319.73,373.2,319.73,374.2Z" style="fill:#263238"></path><path d="M451.29,334a1.33,1.33,0,0,0-1.34.13l-53.24,30.74a4.21,4.21,0,0,0-1.9,3.29v45a1.33,1.33,0,0,0,.56,1.22l1.69,1a1.29,1.29,0,0,0,1.33-.13l53.24-30.73a4.21,4.21,0,0,0,1.9-3.29v-45A1.32,1.32,0,0,0,453,335C452.68,334.77,451.58,334.15,451.29,334Z" style="fill:#0FBCF9"></path><path d="M398.39,365.81l53.24-30.74c1.05-.61,1.9-.11,1.9,1.1v45a4.21,4.21,0,0,1-1.9,3.29L398.39,415.2c-1.05.61-1.9.12-1.9-1.09v-45A4.19,4.19,0,0,1,398.39,365.81Z" style="fill:#0FBCF9"></path><path d="M398.39,365.81l53.24-30.74c1.05-.61,1.9-.11,1.9,1.1v45a4.21,4.21,0,0,1-1.9,3.29L398.39,415.2c-1.05.61-1.9.12-1.9-1.09v-45A4.19,4.19,0,0,1,398.39,365.81Z" style="fill:#fff;opacity:0.15"></path><path d="M397,415.3a.59.59,0,0,0,.29.13.92.92,0,0,1-.23-.09Z" style="fill:#0FBCF9"></path><path d="M397.67,415.46l.28-.06Z" style="fill:#0FBCF9"></path><path d="M397.41,415.45h0Z" style="fill:#0FBCF9"></path><path d="M396.49,414.11a1.51,1.51,0,0,0,.42,1.14l-1.55-.89a1.31,1.31,0,0,1-.55-1.22v-45a3.82,3.82,0,0,1,.56-1.87l1.67,1a4,4,0,0,0-.55,1.88Z" style="opacity:0.5"></path><path d="M434.21,356.16c-3.15-1.82-7.2-1.48-11.42.95-8.15,4.71-14.54,15.77-14.54,25.18,0,4.87,1.74,8.55,4.88,10.37a8.74,8.74,0,0,0,4.43,1.15,14.19,14.19,0,0,0,7-2.11c8.15-4.71,14.53-15.77,14.53-25.18C439.08,361.65,437.35,358,434.21,356.16Zm1.36,10.36a23.69,23.69,0,0,1-1.87,8.73,17.1,17.1,0,0,1-8.67-1.2,52.07,52.07,0,0,1,9.4-12.76A10.83,10.83,0,0,1,435.57,366.52Zm-5.81-8a5.25,5.25,0,0,1,2.69.68,3.69,3.69,0,0,1,.62.44,56.13,56.13,0,0,0-8.84,11.41,35,35,0,0,1,.19-10.82l.13-.08A10.72,10.72,0,0,1,429.76,358.52ZM422,361.91a40.33,40.33,0,0,0,.38,11.29,16.79,16.79,0,0,1-7-3.29A28.4,28.4,0,0,1,422,361.91Zm-7.61,9.91a19.56,19.56,0,0,0,7,3.35,62.94,62.94,0,0,0-8.92,11.38,12,12,0,0,1-.7-4.26A25,25,0,0,1,414.4,371.82Zm.49,17.8a5.15,5.15,0,0,1-1.2-1,63.11,63.11,0,0,1,8.44-11.18,36.84,36.84,0,0,0,.18,11.46C419.42,390.46,416.8,390.72,414.89,389.62Zm9.37-1.91a37.47,37.47,0,0,1,.2-11.57,18.47,18.47,0,0,0,7.22,1.37q.52,0,1,0A28.16,28.16,0,0,1,424.26,387.71Z" style="fill:#0FBCF9;opacity:0.5"></path><path d="M426.35,376.93c-3.29,0-8.28-2.33-10.9-5.09l1.54-1.47c2.48,2.61,6.92,4.43,9.36,4.43Z" style="fill:#37474f"></path><path d="M415.62,391.36l-1.85-1.06a64.4,64.4,0,0,1,11.85-15.21l1.46,1.55A62.09,62.09,0,0,0,415.62,391.36Z" style="fill:#37474f"></path><path d="M425.32,391.9c-1.16-4.65-1.17-10,0-16.23l2.09.39c-1.09,6-1.1,11,0,15.32Z" style="fill:#37474f"></path><path d="M434.36,379c-3.23,0-7.05-.81-8.72-2.31l1.42-1.58c1.68,1.52,8.17,2.33,10.52,1.32l.84,2A10.93,10.93,0,0,1,434.36,379Z" style="fill:#37474f"></path><path d="M427.31,376.31l-1.93-.89a52.68,52.68,0,0,1,11.8-15.62l1.37,1.63A50.32,50.32,0,0,0,427.31,376.31Z" style="fill:#37474f"></path><path d="M425.3,376.06a38.39,38.39,0,0,1,0-16.22l2.06.5a36.37,36.37,0,0,0,0,15.33Z" style="fill:#37474f"></path><path d="M420.24,395.27a8.74,8.74,0,0,1-4.43-1.15c-3.14-1.82-4.88-5.5-4.88-10.37,0-9.41,6.39-20.47,14.54-25.18,4.22-2.43,8.27-2.77,11.42-.95s4.87,5.49,4.87,10.36c0,9.41-6.38,20.47-14.53,25.18A14.19,14.19,0,0,1,420.24,395.27ZM432.44,360a10.75,10.75,0,0,0-5.21,1.63c-7.05,4.07-12.79,14-12.79,22.14,0,3.56,1.11,6.16,3.13,7.33s4.82.82,7.9-1h0c7-4.07,12.78-14,12.78-22.14,0-3.56-1.1-6.16-3.12-7.32A5.25,5.25,0,0,0,432.44,360Z" style="fill:#455a64"></path><path d="M432.13,374.61l-4-2.31h0a1.86,1.86,0,0,0-1.83.19,5.75,5.75,0,0,0-2.6,4.51,1.82,1.82,0,0,0,.76,1.68h0l3.93,2.25.23-.38a2.5,2.5,0,0,0,.74-.3,5.74,5.74,0,0,0,2.61-4.5,3.33,3.33,0,0,0-.08-.67Z" style="fill:#263238"></path><path d="M430.24,374.76a5.75,5.75,0,0,0-2.6,4.51c0,1.66,1.16,2.34,2.6,1.51a5.76,5.76,0,0,0,2.6-4.51C432.84,374.61,431.68,373.93,430.24,374.76Z" style="fill:#455a64"></path><g id="freepik--Keyboard--inject-393"><path d="M377.71,344.85l16.66-19.1a1.28,1.28,0,0,0-.5-2l-76.09-44a2,2,0,0,0-2.48.28L298.65,299.2a1.28,1.28,0,0,0,.5,2l76.08,43.93A2.06,2.06,0,0,0,377.71,344.85Z" style="fill:#263238"></path></g><path d="M377.71,344.85l16.57-19h0l-76.1-44a2.06,2.06,0,0,0-2.48.28L299.14,301.2h0l76.08,43.93A2.06,2.06,0,0,0,377.71,344.85Z" style="fill:#455a64"></path><path d="M331.45,305.24l-.15-.67a1.08,1.08,0,0,0-.56-.68l-2.57-1.48c-.41-.24-.48-.52-.19-.84l1.7-1.89a.76.76,0,0,1,1.06-.11l2.1,1.21c.41.24.48.52.2.84l-.85.94c-.29.31-.22.59.19.83l.18.1a.76.76,0,0,0,1.05-.11l1.16-1.29a.78.78,0,0,0,.21-.76l-.15-.67a1,1,0,0,0-.55-.69l-3-1.76a1.59,1.59,0,0,0-1-.2l-.84.09a1.28,1.28,0,0,0-.85.41l-2.33,2.58a.8.8,0,0,0-.21.77l.16.67a1.07,1.07,0,0,0,.56.69l2.56,1.47c.42.24.48.52.2.84L328,307.24a.77.77,0,0,1-1.06.12l-2.1-1.22c-.41-.24-.48-.52-.19-.83l.74-.82c.28-.32.22-.6-.2-.84l-.17-.1a.78.78,0,0,0-1.06.11l-1.05,1.17a.78.78,0,0,0-.21.76l.16.69a1.07,1.07,0,0,0,.55.68l3,1.75a1.59,1.59,0,0,0,1,.21l.84-.1a1.28,1.28,0,0,0,.85-.41l2.17-2.4A.8.8,0,0,0,331.45,305.24Zm-14.3-5.92c.28-.32.46-.46.53-.42a1.33,1.33,0,0,0,.64,0l.85-.09a1.68,1.68,0,0,0,.49-.12,1.14,1.14,0,0,0,.36-.27l2.69-3a.81.81,0,0,0,.22-.76l-.17-.69a1.08,1.08,0,0,0-.55-.69l-4-2.28a.76.76,0,0,0-1.06.11l-6.83,7.58c-.3.32-.23.61.18.85l.18.1a.76.76,0,0,0,1.06-.13l2-2.18a.77.77,0,0,1,1.05-.11l.72.42c.42.24.49.52.2.83L314.41,300a.78.78,0,0,0-.21.76l.16.69a1.06,1.06,0,0,0,.56.68l.56.33a.77.77,0,0,0,1.06-.12l.11-.13c.29-.32.22-.59-.19-.84l-.11-.06c-.42-.24-.49-.52-.2-.84Zm-1.38-3.15c-.42-.24-.49-.52-.2-.84l2.07-2.29a.77.77,0,0,1,1.06-.12l2.08,1.2c.42.25.48.52.2.84l-2.07,2.3a.77.77,0,0,1-1.06.11Zm5.34,7.84a.56.56,0,0,1-.31-.36.56.56,0,0,1,.17-.44l4.91-5.44a.78.78,0,0,1,.47-.27.8.8,0,0,1,.53.11.71.71,0,0,0,1-.15l.11-.13c.3-.32.24-.61-.18-.85l-2.38-1.37a.78.78,0,0,0-1.07.12l-.12.13a.56.56,0,0,0-.17.43.52.52,0,0,0,.3.35.51.51,0,0,1,.29.37.54.54,0,0,1-.18.44l-4.9,5.44a.82.82,0,0,1-.46.27.78.78,0,0,1-.52-.12.77.77,0,0,0-.52-.1.75.75,0,0,0-.46.26l-.12.13c-.28.32-.22.6.2.84l2.38,1.38a.77.77,0,0,0,1.06-.12l.12-.13a.54.54,0,0,0,.17-.43A.52.52,0,0,0,321.11,304Zm15.22,4.57a.45.45,0,0,1,.06-.49.73.73,0,0,1,.5-.21l4.47-.52a1.3,1.3,0,0,0,.85-.41l.84-.93c.28-.32.22-.6-.2-.84l-.17-.1a.77.77,0,0,0-1.06.12l-.44.49a1.35,1.35,0,0,1-.85.41l-3.85.44a1,1,0,0,1-.58-.07.26.26,0,0,1-.15-.26.56.56,0,0,1,.18-.35l2.34-2.6c.28-.31.22-.59-.2-.84l-.17-.09a.76.76,0,0,0-1.06.11L330,310.05c-.29.32-.22.6.19.84l.18.1a.77.77,0,0,0,1-.11l2.17-2.41a.84.84,0,0,1,.37-.24.48.48,0,0,1,.37.06.51.51,0,0,1,.27.35l1,2.68a.64.64,0,0,1,.05.42.94.94,0,0,1-.21.37l-.64.7c-.28.32-.21.6.2.84l.18.1a.76.76,0,0,0,1.05-.12l1.11-1.22a.94.94,0,0,0,.21-.37.72.72,0,0,0-.05-.42Zm10.19,10.1-3.51-2c-.42-.24-.48-.51-.2-.83l5.88-6.52c.3-.33.23-.61-.19-.85l-.17-.1a.76.76,0,0,0-1.06.13l-6.2,6.86a.83.83,0,0,0-.21.76l.16.67a1.06,1.06,0,0,0,.54.7l4,2.29a.77.77,0,0,0,1.06-.11l.12-.13C347,319.2,346.94,318.92,346.52,318.68Zm5.52-.31a.75.75,0,0,1,1-.09l3.52,2a.78.78,0,0,0,1.08-.14l.12-.13c.27-.3.2-.57-.22-.81l-3.52-2c-.42-.24-.48-.53-.18-.86l1.44-1.59a.76.76,0,0,1,1.05-.12l3.53,2a.76.76,0,0,0,1.05-.12l.12-.13c.29-.31.22-.59-.2-.83l-4.93-2.85a.76.76,0,0,0-1.06.11l-6.18,6.85a.85.85,0,0,0-.21.77l.16.67a1,1,0,0,0,.52.71l4,2.3a.78.78,0,0,0,1.08-.14l.12-.13c.27-.3.19-.57-.22-.81l-3.53-2c-.42-.24-.47-.53-.17-.86Zm26.82,8.35c.3-.33.24-.61-.18-.85l-.18-.1a.76.76,0,0,0-1.06.13l-6.19,6.86a.78.78,0,0,0-.21.76l.15.67a1,1,0,0,0,.55.7l4,2.29a.76.76,0,0,0,1-.11l.12-.13c.29-.32.22-.6-.2-.84l-3.51-2c-.41-.24-.48-.51-.19-.83Zm-9.77,5-3.52-2c-.42-.24-.48-.53-.18-.86L367,327a.76.76,0,0,1,1-.09l3.52,2a.79.79,0,0,0,1.08-.14l.12-.13c.27-.3.2-.57-.22-.82l-3.53-2c-.42-.24-.47-.53-.17-.86l1.43-1.6a.78.78,0,0,1,1.06-.11l3.53,2a.75.75,0,0,0,1.05-.11l.12-.13c.28-.32.22-.6-.2-.84l-4.93-2.85a.77.77,0,0,0-1.06.12l-6.18,6.85a.78.78,0,0,0-.21.76l.16.67a1,1,0,0,0,.52.72l4,2.3a.79.79,0,0,0,1.08-.14l.11-.13C369.58,332.23,369.51,332,369.09,331.71Zm.05-10.75q.36-.39-.21-.72l-.18-.11a1,1,0,0,0-1.08,0l-8,5.48c-.34.22-.53.32-.6.28s0-.21.16-.54l3.93-7.82c.18-.34.08-.61-.3-.83l-.17-.1a.94.94,0,0,0-.52-.13.56.56,0,0,0-.4.18.61.61,0,0,0-.11.17l-4.44,9c-.16.33-.05.6.31.81l1.15.66a.92.92,0,0,0,1.06,0L369,321.1A.61.61,0,0,0,369.14,321Z" style="fill:#fafafa"></path></g><g id="freepik--Levels--inject-393"><g id="freepik--box--inject-393"><g id="freepik--box--inject-393"><path d="M476.5,333.9a7.09,7.09,0,0,1-3.21,5.56L470.68,341a7.18,7.18,0,0,1-5.87.26c1.51.58,2.66-.29,2.66-2.12V128.62a6.58,6.58,0,0,0-.94-3.16l9-5.21a6.58,6.58,0,0,1,.94,3.16Z" style="fill:#0FBCF9"></path><g style="opacity:0.30000000000000004"><path d="M476.5,333.9a7.09,7.09,0,0,1-3.21,5.56L470.68,341a7.18,7.18,0,0,1-5.87.26c1.51.58,2.66-.29,2.66-2.12V128.62a6.58,6.58,0,0,0-.94-3.16l9-5.21a6.58,6.58,0,0,1,.94,3.16Z" style="fill:#fff"></path></g><path d="M464.72,340.34a2.35,2.35,0,0,0,.42.21h0l.12,0a1.49,1.49,0,0,0,.48.09c.75,0,.86-.87.86-1.39V128.78a5.66,5.66,0,0,0-.82-2.7,5.54,5.54,0,0,0-1.93-2.07L283.55,19.89a2,2,0,0,0-1-.32c-.16,0-.58,0-.77.71a3,3,0,0,0-.08.67V231.44c0,2,0,3.17,2.45,4.55Z" style="fill:#fafafa"></path><path d="M282.68,20.33a1.71,1.71,0,0,1,.43.18L463.37,124.64a4.58,4.58,0,0,1,1.58,1.7,4.94,4.94,0,0,1,.71,2.28V339.11a1.7,1.7,0,0,1-.05.47l-.09,0-.06,0h0a1.92,1.92,0,0,1-.25-.12L284.63,235.05c-2-1.13-2-1.9-2-3.77V20.79a2.58,2.58,0,0,1,.05-.46m-.11-1.83a1.67,1.67,0,0,0-1.65,1.38,4.18,4.18,0,0,0-.11.91V231.28c0,2.05,0,3.71,2.91,5.34L464.26,341a4.3,4.3,0,0,0,.57.28.35.35,0,0,0,.11,0,2.47,2.47,0,0,0,.77.14c1.05,0,1.77-.84,1.77-2.3V128.62a6.55,6.55,0,0,0-.94-3.16,6.48,6.48,0,0,0-2.26-2.4L284,18.94a2.93,2.93,0,0,0-1.44-.44Z" style="fill:#0FBCF9"></path><path d="M280.91,19.88c.38-1.37,1.62-1.8,3.1-.95L464.27,123.06a6.25,6.25,0,0,1,2.26,2.4l9-5.21a6.45,6.45,0,0,0-2.26-2.39L293.05,13.73a7.12,7.12,0,0,0-6.42,0L284,15.24A7.1,7.1,0,0,0,280.91,19.88Z" style="fill:#0FBCF9"></path><g style="opacity:0.6000000000000001"><path d="M280.91,19.88c.38-1.37,1.62-1.8,3.1-.95L464.27,123.06a6.25,6.25,0,0,1,2.26,2.4l9-5.21a6.45,6.45,0,0,0-2.26-2.39L293.05,13.73a7.12,7.12,0,0,0-6.42,0L284,15.24A7.1,7.1,0,0,0,280.91,19.88Z" style="fill:#fff"></path></g></g></g><g id="freepik--check-mark--inject-393"><path d="M289.71,182a119.44,119.44,0,0,0,4,25l19.77,3.09,14.75-9.46h0a85.93,85.93,0,0,1-2.69-17.17,56.74,56.74,0,0,1,1.26-15.12l-20.43-17.79h0L291.62,160A78.23,78.23,0,0,0,289.71,182Z" style="fill:#0FBCF9"></path><path d="M289.71,182a119.44,119.44,0,0,0,4,25l19.77,3.09,14.75-9.46h0a85.93,85.93,0,0,1-2.69-17.17,56.74,56.74,0,0,1,1.26-15.12l-20.43-17.79h0L291.62,160A78.23,78.23,0,0,0,289.71,182Z" style="fill:#fff;opacity:0.5"></path><polygon points="291.58 160.07 312 177.86 326.8 168.36 306.37 150.57 291.58 160.07" style="fill:#0FBCF9"></polygon><polygon points="291.58 160.07 312 177.86 326.8 168.36 306.37 150.57 291.58 160.07" style="fill:#fff;opacity:0.25"></polygon><path d="M310.75,193a85.22,85.22,0,0,0,2.69,17.17l-19.77-3.09a119.44,119.44,0,0,1-4-25,78.15,78.15,0,0,1,1.91-22L312,177.86A56.76,56.76,0,0,0,310.75,193Z" style="fill:#0FBCF9"></path><path d="M310.75,193a85.22,85.22,0,0,0,2.69,17.17l-19.77-3.09a119.44,119.44,0,0,1-4-25,78.15,78.15,0,0,1,1.91-22L312,177.86A56.76,56.76,0,0,0,310.75,193Z" style="fill:#fff;opacity:0.75"></path><path d="M309.07,133.4l14.77-9.47-.45.3a36.11,36.11,0,0,1,7.19-3.68l13.26,25.66c-7.22,2.91-12.67,8.88-15.7,17.39l-14.76,9.46-20.46-17.82C296.2,145.48,301.77,138.09,309.07,133.4Z" style="fill:#0FBCF9"></path><path d="M309.07,133.4l14.77-9.47-.45.3a36.11,36.11,0,0,1,7.19-3.68l13.26,25.66c-7.22,2.91-12.67,8.88-15.7,17.39l-14.76,9.46-20.46-17.82C296.2,145.48,301.77,138.09,309.07,133.4Z" style="fill:#fff;opacity:0.30000000000000004"></path><path d="M313.38,173.06l-20.46-17.82c4.23-12.58,12.26-21.23,22.9-25.23l13.26,25.67C321.86,158.58,316.41,164.55,313.38,173.06Z" style="fill:#0FBCF9"></path><path d="M313.38,173.06l-20.46-17.82c4.23-12.58,12.26-21.23,22.9-25.23l13.26,25.67C321.86,158.58,316.41,164.55,313.38,173.06Z" style="fill:#fff;opacity:0.5"></path><polygon points="329.08 155.67 315.82 130.01 330.58 120.55 343.84 146.21 329.08 155.67" style="fill:#0FBCF9"></polygon><polygon points="329.08 155.67 315.82 130.01 330.58 120.55 343.84 146.21 329.08 155.67" style="fill:#fff;opacity:0.15"></polygon><path d="M420.08,249.77a85.45,85.45,0,0,0-2.7-17.18l19.79,3.09a119,119,0,0,1,4,25,78.28,78.28,0,0,1-1.9,22l-20.44-17.8A56.78,56.78,0,0,0,420.08,249.77Z" style="fill:#0FBCF9"></path><path d="M420.08,249.77a85.45,85.45,0,0,0-2.7-17.18l19.79,3.09a119,119,0,0,1,4,25,78.28,78.28,0,0,1-1.9,22l-20.44-17.8A56.78,56.78,0,0,0,420.08,249.77Z" style="opacity:0.4"></path><polygon points="432.15 223.13 451.93 226.22 437.17 235.68 417.38 232.59 432.15 223.13" style="fill:#0FBCF9"></polygon><polygon points="432.15 223.13 451.93 226.22 437.17 235.68 417.38 232.59 432.15 223.13" style="opacity:0.30000000000000004"></polygon><path d="M437.17,235.68l14.76-9.46a118.88,118.88,0,0,1,4,25,78.26,78.26,0,0,1-1.91,22l-14.76,9.46a78.28,78.28,0,0,0,1.9-22A119,119,0,0,0,437.17,235.68Z" style="fill:#0FBCF9"></path><path d="M437.17,235.68l14.76-9.46a118.88,118.88,0,0,1,4,25,78.26,78.26,0,0,1-1.91,22l-14.76,9.46a78.28,78.28,0,0,0,1.9-22A119,119,0,0,0,437.17,235.68Z" style="opacity:0.5"></path><path d="M333.2,154.4l-13.3-25.74c11.46-2.83,25.07-.56,39.09,6.17L360,158.59C350.43,154.11,341.14,152.62,333.2,154.4Z" style="fill:#0FBCF9"></path><path d="M333.2,154.4l-13.3-25.74c11.46-2.83,25.07-.56,39.09,6.17L360,158.59C350.43,154.11,341.14,152.62,333.2,154.4Z" style="fill:#fff;opacity:0.30000000000000004"></path><polygon points="373.75 125.37 374.81 149.12 360.04 158.59 358.99 134.83 373.75 125.37" style="fill:#0FBCF9"></polygon><polygon points="373.75 125.37 374.81 149.12 360.04 158.59 358.99 134.83 373.75 125.37" style="opacity:0.15"></polygon><path d="M359,134.83c-14-6.73-27.63-9-39.09-6.17l14.76-9.46c11.47-2.83,25.07-.56,39.09,6.17Z" style="fill:#0FBCF9"></path><path d="M365.32,161.34l-1.06-23.81c14.69,8.19,28.56,20.54,40.36,35.17l-11.56,12.79C384.88,175.52,375.38,167.1,365.32,161.34Z" style="fill:#0FBCF9"></path><path d="M365.32,161.34l-1.06-23.81c14.69,8.19,28.56,20.54,40.36,35.17l-11.56,12.79C384.88,175.52,375.38,167.1,365.32,161.34Z" style="fill:#0FBCF9"></path><path d="M379,128.07c14.7,8.19,28.56,20.54,40.37,35.17l-14.77,9.46c-11.8-14.63-25.67-27-40.36-35.17Z" style="fill:#0FBCF9"></path><path d="M379,128.07c14.7,8.19,28.56,20.54,40.37,35.17l-14.77,9.46c-11.8-14.63-25.67-27-40.36-35.17Z" style="opacity:0.15"></path><polygon points="404.62 172.7 419.39 163.24 407.82 176.03 393.06 185.49 404.62 172.7" style="fill:#0FBCF9"></polygon><polygon points="404.62 172.7 419.39 163.24 407.82 176.03 393.06 185.49 404.62 172.7" style="opacity:0.25"></polygon><path d="M397.48,191.19,409,178.42a175,175,0,0,1,26.27,50.77l-19.8-3.09A126.54,126.54,0,0,0,397.48,191.19Z" style="fill:#0FBCF9"></path><path d="M397.48,191.19,409,178.42a175,175,0,0,1,26.27,50.77l-19.8-3.09A126.54,126.54,0,0,0,397.48,191.19Z" style="opacity:0.2"></path><path d="M435.3,229.19A175,175,0,0,0,409,178.42L423.79,169a175.32,175.32,0,0,1,26.28,50.77Z" style="fill:#0FBCF9"></path><path d="M435.3,229.19A175,175,0,0,0,409,178.42L423.79,169a175.32,175.32,0,0,1,26.28,50.77Z" style="opacity:0.35000000000000003"></path></g><path d="M378.17,238.91c2.17-1.25,3.52-3.95,3.52-7.78,0-7.68-5.39-17-12-20.84-3.32-1.92-6.33-2.1-8.51-.84l-10.8,6.28c-2.18,1.25-3.53,4-3.53,7.78,0,7.68,5.39,17,12,20.84,3.33,1.92,6.33,2.1,8.51.84Z" style="fill:#37474f"></path><path d="M346.82,223.51c0-3.83,1.35-6.53,3.53-7.78s5.18-1.08,8.5.84c6.65,3.83,12,13.16,12,20.84,0,3.83-1.34,6.53-3.52,7.78s-5.18,1.08-8.51-.84C352.21,240.52,346.82,231.19,346.82,223.51Z" style="fill:#455a64"></path><path d="M305.09,234.07a.79.79,0,0,1,.28.35,1.19,1.19,0,0,1,.12.51v2.46a.48.48,0,0,1-.12.37.2.2,0,0,1-.28,0l-7-4a.8.8,0,0,1-.29-.35,1.23,1.23,0,0,1-.12-.52v-15a.48.48,0,0,1,.12-.37.23.23,0,0,1,.29,0l2,1.14a.84.84,0,0,1,.29.36,1.19,1.19,0,0,1,.12.51v11.9Z" style="fill:#37474f"></path><path d="M306.29,228.3a7.77,7.77,0,0,1,.37-2.24,3.17,3.17,0,0,1,.92-1.46,2.16,2.16,0,0,1,1.45-.51,3.91,3.91,0,0,1,2,.63,7.64,7.64,0,0,1,2,1.63,10.85,10.85,0,0,1,1.46,2.19,12.4,12.4,0,0,1,.92,2.52,14.43,14.43,0,0,1,.37,2.66c0,.68,0,1.38,0,2.11s0,1.4,0,2a8.52,8.52,0,0,1-.37,2.24,3.44,3.44,0,0,1-.92,1.48,2.13,2.13,0,0,1-1.46.5,4.11,4.11,0,0,1-2-.64,7.64,7.64,0,0,1-2-1.62,10.28,10.28,0,0,1-1.45-2.19,12.12,12.12,0,0,1-.92-2.53,12.9,12.9,0,0,1-.37-2.66c0-.65,0-1.34,0-2.06S306.27,229,306.29,228.3Zm6.62,7.83c0-.27,0-.58,0-.91s0-.68,0-1,0-.7,0-1,0-.64,0-.91a7.36,7.36,0,0,0-.16-1.16,5.9,5.9,0,0,0-.36-1,4.53,4.53,0,0,0-.58-.91,3.17,3.17,0,0,0-.82-.68,1.65,1.65,0,0,0-.81-.26.87.87,0,0,0-.58.24,1.38,1.38,0,0,0-.36.63,3.93,3.93,0,0,0-.16,1c0,.25,0,.54,0,.87s0,.68,0,1,0,.71,0,1.05,0,.66,0,.95a6.12,6.12,0,0,0,.52,2.23,3.43,3.43,0,0,0,1.39,1.57c.63.35,1.09.37,1.39,0A2.7,2.7,0,0,0,312.91,236.13Z" style="fill:#37474f"></path><path d="M324.63,241.3l1-7.29c0-.21.09-.34.18-.38a.31.31,0,0,1,.28,0l2,1.14a.63.63,0,0,1,.23.29.92.92,0,0,1,.1.42,1.49,1.49,0,0,1,0,.17l-1.94,13.54a.64.64,0,0,1-.24.47.44.44,0,0,1-.51,0l-1.25-.72a1.18,1.18,0,0,1-.49-.56,3,3,0,0,1-.27-.76l-1.13-5.89-1.13,4.59a1,1,0,0,1-.26.45.39.39,0,0,1-.49,0l-1.25-.72a1.37,1.37,0,0,1-.51-.57,1.9,1.9,0,0,1-.25-.74l-1.94-15.79a1.91,1.91,0,0,1,0-.2.43.43,0,0,1,.1-.3.18.18,0,0,1,.24,0l2,1.14a.84.84,0,0,1,.29.3,1.47,1.47,0,0,1,.18.59l1,8.4.89-3.69a1.39,1.39,0,0,1,.14-.33c.07-.13.19-.15.37,0l1.42.82a.82.82,0,0,1,.38.47,3.32,3.32,0,0,1,.13.49Z" style="fill:#37474f"></path><path d="M421.81,288.92a.79.79,0,0,1,.28.35,1.2,1.2,0,0,1,.13.51v15a.49.49,0,0,1-.13.37.2.2,0,0,1-.28,0l-2-1.14a.74.74,0,0,1-.28-.35,1.19,1.19,0,0,1-.12-.51v-5.68l-3.35-1.93v5.68a.5.5,0,0,1-.12.37.21.21,0,0,1-.29,0l-2-1.14a.72.72,0,0,1-.29-.34,1.14,1.14,0,0,1-.12-.52v-15a.5.5,0,0,1,.12-.37.22.22,0,0,1,.29,0l2,1.14a.75.75,0,0,1,.29.35,1.19,1.19,0,0,1,.12.51v5.59l3.35,1.94v-5.6a.5.5,0,0,1,.12-.37.22.22,0,0,1,.28,0Z" style="fill:#37474f"></path><path d="M424.73,306.85a.74.74,0,0,1-.28-.35,1.2,1.2,0,0,1-.13-.51V291a.5.5,0,0,1,.13-.37.21.21,0,0,1,.28,0l2,1.14a.74.74,0,0,1,.28.35,1.19,1.19,0,0,1,.12.51v15a.5.5,0,0,1-.12.37.2.2,0,0,1-.28,0Z" style="fill:#37474f"></path><path d="M433.55,299.18a1.65,1.65,0,0,0-.86-.28.85.85,0,0,0-.57.27,1.61,1.61,0,0,0-.32.67,6.45,6.45,0,0,0-.15.93c0,.19,0,.47,0,.82s0,.72,0,1.1,0,.75,0,1.12,0,.66,0,.86a8.42,8.42,0,0,0,.14,1.11,6.11,6.11,0,0,0,.33,1.05,3.85,3.85,0,0,0,.58.92,3.09,3.09,0,0,0,.85.71,2.22,2.22,0,0,0,.74.29.81.81,0,0,0,.6-.1,1,1,0,0,0,.41-.55,3.21,3.21,0,0,0,.15-1.09l-1.27-.74a.75.75,0,0,1-.29-.35,1.19,1.19,0,0,1-.12-.51V303a.5.5,0,0,1,.12-.37.22.22,0,0,1,.29,0l3.65,2.11a.74.74,0,0,1,.28.35,1.19,1.19,0,0,1,.12.51v3a7.18,7.18,0,0,1-.36,2.46,3,3,0,0,1-1,1.43,2.23,2.23,0,0,1-1.49.41,4.25,4.25,0,0,1-1.84-.63,7.25,7.25,0,0,1-1.94-1.61,10.61,10.61,0,0,1-1.45-2.2,12.23,12.23,0,0,1-.93-2.54,12.81,12.81,0,0,1-.37-2.64c0-.65,0-1.33,0-2.06s0-1.42,0-2.07a7.37,7.37,0,0,1,.36-2.22,3.39,3.39,0,0,1,.93-1.47,2.22,2.22,0,0,1,1.45-.52,4,4,0,0,1,1.95.63,7.61,7.61,0,0,1,1.9,1.57,11.5,11.5,0,0,1,1.43,2,12.13,12.13,0,0,1,.92,2.13,7.34,7.34,0,0,1,.36,1.87.35.35,0,0,1-.09.31.19.19,0,0,1-.24,0l-2-1.16a.8.8,0,0,1-.35-.41c-.09-.19-.17-.38-.25-.56a6.09,6.09,0,0,0-.57-1.1A3.13,3.13,0,0,0,433.55,299.18Z" style="fill:#37474f"></path><path d="M448.45,304.3a.84.84,0,0,1,.29.36,1.19,1.19,0,0,1,.12.51v15a.52.52,0,0,1-.12.38.24.24,0,0,1-.29,0l-2-1.14a.8.8,0,0,1-.29-.35,1.19,1.19,0,0,1-.12-.51v-5.69l-3.34-1.93v5.68a.49.49,0,0,1-.13.37.2.2,0,0,1-.28,0l-2-1.14a.72.72,0,0,1-.28-.33,1.21,1.21,0,0,1-.12-.53V300a.52.52,0,0,1,.12-.38.22.22,0,0,1,.28,0l2,1.14a.79.79,0,0,1,.28.35,1.2,1.2,0,0,1,.13.51v5.6l3.34,1.93v-5.59a.48.48,0,0,1,.12-.37.23.23,0,0,1,.29,0Z" style="fill:#37474f"></path><path d="M353.3,101.6a3.71,3.71,0,0,1-.2-.5l-1.42-4.65v7.68a.52.52,0,0,1-.12.38.24.24,0,0,1-.29,0l-2-1.14A.8.8,0,0,1,349,103a1.27,1.27,0,0,1-.12-.52v-15a.48.48,0,0,1,.12-.37.23.23,0,0,1,.29,0l1.75,1a1.1,1.1,0,0,1,.45.52c.1.23.16.39.19.48L354.13,97l2.45-5a1.25,1.25,0,0,1,.19-.25q.15-.18.45,0l1.75,1a.75.75,0,0,1,.29.35,1.19,1.19,0,0,1,.12.51v15a.5.5,0,0,1-.12.37.21.21,0,0,1-.29,0l-2-1.14a.75.75,0,0,1-.29-.35,1.19,1.19,0,0,1-.12-.51V99.29l-1.42,3a.82.82,0,0,1-.2.27c-.08.08-.2.08-.35,0l-1-.56A.82.82,0,0,1,353.3,101.6Z" style="fill:#37474f"></path><path d="M369,111.07a.75.75,0,0,1,.29.35,1.19,1.19,0,0,1,.12.51v2.46a.48.48,0,0,1-.12.37.21.21,0,0,1-.29,0l-7.14-4.12a.75.75,0,0,1-.29-.35,1.19,1.19,0,0,1-.12-.51v-15a.5.5,0,0,1,.12-.37.21.21,0,0,1,.29,0l7,4a.8.8,0,0,1,.29.35,1.19,1.19,0,0,1,.12.51v2.46a.48.48,0,0,1-.12.37.23.23,0,0,1-.29,0l-4.64-2.68V102l4.31,2.49a.74.74,0,0,1,.28.35,1.06,1.06,0,0,1,.12.51v2.46a.46.46,0,0,1-.12.37.2.2,0,0,1-.28,0l-4.31-2.49v2.6Z" style="fill:#37474f"></path><path d="M375.58,102.32a7.57,7.57,0,0,1,1.9,1.57,10.52,10.52,0,0,1,1.48,2.19,11.9,11.9,0,0,1,1,2.62,13,13,0,0,1,.4,2.84c0,.33,0,.63,0,.9V114c0,.26,0,.54,0,.85a8,8,0,0,1-.39,2.39,3.27,3.27,0,0,1-1,1.49,2.11,2.11,0,0,1-1.45.49,3.86,3.86,0,0,1-1.88-.61l-4.07-2.35a.75.75,0,0,1-.29-.35,1.19,1.19,0,0,1-.12-.51v-15a.5.5,0,0,1,.12-.37.24.24,0,0,1,.29,0Zm2,7.52A4.24,4.24,0,0,0,375.5,106L374,105.1v8.82l1.61.93c1.27.73,1.92.22,2-1.53,0-.32,0-.62,0-.91v-1.66C377.57,110.47,377.56,110.17,377.55,109.84Z" style="fill:#37474f"></path><path d="M382.48,122.54a.74.74,0,0,1-.28-.35,1.2,1.2,0,0,1-.13-.51v-15a.5.5,0,0,1,.13-.37.22.22,0,0,1,.28,0l2,1.14a.79.79,0,0,1,.28.35,1.19,1.19,0,0,1,.12.51v15a.48.48,0,0,1-.12.37.2.2,0,0,1-.28,0Z" style="fill:#37474f"></path><path d="M395.62,113.89a.75.75,0,0,1,.29.35,1.19,1.19,0,0,1,.12.51V124a8.85,8.85,0,0,1-.33,2.64,3.1,3.1,0,0,1-.94,1.52,2,2,0,0,1-1.46.42,4.23,4.23,0,0,1-1.85-.64,7.81,7.81,0,0,1-1.87-1.5,10.17,10.17,0,0,1-1.45-2.1,11.5,11.5,0,0,1-.93-2.61,13.31,13.31,0,0,1-.33-3v-9.26a.5.5,0,0,1,.12-.37.22.22,0,0,1,.29,0l2,1.14a.81.81,0,0,1,.29.35,1.19,1.19,0,0,1,.12.51v9.17a6.09,6.09,0,0,0,.44,2.43,3.22,3.22,0,0,0,1.35,1.57c.6.35,1.05.35,1.35,0a3.13,3.13,0,0,0,.44-1.92v-9.17a.5.5,0,0,1,.12-.37.22.22,0,0,1,.29,0Z" style="fill:#37474f"></path><path d="M402.44,130a4.73,4.73,0,0,1-.2-.5l-1.42-4.64v7.68a.5.5,0,0,1-.12.37.21.21,0,0,1-.28,0l-2-1.14a.79.79,0,0,1-.28-.35,1.2,1.2,0,0,1-.13-.51v-15a.5.5,0,0,1,.13-.37.2.2,0,0,1,.28,0l1.75,1a1,1,0,0,1,.45.51c.1.23.17.39.2.49l2.44,7.83,2.44-5a1.39,1.39,0,0,1,.2-.26q.15-.16.45,0l1.75,1a.79.79,0,0,1,.28.35,1.19,1.19,0,0,1,.12.51v15a.48.48,0,0,1-.12.37.2.2,0,0,1-.28,0l-2-1.14a.74.74,0,0,1-.28-.35,1.19,1.19,0,0,1-.12-.51v-7.68l-1.42,3a1.05,1.05,0,0,1-.2.27c-.09.08-.21.08-.36,0l-1-.55A1,1,0,0,1,402.44,130Z" style="fill:#37474f"></path><polygon points="301.54 183.97 299.64 185.06 379.99 254.92 381.89 253.82 387.79 246.39 301.54 183.97" style="fill:#0FBCF9"></polygon><polygon points="301.54 183.97 299.64 185.06 379.99 254.92 381.89 253.82 387.79 246.39 301.54 183.97" style="opacity:0.2"></polygon><polygon points="385.89 247.49 387.79 246.39 381.89 253.82 379.99 254.92 385.89 247.49" style="opacity:0.2"></polygon><polygon points="299.64 185.06 379.99 254.92 385.89 247.49 299.64 185.06" style="fill:#0FBCF9"></polygon><path d="M359.34,234.65a1.71,1.71,0,0,0,.71-1.58,5.4,5.4,0,0,0-2.45-4.25,1.71,1.71,0,0,0-1.73-.17l-2.2,1.28a1.73,1.73,0,0,0-.72,1.59,5.42,5.42,0,0,0,2.45,4.24,1.71,1.71,0,0,0,1.73.17Z" style="fill:#263238"></path><path d="M353,231.52a1.73,1.73,0,0,1,.72-1.59,1.71,1.71,0,0,1,1.73.17,5.4,5.4,0,0,1,2.45,4.25,1.49,1.49,0,0,1-2.45,1.41A5.42,5.42,0,0,1,353,231.52Z" style="fill:#37474f"></path></g><g id="freepik--Character--inject-393"><g id="freepik--character--inject-393"><g id="freepik--Bottom--inject-393"><g id="freepik--bottom--inject-393"><polygon points="151.76 416.86 155.72 414.94 151.83 413.82 151.76 416.86" style="fill:#263238"></polygon><path d="M190.82,424.44s-46.38-21.44-47-18.29a4.44,4.44,0,0,0,0,1.89l-.13-.17.82,5.89a13.78,13.78,0,0,0,7.22,3.1c0-.28.05-2,.07-3a23.72,23.72,0,0,1,4.09,2.21c3,2,4.87,5.5,8,9.55,2.28,3,6.39,4.36,12.47,5.27,6.55,1,12.34-.25,14-2C191.69,427.45,191.06,424.85,190.82,424.44Z" style="fill:#263238"></path><path d="M189.55,423.34c-.45-.48-2.1-2.33-4.33-4.35-1.95-1.76-4.22-4-6.67-5.8a25.82,25.82,0,0,1-3.32-2.79,33.36,33.36,0,0,1-2.29-2.75,51.2,51.2,0,0,1-5.56-9.62,22.74,22.74,0,0,1-1.92-5,31.67,31.67,0,0,1-.51-5.59c0-8.45.18-9.79.26-16.21l-19.66.51c.62,3.57,1.57,8.45,1.88,12.5.48,6.16.63,7.53-1.8,13.65-.71,1.81-1.77,3.54-1.88,5.48-.17,3.15,2.28,5.88,5,7.44,2.27,1.29,4.89,1.86,7.09,3.24a22.81,22.81,0,0,1,5.75,5.76c1.56,2,2.8,4.42,5,5.85,2.42,1.58,4.74,2.09,7.56,2.69a40.76,40.76,0,0,0,10.18.58C189.17,428.54,192.78,426.79,189.55,423.34Z" style="fill:#ffa8a7"></path><path d="M186.9,419.88c-2-1.71-4.82-4.16-8.23-6.91a8.69,8.69,0,0,0-7.22.61c-6.94,3.6-8.15,8.78-8.15,8.78a9.94,9.94,0,0,0,5.6,5c8,3.56,22.27,2.55,22.43-1.15C191.44,423.85,189.32,422,186.9,419.88Zm-40.82-23.37s-.47,1.21-1.71,3.58-1.48,4.75,0,7.14a10.59,10.59,0,0,0,7,4.83C153.63,405.06,148.85,398.05,146.08,396.51Z" style="fill:#37474f"></path><path d="M109.79,405.83c1.31,2.12-.39,10.1-.09,15.78.27,5.16,1.65,14.16.06,19.26-1.88,6.05-5.7,13.06-12.81,7.4-4.4-3.51-6.92-8-7.53-15.48-.41-5.16,1.65-12.31,3.42-18.65,2.07-7.4,2.85-11.35,2.85-11.35Z" style="fill:#263238"></path><path d="M95.2,367.74c-.51,12.05.89,20.5,1,28.22a53.4,53.4,0,0,1-1.09,10.41c-1,4.92-2.73,11.76-3.45,14.95-1,4.46-1.78,7.27-.24,12.27a5.69,5.69,0,0,0,.51,1.13c2.15,4.11,7.62,7.23,9.37,6.73a3,3,0,0,0,3.08,1.07,4.43,4.43,0,0,0,.58-.14,4.66,4.66,0,0,0,.58-.23,6,6,0,0,0,2.92-3.79c.1-.34.2-.7.28-1.09,1.27-6.21.35-10.21.23-12.64-.14-2.8,0-6.37.27-10.89s1.32-18.7,2.89-25.49c1.17-4.73,2.62-10.67,4.15-17Z" style="fill:#ffa8a7"></path><path d="M90.56,427.12c4.31-1.9,16.82-2.16,18.81,3.92,0,5.73.09,9.62-3.53,14.61-4.81,6.62-11.09-.4-13.49-4.86S90,430.21,90.56,427.12Z" style="fill:#37474f"></path><path d="M111.5,210.44c-6.09,10.92-11,20.12-12.59,49-1.79,32.55-1.52,44.95-1.68,48.88s-2.68,11.13-4.83,30.48.11,66.25.11,66.25,1.52,3.16,8.92,3.87c6.83.66,10.83-1.73,10.83-1.73s10.85-61.59,13.53-73.23S136.27,284,136.27,284l4.24,31.13s-2.16,10.67-.21,27.66,5.79,51.27,5.79,51.27a38.91,38.91,0,0,0,10.35,2.67,25.06,25.06,0,0,0,11.47-1.33s5.74-69.17,5.88-88.42-1.35-67.26-7.2-95.8Z" style="fill:#455a64"></path><path d="M142.64,247l-6.37,37,4.24,31.13-1.67-31.53,5.67-30.32c4.65-1.08,15.25-6.57,18.21-14.49C155.51,246.21,142.64,247,142.64,247Zm-21.53-21.79c.84-3.11,1.72-6.19,2.72-9.3a45.8,45.8,0,0,0-4.24,8.81,85.17,85.17,0,0,0-2.85,9.34c-.76,3.17-1.4,6.36-1.84,9.58a63.34,63.34,0,0,0-.71,9.73c.8-3.16,1.54-6.29,2.29-9.43s1.46-6.27,2.25-9.39S120.28,228.35,121.11,225.25Zm-4.65-2.37c1.06-1.89,2.13-3.78,3.11-5.78a33.85,33.85,0,0,0-4.44,4.91,46.93,46.93,0,0,0-3.62,5.53,41.93,41.93,0,0,0-2.76,6,26,26,0,0,0-1.54,6.46l3-5.81c1-1.9,2-3.8,3.09-5.68S115.41,224.78,116.46,222.88ZM111.7,346.42q-2.82,15-5.24,30.1,3.6-14.86,6.8-29.78c2.17-9.95,4.22-19.89,6.25-29.91s3.21-20.16,4.27-30.29,1.88-20.29,2.57-30.45c-1.47,10.08-2.81,20.17-4.15,30.26s-2.78,20.14-4.71,30.1S113.54,336.41,111.7,346.42Zm53-50.24c.17,4.42.4,8.86.29,13.22s-.42,8.82-.68,13.24l-.76,13.27q-.78,13.27-1.25,26.58Q164,349.28,165.14,336c.79-8.85,1.53-17.65,1.89-26.58,0-9-.65-17.79-1.38-26.65s-1.76-17.67-3.06-26.45l1.47,26.56C164.27,287.34,164.52,291.76,164.69,296.18Z" style="fill:#37474f"></path></g></g><g id="freepik--Top--inject-393"><path d="M115.09,101.52c-6,3.78-5.8,9.1-5.83,22s.78,48.15.78,48.15l46.24-.27L156,117.74s4.23-6,3.67-12.16-4.28-14.15-15.38-16.44C135,87.23,117.33,89.29,115.09,101.52Z" style="fill:#263238"></path><g id="freepik--Arm--inject-393"><path d="M149.89,148.87c10.84,1.87,12.45,3.42,18.25,9.94,7.21,8.1,8.89,10,19.46,20.74l32.92-10.49v17.68s-23.15,11-30.89,13.59c-5.8,2-9.09-.73-13.64-4.93-7-6.43-21.08-19.71-21.08-19.71Z" style="fill:#0FBCF9"></path><g style="opacity:0.15"><path d="M149.89,148.87c10.84,1.87,12.45,3.42,18.25,9.94,7.21,8.1,8.89,10,19.46,20.74l32.92-10.49v17.68s-23.15,11-30.89,13.59c-5.8,2-9.09-.73-13.64-4.93-7-6.43-21.08-19.71-21.08-19.71Z"></path></g><g id="freepik--Tablet--inject-393"><path d="M229.2,146h0l-1.87-.91v0a1.79,1.79,0,0,0-1.61.24L184.28,169.4a6.27,6.27,0,0,0-2.78,4.43l-2.82,37.27a1.62,1.62,0,0,0,.68,1.68h0l1.92.94v0a1.78,1.78,0,0,0,1.62-.23l41.48-24.06a6.25,6.25,0,0,0,2.78-4.43c.55-7.32,2.27-29.94,2.82-37.26C230,146.81,229.73,146.21,229.2,146Z" style="fill:#455a64"></path><path d="M184.61,171.73a6.27,6.27,0,0,0-1.24,3L180.55,212a1.68,1.68,0,0,0,.61,1.67l-1.8-.87v0a1.6,1.6,0,0,1-.69-1.68l2.82-37.28a6,6,0,0,1,1.13-2.83Z" style="fill:#263238"></path><path d="M180.55,212l2.82-37.27a6.27,6.27,0,0,1,2.78-4.43l41.48-24.05c1.41-.82,2.46-.16,2.34,1.47-.55,7.32-2.27,29.94-2.82,37.26a6.25,6.25,0,0,1-2.78,4.43l-41.48,24.06C181.48,214.29,180.43,213.64,180.55,212Z" style="fill:#37474f"></path><path d="M185.28,181.9l.53-7a1.18,1.18,0,0,1,.52-.83l2.86-1.65c.26-.15.46,0,.43.28-.1,1.37-.42,5.6-.52,7a1.19,1.19,0,0,1-.52.83l-2.86,1.65C185.46,182.32,185.26,182.2,185.28,181.9Z" style="fill:#455a64"></path><path d="M186.36,176.41a3,3,0,0,1,1.35-2.06c.68-.4,1.19-.11,1.13.63A3,3,0,0,1,187.5,177C186.82,177.43,186.31,177.15,186.36,176.41Z" style="fill:#263238"></path><path d="M186.14,179.92a3,3,0,0,1,1.34-2.06c.68-.4,1.19-.12,1.13.63a2.92,2.92,0,0,1-1.34,2.06C186.59,180.94,186.08,180.66,186.14,179.92Z" style="fill:#263238"></path><path d="M231.39,169.29c1.12-2.42.92-2.68-.11-3.61a6.84,6.84,0,0,0-6-1.75c-1.86.42-3.76.74-4.63,1.42s.34,2.56,2.89,2.64c4,.13,4.18,1.18,4.18,1.18a47.26,47.26,0,0,0-5.13.08,35.62,35.62,0,0,0-5.47,1.93c-1.57.56-1.49,2.71,1.39,2.91l-2.88,1c-2,.73-2.51,2-.63,3a3.1,3.1,0,0,0,2,.34s-2.22.43-2.12,1.17c.27,2.14,1.75,2.43,6.47,2.87,4.5.42,5.82,2.55,5.28,4.3,0,0,1.52-1.33,2.85-2.68,1-1,1.76-2,.92-3.7,0,0,2.45-.41,2.31-1.95a7.88,7.88,0,0,0-1.21-3.12,2.71,2.71,0,0,0,.86-2.76,4.41,4.41,0,0,0-1.39-2.48Z" style="fill:#ffa8a7"></path><path d="M218.52,174.09a13.28,13.28,0,0,1,2.64-.81,8.93,8.93,0,0,1,2.77.33,31.82,31.82,0,0,1,5.19,1.62,33.05,33.05,0,0,1-5.36-.84,14.74,14.74,0,0,0-2.56-.49C220.37,173.92,219.43,174.09,218.52,174.09Z" style="fill:#f28f8f"></path><path d="M217,178.42a6,6,0,0,1,2.9-.64,16.16,16.16,0,0,1,2.95.34,28.61,28.61,0,0,1,5.6,1.75,56.71,56.71,0,0,1-5.76-1A15.41,15.41,0,0,0,217,178.42Z" style="fill:#f28f8f"></path></g></g><path id="freepik--Chest--inject-393" d="M103.45,225c-5.84-2.75.55-6.61,1.83-24.49.33-4.62-1.22-16.05-1.22-16.05s10.16-11.72,7.46-34l19.93-2.65,13,.1,8.26,2.45c2.8,2.51,7.93,6.48,12,12.5,5.87,8.68,6.76,18.11.42,25-.09,1.37.79,22.29,2.5,27.41,1.59,4.75,1.92,5.28-.63,7.4C158.93,228.51,113.81,228.93,103.45,225Z" style="fill:#fafafa"></path><path d="M144.43,147.88l8.26,1.42c7.83,6.18,17.07,17.23,17.42,25.59a43.7,43.7,0,0,1-1.46,14s-.89,17.31.86,26.32S175.38,246,175.38,246a26.36,26.36,0,0,1-11.17,6.33c-1.79-11.55-5.94-55.13-5.45-65.25S159.78,161,144.43,147.88Z" style="fill:#0FBCF9"></path><path d="M144.43,147.88l8.26,1.42c7.83,6.18,17.07,17.23,17.42,25.59a43.7,43.7,0,0,1-1.46,14s-.89,17.31.86,26.32S175.38,246,175.38,246a26.36,26.36,0,0,1-11.17,6.33c-1.79-11.55-5.94-55.13-5.45-65.25S159.78,161,144.43,147.88Z" style="opacity:0.30000000000000004"></path><path d="M159.91,191.84c.71-2.67,1.49-5.33,2.28-8s1.55-5.31,2.27-8a32,32,0,0,0,.84-4c.23-1.26-.65-2.34-1.52-3.36a37.83,37.83,0,0,0-6.26-5.27l-.2-.14.05-.25a13.46,13.46,0,0,0,.07-4.39,11.44,11.44,0,0,0-1.44-4.17,13,13,0,0,0-3-3.25,21.2,21.2,0,0,0-3.86-2.38,18.33,18.33,0,0,1,4,2.14,12.18,12.18,0,0,1,3.3,3.22,11.86,11.86,0,0,1,1.67,4.33,13.09,13.09,0,0,1,0,4.67l-.16-.39a35.42,35.42,0,0,1,6.46,5.34,9,9,0,0,1,1.26,1.76,3,3,0,0,1,.24.51,2.09,2.09,0,0,1,.16.57,4,4,0,0,1,0,1.14,32.67,32.67,0,0,1-.92,4.11c-.73,2.68-1.63,5.3-2.51,7.92S160.82,189.23,159.91,191.84Z" style="opacity:0.2"></path><path d="M122.44,148.78s3.39,4.56,7.78,15.2,8.63,20.32,8.35,30.08S134,260,134,260a98.26,98.26,0,0,1-26.92,0l1.26-18.41-6,18s-.39,1.44-7.25-1.46c4-16.1,7.75-41.52,8.27-51.17s1.47-55.7,1.47-55.7Z" style="fill:#0FBCF9"></path><path d="M122.44,148.78s3.39,4.56,7.78,15.2,8.63,20.32,8.35,30.08S134,260,134,260a98.26,98.26,0,0,1-26.92,0l1.26-18.41-6,18s-.39,1.44-7.25-1.46c4-16.1,7.75-41.52,8.27-51.17s1.47-55.7,1.47-55.7Z" style="opacity:0.30000000000000004"></path><path d="M136.66,196.93A22.58,22.58,0,0,0,133,190.1c-1.52-2.11-3.2-4.1-4.93-6.06-.85-1-1.72-2-2.59-2.93l-1.32-1.46c-.22-.26-.43-.48-.66-.77a1.24,1.24,0,0,1-.17-.24c-.06-.12-.11-.24-.16-.37a2.54,2.54,0,0,1-.06-.66,11.72,11.72,0,0,1,1.45-3.86c.65-1.17,1.34-2.29,2.08-3.4l0,.65-3.91-4.13-2-2.08-.48-.52-.24-.26a2.32,2.32,0,0,1-.33-.42,2.11,2.11,0,0,1-.09-.89c0-.26.06-.51.1-.75a43,43,0,0,1,1.48-5.57c.6-1.81,1.21-3.62,1.91-5.4-.5,1.85-1,3.68-1.46,5.53a54.89,54.89,0,0,0-1.18,5.55,3.44,3.44,0,0,0,0,1.2c-.07-.11,0,.05.13.12l.25.25.51.51,2,2,4,4.11.28.29-.23.36c-.7,1.07-1.37,2.19-2,3.33a11.5,11.5,0,0,0-1.37,3.42,2.69,2.69,0,0,0,0,.31s0,.05,0,.08.08.11.11.16c.17.23.41.49.61.73l1.29,1.47c.87,1,1.73,2,2.57,3a78.7,78.7,0,0,1,4.7,6.34,29.84,29.84,0,0,1,1.95,3.44A13.76,13.76,0,0,1,136.66,196.93Z" style="opacity:0.2"></path><g id="freepik--arm--inject-393"><path d="M145.67,178.85c3.74-2.79,5.62-3.86,7.37-4.36s7.85-3,10.19-3.62c1.49-.37,2.09,2,.2,3.62-1.46,1.26-5.25,2.9-6.91,3.81s-4.93,4.87-4.93,4.87Z" style="fill:#f28f8f"></path><path d="M93.17,160.68c3.7-7.9,6.86-8.66,15.83-9.7,8.43,8.23,1.59,26.62,1.59,26.62l-4.08,19.33s21.9-3.17,24.43-4.79,9.3-8.9,11.58-11.09c3.1-3,4.63-2.57,6.2-2.33,5.16.77,6.29,1.2,7.38,1.9a2.32,2.32,0,0,1,1,2c1.37.17,3.41.13,3.68,2.38a6.46,6.46,0,0,1,.08,1.8,1.49,1.49,0,0,1,.89.51c1.14,1.32-.81,5.88-2.06,7-.87.78-2.11.88-3.74.65-1.38-.18-.74-1.59-.74-1.59l-1.94.11c-4.19,3-4.4,8.88-9.94,10.17a38.84,38.84,0,0,0-6.77,1.32c-11.92,4-31.47,16.15-42.1,17.06-10.37.89-10.08-4.63-10.24-11C84.08,205.38,89.47,168.55,93.17,160.68Z" style="fill:#ffa8a7"></path><path d="M120.27,194.64l7.87-1.65s-1.6,1.66-1.13,7,3.54,7.51,3.54,7.51l-11.43,5.56Z" style="fill:#fafafa"></path><path d="M107,194.76l-.45,2.17c-4.72,1.22-10.26,7.45-11.4,10C96,202.87,98.64,197,107,194.76Z" style="fill:#f28f8f"></path><path d="M109.34,150.58s-1.5.14-4.43.6-7.14,1-10.32,6-3.41,7.14-5.26,15.69-5,28.4-5.43,35.8.4,10.83,2.25,12.35,6.19,2.71,12.58.7,25.33-9.58,25.33-9.58-2.44.15-3.22-7.06.85-10.8.85-10.8L107,196.54l4.6-19.9S117.82,157,109.34,150.58Z" style="fill:#0FBCF9"></path><path d="M109.34,150.58s-1.5.14-4.43.6-7.14,1-10.32,6-3.41,7.14-5.26,15.69-5,28.4-5.43,35.8.4,10.83,2.25,12.35,6.19,2.71,12.58.7,25.33-9.58,25.33-9.58-2.44.15-3.22-7.06.85-10.8.85-10.8L107,196.54l4.6-19.9S117.82,157,109.34,150.58Z" style="opacity:0.15"></path><path d="M107,196.54A16.21,16.21,0,0,0,95.35,206c1.61-8.22,8-11.64,12.21-12.12Z" style="opacity:0.15"></path><path d="M157.1,182.62,151,181.39l6,.39A2.49,2.49,0,0,1,157.1,182.62Z" style="fill:#f28f8f"></path><path d="M160.86,186.8l-7-.91,7.05.09A3.77,3.77,0,0,1,160.86,186.8Z" style="fill:#f28f8f"></path><path d="M159.93,189.9a2.17,2.17,0,0,1-1,.82,4.26,4.26,0,0,1-1.2.41l.09-.06c-.18.37-.38.73-.59,1.09l-.14-.19a1.47,1.47,0,0,1,1.12.27,1.87,1.87,0,0,1,.61.92,2.11,2.11,0,0,0-.72-.76,1.41,1.41,0,0,0-1-.18l-.27.06.12-.25.59-1.09,0-.05.07,0a6.16,6.16,0,0,0,1.17-.32A2.58,2.58,0,0,0,159.93,189.9Z" style="fill:#f28f8f"></path><path d="M158.06,190.81a23.08,23.08,0,0,1-2.55.18,2.74,2.74,0,0,1-.87,1.35,13.65,13.65,0,0,1-1.37,1.14l1.94-.11a3.09,3.09,0,0,1,2.22-1.2Z" style="fill:#f28f8f"></path></g><g id="freepik--Head--inject-393"><g id="freepik--head--inject-393"><g id="freepik--head--inject-393"><path d="M120.69,133.15a6.88,6.88,0,0,1-6.22-2.37c-3.28-3.6-3.59-7.27-2.07-9.72,1.26-2,4.35-3.29,6.52-1.93s2.39,2.63,3.27,4.27,3.13.36,2.37-6.24c4.5-2.12,3.77-9.66,6.21-12.74,3.8-4.82,10.08-3.57,12.12-2.44a8.16,8.16,0,0,1,8.54-.56c3,1.62,5,5,6.12,16.75,1.09,12-1,19.91-3.72,22.45-1.9,1.74-5.43,2.92-9.63,2.68l0,4.5s12.14,12.66-3.34,11.52a24.34,24.34,0,0,1-17.54-9.93l-.1-18.12S123,132.71,120.69,133.15Z" style="fill:#ffa8a7"></path><path d="M146.1,131a3.46,3.46,0,1,1-6.78-1.34Z" style="fill:#b16668"></path><path d="M139.3,130.81a3.45,3.45,0,0,0,2.74,2.93,3.57,3.57,0,0,0,1.22,0A3.49,3.49,0,0,0,139.3,130.81Z" style="fill:#f28f8f"></path><path d="M139.16,119.22a2,2,0,1,1-1.28-2.54A2,2,0,0,1,139.16,119.22Z" style="fill:#263238"></path><path d="M155.05,111.58l-4.16-2.23a2.26,2.26,0,0,1,3.12-1A2.48,2.48,0,0,1,155.05,111.58Z" style="fill:#263238"></path><path d="M150.26,118.7a2,2,0,1,0,1.15-2.61A2,2,0,0,0,150.26,118.7Z" style="fill:#263238"></path><path d="M136.64,110l-4.44,2.41a2.42,2.42,0,0,1,.93-3.39A2.65,2.65,0,0,1,136.64,110Z" style="fill:#263238"></path><path d="M160.19,112.66l-.89-.06c-2.85-.17-6.57-.09-8.76.67-2.75,1-3.68,1.92-5.23,2s-2.77-.81-5.82-1.51c-2.42-.54-6.38-.28-9.4.15l-.94.15a1.42,1.42,0,0,0-.94,1.56,3.52,3.52,0,0,0,1,1.72,2.08,2.08,0,0,1,.35.69c.41,1.21.76,3.54,1.47,4.81a6.46,6.46,0,0,0,1.32,1.69,5,5,0,0,0,.65.48l.37.22a5.76,5.76,0,0,0,1.09.44l.18,0,.28.07.3,0a6.77,6.77,0,0,0,.94.1l.4,0h.5c3.86-.16,5.35-2,6.18-3.9s.42-4.47,2.19-4.54a.48.48,0,0,1,.17,0h.16c1.34.24,1.34,2.63,2.28,4.32a7.42,7.42,0,0,0,1.38,1.82l.32.27.17.13.18.13.16.1.17.1.14.08.1,0a5.68,5.68,0,0,0,1.57.53l.14,0a8.78,8.78,0,0,0,1.89.09c3.61-.17,4.72-2.28,5.22-3.61a29.24,29.24,0,0,0,.78-4.91,1.45,1.45,0,0,1,.29-.65,3.21,3.21,0,0,0,.69-1.83A1.54,1.54,0,0,0,160.19,112.66Zm-18,7.7A5.26,5.26,0,0,1,141,123h0a5.36,5.36,0,0,1-4.11,1.65,4.89,4.89,0,0,1-4.16-1.69l-.14-.18-.13-.18-.11-.16-.09-.15a.75.75,0,0,1-.07-.12.41.41,0,0,1-.06-.11,1.62,1.62,0,0,1-.1-.18h0c-.09-.19-.17-.36-.24-.53v0a2,2,0,0,1-.12-.31c-.07-.19-.12-.36-.17-.52l0-.1,0-.09c-.38-1.27-.9-3.79-.28-4.38s2.34-1.27,5.23-1.13h.31c.44,0,.88.09,1.32.17.18,0,.35.06.52.09.46.1.9.22,1.3.35l.4.14.44.18.09,0,.16.07a2.61,2.61,0,0,1,.9.64C142.44,117.24,142.38,118.92,142.15,120.36Zm16.7-1.29c-.15,1-.49,3.2-2.43,4.24a5.17,5.17,0,0,1-2.11.55,4.86,4.86,0,0,1-4.42-1.74v0l-.09-.11-.09-.13,0-.07c0-.07-.09-.14-.12-.2l-.14-.24-.06-.11,0-.06a1,1,0,0,0,0-.1.21.21,0,0,1,0-.07,6.28,6.28,0,0,1-.35-1c-.38-1.42-.65-3.07-.16-3.89s2.54-1.77,4.56-2.11c.47-.08.91-.13,1.32-.16h1.16l.37,0a6.19,6.19,0,0,1,.66.09l.16,0h0l.11,0,.16,0,.2.05.32.11.06,0a2.56,2.56,0,0,1,.73.4C159.23,115.22,159.05,117.77,158.85,119.07Z" style="fill:#37474f"></path><path d="M151.4,125l-6.55,2.84-1-7.87c.24-1.26.46-2.35,1.53-2.46Z" style="fill:#f28f8f"></path><path d="M129,114.29l-10.1,4.84a10.6,10.6,0,0,1,1.56,1.25l8.8-4Z" style="fill:#37474f"></path></g></g><path d="M144.2,143.3c-6-.22-14.17-2.37-16.34-6.28,1.21,4.21,5.47,6.39,8.88,7.35a35.23,35.23,0,0,0,7.42,1.28Z" style="fill:#f28f8f"></path></g></g></g></g><g id="freepik--speech-bubble--inject-393"><g id="freepik--speech-bubble--inject-393"><g id="freepik--speech-bubble--inject-393"><path d="M219.38,71.49A26.14,26.14,0,0,0,208.21,87.2l-.55,3A26.22,26.22,0,0,0,258.79,101l.69-2.92a26.21,26.21,0,0,0-40.1-26.61Z" style="fill:#fff"></path><path d="M218.16,69.63a28.51,28.51,0,0,0-10.61,35.18L202.38,112a1.65,1.65,0,0,0,1.68,2.58l8.65-1.81a28.46,28.46,0,1,0,5.45-43.12Zm37.52,9.57a26.15,26.15,0,0,1,3.8,18.9l-.69,2.92a26.22,26.22,0,0,1-51.13-10.87l.55-3a26.23,26.23,0,0,1,47.47-8Z" style="fill:#455a64"></path><path d="M255.68,79.2a26.15,26.15,0,0,1,3.8,18.9l-.69,2.92a26.22,26.22,0,0,1-51.13-10.87l.55-3a26.23,26.23,0,0,1,47.47-8Z" style="fill:#fff;opacity:0.7000000000000001"></path></g><g id="freepik--Check--inject-393"><path d="M230,107.33a3.81,3.81,0,0,1-2.76-1.19L218.69,97a3.77,3.77,0,1,1,5.51-5.16l5.57,5.94L242.93,81.1a3.78,3.78,0,1,1,5.93,4.68L233,105.9a3.82,3.82,0,0,1-2.81,1.43Z" style="fill:#0FBCF9"></path></g></g></g></svg>
